%TF.GenerationSoftware,KiCad,Pcbnew,10.0.5*%
%TF.CreationDate,2026-07-30T00:16:46+01:00*%
%TF.ProjectId,rmc-pizz-arco,726d632d-7069-47a7-9a2d-6172636f2e6b,rev?*%
%TF.SameCoordinates,Original*%
%TF.FileFunction,Other,User*%
%FSLAX46Y46*%
G04 Gerber Fmt 4.6, Leading zero omitted, Abs format (unit mm)*
G04 Created by KiCad (PCBNEW 10.0.5) date 2026-07-30 00:16:46*
%MOMM*%
%LPD*%
G01*
G04 APERTURE LIST*
%ADD10C,0.050000*%
G04 APERTURE END LIST*
%TO.C,R506*%
D10*
X34320000Y-62250000D02*
X37680000Y-62250000D01*
X37680000Y-64150000D01*
X34320000Y-64150000D01*
X34320000Y-62250000D01*
%TO.C,R403*%
X21350000Y-50050000D02*
X23250000Y-50050000D01*
X23250000Y-53410000D01*
X21350000Y-53410000D01*
X21350000Y-50050000D01*
%TO.C,U7*%
X54300000Y-98040000D02*
X55800000Y-98040000D01*
X54300000Y-102960000D02*
X54300000Y-98040000D01*
X55800000Y-97800000D02*
X60200000Y-97800000D01*
X55800000Y-98040000D02*
X55800000Y-97800000D01*
X55800000Y-102960000D02*
X54300000Y-102960000D01*
X55800000Y-103200000D02*
X55800000Y-102960000D01*
X60200000Y-97800000D02*
X60200000Y-98040000D01*
X60200000Y-98040000D02*
X61700000Y-98040000D01*
X60200000Y-102960000D02*
X60200000Y-103200000D01*
X60200000Y-103200000D02*
X55800000Y-103200000D01*
X61700000Y-98040000D02*
X61700000Y-102960000D01*
X61700000Y-102960000D02*
X60200000Y-102960000D01*
%TO.C,C104*%
X44300000Y-6220000D02*
X47700000Y-6220000D01*
X47700000Y-8180000D01*
X44300000Y-8180000D01*
X44300000Y-6220000D01*
%TO.C,R305*%
X39320000Y-43550000D02*
X42680000Y-43550000D01*
X42680000Y-45450000D01*
X39320000Y-45450000D01*
X39320000Y-43550000D01*
%TO.C,JP1*%
X67350000Y-18530000D02*
X67350000Y-21030000D01*
X67350000Y-18530000D02*
X70650000Y-18530000D01*
X70650000Y-21030000D02*
X67350000Y-21030000D01*
X70650000Y-21030000D02*
X70650000Y-18530000D01*
%TO.C,C102*%
X39300000Y-6220000D02*
X42700000Y-6220000D01*
X42700000Y-8180000D01*
X39300000Y-8180000D01*
X39300000Y-6220000D01*
%TO.C,C103*%
X44300000Y-15520000D02*
X47700000Y-15520000D01*
X47700000Y-17480000D01*
X44300000Y-17480000D01*
X44300000Y-15520000D01*
%TO.C,C202*%
X39300000Y-20220000D02*
X42700000Y-20220000D01*
X42700000Y-22180000D01*
X39300000Y-22180000D01*
X39300000Y-20220000D01*
%TO.C,R405*%
X39320000Y-57550000D02*
X42680000Y-57550000D01*
X42680000Y-59450000D01*
X39320000Y-59450000D01*
X39320000Y-57550000D01*
%TO.C,C302*%
X39300000Y-34220000D02*
X42700000Y-34220000D01*
X42700000Y-36180000D01*
X39300000Y-36180000D01*
X39300000Y-34220000D01*
%TO.C,C506*%
X28800000Y-62220000D02*
X32200000Y-62220000D01*
X32200000Y-64180000D01*
X28800000Y-64180000D01*
X28800000Y-62220000D01*
%TO.C,R304*%
X34320000Y-43550000D02*
X37680000Y-43550000D01*
X37680000Y-45450000D01*
X34320000Y-45450000D01*
X34320000Y-43550000D01*
%TO.C,J9*%
X2230000Y-98730000D02*
X5770000Y-98730000D01*
X5770000Y-104820000D01*
X2230000Y-104820000D01*
X2230000Y-98730000D01*
%TO.C,R602*%
X9550000Y-80867000D02*
X11450000Y-80867000D01*
X11450000Y-84227000D01*
X9550000Y-84227000D01*
X9550000Y-80867000D01*
%TO.C,U4*%
X23300000Y-50540000D02*
X24800000Y-50540000D01*
X23300000Y-55460000D02*
X23300000Y-50540000D01*
X24800000Y-50300000D02*
X29200000Y-50300000D01*
X24800000Y-50540000D02*
X24800000Y-50300000D01*
X24800000Y-55460000D02*
X23300000Y-55460000D01*
X24800000Y-55700000D02*
X24800000Y-55460000D01*
X29200000Y-50300000D02*
X29200000Y-50540000D01*
X29200000Y-50540000D02*
X30700000Y-50540000D01*
X29200000Y-55460000D02*
X29200000Y-55700000D01*
X29200000Y-55700000D02*
X24800000Y-55700000D01*
X30700000Y-50540000D02*
X30700000Y-55460000D01*
X30700000Y-55460000D02*
X29200000Y-55460000D01*
%TO.C,U3*%
X23300000Y-36540000D02*
X24800000Y-36540000D01*
X23300000Y-41460000D02*
X23300000Y-36540000D01*
X24800000Y-36300000D02*
X29200000Y-36300000D01*
X24800000Y-36540000D02*
X24800000Y-36300000D01*
X24800000Y-41460000D02*
X23300000Y-41460000D01*
X24800000Y-41700000D02*
X24800000Y-41460000D01*
X29200000Y-36300000D02*
X29200000Y-36540000D01*
X29200000Y-36540000D02*
X30700000Y-36540000D01*
X29200000Y-41460000D02*
X29200000Y-41700000D01*
X29200000Y-41700000D02*
X24800000Y-41700000D01*
X30700000Y-36540000D02*
X30700000Y-41460000D01*
X30700000Y-41460000D02*
X29200000Y-41460000D01*
%TO.C,R406*%
X34320000Y-48250000D02*
X37680000Y-48250000D01*
X37680000Y-50150000D01*
X34320000Y-50150000D01*
X34320000Y-48250000D01*
%TO.C,C305*%
X44300000Y-37020000D02*
X47700000Y-37020000D01*
X47700000Y-38980000D01*
X44300000Y-38980000D01*
X44300000Y-37020000D01*
%TO.C,J5*%
X4730000Y-60230000D02*
X8270000Y-60230000D01*
X8270000Y-68850000D01*
X4730000Y-68850000D01*
X4730000Y-60230000D01*
%TO.C,C901*%
X64300000Y-57020000D02*
X67700000Y-57020000D01*
X67700000Y-58980000D01*
X64300000Y-58980000D01*
X64300000Y-57020000D01*
%TO.C,C206*%
X28800000Y-20220000D02*
X32200000Y-20220000D01*
X32200000Y-22180000D01*
X28800000Y-22180000D01*
X28800000Y-20220000D01*
%TO.C,C701*%
X26200000Y-99450000D02*
X26200000Y-101550000D01*
X26200000Y-101550000D02*
X27450000Y-101550000D01*
X27450000Y-98100000D02*
X27450000Y-99450000D01*
X27450000Y-98100000D02*
X28600000Y-96950000D01*
X27450000Y-99450000D02*
X26200000Y-99450000D01*
X27450000Y-101550000D02*
X27450000Y-102900000D01*
X27450000Y-102900000D02*
X28600000Y-104050000D01*
X28600000Y-96950000D02*
X34550000Y-96950000D01*
X28600000Y-104050000D02*
X34550000Y-104050000D01*
X34550000Y-96950000D02*
X34550000Y-99450000D01*
X34550000Y-99450000D02*
X35800000Y-99450000D01*
X34550000Y-101550000D02*
X34550000Y-104050000D01*
X35800000Y-99450000D02*
X35800000Y-101550000D01*
X35800000Y-101550000D02*
X34550000Y-101550000D01*
%TO.C,R704*%
X50320000Y-97645000D02*
X53680000Y-97645000D01*
X53680000Y-99545000D01*
X50320000Y-99545000D01*
X50320000Y-97645000D01*
%TO.C,R606*%
X34320000Y-76250000D02*
X37680000Y-76250000D01*
X37680000Y-78150000D01*
X34320000Y-78150000D01*
X34320000Y-76250000D01*
%TO.C,R302*%
X9550000Y-38867000D02*
X11450000Y-38867000D01*
X11450000Y-42227000D01*
X9550000Y-42227000D01*
X9550000Y-38867000D01*
%TO.C,C504*%
X44300000Y-62220000D02*
X47700000Y-62220000D01*
X47700000Y-64180000D01*
X44300000Y-64180000D01*
X44300000Y-62220000D01*
%TO.C,C203*%
X44300000Y-29520000D02*
X47700000Y-29520000D01*
X47700000Y-31480000D01*
X44300000Y-31480000D01*
X44300000Y-29520000D01*
%TO.C,R702*%
X45320000Y-96050000D02*
X48680000Y-96050000D01*
X48680000Y-97950000D01*
X45320000Y-97950000D01*
X45320000Y-96050000D01*
%TO.C,C707*%
X64300000Y-102020000D02*
X67700000Y-102020000D01*
X67700000Y-103980000D01*
X64300000Y-103980000D01*
X64300000Y-102020000D01*
%TO.C,C502*%
X39300000Y-62220000D02*
X42700000Y-62220000D01*
X42700000Y-64180000D01*
X39300000Y-64180000D01*
X39300000Y-62220000D01*
%TO.C,C708*%
X70300000Y-97020000D02*
X73700000Y-97020000D01*
X73700000Y-98980000D01*
X70300000Y-98980000D01*
X70300000Y-97020000D01*
%TO.C,R205*%
X39320000Y-29550000D02*
X42680000Y-29550000D01*
X42680000Y-31450000D01*
X39320000Y-31450000D01*
X39320000Y-29550000D01*
%TO.C,C501*%
X17020000Y-66885000D02*
X18980000Y-66885000D01*
X18980000Y-70285000D01*
X17020000Y-70285000D01*
X17020000Y-66885000D01*
%TO.C,C902*%
X72300000Y-57020000D02*
X75700000Y-57020000D01*
X75700000Y-58980000D01*
X72300000Y-58980000D01*
X72300000Y-57020000D01*
%TO.C,C601*%
X17020000Y-80885000D02*
X18980000Y-80885000D01*
X18980000Y-84285000D01*
X17020000Y-84285000D01*
X17020000Y-80885000D01*
%TO.C,C603*%
X44300000Y-85520000D02*
X47700000Y-85520000D01*
X47700000Y-87480000D01*
X44300000Y-87480000D01*
X44300000Y-85520000D01*
%TO.C,J8*%
X74230000Y-72230000D02*
X77770000Y-72230000D01*
X77770000Y-78320000D01*
X74230000Y-78320000D01*
X74230000Y-72230000D01*
%TO.C,R105*%
X39320000Y-15550000D02*
X42680000Y-15550000D01*
X42680000Y-17450000D01*
X39320000Y-17450000D01*
X39320000Y-15550000D01*
%TO.C,C106*%
X28800000Y-6220000D02*
X32200000Y-6220000D01*
X32200000Y-8180000D01*
X28800000Y-8180000D01*
X28800000Y-6220000D01*
%TO.C,C405*%
X44300000Y-51020000D02*
X47700000Y-51020000D01*
X47700000Y-52980000D01*
X44300000Y-52980000D01*
X44300000Y-51020000D01*
%TO.C,C703*%
X66300000Y-77020000D02*
X69700000Y-77020000D01*
X69700000Y-78980000D01*
X66300000Y-78980000D01*
X66300000Y-77020000D01*
%TO.C,J2*%
X4730000Y-18230000D02*
X8270000Y-18230000D01*
X8270000Y-26850000D01*
X4730000Y-26850000D01*
X4730000Y-18230000D01*
%TO.C,R201*%
X13320000Y-24684999D02*
X16680000Y-24684999D01*
X16680000Y-26584999D01*
X13320000Y-26584999D01*
X13320000Y-24684999D01*
%TO.C,R501*%
X13320000Y-66685000D02*
X16680000Y-66685000D01*
X16680000Y-68585000D01*
X13320000Y-68585000D01*
X13320000Y-66685000D01*
%TO.C,C306*%
X28800000Y-34220000D02*
X32200000Y-34220000D01*
X32200000Y-36180000D01*
X28800000Y-36180000D01*
X28800000Y-34220000D01*
%TO.C,R103*%
X21350000Y-8050000D02*
X23250000Y-8050000D01*
X23250000Y-11410000D01*
X21350000Y-11410000D01*
X21350000Y-8050000D01*
%TO.C,R204*%
X34320000Y-29550000D02*
X37680000Y-29550000D01*
X37680000Y-31450000D01*
X34320000Y-31450000D01*
X34320000Y-29550000D01*
%TO.C,R605*%
X39320000Y-85550000D02*
X42680000Y-85550000D01*
X42680000Y-87450000D01*
X39320000Y-87450000D01*
X39320000Y-85550000D01*
%TO.C,J6*%
X4730000Y-74230000D02*
X8270000Y-74230000D01*
X8270000Y-82850000D01*
X4730000Y-82850000D01*
X4730000Y-74230000D01*
%TO.C,R106*%
X34320000Y-6250000D02*
X37680000Y-6250000D01*
X37680000Y-8150000D01*
X34320000Y-8150000D01*
X34320000Y-6250000D01*
%TO.C,C402*%
X39300000Y-48220000D02*
X42700000Y-48220000D01*
X42700000Y-50180000D01*
X39300000Y-50180000D01*
X39300000Y-48220000D01*
%TO.C,C303*%
X44300000Y-43520000D02*
X47700000Y-43520000D01*
X47700000Y-45480000D01*
X44300000Y-45480000D01*
X44300000Y-43520000D01*
%TO.C,C101*%
X17020000Y-10885000D02*
X18980000Y-10885000D01*
X18980000Y-14285000D01*
X17020000Y-14285000D01*
X17020000Y-10885000D01*
%TO.C,J1*%
X4730000Y-4230000D02*
X8270000Y-4230000D01*
X8270000Y-12850000D01*
X4730000Y-12850000D01*
X4730000Y-4230000D01*
%TO.C,R703*%
X45320000Y-102050000D02*
X48680000Y-102050000D01*
X48680000Y-103950000D01*
X45320000Y-103950000D01*
X45320000Y-102050000D01*
%TO.C,R601*%
X13320000Y-80685000D02*
X16680000Y-80685000D01*
X16680000Y-82585000D01*
X13320000Y-82585000D01*
X13320000Y-80685000D01*
%TO.C,R401*%
X13320000Y-52685000D02*
X16680000Y-52685000D01*
X16680000Y-54585000D01*
X13320000Y-54585000D01*
X13320000Y-52685000D01*
%TO.C,R101*%
X13320000Y-10685000D02*
X16680000Y-10685000D01*
X16680000Y-12585000D01*
X13320000Y-12585000D01*
X13320000Y-10685000D01*
%TO.C,C802*%
X72300000Y-25020000D02*
X75700000Y-25020000D01*
X75700000Y-26980000D01*
X72300000Y-26980000D01*
X72300000Y-25020000D01*
%TO.C,R604*%
X34320000Y-85550000D02*
X37680000Y-85550000D01*
X37680000Y-87450000D01*
X34320000Y-87450000D01*
X34320000Y-85550000D01*
%TO.C,C404*%
X44300000Y-48220000D02*
X47700000Y-48220000D01*
X47700000Y-50180000D01*
X44300000Y-50180000D01*
X44300000Y-48220000D01*
%TO.C,C706*%
X64300000Y-97020000D02*
X67700000Y-97020000D01*
X67700000Y-98980000D01*
X64300000Y-98980000D01*
X64300000Y-97020000D01*
%TO.C,C204*%
X44300000Y-20220000D02*
X47700000Y-20220000D01*
X47700000Y-22180000D01*
X44300000Y-22180000D01*
X44300000Y-20220000D01*
%TO.C,C301*%
X17020000Y-38885000D02*
X18980000Y-38885000D01*
X18980000Y-42285000D01*
X17020000Y-42285000D01*
X17020000Y-38885000D01*
%TO.C,R206*%
X34320000Y-20250000D02*
X37680000Y-20250000D01*
X37680000Y-22150000D01*
X34320000Y-22150000D01*
X34320000Y-20250000D01*
%TO.C,C407*%
X19800000Y-55320000D02*
X23200000Y-55320000D01*
X23200000Y-57280000D01*
X19800000Y-57280000D01*
X19800000Y-55320000D01*
%TO.C,C105*%
X44300000Y-9020000D02*
X47700000Y-9020000D01*
X47700000Y-10980000D01*
X44300000Y-10980000D01*
X44300000Y-9020000D01*
%TO.C,R701*%
X66320000Y-73050000D02*
X69680000Y-73050000D01*
X69680000Y-74950000D01*
X66320000Y-74950000D01*
X66320000Y-73050000D01*
%TO.C,J3*%
X4730000Y-32230000D02*
X8270000Y-32230000D01*
X8270000Y-40850000D01*
X4730000Y-40850000D01*
X4730000Y-32230000D01*
%TO.C,C205*%
X44300000Y-23020000D02*
X47700000Y-23020000D01*
X47700000Y-24980000D01*
X44300000Y-24980000D01*
X44300000Y-23020000D01*
%TO.C,U9*%
X66300000Y-45640000D02*
X67800000Y-45640000D01*
X66300000Y-54360000D02*
X66300000Y-45640000D01*
X67800000Y-45420000D02*
X72200000Y-45420000D01*
X67800000Y-45640000D02*
X67800000Y-45420000D01*
X67800000Y-54360000D02*
X66300000Y-54360000D01*
X67800000Y-54580000D02*
X67800000Y-54360000D01*
X72200000Y-45420000D02*
X72200000Y-45640000D01*
X72200000Y-45640000D02*
X73700000Y-45640000D01*
X72200000Y-54360000D02*
X72200000Y-54580000D01*
X72200000Y-54580000D02*
X67800000Y-54580000D01*
X73700000Y-45640000D02*
X73700000Y-54360000D01*
X73700000Y-54360000D02*
X72200000Y-54360000D01*
%TO.C,R505*%
X39320000Y-71550000D02*
X42680000Y-71550000D01*
X42680000Y-73450000D01*
X39320000Y-73450000D01*
X39320000Y-71550000D01*
%TO.C,C307*%
X19800000Y-41320000D02*
X23200000Y-41320000D01*
X23200000Y-43280000D01*
X19800000Y-43280000D01*
X19800000Y-41320000D01*
%TO.C,R402*%
X9550000Y-52867000D02*
X11450000Y-52867000D01*
X11450000Y-56227000D01*
X9550000Y-56227000D01*
X9550000Y-52867000D01*
%TO.C,C207*%
X19800000Y-27320000D02*
X23200000Y-27320000D01*
X23200000Y-29280000D01*
X19800000Y-29280000D01*
X19800000Y-27320000D01*
%TO.C,C406*%
X28800000Y-48220000D02*
X32200000Y-48220000D01*
X32200000Y-50180000D01*
X28800000Y-50180000D01*
X28800000Y-48220000D01*
%TO.C,R503*%
X21350000Y-64050000D02*
X23250000Y-64050000D01*
X23250000Y-67410000D01*
X21350000Y-67410000D01*
X21350000Y-64050000D01*
%TO.C,F701*%
X7720000Y-99370000D02*
X12280000Y-99370000D01*
X12280000Y-101630000D01*
X7720000Y-101630000D01*
X7720000Y-99370000D01*
%TO.C,C401*%
X17020000Y-52885000D02*
X18980000Y-52885000D01*
X18980000Y-56285000D01*
X17020000Y-56285000D01*
X17020000Y-52885000D01*
%TO.C,R301*%
X13320000Y-38685000D02*
X16680000Y-38685000D01*
X16680000Y-40585000D01*
X13320000Y-40585000D01*
X13320000Y-38685000D01*
%TO.C,R502*%
X9550000Y-66867000D02*
X11450000Y-66867000D01*
X11450000Y-70227000D01*
X9550000Y-70227000D01*
X9550000Y-66867000D01*
%TO.C,C604*%
X44300000Y-76220000D02*
X47700000Y-76220000D01*
X47700000Y-78180000D01*
X44300000Y-78180000D01*
X44300000Y-76220000D01*
%TO.C,R104*%
X34320000Y-15550000D02*
X37680000Y-15550000D01*
X37680000Y-17450000D01*
X34320000Y-17450000D01*
X34320000Y-15550000D01*
%TO.C,D702*%
X18500000Y-98750000D02*
X25500000Y-98750000D01*
X18500000Y-102250000D02*
X18500000Y-98750000D01*
X25500000Y-98750000D02*
X25500000Y-102250000D01*
X25500000Y-102250000D02*
X18500000Y-102250000D01*
%TO.C,R202*%
X9550000Y-24867000D02*
X11450000Y-24867000D01*
X11450000Y-28227000D01*
X9550000Y-28227000D01*
X9550000Y-24867000D01*
%TO.C,J4*%
X4730000Y-46230000D02*
X8270000Y-46230000D01*
X8270000Y-54850000D01*
X4730000Y-54850000D01*
X4730000Y-46230000D01*
%TO.C,R203*%
X21350000Y-22050000D02*
X23250000Y-22050000D01*
X23250000Y-25410000D01*
X21350000Y-25410000D01*
X21350000Y-22050000D01*
%TO.C,R303*%
X21350000Y-36050000D02*
X23250000Y-36050000D01*
X23250000Y-39410000D01*
X21350000Y-39410000D01*
X21350000Y-36050000D01*
%TO.C,U8*%
X66300000Y-29640000D02*
X67800000Y-29640000D01*
X66300000Y-38360000D02*
X66300000Y-29640000D01*
X67800000Y-29420000D02*
X72200000Y-29420000D01*
X67800000Y-29640000D02*
X67800000Y-29420000D01*
X67800000Y-38360000D02*
X66300000Y-38360000D01*
X67800000Y-38580000D02*
X67800000Y-38360000D01*
X72200000Y-29420000D02*
X72200000Y-29640000D01*
X72200000Y-29640000D02*
X73700000Y-29640000D01*
X72200000Y-38360000D02*
X72200000Y-38580000D01*
X72200000Y-38580000D02*
X67800000Y-38580000D01*
X73700000Y-29640000D02*
X73700000Y-38360000D01*
X73700000Y-38360000D02*
X72200000Y-38360000D01*
%TO.C,C503*%
X44300000Y-71520000D02*
X47700000Y-71520000D01*
X47700000Y-73480000D01*
X44300000Y-73480000D01*
X44300000Y-71520000D01*
%TO.C,R404*%
X34320000Y-57550000D02*
X37680000Y-57550000D01*
X37680000Y-59450000D01*
X34320000Y-59450000D01*
X34320000Y-57550000D01*
%TO.C,R603*%
X21350000Y-78050000D02*
X23250000Y-78050000D01*
X23250000Y-81410000D01*
X21350000Y-81410000D01*
X21350000Y-78050000D01*
%TO.C,C107*%
X19800000Y-13320000D02*
X23200000Y-13320000D01*
X23200000Y-15280000D01*
X19800000Y-15280000D01*
X19800000Y-13320000D01*
%TO.C,U6*%
X23300000Y-78540000D02*
X24800000Y-78540000D01*
X23300000Y-83460000D02*
X23300000Y-78540000D01*
X24800000Y-78300000D02*
X29200000Y-78300000D01*
X24800000Y-78540000D02*
X24800000Y-78300000D01*
X24800000Y-83460000D02*
X23300000Y-83460000D01*
X24800000Y-83700000D02*
X24800000Y-83460000D01*
X29200000Y-78300000D02*
X29200000Y-78540000D01*
X29200000Y-78540000D02*
X30700000Y-78540000D01*
X29200000Y-83460000D02*
X29200000Y-83700000D01*
X29200000Y-83700000D02*
X24800000Y-83700000D01*
X30700000Y-78540000D02*
X30700000Y-83460000D01*
X30700000Y-83460000D02*
X29200000Y-83460000D01*
%TO.C,U2*%
X23300000Y-22540000D02*
X24800000Y-22540000D01*
X23300000Y-27460000D02*
X23300000Y-22540000D01*
X24800000Y-22300000D02*
X29200000Y-22300000D01*
X24800000Y-22540000D02*
X24800000Y-22300000D01*
X24800000Y-27460000D02*
X23300000Y-27460000D01*
X24800000Y-27700000D02*
X24800000Y-27460000D01*
X29200000Y-22300000D02*
X29200000Y-22540000D01*
X29200000Y-22540000D02*
X30700000Y-22540000D01*
X29200000Y-27460000D02*
X29200000Y-27700000D01*
X29200000Y-27700000D02*
X24800000Y-27700000D01*
X30700000Y-22540000D02*
X30700000Y-27460000D01*
X30700000Y-27460000D02*
X29200000Y-27460000D01*
%TO.C,C702*%
X36300000Y-99520000D02*
X39700000Y-99520000D01*
X39700000Y-101480000D01*
X36300000Y-101480000D01*
X36300000Y-99520000D01*
%TO.C,D701*%
X13650000Y-99350000D02*
X18350000Y-99350000D01*
X13650000Y-101650000D02*
X13650000Y-99350000D01*
X18350000Y-101650000D02*
X13650000Y-101650000D01*
X18350000Y-101650000D02*
X18350000Y-99350000D01*
%TO.C,C704*%
X40800000Y-99520000D02*
X44200000Y-99520000D01*
X44200000Y-101480000D01*
X40800000Y-101480000D01*
X40800000Y-99520000D01*
%TO.C,R102*%
X9550000Y-10867000D02*
X11450000Y-10867000D01*
X11450000Y-14227000D01*
X9550000Y-14227000D01*
X9550000Y-10867000D01*
%TO.C,C507*%
X19800000Y-69320000D02*
X23200000Y-69320000D01*
X23200000Y-71280000D01*
X19800000Y-71280000D01*
X19800000Y-69320000D01*
%TO.C,C605*%
X44300000Y-79020000D02*
X47700000Y-79020000D01*
X47700000Y-80980000D01*
X44300000Y-80980000D01*
X44300000Y-79020000D01*
%TO.C,J7*%
X62230000Y-230000D02*
X65770000Y-230000D01*
X65770000Y-21550000D01*
X62230000Y-21550000D01*
X62230000Y-230000D01*
%TO.C,C505*%
X44300000Y-65020000D02*
X47700000Y-65020000D01*
X47700000Y-66980000D01*
X44300000Y-66980000D01*
X44300000Y-65020000D01*
%TO.C,U1*%
X23300000Y-8540000D02*
X24800000Y-8540000D01*
X23300000Y-13460000D02*
X23300000Y-8540000D01*
X24800000Y-8300000D02*
X29200000Y-8300000D01*
X24800000Y-8540000D02*
X24800000Y-8300000D01*
X24800000Y-13460000D02*
X23300000Y-13460000D01*
X24800000Y-13700000D02*
X24800000Y-13460000D01*
X29200000Y-8300000D02*
X29200000Y-8540000D01*
X29200000Y-8540000D02*
X30700000Y-8540000D01*
X29200000Y-13460000D02*
X29200000Y-13700000D01*
X29200000Y-13700000D02*
X24800000Y-13700000D01*
X30700000Y-8540000D02*
X30700000Y-13460000D01*
X30700000Y-13460000D02*
X29200000Y-13460000D01*
%TO.C,C801*%
X64300000Y-25020000D02*
X67700000Y-25020000D01*
X67700000Y-26980000D01*
X64300000Y-26980000D01*
X64300000Y-25020000D01*
%TO.C,C607*%
X19800000Y-83320000D02*
X23200000Y-83320000D01*
X23200000Y-85280000D01*
X19800000Y-85280000D01*
X19800000Y-83320000D01*
%TO.C,C403*%
X44300000Y-57520000D02*
X47700000Y-57520000D01*
X47700000Y-59480000D01*
X44300000Y-59480000D01*
X44300000Y-57520000D01*
%TO.C,R504*%
X34320000Y-71550000D02*
X37680000Y-71550000D01*
X37680000Y-73450000D01*
X34320000Y-73450000D01*
X34320000Y-71550000D01*
%TO.C,C606*%
X28800000Y-76220000D02*
X32200000Y-76220000D01*
X32200000Y-78180000D01*
X28800000Y-78180000D01*
X28800000Y-76220000D01*
%TO.C,U5*%
X23300000Y-64540000D02*
X24800000Y-64540000D01*
X23300000Y-69460000D02*
X23300000Y-64540000D01*
X24800000Y-64300000D02*
X29200000Y-64300000D01*
X24800000Y-64540000D02*
X24800000Y-64300000D01*
X24800000Y-69460000D02*
X23300000Y-69460000D01*
X24800000Y-69700000D02*
X24800000Y-69460000D01*
X29200000Y-64300000D02*
X29200000Y-64540000D01*
X29200000Y-64540000D02*
X30700000Y-64540000D01*
X29200000Y-69460000D02*
X29200000Y-69700000D01*
X29200000Y-69700000D02*
X24800000Y-69700000D01*
X30700000Y-64540000D02*
X30700000Y-69460000D01*
X30700000Y-69460000D02*
X29200000Y-69460000D01*
%TO.C,C709*%
X70300000Y-102020000D02*
X73700000Y-102020000D01*
X73700000Y-103980000D01*
X70300000Y-103980000D01*
X70300000Y-102020000D01*
%TO.C,C201*%
X17020000Y-24885000D02*
X18980000Y-24885000D01*
X18980000Y-28285000D01*
X17020000Y-28285000D01*
X17020000Y-24885000D01*
%TO.C,C304*%
X44300000Y-34220000D02*
X47700000Y-34220000D01*
X47700000Y-36180000D01*
X44300000Y-36180000D01*
X44300000Y-34220000D01*
%TO.C,C602*%
X39300000Y-76220000D02*
X42700000Y-76220000D01*
X42700000Y-78180000D01*
X39300000Y-78180000D01*
X39300000Y-76220000D01*
%TO.C,C705*%
X50300000Y-104020000D02*
X53700000Y-104020000D01*
X53700000Y-105980000D01*
X50300000Y-105980000D01*
X50300000Y-104020000D01*
%TO.C,R306*%
X34320000Y-34250000D02*
X37680000Y-34250000D01*
X37680000Y-36150000D01*
X34320000Y-36150000D01*
X34320000Y-34250000D01*
%TD*%
M02*
