%TF.GenerationSoftware,KiCad,Pcbnew,10.0.5*%
%TF.CreationDate,2026-07-30T00:16:46+01:00*%
%TF.ProjectId,rmc-pizz-arco,726d632d-7069-47a7-9a2d-6172636f2e6b,rev?*%
%TF.SameCoordinates,Original*%
%TF.FileFunction,Copper,L2,Inr*%
%TF.FilePolarity,Positive*%
%FSLAX46Y46*%
G04 Gerber Fmt 4.6, Leading zero omitted, Abs format (unit mm)*
G04 Created by KiCad (PCBNEW 10.0.5) date 2026-07-30 00:16:46*
%MOMM*%
%LPD*%
G01*
G04 APERTURE LIST*
%TA.AperFunction,ComponentPad*%
%ADD10R,1.700000X1.700000*%
%TD*%
%TA.AperFunction,ComponentPad*%
%ADD11C,1.700000*%
%TD*%
%TA.AperFunction,ViaPad*%
%ADD12C,0.600000*%
%TD*%
G04 APERTURE END LIST*
D10*
%TO.N,VIN*%
%TO.C,J9*%
X4000000Y-100500000D03*
D11*
%TO.N,V-*%
X4000000Y-103040000D03*
%TD*%
D10*
%TO.N,AGND*%
%TO.C,J5*%
X6500000Y-62000000D03*
D11*
%TO.N,IN_W5*%
X6500000Y-64540000D03*
%TO.N,OUT5*%
X6500000Y-67080000D03*
%TD*%
D10*
%TO.N,SW_CTL*%
%TO.C,J8*%
X76000000Y-74000000D03*
D11*
%TO.N,V+*%
X76000000Y-76540000D03*
%TD*%
D10*
%TO.N,AGND*%
%TO.C,J2*%
X6500000Y-20000000D03*
D11*
%TO.N,IN_W2*%
X6500000Y-22540000D03*
%TO.N,OUT2*%
X6500000Y-25080000D03*
%TD*%
D10*
%TO.N,AGND*%
%TO.C,J6*%
X6500000Y-76000000D03*
D11*
%TO.N,IN_W6*%
X6500000Y-78540000D03*
%TO.N,OUT6*%
X6500000Y-81080000D03*
%TD*%
D10*
%TO.N,AGND*%
%TO.C,J1*%
X6500000Y-6000000D03*
D11*
%TO.N,IN_W1*%
X6500000Y-8540000D03*
%TO.N,OUT1*%
X6500000Y-11080000D03*
%TD*%
D10*
%TO.N,AGND*%
%TO.C,J3*%
X6500000Y-34000000D03*
D11*
%TO.N,IN_W3*%
X6500000Y-36540000D03*
%TO.N,OUT3*%
X6500000Y-39080000D03*
%TD*%
D10*
%TO.N,AGND*%
%TO.C,J4*%
X6500000Y-48000000D03*
D11*
%TO.N,IN_W4*%
X6500000Y-50540000D03*
%TO.N,OUT4*%
X6500000Y-53080000D03*
%TD*%
D10*
%TO.N,OUT1*%
%TO.C,J7*%
X64000000Y-2000000D03*
D11*
%TO.N,OUT2*%
X64000000Y-4540000D03*
%TO.N,OUT3*%
X64000000Y-7080000D03*
%TO.N,OUT4*%
X64000000Y-9620000D03*
%TO.N,OUT5*%
X64000000Y-12160000D03*
%TO.N,OUT6*%
X64000000Y-14700000D03*
%TO.N,AGND*%
X64000000Y-17240000D03*
%TO.N,DIN8*%
X64000000Y-19780000D03*
%TD*%
D12*
%TO.N,AGND*%
X48250000Y-16500000D03*
X66950000Y-59700000D03*
X74950000Y-59700000D03*
X32750000Y-63200000D03*
X8700000Y-34000000D03*
X62675000Y-102405000D03*
X65325000Y-47460000D03*
X74675000Y-51270000D03*
X18000000Y-84735000D03*
X74675000Y-36540000D03*
X10500000Y-84659500D03*
X19250000Y-56300000D03*
X66950000Y-27700000D03*
X19250000Y-42300000D03*
X72950000Y-105200000D03*
X48250000Y-86500000D03*
X65325000Y-31460000D03*
X70950000Y-19780000D03*
X10500000Y-56659500D03*
X19250000Y-70300000D03*
X32750000Y-21200000D03*
X74675000Y-50000000D03*
X18000000Y-42735000D03*
X18000000Y-70735000D03*
X18000000Y-56735000D03*
X65050000Y-95800000D03*
X48250000Y-72500000D03*
X48250000Y-58500000D03*
X65325000Y-50000000D03*
X74675000Y-34000000D03*
X32750000Y-35200000D03*
X18000000Y-28735000D03*
X53325000Y-99865000D03*
X48887500Y-98595000D03*
X8700000Y-76000000D03*
X48250000Y-30500000D03*
X74950000Y-27700000D03*
X65325000Y-34000000D03*
X19250000Y-28300000D03*
X19250000Y-84300000D03*
X65050000Y-100800000D03*
X8700000Y-48000000D03*
X8700000Y-62000000D03*
X72950000Y-100200000D03*
X74675000Y-52540000D03*
X32750000Y-49200000D03*
X8700000Y-6000000D03*
X8700000Y-20000000D03*
X48250000Y-44500000D03*
X19250000Y-14300000D03*
X10500000Y-70659500D03*
X32750000Y-7200000D03*
X74675000Y-53810000D03*
X10500000Y-14659500D03*
X10500000Y-28659500D03*
X32750000Y-77200000D03*
X18000000Y-14735000D03*
X66500000Y-17240000D03*
X10500000Y-42659500D03*
%TO.N,APN1*%
X31000000Y-11635000D03*
X36912500Y-14800000D03*
X40050000Y-6400000D03*
X35087500Y-6400000D03*
%TO.N,APN2*%
X35087500Y-20400000D03*
X40050000Y-20400000D03*
X31000000Y-25635000D03*
X36912500Y-28800000D03*
%TO.N,APN3*%
X35087500Y-34400000D03*
X36912500Y-42800000D03*
X31000000Y-39635000D03*
X40050000Y-34400000D03*
%TO.N,APN4*%
X36912500Y-56800000D03*
X40050000Y-48400000D03*
X35087500Y-48400000D03*
X31000000Y-53635000D03*
%TO.N,APN5*%
X31000000Y-67635000D03*
X40050000Y-62400000D03*
X35087500Y-62400000D03*
X36912500Y-70800000D03*
%TO.N,APN6*%
X31000000Y-81635000D03*
X40050000Y-76400000D03*
X35087500Y-76400000D03*
X36912500Y-84800000D03*
%TO.N,BUFOUT1*%
X40087500Y-18000000D03*
X35087500Y-18000000D03*
X28000000Y-5900000D03*
%TO.N,BUFOUT2*%
X35087500Y-32000000D03*
X40087500Y-32000000D03*
X28000000Y-19900000D03*
%TO.N,BUFOUT3*%
X35087500Y-46000000D03*
X40087500Y-46000000D03*
X28000000Y-33900000D03*
%TO.N,BUFOUT4*%
X28000000Y-47900000D03*
X40087500Y-60000000D03*
X35087500Y-60000000D03*
%TO.N,BUFOUT5*%
X40087500Y-74000000D03*
X35087500Y-74000000D03*
X28000000Y-61900000D03*
%TO.N,BUFOUT6*%
X40087500Y-88000000D03*
X28000000Y-75900000D03*
X35087500Y-88000000D03*
%TO.N,OUT1*%
X54400000Y-2000000D03*
%TO.N,OUT2*%
X55199999Y-4540000D03*
%TO.N,OUT3*%
X56000000Y-7080000D03*
%TO.N,OUT4*%
X56800000Y-9620000D03*
%TO.N,OUT5*%
X57600000Y-12160000D03*
%TO.N,OUT6*%
X58400000Y-14700000D03*
%TO.N,SWN1*%
X59400000Y-30190000D03*
X54000000Y-13800000D03*
X64925000Y-30190000D03*
X59400000Y-13800000D03*
%TO.N,SWN2*%
X60300000Y-27800000D03*
X64925000Y-32729999D03*
X60300000Y-32729999D03*
X54000000Y-27800000D03*
%TO.N,SWN3*%
X61199999Y-41800000D03*
X61199999Y-37810000D03*
X69875000Y-37810000D03*
X54000000Y-41800000D03*
%TO.N,SWN4*%
X62100000Y-55800000D03*
X62100000Y-35270000D03*
X54000000Y-55800000D03*
X69875000Y-35270000D03*
%TO.N,SWN5*%
X54000000Y-69800000D03*
X63000000Y-46190000D03*
X64925000Y-46190000D03*
X63000000Y-69800000D03*
%TO.N,SWN6*%
X54000000Y-83800000D03*
X64925000Y-48730000D03*
X63900000Y-48730000D03*
X63900000Y-83800000D03*
%TO.N,SW_CTL*%
X65125000Y-36540000D03*
X74875000Y-32729999D03*
X65125000Y-51270000D03*
X74875000Y-31460000D03*
X65587500Y-74000000D03*
X65550000Y-78000000D03*
X74875000Y-47460000D03*
X65125000Y-35270000D03*
%TO.N,V+*%
X29000000Y-63200000D03*
X65050000Y-24300000D03*
X37050000Y-98300000D03*
X72475000Y-27790000D03*
X29000000Y-35200000D03*
X60475000Y-96395000D03*
X20000000Y-98300000D03*
X65050000Y-56300000D03*
X78500000Y-76540000D03*
X72475000Y-43790000D03*
X41550000Y-98300000D03*
X29000000Y-21200000D03*
X29000000Y-77200000D03*
X29000000Y-7200000D03*
X66950000Y-100200000D03*
X46087500Y-94800000D03*
X29000000Y-49200000D03*
X71050000Y-95800000D03*
X28200000Y-97100000D03*
%TO.N,V-*%
X74675000Y-48730000D03*
X24000000Y-84300000D03*
X24000000Y-70300000D03*
X24000000Y-42300000D03*
X46087500Y-105200000D03*
X66950000Y-105200000D03*
X24000000Y-28300000D03*
X73050000Y-24300000D03*
X55525000Y-104605000D03*
X73050000Y-56300000D03*
X67525000Y-56210000D03*
X70212500Y-74000000D03*
X38950000Y-102700000D03*
X43450000Y-102700000D03*
X52950000Y-107200000D03*
X4000000Y-106040000D03*
X69725000Y-52540000D03*
X70250000Y-78000000D03*
X24000000Y-102700000D03*
X24000000Y-14300000D03*
X33800000Y-103900000D03*
X67525000Y-40210000D03*
X24000000Y-56300000D03*
X71050000Y-100800000D03*
%TD*%
%TA.AperFunction,Conductor*%
%TO.N,AGND*%
G36*
X87458691Y-519407D02*
G01*
X87494655Y-568907D01*
X87499500Y-599500D01*
X87499500Y-111400500D01*
X87480593Y-111458691D01*
X87431093Y-111494655D01*
X87400500Y-111499500D01*
X599500Y-111499500D01*
X541309Y-111480593D01*
X505345Y-111431093D01*
X500500Y-111400500D01*
X500500Y-107134108D01*
X52449500Y-107134108D01*
X52449500Y-107265892D01*
X52479579Y-107378151D01*
X52483609Y-107393190D01*
X52549496Y-107507309D01*
X52549498Y-107507311D01*
X52549500Y-107507314D01*
X52642686Y-107600500D01*
X52642688Y-107600501D01*
X52642690Y-107600503D01*
X52756810Y-107666390D01*
X52756808Y-107666390D01*
X52756812Y-107666391D01*
X52756814Y-107666392D01*
X52884108Y-107700500D01*
X52884110Y-107700500D01*
X53015890Y-107700500D01*
X53015892Y-107700500D01*
X53143186Y-107666392D01*
X53143188Y-107666390D01*
X53143190Y-107666390D01*
X53257309Y-107600503D01*
X53257309Y-107600502D01*
X53257314Y-107600500D01*
X53350500Y-107507314D01*
X53416392Y-107393186D01*
X53450500Y-107265892D01*
X53450500Y-107134108D01*
X53416392Y-107006814D01*
X53416390Y-107006811D01*
X53416390Y-107006809D01*
X53350503Y-106892690D01*
X53350501Y-106892688D01*
X53350500Y-106892686D01*
X53257314Y-106799500D01*
X53257311Y-106799498D01*
X53257309Y-106799496D01*
X53143189Y-106733609D01*
X53143191Y-106733609D01*
X53093799Y-106720375D01*
X53015892Y-106699500D01*
X52884108Y-106699500D01*
X52806200Y-106720375D01*
X52756809Y-106733609D01*
X52642690Y-106799496D01*
X52549496Y-106892690D01*
X52483609Y-107006809D01*
X52483608Y-107006814D01*
X52449500Y-107134108D01*
X500500Y-107134108D01*
X500500Y-105974108D01*
X3499500Y-105974108D01*
X3499500Y-106105892D01*
X3529579Y-106218151D01*
X3533609Y-106233190D01*
X3599496Y-106347309D01*
X3599498Y-106347311D01*
X3599500Y-106347314D01*
X3692686Y-106440500D01*
X3692688Y-106440501D01*
X3692690Y-106440503D01*
X3806810Y-106506390D01*
X3806808Y-106506390D01*
X3806812Y-106506391D01*
X3806814Y-106506392D01*
X3934108Y-106540500D01*
X3934110Y-106540500D01*
X4065890Y-106540500D01*
X4065892Y-106540500D01*
X4193186Y-106506392D01*
X4193188Y-106506390D01*
X4193190Y-106506390D01*
X4307309Y-106440503D01*
X4307309Y-106440502D01*
X4307314Y-106440500D01*
X4400500Y-106347314D01*
X4466392Y-106233186D01*
X4500500Y-106105892D01*
X4500500Y-105974108D01*
X4466392Y-105846814D01*
X4466390Y-105846811D01*
X4466390Y-105846809D01*
X4400503Y-105732690D01*
X4400501Y-105732688D01*
X4400500Y-105732686D01*
X4307314Y-105639500D01*
X4307311Y-105639498D01*
X4307309Y-105639496D01*
X4193189Y-105573609D01*
X4193191Y-105573609D01*
X4143799Y-105560375D01*
X4065892Y-105539500D01*
X3934108Y-105539500D01*
X3856200Y-105560375D01*
X3806809Y-105573609D01*
X3692690Y-105639496D01*
X3599496Y-105732690D01*
X3533609Y-105846809D01*
X3533608Y-105846814D01*
X3499500Y-105974108D01*
X500500Y-105974108D01*
X500500Y-105134108D01*
X45587000Y-105134108D01*
X45587000Y-105265892D01*
X45617079Y-105378151D01*
X45621109Y-105393190D01*
X45686996Y-105507309D01*
X45686998Y-105507311D01*
X45687000Y-105507314D01*
X45780186Y-105600500D01*
X45780188Y-105600501D01*
X45780190Y-105600503D01*
X45894310Y-105666390D01*
X45894308Y-105666390D01*
X45894312Y-105666391D01*
X45894314Y-105666392D01*
X46021608Y-105700500D01*
X46021610Y-105700500D01*
X46153390Y-105700500D01*
X46153392Y-105700500D01*
X46280686Y-105666392D01*
X46280688Y-105666390D01*
X46280690Y-105666390D01*
X46394809Y-105600503D01*
X46394809Y-105600502D01*
X46394814Y-105600500D01*
X46488000Y-105507314D01*
X46553892Y-105393186D01*
X46588000Y-105265892D01*
X46588000Y-105134108D01*
X66449500Y-105134108D01*
X66449500Y-105265892D01*
X66479579Y-105378151D01*
X66483609Y-105393190D01*
X66549496Y-105507309D01*
X66549498Y-105507311D01*
X66549500Y-105507314D01*
X66642686Y-105600500D01*
X66642688Y-105600501D01*
X66642690Y-105600503D01*
X66756810Y-105666390D01*
X66756808Y-105666390D01*
X66756812Y-105666391D01*
X66756814Y-105666392D01*
X66884108Y-105700500D01*
X66884110Y-105700500D01*
X67015890Y-105700500D01*
X67015892Y-105700500D01*
X67143186Y-105666392D01*
X67143188Y-105666390D01*
X67143190Y-105666390D01*
X67257309Y-105600503D01*
X67257309Y-105600502D01*
X67257314Y-105600500D01*
X67350500Y-105507314D01*
X67416392Y-105393186D01*
X67450500Y-105265892D01*
X67450500Y-105134108D01*
X67416392Y-105006814D01*
X67416390Y-105006811D01*
X67416390Y-105006809D01*
X67350503Y-104892690D01*
X67350501Y-104892688D01*
X67350500Y-104892686D01*
X67257314Y-104799500D01*
X67257311Y-104799498D01*
X67257309Y-104799496D01*
X67143189Y-104733609D01*
X67143191Y-104733609D01*
X67093799Y-104720375D01*
X67015892Y-104699500D01*
X66884108Y-104699500D01*
X66806200Y-104720375D01*
X66756809Y-104733609D01*
X66642690Y-104799496D01*
X66549496Y-104892690D01*
X66483609Y-105006809D01*
X66474209Y-105041891D01*
X66449500Y-105134108D01*
X46588000Y-105134108D01*
X46553892Y-105006814D01*
X46553890Y-105006811D01*
X46553890Y-105006809D01*
X46488003Y-104892690D01*
X46488001Y-104892688D01*
X46488000Y-104892686D01*
X46394814Y-104799500D01*
X46394811Y-104799498D01*
X46394809Y-104799496D01*
X46280689Y-104733609D01*
X46280691Y-104733609D01*
X46231299Y-104720375D01*
X46153392Y-104699500D01*
X46021608Y-104699500D01*
X45943700Y-104720375D01*
X45894309Y-104733609D01*
X45780190Y-104799496D01*
X45686996Y-104892690D01*
X45621109Y-105006809D01*
X45611709Y-105041891D01*
X45587000Y-105134108D01*
X500500Y-105134108D01*
X500500Y-104539108D01*
X55024500Y-104539108D01*
X55024500Y-104670892D01*
X55041305Y-104733608D01*
X55058609Y-104798190D01*
X55124496Y-104912309D01*
X55124498Y-104912311D01*
X55124500Y-104912314D01*
X55217686Y-105005500D01*
X55217688Y-105005501D01*
X55217690Y-105005503D01*
X55331810Y-105071390D01*
X55331808Y-105071390D01*
X55331812Y-105071391D01*
X55331814Y-105071392D01*
X55459108Y-105105500D01*
X55459110Y-105105500D01*
X55590890Y-105105500D01*
X55590892Y-105105500D01*
X55718186Y-105071392D01*
X55718188Y-105071390D01*
X55718190Y-105071390D01*
X55769284Y-105041891D01*
X55769291Y-105041885D01*
X55832314Y-105005500D01*
X55925500Y-104912314D01*
X55936832Y-104892686D01*
X55991390Y-104798190D01*
X55991390Y-104798188D01*
X55991392Y-104798186D01*
X56025500Y-104670892D01*
X56025500Y-104539108D01*
X55991392Y-104411814D01*
X55991390Y-104411811D01*
X55991390Y-104411809D01*
X55925503Y-104297690D01*
X55925501Y-104297688D01*
X55925500Y-104297686D01*
X55832314Y-104204500D01*
X55832311Y-104204498D01*
X55832309Y-104204496D01*
X55718189Y-104138609D01*
X55718191Y-104138609D01*
X55668799Y-104125375D01*
X55590892Y-104104500D01*
X55459108Y-104104500D01*
X55381200Y-104125375D01*
X55331809Y-104138609D01*
X55217690Y-104204496D01*
X55124496Y-104297690D01*
X55058609Y-104411809D01*
X55058608Y-104411814D01*
X55024500Y-104539108D01*
X500500Y-104539108D01*
X500500Y-102936532D01*
X2949500Y-102936532D01*
X2949500Y-103143467D01*
X2989869Y-103346418D01*
X3069058Y-103537597D01*
X3184020Y-103709651D01*
X3184023Y-103709655D01*
X3330345Y-103855977D01*
X3502402Y-103970941D01*
X3693580Y-104050130D01*
X3896535Y-104090500D01*
X3896536Y-104090500D01*
X4103464Y-104090500D01*
X4103465Y-104090500D01*
X4306420Y-104050130D01*
X4497598Y-103970941D01*
X4669655Y-103855977D01*
X4691524Y-103834108D01*
X33299500Y-103834108D01*
X33299500Y-103965892D01*
X33300853Y-103970941D01*
X33333609Y-104093190D01*
X33399496Y-104207309D01*
X33399498Y-104207311D01*
X33399500Y-104207314D01*
X33492686Y-104300500D01*
X33492688Y-104300501D01*
X33492690Y-104300503D01*
X33606810Y-104366390D01*
X33606808Y-104366390D01*
X33606812Y-104366391D01*
X33606814Y-104366392D01*
X33734108Y-104400500D01*
X33734110Y-104400500D01*
X33865890Y-104400500D01*
X33865892Y-104400500D01*
X33993186Y-104366392D01*
X33993188Y-104366390D01*
X33993190Y-104366390D01*
X34107309Y-104300503D01*
X34107309Y-104300502D01*
X34107314Y-104300500D01*
X34200500Y-104207314D01*
X34266392Y-104093186D01*
X34300500Y-103965892D01*
X34300500Y-103834108D01*
X34266392Y-103706814D01*
X34266390Y-103706811D01*
X34266390Y-103706809D01*
X34200503Y-103592690D01*
X34200501Y-103592688D01*
X34200500Y-103592686D01*
X34107314Y-103499500D01*
X34107311Y-103499498D01*
X34107309Y-103499496D01*
X33993189Y-103433609D01*
X33993191Y-103433609D01*
X33943799Y-103420375D01*
X33865892Y-103399500D01*
X33734108Y-103399500D01*
X33656200Y-103420375D01*
X33606809Y-103433609D01*
X33492690Y-103499496D01*
X33399496Y-103592690D01*
X33333609Y-103706809D01*
X33319996Y-103757615D01*
X33299500Y-103834108D01*
X4691524Y-103834108D01*
X4815977Y-103709655D01*
X4930941Y-103537598D01*
X5010130Y-103346420D01*
X5050500Y-103143465D01*
X5050500Y-102936535D01*
X5010130Y-102733580D01*
X4968927Y-102634108D01*
X23499500Y-102634108D01*
X23499500Y-102765892D01*
X23529579Y-102878151D01*
X23533609Y-102893190D01*
X23599496Y-103007309D01*
X23599498Y-103007311D01*
X23599500Y-103007314D01*
X23692686Y-103100500D01*
X23692688Y-103100501D01*
X23692690Y-103100503D01*
X23806810Y-103166390D01*
X23806808Y-103166390D01*
X23806812Y-103166391D01*
X23806814Y-103166392D01*
X23934108Y-103200500D01*
X23934110Y-103200500D01*
X24065890Y-103200500D01*
X24065892Y-103200500D01*
X24193186Y-103166392D01*
X24193188Y-103166390D01*
X24193190Y-103166390D01*
X24307309Y-103100503D01*
X24307309Y-103100502D01*
X24307314Y-103100500D01*
X24400500Y-103007314D01*
X24441364Y-102936536D01*
X24466390Y-102893190D01*
X24466390Y-102893188D01*
X24466392Y-102893186D01*
X24500500Y-102765892D01*
X24500500Y-102634108D01*
X38449500Y-102634108D01*
X38449500Y-102765892D01*
X38479579Y-102878151D01*
X38483609Y-102893190D01*
X38549496Y-103007309D01*
X38549498Y-103007311D01*
X38549500Y-103007314D01*
X38642686Y-103100500D01*
X38642688Y-103100501D01*
X38642690Y-103100503D01*
X38756810Y-103166390D01*
X38756808Y-103166390D01*
X38756812Y-103166391D01*
X38756814Y-103166392D01*
X38884108Y-103200500D01*
X38884110Y-103200500D01*
X39015890Y-103200500D01*
X39015892Y-103200500D01*
X39143186Y-103166392D01*
X39143188Y-103166390D01*
X39143190Y-103166390D01*
X39257309Y-103100503D01*
X39257309Y-103100502D01*
X39257314Y-103100500D01*
X39350500Y-103007314D01*
X39391364Y-102936536D01*
X39416390Y-102893190D01*
X39416390Y-102893188D01*
X39416392Y-102893186D01*
X39450500Y-102765892D01*
X39450500Y-102634108D01*
X42949500Y-102634108D01*
X42949500Y-102765892D01*
X42979579Y-102878151D01*
X42983609Y-102893190D01*
X43049496Y-103007309D01*
X43049498Y-103007311D01*
X43049500Y-103007314D01*
X43142686Y-103100500D01*
X43142688Y-103100501D01*
X43142690Y-103100503D01*
X43256810Y-103166390D01*
X43256808Y-103166390D01*
X43256812Y-103166391D01*
X43256814Y-103166392D01*
X43384108Y-103200500D01*
X43384110Y-103200500D01*
X43515890Y-103200500D01*
X43515892Y-103200500D01*
X43643186Y-103166392D01*
X43643188Y-103166390D01*
X43643190Y-103166390D01*
X43757309Y-103100503D01*
X43757309Y-103100502D01*
X43757314Y-103100500D01*
X43850500Y-103007314D01*
X43891364Y-102936536D01*
X43916390Y-102893190D01*
X43916390Y-102893188D01*
X43916392Y-102893186D01*
X43950500Y-102765892D01*
X43950500Y-102634108D01*
X43916392Y-102506814D01*
X43916390Y-102506811D01*
X43916390Y-102506809D01*
X43850503Y-102392690D01*
X43850501Y-102392688D01*
X43850500Y-102392686D01*
X43757314Y-102299500D01*
X43757311Y-102299498D01*
X43757309Y-102299496D01*
X43643189Y-102233609D01*
X43643191Y-102233609D01*
X43593799Y-102220375D01*
X43515892Y-102199500D01*
X43384108Y-102199500D01*
X43306200Y-102220375D01*
X43256809Y-102233609D01*
X43142690Y-102299496D01*
X43049496Y-102392690D01*
X42983609Y-102506809D01*
X42983608Y-102506814D01*
X42949500Y-102634108D01*
X39450500Y-102634108D01*
X39416392Y-102506814D01*
X39416390Y-102506811D01*
X39416390Y-102506809D01*
X39350503Y-102392690D01*
X39350501Y-102392688D01*
X39350500Y-102392686D01*
X39257314Y-102299500D01*
X39257311Y-102299498D01*
X39257309Y-102299496D01*
X39143189Y-102233609D01*
X39143191Y-102233609D01*
X39093799Y-102220375D01*
X39015892Y-102199500D01*
X38884108Y-102199500D01*
X38806200Y-102220375D01*
X38756809Y-102233609D01*
X38642690Y-102299496D01*
X38549496Y-102392690D01*
X38483609Y-102506809D01*
X38483608Y-102506814D01*
X38449500Y-102634108D01*
X24500500Y-102634108D01*
X24466392Y-102506814D01*
X24466390Y-102506811D01*
X24466390Y-102506809D01*
X24400503Y-102392690D01*
X24400501Y-102392688D01*
X24400500Y-102392686D01*
X24307314Y-102299500D01*
X24307311Y-102299498D01*
X24307309Y-102299496D01*
X24193189Y-102233609D01*
X24193191Y-102233609D01*
X24143799Y-102220375D01*
X24065892Y-102199500D01*
X23934108Y-102199500D01*
X23856200Y-102220375D01*
X23806809Y-102233609D01*
X23692690Y-102299496D01*
X23599496Y-102392690D01*
X23533609Y-102506809D01*
X23533608Y-102506814D01*
X23499500Y-102634108D01*
X4968927Y-102634108D01*
X4930941Y-102542402D01*
X4815977Y-102370345D01*
X4669655Y-102224023D01*
X4669651Y-102224020D01*
X4497597Y-102109058D01*
X4306418Y-102029869D01*
X4103467Y-101989500D01*
X4103465Y-101989500D01*
X3896535Y-101989500D01*
X3896532Y-101989500D01*
X3693581Y-102029869D01*
X3502402Y-102109058D01*
X3330348Y-102224020D01*
X3184020Y-102370348D01*
X3069058Y-102542402D01*
X2989869Y-102733581D01*
X2949500Y-102936532D01*
X500500Y-102936532D01*
X500500Y-99630253D01*
X2949500Y-99630253D01*
X2949500Y-101369746D01*
X2949501Y-101369758D01*
X2961132Y-101428227D01*
X2961133Y-101428231D01*
X3005448Y-101494552D01*
X3071769Y-101538867D01*
X3116231Y-101547711D01*
X3130241Y-101550498D01*
X3130246Y-101550498D01*
X3130252Y-101550500D01*
X3130253Y-101550500D01*
X4869747Y-101550500D01*
X4869748Y-101550500D01*
X4928231Y-101538867D01*
X4994552Y-101494552D01*
X5038867Y-101428231D01*
X5050500Y-101369748D01*
X5050500Y-100734108D01*
X70549500Y-100734108D01*
X70549500Y-100865892D01*
X70579579Y-100978151D01*
X70583609Y-100993190D01*
X70649496Y-101107309D01*
X70649498Y-101107311D01*
X70649500Y-101107314D01*
X70742686Y-101200500D01*
X70742688Y-101200501D01*
X70742690Y-101200503D01*
X70856810Y-101266390D01*
X70856808Y-101266390D01*
X70856812Y-101266391D01*
X70856814Y-101266392D01*
X70984108Y-101300500D01*
X70984110Y-101300500D01*
X71115890Y-101300500D01*
X71115892Y-101300500D01*
X71243186Y-101266392D01*
X71243188Y-101266390D01*
X71243190Y-101266390D01*
X71357309Y-101200503D01*
X71357309Y-101200502D01*
X71357314Y-101200500D01*
X71450500Y-101107314D01*
X71516392Y-100993186D01*
X71550500Y-100865892D01*
X71550500Y-100734108D01*
X71516392Y-100606814D01*
X71516390Y-100606811D01*
X71516390Y-100606809D01*
X71450503Y-100492690D01*
X71450501Y-100492688D01*
X71450500Y-100492686D01*
X71357314Y-100399500D01*
X71357311Y-100399498D01*
X71357309Y-100399496D01*
X71243189Y-100333609D01*
X71243191Y-100333609D01*
X71193799Y-100320375D01*
X71115892Y-100299500D01*
X70984108Y-100299500D01*
X70906200Y-100320375D01*
X70856809Y-100333609D01*
X70742690Y-100399496D01*
X70649496Y-100492690D01*
X70583609Y-100606809D01*
X70583608Y-100606814D01*
X70549500Y-100734108D01*
X5050500Y-100734108D01*
X5050500Y-100134108D01*
X66449500Y-100134108D01*
X66449500Y-100265892D01*
X66467644Y-100333608D01*
X66483609Y-100393190D01*
X66549496Y-100507309D01*
X66549498Y-100507311D01*
X66549500Y-100507314D01*
X66642686Y-100600500D01*
X66642688Y-100600501D01*
X66642690Y-100600503D01*
X66756810Y-100666390D01*
X66756808Y-100666390D01*
X66756812Y-100666391D01*
X66756814Y-100666392D01*
X66884108Y-100700500D01*
X66884110Y-100700500D01*
X67015890Y-100700500D01*
X67015892Y-100700500D01*
X67143186Y-100666392D01*
X67143188Y-100666390D01*
X67143190Y-100666390D01*
X67185638Y-100641883D01*
X67257309Y-100600503D01*
X67257309Y-100600502D01*
X67257314Y-100600500D01*
X67350500Y-100507314D01*
X67416392Y-100393186D01*
X67450500Y-100265892D01*
X67450500Y-100134108D01*
X67416392Y-100006814D01*
X67416390Y-100006811D01*
X67416390Y-100006809D01*
X67350503Y-99892690D01*
X67350501Y-99892688D01*
X67350500Y-99892686D01*
X67257314Y-99799500D01*
X67257311Y-99799498D01*
X67257309Y-99799496D01*
X67143189Y-99733609D01*
X67143191Y-99733609D01*
X67093799Y-99720375D01*
X67015892Y-99699500D01*
X66884108Y-99699500D01*
X66806200Y-99720375D01*
X66756809Y-99733609D01*
X66642690Y-99799496D01*
X66549496Y-99892690D01*
X66483609Y-100006809D01*
X66483608Y-100006814D01*
X66449500Y-100134108D01*
X5050500Y-100134108D01*
X5050500Y-99630252D01*
X5038867Y-99571769D01*
X4994552Y-99505448D01*
X4994548Y-99505445D01*
X4928233Y-99461134D01*
X4928231Y-99461133D01*
X4928228Y-99461132D01*
X4928227Y-99461132D01*
X4869758Y-99449501D01*
X4869748Y-99449500D01*
X3130252Y-99449500D01*
X3130251Y-99449500D01*
X3130241Y-99449501D01*
X3071772Y-99461132D01*
X3071766Y-99461134D01*
X3005451Y-99505445D01*
X3005445Y-99505451D01*
X2961134Y-99571766D01*
X2961132Y-99571772D01*
X2949501Y-99630241D01*
X2949500Y-99630253D01*
X500500Y-99630253D01*
X500500Y-98234108D01*
X19499500Y-98234108D01*
X19499500Y-98365892D01*
X19529579Y-98478151D01*
X19533609Y-98493190D01*
X19599496Y-98607309D01*
X19599498Y-98607311D01*
X19599500Y-98607314D01*
X19692686Y-98700500D01*
X19692688Y-98700501D01*
X19692690Y-98700503D01*
X19806810Y-98766390D01*
X19806808Y-98766390D01*
X19806812Y-98766391D01*
X19806814Y-98766392D01*
X19934108Y-98800500D01*
X19934110Y-98800500D01*
X20065890Y-98800500D01*
X20065892Y-98800500D01*
X20193186Y-98766392D01*
X20193188Y-98766390D01*
X20193190Y-98766390D01*
X20307309Y-98700503D01*
X20307309Y-98700502D01*
X20307314Y-98700500D01*
X20400500Y-98607314D01*
X20466392Y-98493186D01*
X20500500Y-98365892D01*
X20500500Y-98234108D01*
X36549500Y-98234108D01*
X36549500Y-98365892D01*
X36579579Y-98478151D01*
X36583609Y-98493190D01*
X36649496Y-98607309D01*
X36649498Y-98607311D01*
X36649500Y-98607314D01*
X36742686Y-98700500D01*
X36742688Y-98700501D01*
X36742690Y-98700503D01*
X36856810Y-98766390D01*
X36856808Y-98766390D01*
X36856812Y-98766391D01*
X36856814Y-98766392D01*
X36984108Y-98800500D01*
X36984110Y-98800500D01*
X37115890Y-98800500D01*
X37115892Y-98800500D01*
X37243186Y-98766392D01*
X37243188Y-98766390D01*
X37243190Y-98766390D01*
X37357309Y-98700503D01*
X37357309Y-98700502D01*
X37357314Y-98700500D01*
X37450500Y-98607314D01*
X37516392Y-98493186D01*
X37550500Y-98365892D01*
X37550500Y-98234108D01*
X41049500Y-98234108D01*
X41049500Y-98365892D01*
X41079579Y-98478151D01*
X41083609Y-98493190D01*
X41149496Y-98607309D01*
X41149498Y-98607311D01*
X41149500Y-98607314D01*
X41242686Y-98700500D01*
X41242688Y-98700501D01*
X41242690Y-98700503D01*
X41356810Y-98766390D01*
X41356808Y-98766390D01*
X41356812Y-98766391D01*
X41356814Y-98766392D01*
X41484108Y-98800500D01*
X41484110Y-98800500D01*
X41615890Y-98800500D01*
X41615892Y-98800500D01*
X41743186Y-98766392D01*
X41743188Y-98766390D01*
X41743190Y-98766390D01*
X41857309Y-98700503D01*
X41857309Y-98700502D01*
X41857314Y-98700500D01*
X41950500Y-98607314D01*
X42016392Y-98493186D01*
X42050500Y-98365892D01*
X42050500Y-98234108D01*
X42016392Y-98106814D01*
X42016390Y-98106811D01*
X42016390Y-98106809D01*
X41950503Y-97992690D01*
X41950501Y-97992688D01*
X41950500Y-97992686D01*
X41857314Y-97899500D01*
X41857311Y-97899498D01*
X41857309Y-97899496D01*
X41743189Y-97833609D01*
X41743191Y-97833609D01*
X41693799Y-97820375D01*
X41615892Y-97799500D01*
X41484108Y-97799500D01*
X41406200Y-97820375D01*
X41356809Y-97833609D01*
X41242690Y-97899496D01*
X41149496Y-97992690D01*
X41083609Y-98106809D01*
X41083608Y-98106814D01*
X41049500Y-98234108D01*
X37550500Y-98234108D01*
X37516392Y-98106814D01*
X37516390Y-98106811D01*
X37516390Y-98106809D01*
X37450503Y-97992690D01*
X37450501Y-97992688D01*
X37450500Y-97992686D01*
X37357314Y-97899500D01*
X37357311Y-97899498D01*
X37357309Y-97899496D01*
X37243189Y-97833609D01*
X37243191Y-97833609D01*
X37193799Y-97820375D01*
X37115892Y-97799500D01*
X36984108Y-97799500D01*
X36906200Y-97820375D01*
X36856809Y-97833609D01*
X36742690Y-97899496D01*
X36649496Y-97992690D01*
X36583609Y-98106809D01*
X36583608Y-98106814D01*
X36549500Y-98234108D01*
X20500500Y-98234108D01*
X20466392Y-98106814D01*
X20466390Y-98106811D01*
X20466390Y-98106809D01*
X20400503Y-97992690D01*
X20400501Y-97992688D01*
X20400500Y-97992686D01*
X20307314Y-97899500D01*
X20307311Y-97899498D01*
X20307309Y-97899496D01*
X20193189Y-97833609D01*
X20193191Y-97833609D01*
X20143799Y-97820375D01*
X20065892Y-97799500D01*
X19934108Y-97799500D01*
X19856200Y-97820375D01*
X19806809Y-97833609D01*
X19692690Y-97899496D01*
X19599496Y-97992690D01*
X19533609Y-98106809D01*
X19533608Y-98106814D01*
X19499500Y-98234108D01*
X500500Y-98234108D01*
X500500Y-97034108D01*
X27699500Y-97034108D01*
X27699500Y-97165892D01*
X27729579Y-97278151D01*
X27733609Y-97293190D01*
X27799496Y-97407309D01*
X27799498Y-97407311D01*
X27799500Y-97407314D01*
X27892686Y-97500500D01*
X27892688Y-97500501D01*
X27892690Y-97500503D01*
X28006810Y-97566390D01*
X28006808Y-97566390D01*
X28006812Y-97566391D01*
X28006814Y-97566392D01*
X28134108Y-97600500D01*
X28134110Y-97600500D01*
X28265890Y-97600500D01*
X28265892Y-97600500D01*
X28393186Y-97566392D01*
X28393188Y-97566390D01*
X28393190Y-97566390D01*
X28507309Y-97500503D01*
X28507309Y-97500502D01*
X28507314Y-97500500D01*
X28600500Y-97407314D01*
X28666392Y-97293186D01*
X28700500Y-97165892D01*
X28700500Y-97034108D01*
X28666392Y-96906814D01*
X28666390Y-96906811D01*
X28666390Y-96906809D01*
X28600503Y-96792690D01*
X28600501Y-96792688D01*
X28600500Y-96792686D01*
X28507314Y-96699500D01*
X28507311Y-96699498D01*
X28507309Y-96699496D01*
X28393189Y-96633609D01*
X28393191Y-96633609D01*
X28343799Y-96620375D01*
X28265892Y-96599500D01*
X28134108Y-96599500D01*
X28056200Y-96620375D01*
X28006809Y-96633609D01*
X27892690Y-96699496D01*
X27799496Y-96792690D01*
X27733609Y-96906809D01*
X27733608Y-96906814D01*
X27699500Y-97034108D01*
X500500Y-97034108D01*
X500500Y-96329108D01*
X59974500Y-96329108D01*
X59974500Y-96460892D01*
X60004579Y-96573151D01*
X60008609Y-96588190D01*
X60074496Y-96702309D01*
X60074498Y-96702311D01*
X60074500Y-96702314D01*
X60167686Y-96795500D01*
X60167688Y-96795501D01*
X60167690Y-96795503D01*
X60281810Y-96861390D01*
X60281808Y-96861390D01*
X60281812Y-96861391D01*
X60281814Y-96861392D01*
X60409108Y-96895500D01*
X60409110Y-96895500D01*
X60540890Y-96895500D01*
X60540892Y-96895500D01*
X60668186Y-96861392D01*
X60668188Y-96861390D01*
X60668190Y-96861390D01*
X60782309Y-96795503D01*
X60782309Y-96795502D01*
X60782314Y-96795500D01*
X60875500Y-96702314D01*
X60941392Y-96588186D01*
X60975500Y-96460892D01*
X60975500Y-96329108D01*
X60941392Y-96201814D01*
X60941390Y-96201811D01*
X60941390Y-96201809D01*
X60875503Y-96087690D01*
X60875501Y-96087688D01*
X60875500Y-96087686D01*
X60782314Y-95994500D01*
X60782311Y-95994498D01*
X60782309Y-95994496D01*
X60668189Y-95928609D01*
X60668191Y-95928609D01*
X60618799Y-95915375D01*
X60540892Y-95894500D01*
X60409108Y-95894500D01*
X60331200Y-95915375D01*
X60281809Y-95928609D01*
X60167690Y-95994496D01*
X60074496Y-96087690D01*
X60008609Y-96201809D01*
X60008608Y-96201814D01*
X59974500Y-96329108D01*
X500500Y-96329108D01*
X500500Y-95734108D01*
X70549500Y-95734108D01*
X70549500Y-95865892D01*
X70566305Y-95928608D01*
X70583609Y-95993190D01*
X70649496Y-96107309D01*
X70649498Y-96107311D01*
X70649500Y-96107314D01*
X70742686Y-96200500D01*
X70742688Y-96200501D01*
X70742690Y-96200503D01*
X70856810Y-96266390D01*
X70856808Y-96266390D01*
X70856812Y-96266391D01*
X70856814Y-96266392D01*
X70984108Y-96300500D01*
X70984110Y-96300500D01*
X71115890Y-96300500D01*
X71115892Y-96300500D01*
X71243186Y-96266392D01*
X71243188Y-96266390D01*
X71243190Y-96266390D01*
X71357309Y-96200503D01*
X71357309Y-96200502D01*
X71357314Y-96200500D01*
X71450500Y-96107314D01*
X71461832Y-96087686D01*
X71516390Y-95993190D01*
X71516390Y-95993188D01*
X71516392Y-95993186D01*
X71550500Y-95865892D01*
X71550500Y-95734108D01*
X71516392Y-95606814D01*
X71516390Y-95606811D01*
X71516390Y-95606809D01*
X71450503Y-95492690D01*
X71450501Y-95492688D01*
X71450500Y-95492686D01*
X71357314Y-95399500D01*
X71357311Y-95399498D01*
X71357309Y-95399496D01*
X71243189Y-95333609D01*
X71243191Y-95333609D01*
X71193799Y-95320375D01*
X71115892Y-95299500D01*
X70984108Y-95299500D01*
X70906200Y-95320375D01*
X70856809Y-95333609D01*
X70742690Y-95399496D01*
X70649496Y-95492690D01*
X70583609Y-95606809D01*
X70583608Y-95606814D01*
X70549500Y-95734108D01*
X500500Y-95734108D01*
X500500Y-94734108D01*
X45587000Y-94734108D01*
X45587000Y-94865892D01*
X45617079Y-94978151D01*
X45621109Y-94993190D01*
X45686996Y-95107309D01*
X45686998Y-95107311D01*
X45687000Y-95107314D01*
X45780186Y-95200500D01*
X45780188Y-95200501D01*
X45780190Y-95200503D01*
X45894310Y-95266390D01*
X45894308Y-95266390D01*
X45894312Y-95266391D01*
X45894314Y-95266392D01*
X46021608Y-95300500D01*
X46021610Y-95300500D01*
X46153390Y-95300500D01*
X46153392Y-95300500D01*
X46280686Y-95266392D01*
X46280688Y-95266390D01*
X46280690Y-95266390D01*
X46394809Y-95200503D01*
X46394809Y-95200502D01*
X46394814Y-95200500D01*
X46488000Y-95107314D01*
X46553892Y-94993186D01*
X46588000Y-94865892D01*
X46588000Y-94734108D01*
X46553892Y-94606814D01*
X46553890Y-94606811D01*
X46553890Y-94606809D01*
X46488003Y-94492690D01*
X46488001Y-94492688D01*
X46488000Y-94492686D01*
X46394814Y-94399500D01*
X46394811Y-94399498D01*
X46394809Y-94399496D01*
X46280689Y-94333609D01*
X46280691Y-94333609D01*
X46231299Y-94320375D01*
X46153392Y-94299500D01*
X46021608Y-94299500D01*
X45943700Y-94320375D01*
X45894309Y-94333609D01*
X45780190Y-94399496D01*
X45686996Y-94492690D01*
X45621109Y-94606809D01*
X45621108Y-94606814D01*
X45587000Y-94734108D01*
X500500Y-94734108D01*
X500500Y-87934108D01*
X34587000Y-87934108D01*
X34587000Y-88065892D01*
X34617079Y-88178151D01*
X34621109Y-88193190D01*
X34686996Y-88307309D01*
X34686998Y-88307311D01*
X34687000Y-88307314D01*
X34780186Y-88400500D01*
X34780188Y-88400501D01*
X34780190Y-88400503D01*
X34894310Y-88466390D01*
X34894308Y-88466390D01*
X34894312Y-88466391D01*
X34894314Y-88466392D01*
X35021608Y-88500500D01*
X35021610Y-88500500D01*
X35153390Y-88500500D01*
X35153392Y-88500500D01*
X35280686Y-88466392D01*
X35280688Y-88466390D01*
X35280690Y-88466390D01*
X35394809Y-88400503D01*
X35394809Y-88400502D01*
X35394814Y-88400500D01*
X35488000Y-88307314D01*
X35553892Y-88193186D01*
X35588000Y-88065892D01*
X35588000Y-87934108D01*
X39587000Y-87934108D01*
X39587000Y-88065892D01*
X39617079Y-88178151D01*
X39621109Y-88193190D01*
X39686996Y-88307309D01*
X39686998Y-88307311D01*
X39687000Y-88307314D01*
X39780186Y-88400500D01*
X39780188Y-88400501D01*
X39780190Y-88400503D01*
X39894310Y-88466390D01*
X39894308Y-88466390D01*
X39894312Y-88466391D01*
X39894314Y-88466392D01*
X40021608Y-88500500D01*
X40021610Y-88500500D01*
X40153390Y-88500500D01*
X40153392Y-88500500D01*
X40280686Y-88466392D01*
X40280688Y-88466390D01*
X40280690Y-88466390D01*
X40394809Y-88400503D01*
X40394809Y-88400502D01*
X40394814Y-88400500D01*
X40488000Y-88307314D01*
X40553892Y-88193186D01*
X40588000Y-88065892D01*
X40588000Y-87934108D01*
X40553892Y-87806814D01*
X40553890Y-87806811D01*
X40553890Y-87806809D01*
X40488003Y-87692690D01*
X40488001Y-87692688D01*
X40488000Y-87692686D01*
X40394814Y-87599500D01*
X40394811Y-87599498D01*
X40394809Y-87599496D01*
X40280689Y-87533609D01*
X40280691Y-87533609D01*
X40231299Y-87520375D01*
X40153392Y-87499500D01*
X40021608Y-87499500D01*
X39943700Y-87520375D01*
X39894309Y-87533609D01*
X39780190Y-87599496D01*
X39686996Y-87692690D01*
X39621109Y-87806809D01*
X39621108Y-87806814D01*
X39587000Y-87934108D01*
X35588000Y-87934108D01*
X35553892Y-87806814D01*
X35553890Y-87806811D01*
X35553890Y-87806809D01*
X35488003Y-87692690D01*
X35488001Y-87692688D01*
X35488000Y-87692686D01*
X35394814Y-87599500D01*
X35394811Y-87599498D01*
X35394809Y-87599496D01*
X35280689Y-87533609D01*
X35280691Y-87533609D01*
X35231299Y-87520375D01*
X35153392Y-87499500D01*
X35021608Y-87499500D01*
X34943700Y-87520375D01*
X34894309Y-87533609D01*
X34780190Y-87599496D01*
X34686996Y-87692690D01*
X34621109Y-87806809D01*
X34621108Y-87806814D01*
X34587000Y-87934108D01*
X500500Y-87934108D01*
X500500Y-84234108D01*
X23499500Y-84234108D01*
X23499500Y-84365892D01*
X23529579Y-84478151D01*
X23533609Y-84493190D01*
X23599496Y-84607309D01*
X23599498Y-84607311D01*
X23599500Y-84607314D01*
X23692686Y-84700500D01*
X23692688Y-84700501D01*
X23692690Y-84700503D01*
X23806810Y-84766390D01*
X23806808Y-84766390D01*
X23806812Y-84766391D01*
X23806814Y-84766392D01*
X23934108Y-84800500D01*
X23934110Y-84800500D01*
X24065890Y-84800500D01*
X24065892Y-84800500D01*
X24193186Y-84766392D01*
X24193188Y-84766390D01*
X24193190Y-84766390D01*
X24249104Y-84734108D01*
X36412000Y-84734108D01*
X36412000Y-84865892D01*
X36442079Y-84978151D01*
X36446109Y-84993190D01*
X36511996Y-85107309D01*
X36511998Y-85107311D01*
X36512000Y-85107314D01*
X36605186Y-85200500D01*
X36605188Y-85200501D01*
X36605190Y-85200503D01*
X36719310Y-85266390D01*
X36719308Y-85266390D01*
X36719312Y-85266391D01*
X36719314Y-85266392D01*
X36846608Y-85300500D01*
X36846610Y-85300500D01*
X36978390Y-85300500D01*
X36978392Y-85300500D01*
X37105686Y-85266392D01*
X37105688Y-85266390D01*
X37105690Y-85266390D01*
X37219809Y-85200503D01*
X37219809Y-85200502D01*
X37219814Y-85200500D01*
X37313000Y-85107314D01*
X37378892Y-84993186D01*
X37413000Y-84865892D01*
X37413000Y-84734108D01*
X37378892Y-84606814D01*
X37378890Y-84606811D01*
X37378890Y-84606809D01*
X37313003Y-84492690D01*
X37313001Y-84492688D01*
X37313000Y-84492686D01*
X37219814Y-84399500D01*
X37219811Y-84399498D01*
X37219809Y-84399496D01*
X37105689Y-84333609D01*
X37105691Y-84333609D01*
X37056299Y-84320375D01*
X36978392Y-84299500D01*
X36846608Y-84299500D01*
X36768700Y-84320375D01*
X36719309Y-84333609D01*
X36605190Y-84399496D01*
X36511996Y-84492690D01*
X36446109Y-84606809D01*
X36446108Y-84606814D01*
X36412000Y-84734108D01*
X24249104Y-84734108D01*
X24307309Y-84700503D01*
X24307309Y-84700502D01*
X24307314Y-84700500D01*
X24400500Y-84607314D01*
X24466392Y-84493186D01*
X24500500Y-84365892D01*
X24500500Y-84234108D01*
X24466392Y-84106814D01*
X24466390Y-84106811D01*
X24466390Y-84106809D01*
X24400503Y-83992690D01*
X24400501Y-83992688D01*
X24400500Y-83992686D01*
X24307314Y-83899500D01*
X24307311Y-83899498D01*
X24307309Y-83899496D01*
X24193189Y-83833609D01*
X24193191Y-83833609D01*
X24178722Y-83829732D01*
X24065892Y-83799500D01*
X23934108Y-83799500D01*
X23856200Y-83820375D01*
X23806809Y-83833609D01*
X23692690Y-83899496D01*
X23599496Y-83992690D01*
X23533609Y-84106809D01*
X23533608Y-84106814D01*
X23499500Y-84234108D01*
X500500Y-84234108D01*
X500500Y-83734108D01*
X53499500Y-83734108D01*
X53499500Y-83865892D01*
X53529579Y-83978151D01*
X53533609Y-83993190D01*
X53599496Y-84107309D01*
X53599498Y-84107311D01*
X53599500Y-84107314D01*
X53692686Y-84200500D01*
X53692688Y-84200501D01*
X53692690Y-84200503D01*
X53806810Y-84266390D01*
X53806808Y-84266390D01*
X53806812Y-84266391D01*
X53806814Y-84266392D01*
X53934108Y-84300500D01*
X53934110Y-84300500D01*
X54065890Y-84300500D01*
X54065892Y-84300500D01*
X54193186Y-84266392D01*
X54193188Y-84266390D01*
X54193190Y-84266390D01*
X54307309Y-84200503D01*
X54307309Y-84200502D01*
X54307314Y-84200500D01*
X54400500Y-84107314D01*
X54466392Y-83993186D01*
X54500500Y-83865892D01*
X54500500Y-83734108D01*
X63399500Y-83734108D01*
X63399500Y-83865892D01*
X63429579Y-83978151D01*
X63433609Y-83993190D01*
X63499496Y-84107309D01*
X63499498Y-84107311D01*
X63499500Y-84107314D01*
X63592686Y-84200500D01*
X63592688Y-84200501D01*
X63592690Y-84200503D01*
X63706810Y-84266390D01*
X63706808Y-84266390D01*
X63706812Y-84266391D01*
X63706814Y-84266392D01*
X63834108Y-84300500D01*
X63834110Y-84300500D01*
X63965890Y-84300500D01*
X63965892Y-84300500D01*
X64093186Y-84266392D01*
X64093188Y-84266390D01*
X64093190Y-84266390D01*
X64207309Y-84200503D01*
X64207309Y-84200502D01*
X64207314Y-84200500D01*
X64300500Y-84107314D01*
X64366392Y-83993186D01*
X64400500Y-83865892D01*
X64400500Y-83734108D01*
X64366392Y-83606814D01*
X64366390Y-83606811D01*
X64366390Y-83606809D01*
X64300503Y-83492690D01*
X64300501Y-83492688D01*
X64300500Y-83492686D01*
X64207314Y-83399500D01*
X64207311Y-83399498D01*
X64207309Y-83399496D01*
X64093189Y-83333609D01*
X64093191Y-83333609D01*
X64043799Y-83320375D01*
X63965892Y-83299500D01*
X63834108Y-83299500D01*
X63756200Y-83320375D01*
X63706809Y-83333609D01*
X63592690Y-83399496D01*
X63499496Y-83492690D01*
X63433609Y-83606809D01*
X63433608Y-83606814D01*
X63399500Y-83734108D01*
X54500500Y-83734108D01*
X54466392Y-83606814D01*
X54466390Y-83606811D01*
X54466390Y-83606809D01*
X54400503Y-83492690D01*
X54400501Y-83492688D01*
X54400500Y-83492686D01*
X54307314Y-83399500D01*
X54307311Y-83399498D01*
X54307309Y-83399496D01*
X54193189Y-83333609D01*
X54193191Y-83333609D01*
X54143799Y-83320375D01*
X54065892Y-83299500D01*
X53934108Y-83299500D01*
X53856200Y-83320375D01*
X53806809Y-83333609D01*
X53692690Y-83399496D01*
X53599496Y-83492690D01*
X53533609Y-83606809D01*
X53533608Y-83606814D01*
X53499500Y-83734108D01*
X500500Y-83734108D01*
X500500Y-80976532D01*
X5449500Y-80976532D01*
X5449500Y-81183467D01*
X5489869Y-81386418D01*
X5569058Y-81577597D01*
X5569059Y-81577598D01*
X5684023Y-81749655D01*
X5830345Y-81895977D01*
X6002402Y-82010941D01*
X6193580Y-82090130D01*
X6396535Y-82130500D01*
X6396536Y-82130500D01*
X6603464Y-82130500D01*
X6603465Y-82130500D01*
X6806420Y-82090130D01*
X6997598Y-82010941D01*
X7169655Y-81895977D01*
X7315977Y-81749655D01*
X7430941Y-81577598D01*
X7434458Y-81569108D01*
X30499500Y-81569108D01*
X30499500Y-81700892D01*
X30512565Y-81749651D01*
X30533609Y-81828190D01*
X30599496Y-81942309D01*
X30599498Y-81942311D01*
X30599500Y-81942314D01*
X30692686Y-82035500D01*
X30692688Y-82035501D01*
X30692690Y-82035503D01*
X30806810Y-82101390D01*
X30806808Y-82101390D01*
X30806812Y-82101391D01*
X30806814Y-82101392D01*
X30934108Y-82135500D01*
X30934110Y-82135500D01*
X31065890Y-82135500D01*
X31065892Y-82135500D01*
X31193186Y-82101392D01*
X31193188Y-82101390D01*
X31193190Y-82101390D01*
X31307309Y-82035503D01*
X31307309Y-82035502D01*
X31307314Y-82035500D01*
X31400500Y-81942314D01*
X31466392Y-81828186D01*
X31500500Y-81700892D01*
X31500500Y-81569108D01*
X31466392Y-81441814D01*
X31466390Y-81441811D01*
X31466390Y-81441809D01*
X31400503Y-81327690D01*
X31400501Y-81327688D01*
X31400500Y-81327686D01*
X31307314Y-81234500D01*
X31307311Y-81234498D01*
X31307309Y-81234496D01*
X31193189Y-81168609D01*
X31193191Y-81168609D01*
X31143799Y-81155375D01*
X31065892Y-81134500D01*
X30934108Y-81134500D01*
X30856200Y-81155375D01*
X30806809Y-81168609D01*
X30692690Y-81234496D01*
X30599496Y-81327690D01*
X30533609Y-81441809D01*
X30533608Y-81441814D01*
X30499500Y-81569108D01*
X7434458Y-81569108D01*
X7510130Y-81386420D01*
X7550500Y-81183465D01*
X7550500Y-80976535D01*
X7510130Y-80773580D01*
X7430941Y-80582402D01*
X7315977Y-80410345D01*
X7169655Y-80264023D01*
X6997598Y-80149059D01*
X6997599Y-80149059D01*
X6997597Y-80149058D01*
X6806418Y-80069869D01*
X6603467Y-80029500D01*
X6603465Y-80029500D01*
X6396535Y-80029500D01*
X6396532Y-80029500D01*
X6193581Y-80069869D01*
X6002402Y-80149058D01*
X5830348Y-80264020D01*
X5684020Y-80410348D01*
X5569058Y-80582402D01*
X5489869Y-80773581D01*
X5449500Y-80976532D01*
X500500Y-80976532D01*
X500500Y-76897824D01*
X5149999Y-76897824D01*
X5156401Y-76957370D01*
X5156403Y-76957381D01*
X5206646Y-77092088D01*
X5206647Y-77092090D01*
X5292807Y-77207184D01*
X5292815Y-77207192D01*
X5407909Y-77293352D01*
X5407911Y-77293353D01*
X5542618Y-77343596D01*
X5542629Y-77343598D01*
X5602176Y-77350000D01*
X6130119Y-77350000D01*
X6188310Y-77368907D01*
X6224274Y-77418407D01*
X6224274Y-77479593D01*
X6188310Y-77529093D01*
X6168007Y-77540462D01*
X6118697Y-77560887D01*
X6002402Y-77609058D01*
X5830348Y-77724020D01*
X5684020Y-77870348D01*
X5569058Y-78042402D01*
X5489869Y-78233581D01*
X5449500Y-78436532D01*
X5449500Y-78643467D01*
X5489869Y-78846418D01*
X5569058Y-79037597D01*
X5569059Y-79037598D01*
X5684023Y-79209655D01*
X5830345Y-79355977D01*
X6002402Y-79470941D01*
X6193580Y-79550130D01*
X6396535Y-79590500D01*
X6396536Y-79590500D01*
X6603464Y-79590500D01*
X6603465Y-79590500D01*
X6806420Y-79550130D01*
X6997598Y-79470941D01*
X7169655Y-79355977D01*
X7315977Y-79209655D01*
X7430941Y-79037598D01*
X7510130Y-78846420D01*
X7550500Y-78643465D01*
X7550500Y-78436535D01*
X7510130Y-78233580D01*
X7430941Y-78042402D01*
X7358582Y-77934108D01*
X65049500Y-77934108D01*
X65049500Y-78065892D01*
X65079579Y-78178151D01*
X65083609Y-78193190D01*
X65149496Y-78307309D01*
X65149498Y-78307311D01*
X65149500Y-78307314D01*
X65242686Y-78400500D01*
X65242688Y-78400501D01*
X65242690Y-78400503D01*
X65356810Y-78466390D01*
X65356808Y-78466390D01*
X65356812Y-78466391D01*
X65356814Y-78466392D01*
X65484108Y-78500500D01*
X65484110Y-78500500D01*
X65615890Y-78500500D01*
X65615892Y-78500500D01*
X65743186Y-78466392D01*
X65743188Y-78466390D01*
X65743190Y-78466390D01*
X65857309Y-78400503D01*
X65857309Y-78400502D01*
X65857314Y-78400500D01*
X65950500Y-78307314D01*
X65993070Y-78233581D01*
X66016390Y-78193190D01*
X66016390Y-78193188D01*
X66016392Y-78193186D01*
X66050500Y-78065892D01*
X66050500Y-77934108D01*
X69749500Y-77934108D01*
X69749500Y-78065892D01*
X69779579Y-78178151D01*
X69783609Y-78193190D01*
X69849496Y-78307309D01*
X69849498Y-78307311D01*
X69849500Y-78307314D01*
X69942686Y-78400500D01*
X69942688Y-78400501D01*
X69942690Y-78400503D01*
X70056810Y-78466390D01*
X70056808Y-78466390D01*
X70056812Y-78466391D01*
X70056814Y-78466392D01*
X70184108Y-78500500D01*
X70184110Y-78500500D01*
X70315890Y-78500500D01*
X70315892Y-78500500D01*
X70443186Y-78466392D01*
X70443188Y-78466390D01*
X70443190Y-78466390D01*
X70557309Y-78400503D01*
X70557309Y-78400502D01*
X70557314Y-78400500D01*
X70650500Y-78307314D01*
X70693070Y-78233581D01*
X70716390Y-78193190D01*
X70716390Y-78193188D01*
X70716392Y-78193186D01*
X70750500Y-78065892D01*
X70750500Y-77934108D01*
X70716392Y-77806814D01*
X70716390Y-77806811D01*
X70716390Y-77806809D01*
X70650503Y-77692690D01*
X70650501Y-77692688D01*
X70650500Y-77692686D01*
X70557314Y-77599500D01*
X70557311Y-77599498D01*
X70557309Y-77599496D01*
X70443189Y-77533609D01*
X70443191Y-77533609D01*
X70393799Y-77520375D01*
X70315892Y-77499500D01*
X70184108Y-77499500D01*
X70106200Y-77520375D01*
X70056809Y-77533609D01*
X69942690Y-77599496D01*
X69849496Y-77692690D01*
X69783609Y-77806809D01*
X69783608Y-77806814D01*
X69749500Y-77934108D01*
X66050500Y-77934108D01*
X66016392Y-77806814D01*
X66016390Y-77806811D01*
X66016390Y-77806809D01*
X65950503Y-77692690D01*
X65950501Y-77692688D01*
X65950500Y-77692686D01*
X65857314Y-77599500D01*
X65857311Y-77599498D01*
X65857309Y-77599496D01*
X65743189Y-77533609D01*
X65743191Y-77533609D01*
X65693799Y-77520375D01*
X65615892Y-77499500D01*
X65484108Y-77499500D01*
X65406200Y-77520375D01*
X65356809Y-77533609D01*
X65242690Y-77599496D01*
X65149496Y-77692690D01*
X65083609Y-77806809D01*
X65083608Y-77806814D01*
X65049500Y-77934108D01*
X7358582Y-77934108D01*
X7315977Y-77870345D01*
X7169655Y-77724023D01*
X7169651Y-77724020D01*
X6997597Y-77609058D01*
X6901528Y-77569265D01*
X6831994Y-77540463D01*
X6785470Y-77500727D01*
X6771186Y-77441233D01*
X6794601Y-77384705D01*
X6846770Y-77352735D01*
X6869881Y-77350000D01*
X7397824Y-77350000D01*
X7457370Y-77343598D01*
X7457381Y-77343596D01*
X7592088Y-77293353D01*
X7592090Y-77293352D01*
X7707184Y-77207192D01*
X7707192Y-77207184D01*
X7761898Y-77134108D01*
X28499500Y-77134108D01*
X28499500Y-77265892D01*
X28522769Y-77352735D01*
X28533609Y-77393190D01*
X28599496Y-77507309D01*
X28599498Y-77507311D01*
X28599500Y-77507314D01*
X28692686Y-77600500D01*
X28692688Y-77600501D01*
X28692690Y-77600503D01*
X28806810Y-77666390D01*
X28806808Y-77666390D01*
X28806812Y-77666391D01*
X28806814Y-77666392D01*
X28934108Y-77700500D01*
X28934110Y-77700500D01*
X29065890Y-77700500D01*
X29065892Y-77700500D01*
X29193186Y-77666392D01*
X29193188Y-77666390D01*
X29193190Y-77666390D01*
X29307309Y-77600503D01*
X29307309Y-77600502D01*
X29307314Y-77600500D01*
X29400500Y-77507314D01*
X29404303Y-77500727D01*
X29466390Y-77393190D01*
X29466390Y-77393188D01*
X29466392Y-77393186D01*
X29500500Y-77265892D01*
X29500500Y-77134108D01*
X29466392Y-77006814D01*
X29466390Y-77006811D01*
X29466390Y-77006809D01*
X29400503Y-76892690D01*
X29400501Y-76892688D01*
X29400500Y-76892686D01*
X29307314Y-76799500D01*
X29307311Y-76799498D01*
X29307309Y-76799496D01*
X29193189Y-76733609D01*
X29193191Y-76733609D01*
X29143799Y-76720375D01*
X29065892Y-76699500D01*
X28934108Y-76699500D01*
X28856200Y-76720375D01*
X28806809Y-76733609D01*
X28692690Y-76799496D01*
X28599496Y-76892690D01*
X28533609Y-77006809D01*
X28524582Y-77040500D01*
X28499500Y-77134108D01*
X7761898Y-77134108D01*
X7793352Y-77092091D01*
X7843596Y-76957378D01*
X7843598Y-76957370D01*
X7850000Y-76897824D01*
X7850000Y-76250001D01*
X7849999Y-76250000D01*
X6933012Y-76250000D01*
X6965925Y-76192993D01*
X7000000Y-76065826D01*
X7000000Y-75934174D01*
X6973187Y-75834108D01*
X27499500Y-75834108D01*
X27499500Y-75965892D01*
X27519223Y-76039500D01*
X27533609Y-76093190D01*
X27599496Y-76207309D01*
X27599498Y-76207311D01*
X27599500Y-76207314D01*
X27692686Y-76300500D01*
X27692688Y-76300501D01*
X27692690Y-76300503D01*
X27806810Y-76366390D01*
X27806808Y-76366390D01*
X27806812Y-76366391D01*
X27806814Y-76366392D01*
X27934108Y-76400500D01*
X27934110Y-76400500D01*
X28065890Y-76400500D01*
X28065892Y-76400500D01*
X28193186Y-76366392D01*
X28193188Y-76366390D01*
X28193190Y-76366390D01*
X28249104Y-76334108D01*
X34587000Y-76334108D01*
X34587000Y-76465892D01*
X34589202Y-76474109D01*
X34621109Y-76593190D01*
X34686996Y-76707309D01*
X34686998Y-76707311D01*
X34687000Y-76707314D01*
X34780186Y-76800500D01*
X34780188Y-76800501D01*
X34780190Y-76800503D01*
X34894310Y-76866390D01*
X34894308Y-76866390D01*
X34894312Y-76866391D01*
X34894314Y-76866392D01*
X35021608Y-76900500D01*
X35021610Y-76900500D01*
X35153390Y-76900500D01*
X35153392Y-76900500D01*
X35280686Y-76866392D01*
X35280688Y-76866390D01*
X35280690Y-76866390D01*
X35394809Y-76800503D01*
X35394809Y-76800502D01*
X35394814Y-76800500D01*
X35488000Y-76707314D01*
X35488003Y-76707309D01*
X35553890Y-76593190D01*
X35553890Y-76593188D01*
X35553892Y-76593186D01*
X35588000Y-76465892D01*
X35588000Y-76334108D01*
X39549500Y-76334108D01*
X39549500Y-76465892D01*
X39551702Y-76474109D01*
X39583609Y-76593190D01*
X39649496Y-76707309D01*
X39649498Y-76707311D01*
X39649500Y-76707314D01*
X39742686Y-76800500D01*
X39742688Y-76800501D01*
X39742690Y-76800503D01*
X39856810Y-76866390D01*
X39856808Y-76866390D01*
X39856812Y-76866391D01*
X39856814Y-76866392D01*
X39984108Y-76900500D01*
X39984110Y-76900500D01*
X40115890Y-76900500D01*
X40115892Y-76900500D01*
X40243186Y-76866392D01*
X40243188Y-76866390D01*
X40243190Y-76866390D01*
X40357309Y-76800503D01*
X40357309Y-76800502D01*
X40357314Y-76800500D01*
X40450500Y-76707314D01*
X40450503Y-76707309D01*
X40516390Y-76593190D01*
X40516390Y-76593188D01*
X40516392Y-76593186D01*
X40550500Y-76465892D01*
X40550500Y-76436532D01*
X74949500Y-76436532D01*
X74949500Y-76643467D01*
X74989869Y-76846418D01*
X75069058Y-77037597D01*
X75133544Y-77134108D01*
X75184023Y-77209655D01*
X75330345Y-77355977D01*
X75502402Y-77470941D01*
X75693580Y-77550130D01*
X75896535Y-77590500D01*
X75896536Y-77590500D01*
X76103464Y-77590500D01*
X76103465Y-77590500D01*
X76306420Y-77550130D01*
X76497598Y-77470941D01*
X76669655Y-77355977D01*
X76815977Y-77209655D01*
X76930941Y-77037598D01*
X77010130Y-76846420D01*
X77050500Y-76643465D01*
X77050500Y-76474108D01*
X77999500Y-76474108D01*
X77999500Y-76605892D01*
X78009567Y-76643463D01*
X78033609Y-76733190D01*
X78099496Y-76847309D01*
X78099498Y-76847311D01*
X78099500Y-76847314D01*
X78192686Y-76940500D01*
X78192688Y-76940501D01*
X78192690Y-76940503D01*
X78306810Y-77006390D01*
X78306808Y-77006390D01*
X78306812Y-77006391D01*
X78306814Y-77006392D01*
X78434108Y-77040500D01*
X78434110Y-77040500D01*
X78565890Y-77040500D01*
X78565892Y-77040500D01*
X78693186Y-77006392D01*
X78693188Y-77006390D01*
X78693190Y-77006390D01*
X78807309Y-76940503D01*
X78807309Y-76940502D01*
X78807314Y-76940500D01*
X78900500Y-76847314D01*
X78901017Y-76846418D01*
X78966390Y-76733190D01*
X78966390Y-76733188D01*
X78966392Y-76733186D01*
X79000500Y-76605892D01*
X79000500Y-76474108D01*
X78966392Y-76346814D01*
X78966390Y-76346811D01*
X78966390Y-76346809D01*
X78900503Y-76232690D01*
X78900501Y-76232688D01*
X78900500Y-76232686D01*
X78807314Y-76139500D01*
X78807311Y-76139498D01*
X78807309Y-76139496D01*
X78693189Y-76073609D01*
X78693191Y-76073609D01*
X78643799Y-76060375D01*
X78565892Y-76039500D01*
X78434108Y-76039500D01*
X78356200Y-76060375D01*
X78306809Y-76073609D01*
X78192690Y-76139496D01*
X78099496Y-76232690D01*
X78033609Y-76346809D01*
X78028362Y-76366392D01*
X77999500Y-76474108D01*
X77050500Y-76474108D01*
X77050500Y-76436535D01*
X77010130Y-76233580D01*
X76930941Y-76042402D01*
X76815977Y-75870345D01*
X76669655Y-75724023D01*
X76643900Y-75706814D01*
X76497597Y-75609058D01*
X76306418Y-75529869D01*
X76103467Y-75489500D01*
X76103465Y-75489500D01*
X75896535Y-75489500D01*
X75896532Y-75489500D01*
X75693581Y-75529869D01*
X75502402Y-75609058D01*
X75330348Y-75724020D01*
X75184020Y-75870348D01*
X75069058Y-76042402D01*
X74989869Y-76233581D01*
X74949500Y-76436532D01*
X40550500Y-76436532D01*
X40550500Y-76334108D01*
X40516392Y-76206814D01*
X40516390Y-76206811D01*
X40516390Y-76206809D01*
X40450503Y-76092690D01*
X40450501Y-76092688D01*
X40450500Y-76092686D01*
X40357314Y-75999500D01*
X40357311Y-75999498D01*
X40357309Y-75999496D01*
X40243189Y-75933609D01*
X40243191Y-75933609D01*
X40193799Y-75920375D01*
X40115892Y-75899500D01*
X39984108Y-75899500D01*
X39906200Y-75920375D01*
X39856809Y-75933609D01*
X39742690Y-75999496D01*
X39649496Y-76092690D01*
X39583609Y-76206809D01*
X39576436Y-76233580D01*
X39549500Y-76334108D01*
X35588000Y-76334108D01*
X35553892Y-76206814D01*
X35553890Y-76206811D01*
X35553890Y-76206809D01*
X35488003Y-76092690D01*
X35488001Y-76092688D01*
X35488000Y-76092686D01*
X35394814Y-75999500D01*
X35394811Y-75999498D01*
X35394809Y-75999496D01*
X35280689Y-75933609D01*
X35280691Y-75933609D01*
X35231299Y-75920375D01*
X35153392Y-75899500D01*
X35021608Y-75899500D01*
X34943700Y-75920375D01*
X34894309Y-75933609D01*
X34780190Y-75999496D01*
X34686996Y-76092690D01*
X34621109Y-76206809D01*
X34613936Y-76233580D01*
X34587000Y-76334108D01*
X28249104Y-76334108D01*
X28307309Y-76300503D01*
X28307309Y-76300502D01*
X28307314Y-76300500D01*
X28400500Y-76207314D01*
X28466392Y-76093186D01*
X28500500Y-75965892D01*
X28500500Y-75834108D01*
X28466392Y-75706814D01*
X28466390Y-75706811D01*
X28466390Y-75706809D01*
X28400503Y-75592690D01*
X28400501Y-75592688D01*
X28400500Y-75592686D01*
X28307314Y-75499500D01*
X28307311Y-75499498D01*
X28307309Y-75499496D01*
X28193189Y-75433609D01*
X28193191Y-75433609D01*
X28143799Y-75420375D01*
X28065892Y-75399500D01*
X27934108Y-75399500D01*
X27856200Y-75420375D01*
X27806809Y-75433609D01*
X27692690Y-75499496D01*
X27599496Y-75592690D01*
X27533609Y-75706809D01*
X27528997Y-75724023D01*
X27499500Y-75834108D01*
X6973187Y-75834108D01*
X6965925Y-75807007D01*
X6933012Y-75750000D01*
X7849999Y-75750000D01*
X7850000Y-75749999D01*
X7850000Y-75102175D01*
X7843598Y-75042629D01*
X7843596Y-75042618D01*
X7793353Y-74907911D01*
X7793352Y-74907909D01*
X7707192Y-74792815D01*
X7707184Y-74792807D01*
X7592090Y-74706647D01*
X7592088Y-74706646D01*
X7457381Y-74656403D01*
X7457370Y-74656401D01*
X7397824Y-74650000D01*
X6750001Y-74650000D01*
X6750000Y-74650001D01*
X6750000Y-75566988D01*
X6692993Y-75534075D01*
X6565826Y-75500000D01*
X6434174Y-75500000D01*
X6307007Y-75534075D01*
X6250000Y-75566988D01*
X6250000Y-74650001D01*
X6249999Y-74650000D01*
X5602176Y-74650000D01*
X5542629Y-74656401D01*
X5542618Y-74656403D01*
X5407911Y-74706646D01*
X5407909Y-74706647D01*
X5292815Y-74792807D01*
X5292807Y-74792815D01*
X5206647Y-74907909D01*
X5206646Y-74907911D01*
X5156403Y-75042618D01*
X5156401Y-75042629D01*
X5150000Y-75102175D01*
X5150000Y-75749999D01*
X5150001Y-75750000D01*
X6066988Y-75750000D01*
X6034075Y-75807007D01*
X6000000Y-75934174D01*
X6000000Y-76065826D01*
X6034075Y-76192993D01*
X6066988Y-76250000D01*
X5150001Y-76250000D01*
X5150000Y-76250001D01*
X5150000Y-76897824D01*
X5149999Y-76897824D01*
X500500Y-76897824D01*
X500500Y-73934108D01*
X34587000Y-73934108D01*
X34587000Y-74065892D01*
X34617079Y-74178151D01*
X34621109Y-74193190D01*
X34686996Y-74307309D01*
X34686998Y-74307311D01*
X34687000Y-74307314D01*
X34780186Y-74400500D01*
X34780188Y-74400501D01*
X34780190Y-74400503D01*
X34894310Y-74466390D01*
X34894308Y-74466390D01*
X34894312Y-74466391D01*
X34894314Y-74466392D01*
X35021608Y-74500500D01*
X35021610Y-74500500D01*
X35153390Y-74500500D01*
X35153392Y-74500500D01*
X35280686Y-74466392D01*
X35280688Y-74466390D01*
X35280690Y-74466390D01*
X35394809Y-74400503D01*
X35394809Y-74400502D01*
X35394814Y-74400500D01*
X35488000Y-74307314D01*
X35553892Y-74193186D01*
X35588000Y-74065892D01*
X35588000Y-73934108D01*
X39587000Y-73934108D01*
X39587000Y-74065892D01*
X39617079Y-74178151D01*
X39621109Y-74193190D01*
X39686996Y-74307309D01*
X39686998Y-74307311D01*
X39687000Y-74307314D01*
X39780186Y-74400500D01*
X39780188Y-74400501D01*
X39780190Y-74400503D01*
X39894310Y-74466390D01*
X39894308Y-74466390D01*
X39894312Y-74466391D01*
X39894314Y-74466392D01*
X40021608Y-74500500D01*
X40021610Y-74500500D01*
X40153390Y-74500500D01*
X40153392Y-74500500D01*
X40280686Y-74466392D01*
X40280688Y-74466390D01*
X40280690Y-74466390D01*
X40394809Y-74400503D01*
X40394809Y-74400502D01*
X40394814Y-74400500D01*
X40488000Y-74307314D01*
X40553892Y-74193186D01*
X40588000Y-74065892D01*
X40588000Y-73934108D01*
X65087000Y-73934108D01*
X65087000Y-74065892D01*
X65117079Y-74178151D01*
X65121109Y-74193190D01*
X65186996Y-74307309D01*
X65186998Y-74307311D01*
X65187000Y-74307314D01*
X65280186Y-74400500D01*
X65280188Y-74400501D01*
X65280190Y-74400503D01*
X65394310Y-74466390D01*
X65394308Y-74466390D01*
X65394312Y-74466391D01*
X65394314Y-74466392D01*
X65521608Y-74500500D01*
X65521610Y-74500500D01*
X65653390Y-74500500D01*
X65653392Y-74500500D01*
X65780686Y-74466392D01*
X65780688Y-74466390D01*
X65780690Y-74466390D01*
X65894809Y-74400503D01*
X65894809Y-74400502D01*
X65894814Y-74400500D01*
X65988000Y-74307314D01*
X66053892Y-74193186D01*
X66088000Y-74065892D01*
X66088000Y-73934108D01*
X69712000Y-73934108D01*
X69712000Y-74065892D01*
X69742079Y-74178151D01*
X69746109Y-74193190D01*
X69811996Y-74307309D01*
X69811998Y-74307311D01*
X69812000Y-74307314D01*
X69905186Y-74400500D01*
X69905188Y-74400501D01*
X69905190Y-74400503D01*
X70019310Y-74466390D01*
X70019308Y-74466390D01*
X70019312Y-74466391D01*
X70019314Y-74466392D01*
X70146608Y-74500500D01*
X70146610Y-74500500D01*
X70278390Y-74500500D01*
X70278392Y-74500500D01*
X70405686Y-74466392D01*
X70405688Y-74466390D01*
X70405690Y-74466390D01*
X70519809Y-74400503D01*
X70519809Y-74400502D01*
X70519814Y-74400500D01*
X70613000Y-74307314D01*
X70678892Y-74193186D01*
X70713000Y-74065892D01*
X70713000Y-73934108D01*
X70678892Y-73806814D01*
X70678890Y-73806811D01*
X70678890Y-73806809D01*
X70613003Y-73692690D01*
X70613001Y-73692688D01*
X70613000Y-73692686D01*
X70519814Y-73599500D01*
X70519811Y-73599498D01*
X70519809Y-73599496D01*
X70405689Y-73533609D01*
X70405691Y-73533609D01*
X70356299Y-73520375D01*
X70278392Y-73499500D01*
X70146608Y-73499500D01*
X70068700Y-73520375D01*
X70019309Y-73533609D01*
X69905190Y-73599496D01*
X69811996Y-73692690D01*
X69746109Y-73806809D01*
X69746108Y-73806814D01*
X69712000Y-73934108D01*
X66088000Y-73934108D01*
X66053892Y-73806814D01*
X66053890Y-73806811D01*
X66053890Y-73806809D01*
X65988003Y-73692690D01*
X65988001Y-73692688D01*
X65988000Y-73692686D01*
X65894814Y-73599500D01*
X65894811Y-73599498D01*
X65894809Y-73599496D01*
X65780689Y-73533609D01*
X65780691Y-73533609D01*
X65731299Y-73520375D01*
X65653392Y-73499500D01*
X65521608Y-73499500D01*
X65443700Y-73520375D01*
X65394309Y-73533609D01*
X65280190Y-73599496D01*
X65186996Y-73692690D01*
X65121109Y-73806809D01*
X65121108Y-73806814D01*
X65087000Y-73934108D01*
X40588000Y-73934108D01*
X40553892Y-73806814D01*
X40553890Y-73806811D01*
X40553890Y-73806809D01*
X40488003Y-73692690D01*
X40488001Y-73692688D01*
X40488000Y-73692686D01*
X40394814Y-73599500D01*
X40394811Y-73599498D01*
X40394809Y-73599496D01*
X40280689Y-73533609D01*
X40280691Y-73533609D01*
X40231299Y-73520375D01*
X40153392Y-73499500D01*
X40021608Y-73499500D01*
X39943700Y-73520375D01*
X39894309Y-73533609D01*
X39780190Y-73599496D01*
X39686996Y-73692690D01*
X39621109Y-73806809D01*
X39621108Y-73806814D01*
X39587000Y-73934108D01*
X35588000Y-73934108D01*
X35553892Y-73806814D01*
X35553890Y-73806811D01*
X35553890Y-73806809D01*
X35488003Y-73692690D01*
X35488001Y-73692688D01*
X35488000Y-73692686D01*
X35394814Y-73599500D01*
X35394811Y-73599498D01*
X35394809Y-73599496D01*
X35280689Y-73533609D01*
X35280691Y-73533609D01*
X35231299Y-73520375D01*
X35153392Y-73499500D01*
X35021608Y-73499500D01*
X34943700Y-73520375D01*
X34894309Y-73533609D01*
X34780190Y-73599496D01*
X34686996Y-73692690D01*
X34621109Y-73806809D01*
X34621108Y-73806814D01*
X34587000Y-73934108D01*
X500500Y-73934108D01*
X500500Y-73130253D01*
X74949500Y-73130253D01*
X74949500Y-74869746D01*
X74949501Y-74869758D01*
X74957091Y-74907911D01*
X74961133Y-74928231D01*
X75005448Y-74994552D01*
X75071769Y-75038867D01*
X75116231Y-75047711D01*
X75130241Y-75050498D01*
X75130246Y-75050498D01*
X75130252Y-75050500D01*
X75130253Y-75050500D01*
X76869747Y-75050500D01*
X76869748Y-75050500D01*
X76928231Y-75038867D01*
X76994552Y-74994552D01*
X77038867Y-74928231D01*
X77050500Y-74869748D01*
X77050500Y-73130252D01*
X77038867Y-73071769D01*
X76994552Y-73005448D01*
X76994548Y-73005445D01*
X76928233Y-72961134D01*
X76928231Y-72961133D01*
X76928228Y-72961132D01*
X76928227Y-72961132D01*
X76869758Y-72949501D01*
X76869748Y-72949500D01*
X75130252Y-72949500D01*
X75130251Y-72949500D01*
X75130241Y-72949501D01*
X75071772Y-72961132D01*
X75071766Y-72961134D01*
X75005451Y-73005445D01*
X75005445Y-73005451D01*
X74961134Y-73071766D01*
X74961132Y-73071772D01*
X74949501Y-73130241D01*
X74949500Y-73130253D01*
X500500Y-73130253D01*
X500500Y-70234108D01*
X23499500Y-70234108D01*
X23499500Y-70365892D01*
X23529579Y-70478151D01*
X23533609Y-70493190D01*
X23599496Y-70607309D01*
X23599498Y-70607311D01*
X23599500Y-70607314D01*
X23692686Y-70700500D01*
X23692688Y-70700501D01*
X23692690Y-70700503D01*
X23806810Y-70766390D01*
X23806808Y-70766390D01*
X23806812Y-70766391D01*
X23806814Y-70766392D01*
X23934108Y-70800500D01*
X23934110Y-70800500D01*
X24065890Y-70800500D01*
X24065892Y-70800500D01*
X24193186Y-70766392D01*
X24193188Y-70766390D01*
X24193190Y-70766390D01*
X24249104Y-70734108D01*
X36412000Y-70734108D01*
X36412000Y-70865892D01*
X36442079Y-70978151D01*
X36446109Y-70993190D01*
X36511996Y-71107309D01*
X36511998Y-71107311D01*
X36512000Y-71107314D01*
X36605186Y-71200500D01*
X36605188Y-71200501D01*
X36605190Y-71200503D01*
X36719310Y-71266390D01*
X36719308Y-71266390D01*
X36719312Y-71266391D01*
X36719314Y-71266392D01*
X36846608Y-71300500D01*
X36846610Y-71300500D01*
X36978390Y-71300500D01*
X36978392Y-71300500D01*
X37105686Y-71266392D01*
X37105688Y-71266390D01*
X37105690Y-71266390D01*
X37219809Y-71200503D01*
X37219809Y-71200502D01*
X37219814Y-71200500D01*
X37313000Y-71107314D01*
X37378892Y-70993186D01*
X37413000Y-70865892D01*
X37413000Y-70734108D01*
X37378892Y-70606814D01*
X37378890Y-70606811D01*
X37378890Y-70606809D01*
X37313003Y-70492690D01*
X37313001Y-70492688D01*
X37313000Y-70492686D01*
X37219814Y-70399500D01*
X37219811Y-70399498D01*
X37219809Y-70399496D01*
X37105689Y-70333609D01*
X37105691Y-70333609D01*
X37056299Y-70320375D01*
X36978392Y-70299500D01*
X36846608Y-70299500D01*
X36768700Y-70320375D01*
X36719309Y-70333609D01*
X36605190Y-70399496D01*
X36511996Y-70492690D01*
X36446109Y-70606809D01*
X36446108Y-70606814D01*
X36412000Y-70734108D01*
X24249104Y-70734108D01*
X24307309Y-70700503D01*
X24307309Y-70700502D01*
X24307314Y-70700500D01*
X24400500Y-70607314D01*
X24466392Y-70493186D01*
X24500500Y-70365892D01*
X24500500Y-70234108D01*
X24466392Y-70106814D01*
X24466390Y-70106811D01*
X24466390Y-70106809D01*
X24400503Y-69992690D01*
X24400501Y-69992688D01*
X24400500Y-69992686D01*
X24307314Y-69899500D01*
X24307311Y-69899498D01*
X24307309Y-69899496D01*
X24193189Y-69833609D01*
X24193191Y-69833609D01*
X24178722Y-69829732D01*
X24065892Y-69799500D01*
X23934108Y-69799500D01*
X23856200Y-69820375D01*
X23806809Y-69833609D01*
X23692690Y-69899496D01*
X23599496Y-69992690D01*
X23533609Y-70106809D01*
X23533608Y-70106814D01*
X23499500Y-70234108D01*
X500500Y-70234108D01*
X500500Y-69734108D01*
X53499500Y-69734108D01*
X53499500Y-69865892D01*
X53529579Y-69978151D01*
X53533609Y-69993190D01*
X53599496Y-70107309D01*
X53599498Y-70107311D01*
X53599500Y-70107314D01*
X53692686Y-70200500D01*
X53692688Y-70200501D01*
X53692690Y-70200503D01*
X53806810Y-70266390D01*
X53806808Y-70266390D01*
X53806812Y-70266391D01*
X53806814Y-70266392D01*
X53934108Y-70300500D01*
X53934110Y-70300500D01*
X54065890Y-70300500D01*
X54065892Y-70300500D01*
X54193186Y-70266392D01*
X54193188Y-70266390D01*
X54193190Y-70266390D01*
X54307309Y-70200503D01*
X54307309Y-70200502D01*
X54307314Y-70200500D01*
X54400500Y-70107314D01*
X54466392Y-69993186D01*
X54500500Y-69865892D01*
X54500500Y-69734108D01*
X62499500Y-69734108D01*
X62499500Y-69865892D01*
X62529579Y-69978151D01*
X62533609Y-69993190D01*
X62599496Y-70107309D01*
X62599498Y-70107311D01*
X62599500Y-70107314D01*
X62692686Y-70200500D01*
X62692688Y-70200501D01*
X62692690Y-70200503D01*
X62806810Y-70266390D01*
X62806808Y-70266390D01*
X62806812Y-70266391D01*
X62806814Y-70266392D01*
X62934108Y-70300500D01*
X62934110Y-70300500D01*
X63065890Y-70300500D01*
X63065892Y-70300500D01*
X63193186Y-70266392D01*
X63193188Y-70266390D01*
X63193190Y-70266390D01*
X63307309Y-70200503D01*
X63307309Y-70200502D01*
X63307314Y-70200500D01*
X63400500Y-70107314D01*
X63466392Y-69993186D01*
X63500500Y-69865892D01*
X63500500Y-69734108D01*
X63466392Y-69606814D01*
X63466390Y-69606811D01*
X63466390Y-69606809D01*
X63400503Y-69492690D01*
X63400501Y-69492688D01*
X63400500Y-69492686D01*
X63307314Y-69399500D01*
X63307311Y-69399498D01*
X63307309Y-69399496D01*
X63193189Y-69333609D01*
X63193191Y-69333609D01*
X63143799Y-69320375D01*
X63065892Y-69299500D01*
X62934108Y-69299500D01*
X62856200Y-69320375D01*
X62806809Y-69333609D01*
X62692690Y-69399496D01*
X62599496Y-69492690D01*
X62533609Y-69606809D01*
X62533608Y-69606814D01*
X62499500Y-69734108D01*
X54500500Y-69734108D01*
X54466392Y-69606814D01*
X54466390Y-69606811D01*
X54466390Y-69606809D01*
X54400503Y-69492690D01*
X54400501Y-69492688D01*
X54400500Y-69492686D01*
X54307314Y-69399500D01*
X54307311Y-69399498D01*
X54307309Y-69399496D01*
X54193189Y-69333609D01*
X54193191Y-69333609D01*
X54143799Y-69320375D01*
X54065892Y-69299500D01*
X53934108Y-69299500D01*
X53856200Y-69320375D01*
X53806809Y-69333609D01*
X53692690Y-69399496D01*
X53599496Y-69492690D01*
X53533609Y-69606809D01*
X53533608Y-69606814D01*
X53499500Y-69734108D01*
X500500Y-69734108D01*
X500500Y-66976532D01*
X5449500Y-66976532D01*
X5449500Y-67183467D01*
X5489869Y-67386418D01*
X5569058Y-67577597D01*
X5569059Y-67577598D01*
X5684023Y-67749655D01*
X5830345Y-67895977D01*
X6002402Y-68010941D01*
X6193580Y-68090130D01*
X6396535Y-68130500D01*
X6396536Y-68130500D01*
X6603464Y-68130500D01*
X6603465Y-68130500D01*
X6806420Y-68090130D01*
X6997598Y-68010941D01*
X7169655Y-67895977D01*
X7315977Y-67749655D01*
X7430941Y-67577598D01*
X7434458Y-67569108D01*
X30499500Y-67569108D01*
X30499500Y-67700892D01*
X30512565Y-67749651D01*
X30533609Y-67828190D01*
X30599496Y-67942309D01*
X30599498Y-67942311D01*
X30599500Y-67942314D01*
X30692686Y-68035500D01*
X30692688Y-68035501D01*
X30692690Y-68035503D01*
X30806810Y-68101390D01*
X30806808Y-68101390D01*
X30806812Y-68101391D01*
X30806814Y-68101392D01*
X30934108Y-68135500D01*
X30934110Y-68135500D01*
X31065890Y-68135500D01*
X31065892Y-68135500D01*
X31193186Y-68101392D01*
X31193188Y-68101390D01*
X31193190Y-68101390D01*
X31307309Y-68035503D01*
X31307309Y-68035502D01*
X31307314Y-68035500D01*
X31400500Y-67942314D01*
X31466392Y-67828186D01*
X31500500Y-67700892D01*
X31500500Y-67569108D01*
X31466392Y-67441814D01*
X31466390Y-67441811D01*
X31466390Y-67441809D01*
X31400503Y-67327690D01*
X31400501Y-67327688D01*
X31400500Y-67327686D01*
X31307314Y-67234500D01*
X31307311Y-67234498D01*
X31307309Y-67234496D01*
X31193189Y-67168609D01*
X31193191Y-67168609D01*
X31143799Y-67155375D01*
X31065892Y-67134500D01*
X30934108Y-67134500D01*
X30856200Y-67155375D01*
X30806809Y-67168609D01*
X30692690Y-67234496D01*
X30599496Y-67327690D01*
X30533609Y-67441809D01*
X30533608Y-67441814D01*
X30499500Y-67569108D01*
X7434458Y-67569108D01*
X7510130Y-67386420D01*
X7550500Y-67183465D01*
X7550500Y-66976535D01*
X7510130Y-66773580D01*
X7430941Y-66582402D01*
X7315977Y-66410345D01*
X7169655Y-66264023D01*
X6997598Y-66149059D01*
X6997599Y-66149059D01*
X6997597Y-66149058D01*
X6806418Y-66069869D01*
X6603467Y-66029500D01*
X6603465Y-66029500D01*
X6396535Y-66029500D01*
X6396532Y-66029500D01*
X6193581Y-66069869D01*
X6002402Y-66149058D01*
X5830348Y-66264020D01*
X5684020Y-66410348D01*
X5569058Y-66582402D01*
X5489869Y-66773581D01*
X5449500Y-66976532D01*
X500500Y-66976532D01*
X500500Y-62897824D01*
X5149999Y-62897824D01*
X5156401Y-62957370D01*
X5156403Y-62957381D01*
X5206646Y-63092088D01*
X5206647Y-63092090D01*
X5292807Y-63207184D01*
X5292815Y-63207192D01*
X5407909Y-63293352D01*
X5407911Y-63293353D01*
X5542618Y-63343596D01*
X5542629Y-63343598D01*
X5602176Y-63350000D01*
X6130119Y-63350000D01*
X6188310Y-63368907D01*
X6224274Y-63418407D01*
X6224274Y-63479593D01*
X6188310Y-63529093D01*
X6168007Y-63540462D01*
X6118697Y-63560887D01*
X6002402Y-63609058D01*
X5830348Y-63724020D01*
X5684020Y-63870348D01*
X5569058Y-64042402D01*
X5489869Y-64233581D01*
X5449500Y-64436532D01*
X5449500Y-64643467D01*
X5489869Y-64846418D01*
X5569058Y-65037597D01*
X5569059Y-65037598D01*
X5684023Y-65209655D01*
X5830345Y-65355977D01*
X6002402Y-65470941D01*
X6193580Y-65550130D01*
X6396535Y-65590500D01*
X6396536Y-65590500D01*
X6603464Y-65590500D01*
X6603465Y-65590500D01*
X6806420Y-65550130D01*
X6997598Y-65470941D01*
X7169655Y-65355977D01*
X7315977Y-65209655D01*
X7430941Y-65037598D01*
X7510130Y-64846420D01*
X7550500Y-64643465D01*
X7550500Y-64436535D01*
X7510130Y-64233580D01*
X7430941Y-64042402D01*
X7315977Y-63870345D01*
X7169655Y-63724023D01*
X7169651Y-63724020D01*
X6997597Y-63609058D01*
X6901528Y-63569265D01*
X6831994Y-63540463D01*
X6785470Y-63500727D01*
X6771186Y-63441233D01*
X6794601Y-63384705D01*
X6846770Y-63352735D01*
X6869881Y-63350000D01*
X7397824Y-63350000D01*
X7457370Y-63343598D01*
X7457381Y-63343596D01*
X7592088Y-63293353D01*
X7592090Y-63293352D01*
X7707184Y-63207192D01*
X7707192Y-63207184D01*
X7761898Y-63134108D01*
X28499500Y-63134108D01*
X28499500Y-63265892D01*
X28522769Y-63352735D01*
X28533609Y-63393190D01*
X28599496Y-63507309D01*
X28599498Y-63507311D01*
X28599500Y-63507314D01*
X28692686Y-63600500D01*
X28692688Y-63600501D01*
X28692690Y-63600503D01*
X28806810Y-63666390D01*
X28806808Y-63666390D01*
X28806812Y-63666391D01*
X28806814Y-63666392D01*
X28934108Y-63700500D01*
X28934110Y-63700500D01*
X29065890Y-63700500D01*
X29065892Y-63700500D01*
X29193186Y-63666392D01*
X29193188Y-63666390D01*
X29193190Y-63666390D01*
X29307309Y-63600503D01*
X29307309Y-63600502D01*
X29307314Y-63600500D01*
X29400500Y-63507314D01*
X29466392Y-63393186D01*
X29500500Y-63265892D01*
X29500500Y-63134108D01*
X29466392Y-63006814D01*
X29466390Y-63006811D01*
X29466390Y-63006809D01*
X29400503Y-62892690D01*
X29400501Y-62892688D01*
X29400500Y-62892686D01*
X29307314Y-62799500D01*
X29307311Y-62799498D01*
X29307309Y-62799496D01*
X29193189Y-62733609D01*
X29193191Y-62733609D01*
X29143799Y-62720375D01*
X29065892Y-62699500D01*
X28934108Y-62699500D01*
X28856200Y-62720375D01*
X28806809Y-62733609D01*
X28692690Y-62799496D01*
X28599496Y-62892690D01*
X28533609Y-63006809D01*
X28533608Y-63006814D01*
X28499500Y-63134108D01*
X7761898Y-63134108D01*
X7793352Y-63092091D01*
X7843596Y-62957378D01*
X7843598Y-62957370D01*
X7850000Y-62897824D01*
X7850000Y-62250001D01*
X7849999Y-62250000D01*
X6933012Y-62250000D01*
X6965925Y-62192993D01*
X7000000Y-62065826D01*
X7000000Y-61934174D01*
X6973187Y-61834108D01*
X27499500Y-61834108D01*
X27499500Y-61965892D01*
X27526277Y-62065826D01*
X27533609Y-62093190D01*
X27599496Y-62207309D01*
X27599498Y-62207311D01*
X27599500Y-62207314D01*
X27692686Y-62300500D01*
X27692688Y-62300501D01*
X27692690Y-62300503D01*
X27806810Y-62366390D01*
X27806808Y-62366390D01*
X27806812Y-62366391D01*
X27806814Y-62366392D01*
X27934108Y-62400500D01*
X27934110Y-62400500D01*
X28065890Y-62400500D01*
X28065892Y-62400500D01*
X28193186Y-62366392D01*
X28193188Y-62366390D01*
X28193190Y-62366390D01*
X28249104Y-62334108D01*
X34587000Y-62334108D01*
X34587000Y-62465892D01*
X34587009Y-62465925D01*
X34621109Y-62593190D01*
X34686996Y-62707309D01*
X34686998Y-62707311D01*
X34687000Y-62707314D01*
X34780186Y-62800500D01*
X34780188Y-62800501D01*
X34780190Y-62800503D01*
X34894310Y-62866390D01*
X34894308Y-62866390D01*
X34894312Y-62866391D01*
X34894314Y-62866392D01*
X35021608Y-62900500D01*
X35021610Y-62900500D01*
X35153390Y-62900500D01*
X35153392Y-62900500D01*
X35280686Y-62866392D01*
X35280688Y-62866390D01*
X35280690Y-62866390D01*
X35394809Y-62800503D01*
X35394809Y-62800502D01*
X35394814Y-62800500D01*
X35488000Y-62707314D01*
X35488003Y-62707309D01*
X35553890Y-62593190D01*
X35553890Y-62593188D01*
X35553892Y-62593186D01*
X35588000Y-62465892D01*
X35588000Y-62334108D01*
X39549500Y-62334108D01*
X39549500Y-62465892D01*
X39549509Y-62465925D01*
X39583609Y-62593190D01*
X39649496Y-62707309D01*
X39649498Y-62707311D01*
X39649500Y-62707314D01*
X39742686Y-62800500D01*
X39742688Y-62800501D01*
X39742690Y-62800503D01*
X39856810Y-62866390D01*
X39856808Y-62866390D01*
X39856812Y-62866391D01*
X39856814Y-62866392D01*
X39984108Y-62900500D01*
X39984110Y-62900500D01*
X40115890Y-62900500D01*
X40115892Y-62900500D01*
X40243186Y-62866392D01*
X40243188Y-62866390D01*
X40243190Y-62866390D01*
X40357309Y-62800503D01*
X40357309Y-62800502D01*
X40357314Y-62800500D01*
X40450500Y-62707314D01*
X40450503Y-62707309D01*
X40516390Y-62593190D01*
X40516390Y-62593188D01*
X40516392Y-62593186D01*
X40550500Y-62465892D01*
X40550500Y-62334108D01*
X40516392Y-62206814D01*
X40516390Y-62206811D01*
X40516390Y-62206809D01*
X40450503Y-62092690D01*
X40450501Y-62092688D01*
X40450500Y-62092686D01*
X40357314Y-61999500D01*
X40357311Y-61999498D01*
X40357309Y-61999496D01*
X40243189Y-61933609D01*
X40243191Y-61933609D01*
X40193799Y-61920375D01*
X40115892Y-61899500D01*
X39984108Y-61899500D01*
X39906200Y-61920375D01*
X39856809Y-61933609D01*
X39742690Y-61999496D01*
X39649496Y-62092690D01*
X39583609Y-62206809D01*
X39583608Y-62206814D01*
X39549500Y-62334108D01*
X35588000Y-62334108D01*
X35553892Y-62206814D01*
X35553890Y-62206811D01*
X35553890Y-62206809D01*
X35488003Y-62092690D01*
X35488001Y-62092688D01*
X35488000Y-62092686D01*
X35394814Y-61999500D01*
X35394811Y-61999498D01*
X35394809Y-61999496D01*
X35280689Y-61933609D01*
X35280691Y-61933609D01*
X35231299Y-61920375D01*
X35153392Y-61899500D01*
X35021608Y-61899500D01*
X34943700Y-61920375D01*
X34894309Y-61933609D01*
X34780190Y-61999496D01*
X34686996Y-62092690D01*
X34621109Y-62206809D01*
X34621108Y-62206814D01*
X34587000Y-62334108D01*
X28249104Y-62334108D01*
X28307309Y-62300503D01*
X28307309Y-62300502D01*
X28307314Y-62300500D01*
X28400500Y-62207314D01*
X28466392Y-62093186D01*
X28500500Y-61965892D01*
X28500500Y-61834108D01*
X28466392Y-61706814D01*
X28466390Y-61706811D01*
X28466390Y-61706809D01*
X28400503Y-61592690D01*
X28400501Y-61592688D01*
X28400500Y-61592686D01*
X28307314Y-61499500D01*
X28307311Y-61499498D01*
X28307309Y-61499496D01*
X28193189Y-61433609D01*
X28193191Y-61433609D01*
X28143799Y-61420375D01*
X28065892Y-61399500D01*
X27934108Y-61399500D01*
X27856200Y-61420375D01*
X27806809Y-61433609D01*
X27692690Y-61499496D01*
X27599496Y-61592690D01*
X27533609Y-61706809D01*
X27533608Y-61706814D01*
X27499500Y-61834108D01*
X6973187Y-61834108D01*
X6965925Y-61807007D01*
X6933012Y-61750000D01*
X7849999Y-61750000D01*
X7850000Y-61749999D01*
X7850000Y-61102175D01*
X7843598Y-61042629D01*
X7843596Y-61042618D01*
X7793353Y-60907911D01*
X7793352Y-60907909D01*
X7707192Y-60792815D01*
X7707184Y-60792807D01*
X7592090Y-60706647D01*
X7592088Y-60706646D01*
X7457381Y-60656403D01*
X7457370Y-60656401D01*
X7397824Y-60650000D01*
X6750001Y-60650000D01*
X6750000Y-60650001D01*
X6750000Y-61566988D01*
X6692993Y-61534075D01*
X6565826Y-61500000D01*
X6434174Y-61500000D01*
X6307007Y-61534075D01*
X6250000Y-61566988D01*
X6250000Y-60650001D01*
X6249999Y-60650000D01*
X5602176Y-60650000D01*
X5542629Y-60656401D01*
X5542618Y-60656403D01*
X5407911Y-60706646D01*
X5407909Y-60706647D01*
X5292815Y-60792807D01*
X5292807Y-60792815D01*
X5206647Y-60907909D01*
X5206646Y-60907911D01*
X5156403Y-61042618D01*
X5156401Y-61042629D01*
X5150000Y-61102175D01*
X5150000Y-61749999D01*
X5150001Y-61750000D01*
X6066988Y-61750000D01*
X6034075Y-61807007D01*
X6000000Y-61934174D01*
X6000000Y-62065826D01*
X6034075Y-62192993D01*
X6066988Y-62250000D01*
X5150001Y-62250000D01*
X5150000Y-62250001D01*
X5150000Y-62897824D01*
X5149999Y-62897824D01*
X500500Y-62897824D01*
X500500Y-59934108D01*
X34587000Y-59934108D01*
X34587000Y-60065892D01*
X34617079Y-60178151D01*
X34621109Y-60193190D01*
X34686996Y-60307309D01*
X34686998Y-60307311D01*
X34687000Y-60307314D01*
X34780186Y-60400500D01*
X34780188Y-60400501D01*
X34780190Y-60400503D01*
X34894310Y-60466390D01*
X34894308Y-60466390D01*
X34894312Y-60466391D01*
X34894314Y-60466392D01*
X35021608Y-60500500D01*
X35021610Y-60500500D01*
X35153390Y-60500500D01*
X35153392Y-60500500D01*
X35280686Y-60466392D01*
X35280688Y-60466390D01*
X35280690Y-60466390D01*
X35394809Y-60400503D01*
X35394809Y-60400502D01*
X35394814Y-60400500D01*
X35488000Y-60307314D01*
X35553892Y-60193186D01*
X35588000Y-60065892D01*
X35588000Y-59934108D01*
X39587000Y-59934108D01*
X39587000Y-60065892D01*
X39617079Y-60178151D01*
X39621109Y-60193190D01*
X39686996Y-60307309D01*
X39686998Y-60307311D01*
X39687000Y-60307314D01*
X39780186Y-60400500D01*
X39780188Y-60400501D01*
X39780190Y-60400503D01*
X39894310Y-60466390D01*
X39894308Y-60466390D01*
X39894312Y-60466391D01*
X39894314Y-60466392D01*
X40021608Y-60500500D01*
X40021610Y-60500500D01*
X40153390Y-60500500D01*
X40153392Y-60500500D01*
X40280686Y-60466392D01*
X40280688Y-60466390D01*
X40280690Y-60466390D01*
X40394809Y-60400503D01*
X40394809Y-60400502D01*
X40394814Y-60400500D01*
X40488000Y-60307314D01*
X40553892Y-60193186D01*
X40588000Y-60065892D01*
X40588000Y-59934108D01*
X40553892Y-59806814D01*
X40553890Y-59806811D01*
X40553890Y-59806809D01*
X40488003Y-59692690D01*
X40488001Y-59692688D01*
X40488000Y-59692686D01*
X40394814Y-59599500D01*
X40394811Y-59599498D01*
X40394809Y-59599496D01*
X40280689Y-59533609D01*
X40280691Y-59533609D01*
X40231299Y-59520375D01*
X40153392Y-59499500D01*
X40021608Y-59499500D01*
X39943700Y-59520375D01*
X39894309Y-59533609D01*
X39780190Y-59599496D01*
X39686996Y-59692690D01*
X39621109Y-59806809D01*
X39621108Y-59806814D01*
X39587000Y-59934108D01*
X35588000Y-59934108D01*
X35553892Y-59806814D01*
X35553890Y-59806811D01*
X35553890Y-59806809D01*
X35488003Y-59692690D01*
X35488001Y-59692688D01*
X35488000Y-59692686D01*
X35394814Y-59599500D01*
X35394811Y-59599498D01*
X35394809Y-59599496D01*
X35280689Y-59533609D01*
X35280691Y-59533609D01*
X35231299Y-59520375D01*
X35153392Y-59499500D01*
X35021608Y-59499500D01*
X34943700Y-59520375D01*
X34894309Y-59533609D01*
X34780190Y-59599496D01*
X34686996Y-59692690D01*
X34621109Y-59806809D01*
X34621108Y-59806814D01*
X34587000Y-59934108D01*
X500500Y-59934108D01*
X500500Y-56234108D01*
X23499500Y-56234108D01*
X23499500Y-56365892D01*
X23509493Y-56403186D01*
X23533609Y-56493190D01*
X23599496Y-56607309D01*
X23599498Y-56607311D01*
X23599500Y-56607314D01*
X23692686Y-56700500D01*
X23692688Y-56700501D01*
X23692690Y-56700503D01*
X23806810Y-56766390D01*
X23806808Y-56766390D01*
X23806812Y-56766391D01*
X23806814Y-56766392D01*
X23934108Y-56800500D01*
X23934110Y-56800500D01*
X24065890Y-56800500D01*
X24065892Y-56800500D01*
X24193186Y-56766392D01*
X24193188Y-56766390D01*
X24193190Y-56766390D01*
X24249104Y-56734108D01*
X36412000Y-56734108D01*
X36412000Y-56865892D01*
X36442079Y-56978151D01*
X36446109Y-56993190D01*
X36511996Y-57107309D01*
X36511998Y-57107311D01*
X36512000Y-57107314D01*
X36605186Y-57200500D01*
X36605188Y-57200501D01*
X36605190Y-57200503D01*
X36719310Y-57266390D01*
X36719308Y-57266390D01*
X36719312Y-57266391D01*
X36719314Y-57266392D01*
X36846608Y-57300500D01*
X36846610Y-57300500D01*
X36978390Y-57300500D01*
X36978392Y-57300500D01*
X37105686Y-57266392D01*
X37105688Y-57266390D01*
X37105690Y-57266390D01*
X37219809Y-57200503D01*
X37219809Y-57200502D01*
X37219814Y-57200500D01*
X37313000Y-57107314D01*
X37378892Y-56993186D01*
X37413000Y-56865892D01*
X37413000Y-56734108D01*
X37378892Y-56606814D01*
X37378890Y-56606811D01*
X37378890Y-56606809D01*
X37313003Y-56492690D01*
X37313001Y-56492688D01*
X37313000Y-56492686D01*
X37219814Y-56399500D01*
X37219811Y-56399498D01*
X37219809Y-56399496D01*
X37105689Y-56333609D01*
X37105691Y-56333609D01*
X37056299Y-56320375D01*
X36978392Y-56299500D01*
X36846608Y-56299500D01*
X36768700Y-56320375D01*
X36719309Y-56333609D01*
X36605190Y-56399496D01*
X36511996Y-56492690D01*
X36446109Y-56606809D01*
X36432496Y-56657615D01*
X36412000Y-56734108D01*
X24249104Y-56734108D01*
X24307309Y-56700503D01*
X24307309Y-56700502D01*
X24307314Y-56700500D01*
X24400500Y-56607314D01*
X24466392Y-56493186D01*
X24500500Y-56365892D01*
X24500500Y-56234108D01*
X24466392Y-56106814D01*
X24466390Y-56106811D01*
X24466390Y-56106809D01*
X24400503Y-55992690D01*
X24400501Y-55992688D01*
X24400500Y-55992686D01*
X24307314Y-55899500D01*
X24307311Y-55899498D01*
X24307309Y-55899496D01*
X24193189Y-55833609D01*
X24193191Y-55833609D01*
X24178722Y-55829732D01*
X24065892Y-55799500D01*
X23934108Y-55799500D01*
X23856200Y-55820375D01*
X23806809Y-55833609D01*
X23692690Y-55899496D01*
X23599496Y-55992690D01*
X23533609Y-56106809D01*
X23533608Y-56106814D01*
X23499500Y-56234108D01*
X500500Y-56234108D01*
X500500Y-55734108D01*
X53499500Y-55734108D01*
X53499500Y-55865892D01*
X53509359Y-55902686D01*
X53533609Y-55993190D01*
X53599496Y-56107309D01*
X53599498Y-56107311D01*
X53599500Y-56107314D01*
X53692686Y-56200500D01*
X53692688Y-56200501D01*
X53692690Y-56200503D01*
X53806810Y-56266390D01*
X53806808Y-56266390D01*
X53806812Y-56266391D01*
X53806814Y-56266392D01*
X53934108Y-56300500D01*
X53934110Y-56300500D01*
X54065890Y-56300500D01*
X54065892Y-56300500D01*
X54193186Y-56266392D01*
X54193188Y-56266390D01*
X54193190Y-56266390D01*
X54307309Y-56200503D01*
X54307309Y-56200502D01*
X54307314Y-56200500D01*
X54400500Y-56107314D01*
X54400792Y-56106809D01*
X54466390Y-55993190D01*
X54466390Y-55993188D01*
X54466392Y-55993186D01*
X54500500Y-55865892D01*
X54500500Y-55734108D01*
X61599500Y-55734108D01*
X61599500Y-55865892D01*
X61609359Y-55902686D01*
X61633609Y-55993190D01*
X61699496Y-56107309D01*
X61699498Y-56107311D01*
X61699500Y-56107314D01*
X61792686Y-56200500D01*
X61792688Y-56200501D01*
X61792690Y-56200503D01*
X61906810Y-56266390D01*
X61906808Y-56266390D01*
X61906812Y-56266391D01*
X61906814Y-56266392D01*
X62034108Y-56300500D01*
X62034110Y-56300500D01*
X62165890Y-56300500D01*
X62165892Y-56300500D01*
X62293186Y-56266392D01*
X62293188Y-56266390D01*
X62293190Y-56266390D01*
X62349104Y-56234108D01*
X64549500Y-56234108D01*
X64549500Y-56365892D01*
X64559493Y-56403186D01*
X64583609Y-56493190D01*
X64649496Y-56607309D01*
X64649498Y-56607311D01*
X64649500Y-56607314D01*
X64742686Y-56700500D01*
X64742688Y-56700501D01*
X64742690Y-56700503D01*
X64856810Y-56766390D01*
X64856808Y-56766390D01*
X64856812Y-56766391D01*
X64856814Y-56766392D01*
X64984108Y-56800500D01*
X64984110Y-56800500D01*
X65115890Y-56800500D01*
X65115892Y-56800500D01*
X65243186Y-56766392D01*
X65243188Y-56766390D01*
X65243190Y-56766390D01*
X65357309Y-56700503D01*
X65357309Y-56700502D01*
X65357314Y-56700500D01*
X65450500Y-56607314D01*
X65516392Y-56493186D01*
X65550500Y-56365892D01*
X65550500Y-56234108D01*
X65526385Y-56144108D01*
X67024500Y-56144108D01*
X67024500Y-56275892D01*
X67030826Y-56299500D01*
X67058609Y-56403190D01*
X67124496Y-56517309D01*
X67124498Y-56517311D01*
X67124500Y-56517314D01*
X67217686Y-56610500D01*
X67217688Y-56610501D01*
X67217690Y-56610503D01*
X67331810Y-56676390D01*
X67331808Y-56676390D01*
X67331812Y-56676391D01*
X67331814Y-56676392D01*
X67459108Y-56710500D01*
X67459110Y-56710500D01*
X67590890Y-56710500D01*
X67590892Y-56710500D01*
X67718186Y-56676392D01*
X67718188Y-56676390D01*
X67718190Y-56676390D01*
X67832309Y-56610503D01*
X67832309Y-56610502D01*
X67832314Y-56610500D01*
X67925500Y-56517314D01*
X67991392Y-56403186D01*
X68025500Y-56275892D01*
X68025500Y-56234108D01*
X72549500Y-56234108D01*
X72549500Y-56365892D01*
X72559493Y-56403186D01*
X72583609Y-56493190D01*
X72649496Y-56607309D01*
X72649498Y-56607311D01*
X72649500Y-56607314D01*
X72742686Y-56700500D01*
X72742688Y-56700501D01*
X72742690Y-56700503D01*
X72856810Y-56766390D01*
X72856808Y-56766390D01*
X72856812Y-56766391D01*
X72856814Y-56766392D01*
X72984108Y-56800500D01*
X72984110Y-56800500D01*
X73115890Y-56800500D01*
X73115892Y-56800500D01*
X73243186Y-56766392D01*
X73243188Y-56766390D01*
X73243190Y-56766390D01*
X73357309Y-56700503D01*
X73357309Y-56700502D01*
X73357314Y-56700500D01*
X73450500Y-56607314D01*
X73516392Y-56493186D01*
X73550500Y-56365892D01*
X73550500Y-56234108D01*
X73516392Y-56106814D01*
X73516390Y-56106811D01*
X73516390Y-56106809D01*
X73450503Y-55992690D01*
X73450501Y-55992688D01*
X73450500Y-55992686D01*
X73357314Y-55899500D01*
X73357311Y-55899498D01*
X73357309Y-55899496D01*
X73243189Y-55833609D01*
X73243191Y-55833609D01*
X73193799Y-55820375D01*
X73115892Y-55799500D01*
X72984108Y-55799500D01*
X72906200Y-55820375D01*
X72856809Y-55833609D01*
X72742690Y-55899496D01*
X72649496Y-55992690D01*
X72583609Y-56106809D01*
X72583608Y-56106814D01*
X72549500Y-56234108D01*
X68025500Y-56234108D01*
X68025500Y-56144108D01*
X67991392Y-56016814D01*
X67991390Y-56016811D01*
X67991390Y-56016809D01*
X67925503Y-55902690D01*
X67925501Y-55902688D01*
X67925500Y-55902686D01*
X67832314Y-55809500D01*
X67832311Y-55809498D01*
X67832309Y-55809496D01*
X67718189Y-55743609D01*
X67718191Y-55743609D01*
X67668799Y-55730375D01*
X67590892Y-55709500D01*
X67459108Y-55709500D01*
X67381200Y-55730375D01*
X67331809Y-55743609D01*
X67217690Y-55809496D01*
X67124496Y-55902690D01*
X67058609Y-56016809D01*
X67058608Y-56016814D01*
X67024500Y-56144108D01*
X65526385Y-56144108D01*
X65516392Y-56106814D01*
X65516390Y-56106811D01*
X65516390Y-56106809D01*
X65450503Y-55992690D01*
X65450501Y-55992688D01*
X65450500Y-55992686D01*
X65357314Y-55899500D01*
X65357311Y-55899498D01*
X65357309Y-55899496D01*
X65243189Y-55833609D01*
X65243191Y-55833609D01*
X65193799Y-55820375D01*
X65115892Y-55799500D01*
X64984108Y-55799500D01*
X64906200Y-55820375D01*
X64856809Y-55833609D01*
X64742690Y-55899496D01*
X64649496Y-55992690D01*
X64583609Y-56106809D01*
X64583608Y-56106814D01*
X64549500Y-56234108D01*
X62349104Y-56234108D01*
X62407309Y-56200503D01*
X62407309Y-56200502D01*
X62407314Y-56200500D01*
X62500500Y-56107314D01*
X62500792Y-56106809D01*
X62566390Y-55993190D01*
X62566390Y-55993188D01*
X62566392Y-55993186D01*
X62600500Y-55865892D01*
X62600500Y-55734108D01*
X62566392Y-55606814D01*
X62566390Y-55606811D01*
X62566390Y-55606809D01*
X62500503Y-55492690D01*
X62500501Y-55492688D01*
X62500500Y-55492686D01*
X62407314Y-55399500D01*
X62407311Y-55399498D01*
X62407309Y-55399496D01*
X62293189Y-55333609D01*
X62293191Y-55333609D01*
X62243799Y-55320375D01*
X62165892Y-55299500D01*
X62034108Y-55299500D01*
X61956200Y-55320375D01*
X61906809Y-55333609D01*
X61792690Y-55399496D01*
X61699496Y-55492690D01*
X61633609Y-55606809D01*
X61633608Y-55606814D01*
X61599500Y-55734108D01*
X54500500Y-55734108D01*
X54466392Y-55606814D01*
X54466390Y-55606811D01*
X54466390Y-55606809D01*
X54400503Y-55492690D01*
X54400501Y-55492688D01*
X54400500Y-55492686D01*
X54307314Y-55399500D01*
X54307311Y-55399498D01*
X54307309Y-55399496D01*
X54193189Y-55333609D01*
X54193191Y-55333609D01*
X54143799Y-55320375D01*
X54065892Y-55299500D01*
X53934108Y-55299500D01*
X53856200Y-55320375D01*
X53806809Y-55333609D01*
X53692690Y-55399496D01*
X53599496Y-55492690D01*
X53533609Y-55606809D01*
X53533608Y-55606814D01*
X53499500Y-55734108D01*
X500500Y-55734108D01*
X500500Y-52976532D01*
X5449500Y-52976532D01*
X5449500Y-53183467D01*
X5489869Y-53386418D01*
X5569058Y-53577597D01*
X5569059Y-53577598D01*
X5684023Y-53749655D01*
X5830345Y-53895977D01*
X6002402Y-54010941D01*
X6193580Y-54090130D01*
X6396535Y-54130500D01*
X6396536Y-54130500D01*
X6603464Y-54130500D01*
X6603465Y-54130500D01*
X6806420Y-54090130D01*
X6997598Y-54010941D01*
X7169655Y-53895977D01*
X7315977Y-53749655D01*
X7430941Y-53577598D01*
X7434458Y-53569108D01*
X30499500Y-53569108D01*
X30499500Y-53700892D01*
X30512565Y-53749651D01*
X30533609Y-53828190D01*
X30599496Y-53942309D01*
X30599498Y-53942311D01*
X30599500Y-53942314D01*
X30692686Y-54035500D01*
X30692688Y-54035501D01*
X30692690Y-54035503D01*
X30806810Y-54101390D01*
X30806808Y-54101390D01*
X30806812Y-54101391D01*
X30806814Y-54101392D01*
X30934108Y-54135500D01*
X30934110Y-54135500D01*
X31065890Y-54135500D01*
X31065892Y-54135500D01*
X31193186Y-54101392D01*
X31193188Y-54101390D01*
X31193190Y-54101390D01*
X31307309Y-54035503D01*
X31307309Y-54035502D01*
X31307314Y-54035500D01*
X31400500Y-53942314D01*
X31466392Y-53828186D01*
X31500500Y-53700892D01*
X31500500Y-53569108D01*
X31466392Y-53441814D01*
X31466390Y-53441811D01*
X31466390Y-53441809D01*
X31400503Y-53327690D01*
X31400501Y-53327688D01*
X31400500Y-53327686D01*
X31307314Y-53234500D01*
X31307311Y-53234498D01*
X31307309Y-53234496D01*
X31193189Y-53168609D01*
X31193191Y-53168609D01*
X31143799Y-53155375D01*
X31065892Y-53134500D01*
X30934108Y-53134500D01*
X30856200Y-53155375D01*
X30806809Y-53168609D01*
X30692690Y-53234496D01*
X30599496Y-53327690D01*
X30533609Y-53441809D01*
X30533608Y-53441814D01*
X30499500Y-53569108D01*
X7434458Y-53569108D01*
X7510130Y-53386420D01*
X7550500Y-53183465D01*
X7550500Y-52976535D01*
X7510130Y-52773580D01*
X7430941Y-52582402D01*
X7358582Y-52474108D01*
X69224500Y-52474108D01*
X69224500Y-52605892D01*
X69254579Y-52718151D01*
X69258609Y-52733190D01*
X69324496Y-52847309D01*
X69324498Y-52847311D01*
X69324500Y-52847314D01*
X69417686Y-52940500D01*
X69417688Y-52940501D01*
X69417690Y-52940503D01*
X69531810Y-53006390D01*
X69531808Y-53006390D01*
X69531812Y-53006391D01*
X69531814Y-53006392D01*
X69659108Y-53040500D01*
X69659110Y-53040500D01*
X69790890Y-53040500D01*
X69790892Y-53040500D01*
X69918186Y-53006392D01*
X69918188Y-53006390D01*
X69918190Y-53006390D01*
X70032309Y-52940503D01*
X70032309Y-52940502D01*
X70032314Y-52940500D01*
X70125500Y-52847314D01*
X70168070Y-52773581D01*
X70191390Y-52733190D01*
X70191390Y-52733188D01*
X70191392Y-52733186D01*
X70225500Y-52605892D01*
X70225500Y-52474108D01*
X70191392Y-52346814D01*
X70191390Y-52346811D01*
X70191390Y-52346809D01*
X70125503Y-52232690D01*
X70125501Y-52232688D01*
X70125500Y-52232686D01*
X70032314Y-52139500D01*
X70032311Y-52139498D01*
X70032309Y-52139496D01*
X69918189Y-52073609D01*
X69918191Y-52073609D01*
X69868799Y-52060375D01*
X69790892Y-52039500D01*
X69659108Y-52039500D01*
X69581200Y-52060375D01*
X69531809Y-52073609D01*
X69417690Y-52139496D01*
X69324496Y-52232690D01*
X69258609Y-52346809D01*
X69258608Y-52346814D01*
X69224500Y-52474108D01*
X7358582Y-52474108D01*
X7315977Y-52410345D01*
X7169655Y-52264023D01*
X6997598Y-52149059D01*
X6997599Y-52149059D01*
X6997597Y-52149058D01*
X6806418Y-52069869D01*
X6603467Y-52029500D01*
X6603465Y-52029500D01*
X6396535Y-52029500D01*
X6396532Y-52029500D01*
X6193581Y-52069869D01*
X6002402Y-52149058D01*
X5830348Y-52264020D01*
X5684020Y-52410348D01*
X5569058Y-52582402D01*
X5489869Y-52773581D01*
X5449500Y-52976532D01*
X500500Y-52976532D01*
X500500Y-48897824D01*
X5149999Y-48897824D01*
X5156401Y-48957370D01*
X5156403Y-48957381D01*
X5206646Y-49092088D01*
X5206647Y-49092090D01*
X5292807Y-49207184D01*
X5292815Y-49207192D01*
X5407909Y-49293352D01*
X5407911Y-49293353D01*
X5542618Y-49343596D01*
X5542629Y-49343598D01*
X5602176Y-49350000D01*
X6130119Y-49350000D01*
X6188310Y-49368907D01*
X6224274Y-49418407D01*
X6224274Y-49479593D01*
X6188310Y-49529093D01*
X6168007Y-49540462D01*
X6118697Y-49560887D01*
X6002402Y-49609058D01*
X5830348Y-49724020D01*
X5684020Y-49870348D01*
X5569058Y-50042402D01*
X5489869Y-50233581D01*
X5449500Y-50436532D01*
X5449500Y-50643467D01*
X5489869Y-50846418D01*
X5569058Y-51037597D01*
X5680317Y-51204109D01*
X5684023Y-51209655D01*
X5830345Y-51355977D01*
X6002402Y-51470941D01*
X6193580Y-51550130D01*
X6396535Y-51590500D01*
X6396536Y-51590500D01*
X6603464Y-51590500D01*
X6603465Y-51590500D01*
X6806420Y-51550130D01*
X6997598Y-51470941D01*
X7169655Y-51355977D01*
X7315977Y-51209655D01*
X7319683Y-51204108D01*
X64624500Y-51204108D01*
X64624500Y-51335892D01*
X64654579Y-51448151D01*
X64658609Y-51463190D01*
X64724496Y-51577309D01*
X64724498Y-51577311D01*
X64724500Y-51577314D01*
X64817686Y-51670500D01*
X64817688Y-51670501D01*
X64817690Y-51670503D01*
X64931810Y-51736390D01*
X64931808Y-51736390D01*
X64931812Y-51736391D01*
X64931814Y-51736392D01*
X65059108Y-51770500D01*
X65059110Y-51770500D01*
X65190890Y-51770500D01*
X65190892Y-51770500D01*
X65318186Y-51736392D01*
X65318188Y-51736390D01*
X65318190Y-51736390D01*
X65432309Y-51670503D01*
X65432309Y-51670502D01*
X65432314Y-51670500D01*
X65525500Y-51577314D01*
X65591392Y-51463186D01*
X65625500Y-51335892D01*
X65625500Y-51204108D01*
X65591392Y-51076814D01*
X65591390Y-51076811D01*
X65591390Y-51076809D01*
X65525503Y-50962690D01*
X65525501Y-50962688D01*
X65525500Y-50962686D01*
X65432314Y-50869500D01*
X65432311Y-50869498D01*
X65432309Y-50869496D01*
X65318189Y-50803609D01*
X65318191Y-50803609D01*
X65268799Y-50790375D01*
X65190892Y-50769500D01*
X65059108Y-50769500D01*
X64981200Y-50790375D01*
X64931809Y-50803609D01*
X64817690Y-50869496D01*
X64724496Y-50962690D01*
X64658609Y-51076809D01*
X64658608Y-51076814D01*
X64624500Y-51204108D01*
X7319683Y-51204108D01*
X7430941Y-51037598D01*
X7510130Y-50846420D01*
X7550500Y-50643465D01*
X7550500Y-50436535D01*
X7510130Y-50233580D01*
X7430941Y-50042402D01*
X7315977Y-49870345D01*
X7169655Y-49724023D01*
X7169651Y-49724020D01*
X6997597Y-49609058D01*
X6901528Y-49569265D01*
X6831994Y-49540463D01*
X6785470Y-49500727D01*
X6771186Y-49441233D01*
X6794601Y-49384705D01*
X6846770Y-49352735D01*
X6869881Y-49350000D01*
X7397824Y-49350000D01*
X7457370Y-49343598D01*
X7457381Y-49343596D01*
X7592088Y-49293353D01*
X7592090Y-49293352D01*
X7707184Y-49207192D01*
X7707192Y-49207184D01*
X7761898Y-49134108D01*
X28499500Y-49134108D01*
X28499500Y-49265892D01*
X28522769Y-49352735D01*
X28533609Y-49393190D01*
X28599496Y-49507309D01*
X28599498Y-49507311D01*
X28599500Y-49507314D01*
X28692686Y-49600500D01*
X28692688Y-49600501D01*
X28692690Y-49600503D01*
X28806810Y-49666390D01*
X28806808Y-49666390D01*
X28806812Y-49666391D01*
X28806814Y-49666392D01*
X28934108Y-49700500D01*
X28934110Y-49700500D01*
X29065890Y-49700500D01*
X29065892Y-49700500D01*
X29193186Y-49666392D01*
X29193188Y-49666390D01*
X29193190Y-49666390D01*
X29307309Y-49600503D01*
X29307309Y-49600502D01*
X29307314Y-49600500D01*
X29400500Y-49507314D01*
X29466392Y-49393186D01*
X29500500Y-49265892D01*
X29500500Y-49134108D01*
X29466392Y-49006814D01*
X29466390Y-49006811D01*
X29466390Y-49006809D01*
X29400503Y-48892690D01*
X29400501Y-48892688D01*
X29400500Y-48892686D01*
X29307314Y-48799500D01*
X29307311Y-48799498D01*
X29307309Y-48799496D01*
X29193189Y-48733609D01*
X29193191Y-48733609D01*
X29143799Y-48720375D01*
X29065892Y-48699500D01*
X28934108Y-48699500D01*
X28856200Y-48720375D01*
X28806809Y-48733609D01*
X28692690Y-48799496D01*
X28599496Y-48892690D01*
X28533609Y-49006809D01*
X28514539Y-49077978D01*
X28499500Y-49134108D01*
X7761898Y-49134108D01*
X7793352Y-49092091D01*
X7843596Y-48957378D01*
X7843598Y-48957370D01*
X7850000Y-48897824D01*
X7850000Y-48250001D01*
X7849999Y-48250000D01*
X6933012Y-48250000D01*
X6965925Y-48192993D01*
X7000000Y-48065826D01*
X7000000Y-47934174D01*
X6973187Y-47834108D01*
X27499500Y-47834108D01*
X27499500Y-47965892D01*
X27526277Y-48065826D01*
X27533609Y-48093190D01*
X27599496Y-48207309D01*
X27599498Y-48207311D01*
X27599500Y-48207314D01*
X27692686Y-48300500D01*
X27692688Y-48300501D01*
X27692690Y-48300503D01*
X27806810Y-48366390D01*
X27806808Y-48366390D01*
X27806812Y-48366391D01*
X27806814Y-48366392D01*
X27934108Y-48400500D01*
X27934110Y-48400500D01*
X28065890Y-48400500D01*
X28065892Y-48400500D01*
X28193186Y-48366392D01*
X28193188Y-48366390D01*
X28193190Y-48366390D01*
X28249104Y-48334108D01*
X34587000Y-48334108D01*
X34587000Y-48465892D01*
X34617079Y-48578151D01*
X34621109Y-48593190D01*
X34686996Y-48707309D01*
X34686998Y-48707311D01*
X34687000Y-48707314D01*
X34780186Y-48800500D01*
X34780188Y-48800501D01*
X34780190Y-48800503D01*
X34894310Y-48866390D01*
X34894308Y-48866390D01*
X34894312Y-48866391D01*
X34894314Y-48866392D01*
X35021608Y-48900500D01*
X35021610Y-48900500D01*
X35153390Y-48900500D01*
X35153392Y-48900500D01*
X35280686Y-48866392D01*
X35280688Y-48866390D01*
X35280690Y-48866390D01*
X35394809Y-48800503D01*
X35394809Y-48800502D01*
X35394814Y-48800500D01*
X35488000Y-48707314D01*
X35488003Y-48707309D01*
X35553890Y-48593190D01*
X35553890Y-48593188D01*
X35553892Y-48593186D01*
X35588000Y-48465892D01*
X35588000Y-48334108D01*
X39549500Y-48334108D01*
X39549500Y-48465892D01*
X39579579Y-48578151D01*
X39583609Y-48593190D01*
X39649496Y-48707309D01*
X39649498Y-48707311D01*
X39649500Y-48707314D01*
X39742686Y-48800500D01*
X39742688Y-48800501D01*
X39742690Y-48800503D01*
X39856810Y-48866390D01*
X39856808Y-48866390D01*
X39856812Y-48866391D01*
X39856814Y-48866392D01*
X39984108Y-48900500D01*
X39984110Y-48900500D01*
X40115890Y-48900500D01*
X40115892Y-48900500D01*
X40243186Y-48866392D01*
X40243188Y-48866390D01*
X40243190Y-48866390D01*
X40357309Y-48800503D01*
X40357309Y-48800502D01*
X40357314Y-48800500D01*
X40450500Y-48707314D01*
X40475445Y-48664108D01*
X63399500Y-48664108D01*
X63399500Y-48795892D01*
X63400466Y-48799496D01*
X63433609Y-48923190D01*
X63499496Y-49037309D01*
X63499498Y-49037311D01*
X63499500Y-49037314D01*
X63592686Y-49130500D01*
X63592688Y-49130501D01*
X63592690Y-49130503D01*
X63706810Y-49196390D01*
X63706808Y-49196390D01*
X63706812Y-49196391D01*
X63706814Y-49196392D01*
X63834108Y-49230500D01*
X63834110Y-49230500D01*
X63965890Y-49230500D01*
X63965892Y-49230500D01*
X64093186Y-49196392D01*
X64093188Y-49196390D01*
X64093190Y-49196390D01*
X64207309Y-49130503D01*
X64207309Y-49130502D01*
X64207314Y-49130500D01*
X64300500Y-49037314D01*
X64326764Y-48991822D01*
X64372233Y-48950883D01*
X64433083Y-48944487D01*
X64486071Y-48975080D01*
X64498233Y-48991819D01*
X64524500Y-49037314D01*
X64617686Y-49130500D01*
X64617688Y-49130501D01*
X64617690Y-49130503D01*
X64731810Y-49196390D01*
X64731808Y-49196390D01*
X64731812Y-49196391D01*
X64731814Y-49196392D01*
X64859108Y-49230500D01*
X64859110Y-49230500D01*
X64990890Y-49230500D01*
X64990892Y-49230500D01*
X65118186Y-49196392D01*
X65118188Y-49196390D01*
X65118190Y-49196390D01*
X65232309Y-49130503D01*
X65232309Y-49130502D01*
X65232314Y-49130500D01*
X65325500Y-49037314D01*
X65361431Y-48975080D01*
X65391390Y-48923190D01*
X65391390Y-48923188D01*
X65391392Y-48923186D01*
X65425500Y-48795892D01*
X65425500Y-48664108D01*
X74174500Y-48664108D01*
X74174500Y-48795892D01*
X74175466Y-48799496D01*
X74208609Y-48923190D01*
X74274496Y-49037309D01*
X74274498Y-49037311D01*
X74274500Y-49037314D01*
X74367686Y-49130500D01*
X74367688Y-49130501D01*
X74367690Y-49130503D01*
X74481810Y-49196390D01*
X74481808Y-49196390D01*
X74481812Y-49196391D01*
X74481814Y-49196392D01*
X74609108Y-49230500D01*
X74609110Y-49230500D01*
X74740890Y-49230500D01*
X74740892Y-49230500D01*
X74868186Y-49196392D01*
X74868188Y-49196390D01*
X74868190Y-49196390D01*
X74982309Y-49130503D01*
X74982309Y-49130502D01*
X74982314Y-49130500D01*
X75075500Y-49037314D01*
X75111431Y-48975080D01*
X75141390Y-48923190D01*
X75141390Y-48923188D01*
X75141392Y-48923186D01*
X75175500Y-48795892D01*
X75175500Y-48664108D01*
X75141392Y-48536814D01*
X75141390Y-48536811D01*
X75141390Y-48536809D01*
X75075503Y-48422690D01*
X75075501Y-48422688D01*
X75075500Y-48422686D01*
X74982314Y-48329500D01*
X74982311Y-48329498D01*
X74982309Y-48329496D01*
X74868189Y-48263609D01*
X74868191Y-48263609D01*
X74818799Y-48250375D01*
X74740892Y-48229500D01*
X74609108Y-48229500D01*
X74531200Y-48250375D01*
X74481809Y-48263609D01*
X74367690Y-48329496D01*
X74274496Y-48422690D01*
X74208609Y-48536809D01*
X74208608Y-48536814D01*
X74174500Y-48664108D01*
X65425500Y-48664108D01*
X65391392Y-48536814D01*
X65391390Y-48536811D01*
X65391390Y-48536809D01*
X65325503Y-48422690D01*
X65325501Y-48422688D01*
X65325500Y-48422686D01*
X65232314Y-48329500D01*
X65232311Y-48329498D01*
X65232309Y-48329496D01*
X65118189Y-48263609D01*
X65118191Y-48263609D01*
X65068799Y-48250375D01*
X64990892Y-48229500D01*
X64859108Y-48229500D01*
X64781200Y-48250375D01*
X64731809Y-48263609D01*
X64617690Y-48329496D01*
X64524496Y-48422690D01*
X64498236Y-48468175D01*
X64452767Y-48509116D01*
X64391916Y-48515512D01*
X64338928Y-48484919D01*
X64326764Y-48468175D01*
X64300503Y-48422690D01*
X64300501Y-48422688D01*
X64300500Y-48422686D01*
X64207314Y-48329500D01*
X64207311Y-48329498D01*
X64207309Y-48329496D01*
X64093189Y-48263609D01*
X64093191Y-48263609D01*
X64043799Y-48250375D01*
X63965892Y-48229500D01*
X63834108Y-48229500D01*
X63756200Y-48250375D01*
X63706809Y-48263609D01*
X63592690Y-48329496D01*
X63499496Y-48422690D01*
X63433609Y-48536809D01*
X63433608Y-48536814D01*
X63399500Y-48664108D01*
X40475445Y-48664108D01*
X40516392Y-48593186D01*
X40550500Y-48465892D01*
X40550500Y-48334108D01*
X40516392Y-48206814D01*
X40516390Y-48206811D01*
X40516390Y-48206809D01*
X40450503Y-48092690D01*
X40450501Y-48092688D01*
X40450500Y-48092686D01*
X40357314Y-47999500D01*
X40357311Y-47999498D01*
X40357309Y-47999496D01*
X40243189Y-47933609D01*
X40243191Y-47933609D01*
X40193799Y-47920375D01*
X40115892Y-47899500D01*
X39984108Y-47899500D01*
X39906200Y-47920375D01*
X39856809Y-47933609D01*
X39742690Y-47999496D01*
X39649496Y-48092690D01*
X39583609Y-48206809D01*
X39583608Y-48206814D01*
X39549500Y-48334108D01*
X35588000Y-48334108D01*
X35553892Y-48206814D01*
X35553890Y-48206811D01*
X35553890Y-48206809D01*
X35488003Y-48092690D01*
X35488001Y-48092688D01*
X35488000Y-48092686D01*
X35394814Y-47999500D01*
X35394811Y-47999498D01*
X35394809Y-47999496D01*
X35280689Y-47933609D01*
X35280691Y-47933609D01*
X35231299Y-47920375D01*
X35153392Y-47899500D01*
X35021608Y-47899500D01*
X34943700Y-47920375D01*
X34894309Y-47933609D01*
X34780190Y-47999496D01*
X34686996Y-48092690D01*
X34621109Y-48206809D01*
X34621108Y-48206814D01*
X34587000Y-48334108D01*
X28249104Y-48334108D01*
X28307309Y-48300503D01*
X28307309Y-48300502D01*
X28307314Y-48300500D01*
X28400500Y-48207314D01*
X28466392Y-48093186D01*
X28500500Y-47965892D01*
X28500500Y-47834108D01*
X28466392Y-47706814D01*
X28466390Y-47706811D01*
X28466390Y-47706809D01*
X28400503Y-47592690D01*
X28400501Y-47592688D01*
X28400500Y-47592686D01*
X28307314Y-47499500D01*
X28307311Y-47499498D01*
X28307309Y-47499496D01*
X28262031Y-47473355D01*
X28193189Y-47433609D01*
X28193191Y-47433609D01*
X28143799Y-47420375D01*
X28065892Y-47399500D01*
X27934108Y-47399500D01*
X27856200Y-47420375D01*
X27806809Y-47433609D01*
X27692690Y-47499496D01*
X27599496Y-47592690D01*
X27533609Y-47706809D01*
X27533608Y-47706814D01*
X27499500Y-47834108D01*
X6973187Y-47834108D01*
X6965925Y-47807007D01*
X6933012Y-47750000D01*
X7849999Y-47750000D01*
X7850000Y-47749999D01*
X7850000Y-47394108D01*
X74374500Y-47394108D01*
X74374500Y-47525892D01*
X74404579Y-47638151D01*
X74408609Y-47653190D01*
X74474496Y-47767309D01*
X74474498Y-47767311D01*
X74474500Y-47767314D01*
X74567686Y-47860500D01*
X74567688Y-47860501D01*
X74567690Y-47860503D01*
X74681810Y-47926390D01*
X74681808Y-47926390D01*
X74681812Y-47926391D01*
X74681814Y-47926392D01*
X74809108Y-47960500D01*
X74809110Y-47960500D01*
X74940890Y-47960500D01*
X74940892Y-47960500D01*
X75068186Y-47926392D01*
X75068188Y-47926390D01*
X75068190Y-47926390D01*
X75182309Y-47860503D01*
X75182309Y-47860502D01*
X75182314Y-47860500D01*
X75275500Y-47767314D01*
X75310433Y-47706809D01*
X75341390Y-47653190D01*
X75341390Y-47653188D01*
X75341392Y-47653186D01*
X75375500Y-47525892D01*
X75375500Y-47394108D01*
X75341392Y-47266814D01*
X75341390Y-47266811D01*
X75341390Y-47266809D01*
X75275503Y-47152690D01*
X75275501Y-47152688D01*
X75275500Y-47152686D01*
X75182314Y-47059500D01*
X75182311Y-47059498D01*
X75182309Y-47059496D01*
X75068189Y-46993609D01*
X75068191Y-46993609D01*
X75018799Y-46980375D01*
X74940892Y-46959500D01*
X74809108Y-46959500D01*
X74731200Y-46980375D01*
X74681809Y-46993609D01*
X74567690Y-47059496D01*
X74474496Y-47152690D01*
X74408609Y-47266809D01*
X74408608Y-47266814D01*
X74374500Y-47394108D01*
X7850000Y-47394108D01*
X7850000Y-47102175D01*
X7843598Y-47042629D01*
X7843596Y-47042618D01*
X7793353Y-46907911D01*
X7793352Y-46907909D01*
X7707192Y-46792815D01*
X7707184Y-46792807D01*
X7592090Y-46706647D01*
X7592088Y-46706646D01*
X7457381Y-46656403D01*
X7457370Y-46656401D01*
X7397824Y-46650000D01*
X6750001Y-46650000D01*
X6750000Y-46650001D01*
X6750000Y-47566988D01*
X6692993Y-47534075D01*
X6565826Y-47500000D01*
X6434174Y-47500000D01*
X6307007Y-47534075D01*
X6250000Y-47566988D01*
X6250000Y-46650001D01*
X6249999Y-46650000D01*
X5602176Y-46650000D01*
X5542629Y-46656401D01*
X5542618Y-46656403D01*
X5407911Y-46706646D01*
X5407909Y-46706647D01*
X5292815Y-46792807D01*
X5292807Y-46792815D01*
X5206647Y-46907909D01*
X5206646Y-46907911D01*
X5156403Y-47042618D01*
X5156401Y-47042629D01*
X5150000Y-47102175D01*
X5150000Y-47749999D01*
X5150001Y-47750000D01*
X6066988Y-47750000D01*
X6034075Y-47807007D01*
X6000000Y-47934174D01*
X6000000Y-48065826D01*
X6034075Y-48192993D01*
X6066988Y-48250000D01*
X5150001Y-48250000D01*
X5150000Y-48250001D01*
X5150000Y-48897824D01*
X5149999Y-48897824D01*
X500500Y-48897824D01*
X500500Y-45934108D01*
X34587000Y-45934108D01*
X34587000Y-46065892D01*
X34602599Y-46124108D01*
X34621109Y-46193190D01*
X34686996Y-46307309D01*
X34686998Y-46307311D01*
X34687000Y-46307314D01*
X34780186Y-46400500D01*
X34780188Y-46400501D01*
X34780190Y-46400503D01*
X34894310Y-46466390D01*
X34894308Y-46466390D01*
X34894312Y-46466391D01*
X34894314Y-46466392D01*
X35021608Y-46500500D01*
X35021610Y-46500500D01*
X35153390Y-46500500D01*
X35153392Y-46500500D01*
X35280686Y-46466392D01*
X35280688Y-46466390D01*
X35280690Y-46466390D01*
X35394809Y-46400503D01*
X35394809Y-46400502D01*
X35394814Y-46400500D01*
X35488000Y-46307314D01*
X35553892Y-46193186D01*
X35588000Y-46065892D01*
X35588000Y-45934108D01*
X39587000Y-45934108D01*
X39587000Y-46065892D01*
X39602599Y-46124108D01*
X39621109Y-46193190D01*
X39686996Y-46307309D01*
X39686998Y-46307311D01*
X39687000Y-46307314D01*
X39780186Y-46400500D01*
X39780188Y-46400501D01*
X39780190Y-46400503D01*
X39894310Y-46466390D01*
X39894308Y-46466390D01*
X39894312Y-46466391D01*
X39894314Y-46466392D01*
X40021608Y-46500500D01*
X40021610Y-46500500D01*
X40153390Y-46500500D01*
X40153392Y-46500500D01*
X40280686Y-46466392D01*
X40280688Y-46466390D01*
X40280690Y-46466390D01*
X40394809Y-46400503D01*
X40394809Y-46400502D01*
X40394814Y-46400500D01*
X40488000Y-46307314D01*
X40553892Y-46193186D01*
X40572401Y-46124108D01*
X62499500Y-46124108D01*
X62499500Y-46255892D01*
X62529579Y-46368151D01*
X62533609Y-46383190D01*
X62599496Y-46497309D01*
X62599498Y-46497311D01*
X62599500Y-46497314D01*
X62692686Y-46590500D01*
X62692688Y-46590501D01*
X62692690Y-46590503D01*
X62806810Y-46656390D01*
X62806808Y-46656390D01*
X62806812Y-46656391D01*
X62806814Y-46656392D01*
X62934108Y-46690500D01*
X62934110Y-46690500D01*
X63065890Y-46690500D01*
X63065892Y-46690500D01*
X63193186Y-46656392D01*
X63193188Y-46656390D01*
X63193190Y-46656390D01*
X63307309Y-46590503D01*
X63307309Y-46590502D01*
X63307314Y-46590500D01*
X63400500Y-46497314D01*
X63466392Y-46383186D01*
X63500500Y-46255892D01*
X63500500Y-46124108D01*
X64424500Y-46124108D01*
X64424500Y-46255892D01*
X64454579Y-46368151D01*
X64458609Y-46383190D01*
X64524496Y-46497309D01*
X64524498Y-46497311D01*
X64524500Y-46497314D01*
X64617686Y-46590500D01*
X64617688Y-46590501D01*
X64617690Y-46590503D01*
X64731810Y-46656390D01*
X64731808Y-46656390D01*
X64731812Y-46656391D01*
X64731814Y-46656392D01*
X64859108Y-46690500D01*
X64859110Y-46690500D01*
X64990890Y-46690500D01*
X64990892Y-46690500D01*
X65118186Y-46656392D01*
X65118188Y-46656390D01*
X65118190Y-46656390D01*
X65232309Y-46590503D01*
X65232309Y-46590502D01*
X65232314Y-46590500D01*
X65325500Y-46497314D01*
X65391392Y-46383186D01*
X65425500Y-46255892D01*
X65425500Y-46124108D01*
X65391392Y-45996814D01*
X65391390Y-45996811D01*
X65391390Y-45996809D01*
X65325503Y-45882690D01*
X65325501Y-45882688D01*
X65325500Y-45882686D01*
X65232314Y-45789500D01*
X65232311Y-45789498D01*
X65232309Y-45789496D01*
X65118189Y-45723609D01*
X65118191Y-45723609D01*
X65068799Y-45710375D01*
X64990892Y-45689500D01*
X64859108Y-45689500D01*
X64781200Y-45710375D01*
X64731809Y-45723609D01*
X64617690Y-45789496D01*
X64524496Y-45882690D01*
X64458609Y-45996809D01*
X64458608Y-45996814D01*
X64424500Y-46124108D01*
X63500500Y-46124108D01*
X63466392Y-45996814D01*
X63466390Y-45996811D01*
X63466390Y-45996809D01*
X63400503Y-45882690D01*
X63400501Y-45882688D01*
X63400500Y-45882686D01*
X63307314Y-45789500D01*
X63307311Y-45789498D01*
X63307309Y-45789496D01*
X63193189Y-45723609D01*
X63193191Y-45723609D01*
X63143799Y-45710375D01*
X63065892Y-45689500D01*
X62934108Y-45689500D01*
X62856200Y-45710375D01*
X62806809Y-45723609D01*
X62692690Y-45789496D01*
X62599496Y-45882690D01*
X62533609Y-45996809D01*
X62533608Y-45996814D01*
X62499500Y-46124108D01*
X40572401Y-46124108D01*
X40588000Y-46065892D01*
X40588000Y-45934108D01*
X40553892Y-45806814D01*
X40553890Y-45806811D01*
X40553890Y-45806809D01*
X40488003Y-45692690D01*
X40488001Y-45692688D01*
X40488000Y-45692686D01*
X40394814Y-45599500D01*
X40394811Y-45599498D01*
X40394809Y-45599496D01*
X40280689Y-45533609D01*
X40280691Y-45533609D01*
X40231299Y-45520375D01*
X40153392Y-45499500D01*
X40021608Y-45499500D01*
X39943700Y-45520375D01*
X39894309Y-45533609D01*
X39780190Y-45599496D01*
X39686996Y-45692690D01*
X39621109Y-45806809D01*
X39621108Y-45806814D01*
X39587000Y-45934108D01*
X35588000Y-45934108D01*
X35553892Y-45806814D01*
X35553890Y-45806811D01*
X35553890Y-45806809D01*
X35488003Y-45692690D01*
X35488001Y-45692688D01*
X35488000Y-45692686D01*
X35394814Y-45599500D01*
X35394811Y-45599498D01*
X35394809Y-45599496D01*
X35280689Y-45533609D01*
X35280691Y-45533609D01*
X35231299Y-45520375D01*
X35153392Y-45499500D01*
X35021608Y-45499500D01*
X34943700Y-45520375D01*
X34894309Y-45533609D01*
X34780190Y-45599496D01*
X34686996Y-45692690D01*
X34621109Y-45806809D01*
X34621108Y-45806814D01*
X34587000Y-45934108D01*
X500500Y-45934108D01*
X500500Y-43724108D01*
X71974500Y-43724108D01*
X71974500Y-43855892D01*
X72004579Y-43968151D01*
X72008609Y-43983190D01*
X72074496Y-44097309D01*
X72074498Y-44097311D01*
X72074500Y-44097314D01*
X72167686Y-44190500D01*
X72167688Y-44190501D01*
X72167690Y-44190503D01*
X72281810Y-44256390D01*
X72281808Y-44256390D01*
X72281812Y-44256391D01*
X72281814Y-44256392D01*
X72409108Y-44290500D01*
X72409110Y-44290500D01*
X72540890Y-44290500D01*
X72540892Y-44290500D01*
X72668186Y-44256392D01*
X72668188Y-44256390D01*
X72668190Y-44256390D01*
X72782309Y-44190503D01*
X72782309Y-44190502D01*
X72782314Y-44190500D01*
X72875500Y-44097314D01*
X72941392Y-43983186D01*
X72975500Y-43855892D01*
X72975500Y-43724108D01*
X72941392Y-43596814D01*
X72941390Y-43596811D01*
X72941390Y-43596809D01*
X72875503Y-43482690D01*
X72875501Y-43482688D01*
X72875500Y-43482686D01*
X72782314Y-43389500D01*
X72782311Y-43389498D01*
X72782309Y-43389496D01*
X72668189Y-43323609D01*
X72668191Y-43323609D01*
X72618799Y-43310375D01*
X72540892Y-43289500D01*
X72409108Y-43289500D01*
X72331200Y-43310375D01*
X72281809Y-43323609D01*
X72167690Y-43389496D01*
X72074496Y-43482690D01*
X72008609Y-43596809D01*
X72008608Y-43596814D01*
X71974500Y-43724108D01*
X500500Y-43724108D01*
X500500Y-42234108D01*
X23499500Y-42234108D01*
X23499500Y-42365892D01*
X23529579Y-42478151D01*
X23533609Y-42493190D01*
X23599496Y-42607309D01*
X23599498Y-42607311D01*
X23599500Y-42607314D01*
X23692686Y-42700500D01*
X23692688Y-42700501D01*
X23692690Y-42700503D01*
X23806810Y-42766390D01*
X23806808Y-42766390D01*
X23806812Y-42766391D01*
X23806814Y-42766392D01*
X23934108Y-42800500D01*
X23934110Y-42800500D01*
X24065890Y-42800500D01*
X24065892Y-42800500D01*
X24193186Y-42766392D01*
X24193188Y-42766390D01*
X24193190Y-42766390D01*
X24249104Y-42734108D01*
X36412000Y-42734108D01*
X36412000Y-42865892D01*
X36442079Y-42978151D01*
X36446109Y-42993190D01*
X36511996Y-43107309D01*
X36511998Y-43107311D01*
X36512000Y-43107314D01*
X36605186Y-43200500D01*
X36605188Y-43200501D01*
X36605190Y-43200503D01*
X36719310Y-43266390D01*
X36719308Y-43266390D01*
X36719312Y-43266391D01*
X36719314Y-43266392D01*
X36846608Y-43300500D01*
X36846610Y-43300500D01*
X36978390Y-43300500D01*
X36978392Y-43300500D01*
X37105686Y-43266392D01*
X37105688Y-43266390D01*
X37105690Y-43266390D01*
X37219809Y-43200503D01*
X37219809Y-43200502D01*
X37219814Y-43200500D01*
X37313000Y-43107314D01*
X37378892Y-42993186D01*
X37413000Y-42865892D01*
X37413000Y-42734108D01*
X37378892Y-42606814D01*
X37378890Y-42606811D01*
X37378890Y-42606809D01*
X37313003Y-42492690D01*
X37313001Y-42492688D01*
X37313000Y-42492686D01*
X37219814Y-42399500D01*
X37219811Y-42399498D01*
X37219809Y-42399496D01*
X37105689Y-42333609D01*
X37105691Y-42333609D01*
X37056299Y-42320375D01*
X36978392Y-42299500D01*
X36846608Y-42299500D01*
X36768700Y-42320375D01*
X36719309Y-42333609D01*
X36605190Y-42399496D01*
X36511996Y-42492690D01*
X36446109Y-42606809D01*
X36446108Y-42606814D01*
X36412000Y-42734108D01*
X24249104Y-42734108D01*
X24307309Y-42700503D01*
X24307309Y-42700502D01*
X24307314Y-42700500D01*
X24400500Y-42607314D01*
X24466392Y-42493186D01*
X24500500Y-42365892D01*
X24500500Y-42234108D01*
X24466392Y-42106814D01*
X24466390Y-42106811D01*
X24466390Y-42106809D01*
X24400503Y-41992690D01*
X24400501Y-41992688D01*
X24400500Y-41992686D01*
X24307314Y-41899500D01*
X24307311Y-41899498D01*
X24307309Y-41899496D01*
X24193189Y-41833609D01*
X24193191Y-41833609D01*
X24178722Y-41829732D01*
X24065892Y-41799500D01*
X23934108Y-41799500D01*
X23856200Y-41820375D01*
X23806809Y-41833609D01*
X23692690Y-41899496D01*
X23599496Y-41992690D01*
X23533609Y-42106809D01*
X23533608Y-42106814D01*
X23499500Y-42234108D01*
X500500Y-42234108D01*
X500500Y-41734108D01*
X53499500Y-41734108D01*
X53499500Y-41865892D01*
X53529579Y-41978151D01*
X53533609Y-41993190D01*
X53599496Y-42107309D01*
X53599498Y-42107311D01*
X53599500Y-42107314D01*
X53692686Y-42200500D01*
X53692688Y-42200501D01*
X53692690Y-42200503D01*
X53806810Y-42266390D01*
X53806808Y-42266390D01*
X53806812Y-42266391D01*
X53806814Y-42266392D01*
X53934108Y-42300500D01*
X53934110Y-42300500D01*
X54065890Y-42300500D01*
X54065892Y-42300500D01*
X54193186Y-42266392D01*
X54193188Y-42266390D01*
X54193190Y-42266390D01*
X54307309Y-42200503D01*
X54307309Y-42200502D01*
X54307314Y-42200500D01*
X54400500Y-42107314D01*
X54466392Y-41993186D01*
X54500500Y-41865892D01*
X54500500Y-41734108D01*
X60699499Y-41734108D01*
X60699499Y-41865892D01*
X60729578Y-41978151D01*
X60733608Y-41993190D01*
X60799495Y-42107309D01*
X60799497Y-42107311D01*
X60799499Y-42107314D01*
X60892685Y-42200500D01*
X60892687Y-42200501D01*
X60892689Y-42200503D01*
X61006809Y-42266390D01*
X61006807Y-42266390D01*
X61006811Y-42266391D01*
X61006813Y-42266392D01*
X61134107Y-42300500D01*
X61134109Y-42300500D01*
X61265889Y-42300500D01*
X61265891Y-42300500D01*
X61393185Y-42266392D01*
X61393187Y-42266390D01*
X61393189Y-42266390D01*
X61507308Y-42200503D01*
X61507308Y-42200502D01*
X61507313Y-42200500D01*
X61600499Y-42107314D01*
X61666391Y-41993186D01*
X61700499Y-41865892D01*
X61700499Y-41734108D01*
X61666391Y-41606814D01*
X61666389Y-41606811D01*
X61666389Y-41606809D01*
X61600502Y-41492690D01*
X61600500Y-41492688D01*
X61600499Y-41492686D01*
X61507313Y-41399500D01*
X61507310Y-41399498D01*
X61507308Y-41399496D01*
X61393188Y-41333609D01*
X61393190Y-41333609D01*
X61343798Y-41320375D01*
X61265891Y-41299500D01*
X61134107Y-41299500D01*
X61056199Y-41320375D01*
X61006808Y-41333609D01*
X60892689Y-41399496D01*
X60799495Y-41492690D01*
X60733608Y-41606809D01*
X60733607Y-41606814D01*
X60699499Y-41734108D01*
X54500500Y-41734108D01*
X54466392Y-41606814D01*
X54466390Y-41606811D01*
X54466390Y-41606809D01*
X54400503Y-41492690D01*
X54400501Y-41492688D01*
X54400500Y-41492686D01*
X54307314Y-41399500D01*
X54307311Y-41399498D01*
X54307309Y-41399496D01*
X54193189Y-41333609D01*
X54193191Y-41333609D01*
X54143799Y-41320375D01*
X54065892Y-41299500D01*
X53934108Y-41299500D01*
X53856200Y-41320375D01*
X53806809Y-41333609D01*
X53692690Y-41399496D01*
X53599496Y-41492690D01*
X53533609Y-41606809D01*
X53533608Y-41606814D01*
X53499500Y-41734108D01*
X500500Y-41734108D01*
X500500Y-40144108D01*
X67024500Y-40144108D01*
X67024500Y-40275892D01*
X67054579Y-40388151D01*
X67058609Y-40403190D01*
X67124496Y-40517309D01*
X67124498Y-40517311D01*
X67124500Y-40517314D01*
X67217686Y-40610500D01*
X67217688Y-40610501D01*
X67217690Y-40610503D01*
X67331810Y-40676390D01*
X67331808Y-40676390D01*
X67331812Y-40676391D01*
X67331814Y-40676392D01*
X67459108Y-40710500D01*
X67459110Y-40710500D01*
X67590890Y-40710500D01*
X67590892Y-40710500D01*
X67718186Y-40676392D01*
X67718188Y-40676390D01*
X67718190Y-40676390D01*
X67832309Y-40610503D01*
X67832309Y-40610502D01*
X67832314Y-40610500D01*
X67925500Y-40517314D01*
X67991392Y-40403186D01*
X68025500Y-40275892D01*
X68025500Y-40144108D01*
X67991392Y-40016814D01*
X67991390Y-40016811D01*
X67991390Y-40016809D01*
X67925503Y-39902690D01*
X67925501Y-39902688D01*
X67925500Y-39902686D01*
X67832314Y-39809500D01*
X67832311Y-39809498D01*
X67832309Y-39809496D01*
X67718189Y-39743609D01*
X67718191Y-39743609D01*
X67668799Y-39730375D01*
X67590892Y-39709500D01*
X67459108Y-39709500D01*
X67381200Y-39730375D01*
X67331809Y-39743609D01*
X67217690Y-39809496D01*
X67124496Y-39902690D01*
X67058609Y-40016809D01*
X67049209Y-40051891D01*
X67024500Y-40144108D01*
X500500Y-40144108D01*
X500500Y-38976532D01*
X5449500Y-38976532D01*
X5449500Y-39183467D01*
X5489869Y-39386418D01*
X5569058Y-39577597D01*
X5679983Y-39743609D01*
X5684023Y-39749655D01*
X5830345Y-39895977D01*
X6002402Y-40010941D01*
X6193580Y-40090130D01*
X6396535Y-40130500D01*
X6396536Y-40130500D01*
X6603464Y-40130500D01*
X6603465Y-40130500D01*
X6806420Y-40090130D01*
X6997598Y-40010941D01*
X7169655Y-39895977D01*
X7315977Y-39749655D01*
X7430941Y-39577598D01*
X7434458Y-39569108D01*
X30499500Y-39569108D01*
X30499500Y-39700892D01*
X30510946Y-39743608D01*
X30533609Y-39828190D01*
X30599496Y-39942309D01*
X30599498Y-39942311D01*
X30599500Y-39942314D01*
X30692686Y-40035500D01*
X30692688Y-40035501D01*
X30692690Y-40035503D01*
X30806810Y-40101390D01*
X30806808Y-40101390D01*
X30806812Y-40101391D01*
X30806814Y-40101392D01*
X30934108Y-40135500D01*
X30934110Y-40135500D01*
X31065890Y-40135500D01*
X31065892Y-40135500D01*
X31193186Y-40101392D01*
X31193188Y-40101390D01*
X31193190Y-40101390D01*
X31278925Y-40051891D01*
X31278933Y-40051885D01*
X31307314Y-40035500D01*
X31400500Y-39942314D01*
X31466392Y-39828186D01*
X31500500Y-39700892D01*
X31500500Y-39569108D01*
X31466392Y-39441814D01*
X31466390Y-39441811D01*
X31466390Y-39441809D01*
X31400503Y-39327690D01*
X31400501Y-39327688D01*
X31400500Y-39327686D01*
X31307314Y-39234500D01*
X31307311Y-39234498D01*
X31307309Y-39234496D01*
X31193189Y-39168609D01*
X31193191Y-39168609D01*
X31143799Y-39155375D01*
X31065892Y-39134500D01*
X30934108Y-39134500D01*
X30856200Y-39155375D01*
X30806809Y-39168609D01*
X30692690Y-39234496D01*
X30599496Y-39327690D01*
X30533609Y-39441809D01*
X30533608Y-39441814D01*
X30499500Y-39569108D01*
X7434458Y-39569108D01*
X7510130Y-39386420D01*
X7550500Y-39183465D01*
X7550500Y-38976535D01*
X7510130Y-38773580D01*
X7430941Y-38582402D01*
X7315977Y-38410345D01*
X7169655Y-38264023D01*
X7169651Y-38264020D01*
X6997597Y-38149058D01*
X6806418Y-38069869D01*
X6603467Y-38029500D01*
X6603465Y-38029500D01*
X6396535Y-38029500D01*
X6396532Y-38029500D01*
X6193581Y-38069869D01*
X6002402Y-38149058D01*
X5830348Y-38264020D01*
X5684020Y-38410348D01*
X5569058Y-38582402D01*
X5489869Y-38773581D01*
X5449500Y-38976532D01*
X500500Y-38976532D01*
X500500Y-37744108D01*
X60699499Y-37744108D01*
X60699499Y-37875892D01*
X60729578Y-37988151D01*
X60733608Y-38003190D01*
X60799495Y-38117309D01*
X60799497Y-38117311D01*
X60799499Y-38117314D01*
X60892685Y-38210500D01*
X60892687Y-38210501D01*
X60892689Y-38210503D01*
X61006809Y-38276390D01*
X61006807Y-38276390D01*
X61006811Y-38276391D01*
X61006813Y-38276392D01*
X61134107Y-38310500D01*
X61134109Y-38310500D01*
X61265889Y-38310500D01*
X61265891Y-38310500D01*
X61393185Y-38276392D01*
X61393187Y-38276390D01*
X61393189Y-38276390D01*
X61507308Y-38210503D01*
X61507308Y-38210502D01*
X61507313Y-38210500D01*
X61600499Y-38117314D01*
X61627891Y-38069870D01*
X61666389Y-38003190D01*
X61666389Y-38003188D01*
X61666391Y-38003186D01*
X61700499Y-37875892D01*
X61700499Y-37744108D01*
X69374500Y-37744108D01*
X69374500Y-37875892D01*
X69404579Y-37988151D01*
X69408609Y-38003190D01*
X69474496Y-38117309D01*
X69474498Y-38117311D01*
X69474500Y-38117314D01*
X69567686Y-38210500D01*
X69567688Y-38210501D01*
X69567690Y-38210503D01*
X69681810Y-38276390D01*
X69681808Y-38276390D01*
X69681812Y-38276391D01*
X69681814Y-38276392D01*
X69809108Y-38310500D01*
X69809110Y-38310500D01*
X69940890Y-38310500D01*
X69940892Y-38310500D01*
X70068186Y-38276392D01*
X70068188Y-38276390D01*
X70068190Y-38276390D01*
X70182309Y-38210503D01*
X70182309Y-38210502D01*
X70182314Y-38210500D01*
X70275500Y-38117314D01*
X70302892Y-38069870D01*
X70341390Y-38003190D01*
X70341390Y-38003188D01*
X70341392Y-38003186D01*
X70375500Y-37875892D01*
X70375500Y-37744108D01*
X70341392Y-37616814D01*
X70341390Y-37616811D01*
X70341390Y-37616809D01*
X70275503Y-37502690D01*
X70275501Y-37502688D01*
X70275500Y-37502686D01*
X70182314Y-37409500D01*
X70182311Y-37409498D01*
X70182309Y-37409496D01*
X70068189Y-37343609D01*
X70068191Y-37343609D01*
X70018799Y-37330375D01*
X69940892Y-37309500D01*
X69809108Y-37309500D01*
X69731200Y-37330375D01*
X69681809Y-37343609D01*
X69567690Y-37409496D01*
X69474496Y-37502690D01*
X69408609Y-37616809D01*
X69408608Y-37616814D01*
X69374500Y-37744108D01*
X61700499Y-37744108D01*
X61666391Y-37616814D01*
X61666389Y-37616811D01*
X61666389Y-37616809D01*
X61600502Y-37502690D01*
X61600500Y-37502688D01*
X61600499Y-37502686D01*
X61507313Y-37409500D01*
X61507310Y-37409498D01*
X61507308Y-37409496D01*
X61393188Y-37343609D01*
X61393190Y-37343609D01*
X61343798Y-37330375D01*
X61265891Y-37309500D01*
X61134107Y-37309500D01*
X61056199Y-37330375D01*
X61006808Y-37343609D01*
X60892689Y-37409496D01*
X60799495Y-37502690D01*
X60733608Y-37616809D01*
X60733607Y-37616814D01*
X60699499Y-37744108D01*
X500500Y-37744108D01*
X500500Y-34897824D01*
X5149999Y-34897824D01*
X5156401Y-34957370D01*
X5156403Y-34957381D01*
X5206646Y-35092088D01*
X5206647Y-35092090D01*
X5292807Y-35207184D01*
X5292815Y-35207192D01*
X5407909Y-35293352D01*
X5407911Y-35293353D01*
X5542618Y-35343596D01*
X5542629Y-35343598D01*
X5602176Y-35350000D01*
X6130119Y-35350000D01*
X6188310Y-35368907D01*
X6224274Y-35418407D01*
X6224274Y-35479593D01*
X6188310Y-35529093D01*
X6168007Y-35540462D01*
X6118697Y-35560887D01*
X6002402Y-35609058D01*
X5830348Y-35724020D01*
X5684020Y-35870348D01*
X5569058Y-36042402D01*
X5489869Y-36233581D01*
X5449500Y-36436532D01*
X5449500Y-36643467D01*
X5489869Y-36846418D01*
X5569058Y-37037597D01*
X5569059Y-37037598D01*
X5684023Y-37209655D01*
X5830345Y-37355977D01*
X6002402Y-37470941D01*
X6193580Y-37550130D01*
X6396535Y-37590500D01*
X6396536Y-37590500D01*
X6603464Y-37590500D01*
X6603465Y-37590500D01*
X6806420Y-37550130D01*
X6997598Y-37470941D01*
X7169655Y-37355977D01*
X7315977Y-37209655D01*
X7430941Y-37037598D01*
X7510130Y-36846420D01*
X7550500Y-36643465D01*
X7550500Y-36474108D01*
X64624500Y-36474108D01*
X64624500Y-36605892D01*
X64634567Y-36643463D01*
X64658609Y-36733190D01*
X64724496Y-36847309D01*
X64724498Y-36847311D01*
X64724500Y-36847314D01*
X64817686Y-36940500D01*
X64817688Y-36940501D01*
X64817690Y-36940503D01*
X64931810Y-37006390D01*
X64931808Y-37006390D01*
X64931812Y-37006391D01*
X64931814Y-37006392D01*
X65059108Y-37040500D01*
X65059110Y-37040500D01*
X65190890Y-37040500D01*
X65190892Y-37040500D01*
X65318186Y-37006392D01*
X65318188Y-37006390D01*
X65318190Y-37006390D01*
X65432309Y-36940503D01*
X65432309Y-36940502D01*
X65432314Y-36940500D01*
X65525500Y-36847314D01*
X65591392Y-36733186D01*
X65625500Y-36605892D01*
X65625500Y-36474108D01*
X65591392Y-36346814D01*
X65591390Y-36346811D01*
X65591390Y-36346809D01*
X65525503Y-36232690D01*
X65525501Y-36232688D01*
X65525500Y-36232686D01*
X65432314Y-36139500D01*
X65432311Y-36139498D01*
X65432309Y-36139496D01*
X65318189Y-36073609D01*
X65318191Y-36073609D01*
X65268799Y-36060375D01*
X65190892Y-36039500D01*
X65059108Y-36039500D01*
X64981200Y-36060375D01*
X64931809Y-36073609D01*
X64817690Y-36139496D01*
X64724496Y-36232690D01*
X64658609Y-36346809D01*
X64658608Y-36346814D01*
X64624500Y-36474108D01*
X7550500Y-36474108D01*
X7550500Y-36436535D01*
X7510130Y-36233580D01*
X7430941Y-36042402D01*
X7315977Y-35870345D01*
X7169655Y-35724023D01*
X7169651Y-35724020D01*
X6997597Y-35609058D01*
X6901528Y-35569265D01*
X6831994Y-35540463D01*
X6785470Y-35500727D01*
X6771186Y-35441233D01*
X6794601Y-35384705D01*
X6846770Y-35352735D01*
X6869881Y-35350000D01*
X7397824Y-35350000D01*
X7457370Y-35343598D01*
X7457381Y-35343596D01*
X7592088Y-35293353D01*
X7592090Y-35293352D01*
X7707184Y-35207192D01*
X7707192Y-35207184D01*
X7761898Y-35134108D01*
X28499500Y-35134108D01*
X28499500Y-35265892D01*
X28522769Y-35352735D01*
X28533609Y-35393190D01*
X28599496Y-35507309D01*
X28599498Y-35507311D01*
X28599500Y-35507314D01*
X28692686Y-35600500D01*
X28692688Y-35600501D01*
X28692690Y-35600503D01*
X28806810Y-35666390D01*
X28806808Y-35666390D01*
X28806812Y-35666391D01*
X28806814Y-35666392D01*
X28934108Y-35700500D01*
X28934110Y-35700500D01*
X29065890Y-35700500D01*
X29065892Y-35700500D01*
X29193186Y-35666392D01*
X29193188Y-35666390D01*
X29193190Y-35666390D01*
X29307309Y-35600503D01*
X29307309Y-35600502D01*
X29307314Y-35600500D01*
X29400500Y-35507314D01*
X29425975Y-35463190D01*
X29466390Y-35393190D01*
X29466390Y-35393188D01*
X29466392Y-35393186D01*
X29500500Y-35265892D01*
X29500500Y-35204108D01*
X61599500Y-35204108D01*
X61599500Y-35335892D01*
X61614852Y-35393186D01*
X61633609Y-35463190D01*
X61699496Y-35577309D01*
X61699498Y-35577311D01*
X61699500Y-35577314D01*
X61792686Y-35670500D01*
X61792688Y-35670501D01*
X61792690Y-35670503D01*
X61906810Y-35736390D01*
X61906808Y-35736390D01*
X61906812Y-35736391D01*
X61906814Y-35736392D01*
X62034108Y-35770500D01*
X62034110Y-35770500D01*
X62165890Y-35770500D01*
X62165892Y-35770500D01*
X62293186Y-35736392D01*
X62293188Y-35736390D01*
X62293190Y-35736390D01*
X62407309Y-35670503D01*
X62407309Y-35670502D01*
X62407314Y-35670500D01*
X62500500Y-35577314D01*
X62500503Y-35577309D01*
X62566390Y-35463190D01*
X62566390Y-35463188D01*
X62566392Y-35463186D01*
X62600500Y-35335892D01*
X62600500Y-35204108D01*
X64624500Y-35204108D01*
X64624500Y-35335892D01*
X64639852Y-35393186D01*
X64658609Y-35463190D01*
X64724496Y-35577309D01*
X64724498Y-35577311D01*
X64724500Y-35577314D01*
X64817686Y-35670500D01*
X64817688Y-35670501D01*
X64817690Y-35670503D01*
X64931810Y-35736390D01*
X64931808Y-35736390D01*
X64931812Y-35736391D01*
X64931814Y-35736392D01*
X65059108Y-35770500D01*
X65059110Y-35770500D01*
X65190890Y-35770500D01*
X65190892Y-35770500D01*
X65318186Y-35736392D01*
X65318188Y-35736390D01*
X65318190Y-35736390D01*
X65432309Y-35670503D01*
X65432309Y-35670502D01*
X65432314Y-35670500D01*
X65525500Y-35577314D01*
X65525503Y-35577309D01*
X65591390Y-35463190D01*
X65591390Y-35463188D01*
X65591392Y-35463186D01*
X65625500Y-35335892D01*
X65625500Y-35204108D01*
X69374500Y-35204108D01*
X69374500Y-35335892D01*
X69389852Y-35393186D01*
X69408609Y-35463190D01*
X69474496Y-35577309D01*
X69474498Y-35577311D01*
X69474500Y-35577314D01*
X69567686Y-35670500D01*
X69567688Y-35670501D01*
X69567690Y-35670503D01*
X69681810Y-35736390D01*
X69681808Y-35736390D01*
X69681812Y-35736391D01*
X69681814Y-35736392D01*
X69809108Y-35770500D01*
X69809110Y-35770500D01*
X69940890Y-35770500D01*
X69940892Y-35770500D01*
X70068186Y-35736392D01*
X70068188Y-35736390D01*
X70068190Y-35736390D01*
X70182309Y-35670503D01*
X70182309Y-35670502D01*
X70182314Y-35670500D01*
X70275500Y-35577314D01*
X70275503Y-35577309D01*
X70341390Y-35463190D01*
X70341390Y-35463188D01*
X70341392Y-35463186D01*
X70375500Y-35335892D01*
X70375500Y-35204108D01*
X70341392Y-35076814D01*
X70341390Y-35076811D01*
X70341390Y-35076809D01*
X70275503Y-34962690D01*
X70275501Y-34962688D01*
X70275500Y-34962686D01*
X70182314Y-34869500D01*
X70182311Y-34869498D01*
X70182309Y-34869496D01*
X70068189Y-34803609D01*
X70068191Y-34803609D01*
X70018799Y-34790375D01*
X69940892Y-34769500D01*
X69809108Y-34769500D01*
X69731200Y-34790375D01*
X69681809Y-34803609D01*
X69567690Y-34869496D01*
X69474496Y-34962690D01*
X69408609Y-35076809D01*
X69393256Y-35134108D01*
X69374500Y-35204108D01*
X65625500Y-35204108D01*
X65591392Y-35076814D01*
X65591390Y-35076811D01*
X65591390Y-35076809D01*
X65525503Y-34962690D01*
X65525501Y-34962688D01*
X65525500Y-34962686D01*
X65432314Y-34869500D01*
X65432311Y-34869498D01*
X65432309Y-34869496D01*
X65318189Y-34803609D01*
X65318191Y-34803609D01*
X65268799Y-34790375D01*
X65190892Y-34769500D01*
X65059108Y-34769500D01*
X64981200Y-34790375D01*
X64931809Y-34803609D01*
X64817690Y-34869496D01*
X64724496Y-34962690D01*
X64658609Y-35076809D01*
X64643256Y-35134108D01*
X64624500Y-35204108D01*
X62600500Y-35204108D01*
X62566392Y-35076814D01*
X62566390Y-35076811D01*
X62566390Y-35076809D01*
X62500503Y-34962690D01*
X62500501Y-34962688D01*
X62500500Y-34962686D01*
X62407314Y-34869500D01*
X62407311Y-34869498D01*
X62407309Y-34869496D01*
X62293189Y-34803609D01*
X62293191Y-34803609D01*
X62243799Y-34790375D01*
X62165892Y-34769500D01*
X62034108Y-34769500D01*
X61956200Y-34790375D01*
X61906809Y-34803609D01*
X61792690Y-34869496D01*
X61699496Y-34962690D01*
X61633609Y-35076809D01*
X61618256Y-35134108D01*
X61599500Y-35204108D01*
X29500500Y-35204108D01*
X29500500Y-35134108D01*
X29466392Y-35006814D01*
X29466390Y-35006811D01*
X29466390Y-35006809D01*
X29400503Y-34892690D01*
X29400501Y-34892688D01*
X29400500Y-34892686D01*
X29307314Y-34799500D01*
X29307311Y-34799498D01*
X29307309Y-34799496D01*
X29193189Y-34733609D01*
X29193191Y-34733609D01*
X29143799Y-34720375D01*
X29065892Y-34699500D01*
X28934108Y-34699500D01*
X28856200Y-34720375D01*
X28806809Y-34733609D01*
X28692690Y-34799496D01*
X28599496Y-34892690D01*
X28533609Y-35006809D01*
X28533608Y-35006814D01*
X28499500Y-35134108D01*
X7761898Y-35134108D01*
X7793352Y-35092091D01*
X7843596Y-34957378D01*
X7843598Y-34957370D01*
X7850000Y-34897824D01*
X7850000Y-34250001D01*
X7849999Y-34250000D01*
X6933012Y-34250000D01*
X6965925Y-34192993D01*
X7000000Y-34065826D01*
X7000000Y-33934174D01*
X6973187Y-33834108D01*
X27499500Y-33834108D01*
X27499500Y-33965892D01*
X27526277Y-34065826D01*
X27533609Y-34093190D01*
X27599496Y-34207309D01*
X27599498Y-34207311D01*
X27599500Y-34207314D01*
X27692686Y-34300500D01*
X27692688Y-34300501D01*
X27692690Y-34300503D01*
X27806810Y-34366390D01*
X27806808Y-34366390D01*
X27806812Y-34366391D01*
X27806814Y-34366392D01*
X27934108Y-34400500D01*
X27934110Y-34400500D01*
X28065890Y-34400500D01*
X28065892Y-34400500D01*
X28193186Y-34366392D01*
X28193188Y-34366390D01*
X28193190Y-34366390D01*
X28249104Y-34334108D01*
X34587000Y-34334108D01*
X34587000Y-34465892D01*
X34587009Y-34465925D01*
X34621109Y-34593190D01*
X34686996Y-34707309D01*
X34686998Y-34707311D01*
X34687000Y-34707314D01*
X34780186Y-34800500D01*
X34780188Y-34800501D01*
X34780190Y-34800503D01*
X34894310Y-34866390D01*
X34894308Y-34866390D01*
X34894312Y-34866391D01*
X34894314Y-34866392D01*
X35021608Y-34900500D01*
X35021610Y-34900500D01*
X35153390Y-34900500D01*
X35153392Y-34900500D01*
X35280686Y-34866392D01*
X35280688Y-34866390D01*
X35280690Y-34866390D01*
X35394809Y-34800503D01*
X35394809Y-34800502D01*
X35394814Y-34800500D01*
X35488000Y-34707314D01*
X35488003Y-34707309D01*
X35553890Y-34593190D01*
X35553890Y-34593188D01*
X35553892Y-34593186D01*
X35588000Y-34465892D01*
X35588000Y-34334108D01*
X39549500Y-34334108D01*
X39549500Y-34465892D01*
X39549509Y-34465925D01*
X39583609Y-34593190D01*
X39649496Y-34707309D01*
X39649498Y-34707311D01*
X39649500Y-34707314D01*
X39742686Y-34800500D01*
X39742688Y-34800501D01*
X39742690Y-34800503D01*
X39856810Y-34866390D01*
X39856808Y-34866390D01*
X39856812Y-34866391D01*
X39856814Y-34866392D01*
X39984108Y-34900500D01*
X39984110Y-34900500D01*
X40115890Y-34900500D01*
X40115892Y-34900500D01*
X40243186Y-34866392D01*
X40243188Y-34866390D01*
X40243190Y-34866390D01*
X40357309Y-34800503D01*
X40357309Y-34800502D01*
X40357314Y-34800500D01*
X40450500Y-34707314D01*
X40450503Y-34707309D01*
X40516390Y-34593190D01*
X40516390Y-34593188D01*
X40516392Y-34593186D01*
X40550500Y-34465892D01*
X40550500Y-34334108D01*
X40516392Y-34206814D01*
X40516390Y-34206811D01*
X40516390Y-34206809D01*
X40450503Y-34092690D01*
X40450501Y-34092688D01*
X40450500Y-34092686D01*
X40357314Y-33999500D01*
X40357311Y-33999498D01*
X40357309Y-33999496D01*
X40243189Y-33933609D01*
X40243191Y-33933609D01*
X40193799Y-33920375D01*
X40115892Y-33899500D01*
X39984108Y-33899500D01*
X39906200Y-33920375D01*
X39856809Y-33933609D01*
X39742690Y-33999496D01*
X39649496Y-34092690D01*
X39583609Y-34206809D01*
X39583608Y-34206814D01*
X39549500Y-34334108D01*
X35588000Y-34334108D01*
X35553892Y-34206814D01*
X35553890Y-34206811D01*
X35553890Y-34206809D01*
X35488003Y-34092690D01*
X35488001Y-34092688D01*
X35488000Y-34092686D01*
X35394814Y-33999500D01*
X35394811Y-33999498D01*
X35394809Y-33999496D01*
X35280689Y-33933609D01*
X35280691Y-33933609D01*
X35231299Y-33920375D01*
X35153392Y-33899500D01*
X35021608Y-33899500D01*
X34943700Y-33920375D01*
X34894309Y-33933609D01*
X34780190Y-33999496D01*
X34686996Y-34092690D01*
X34621109Y-34206809D01*
X34621108Y-34206814D01*
X34587000Y-34334108D01*
X28249104Y-34334108D01*
X28307309Y-34300503D01*
X28307309Y-34300502D01*
X28307314Y-34300500D01*
X28400500Y-34207314D01*
X28466392Y-34093186D01*
X28500500Y-33965892D01*
X28500500Y-33834108D01*
X28466392Y-33706814D01*
X28466390Y-33706811D01*
X28466390Y-33706809D01*
X28400503Y-33592690D01*
X28400501Y-33592688D01*
X28400500Y-33592686D01*
X28307314Y-33499500D01*
X28307311Y-33499498D01*
X28307309Y-33499496D01*
X28193189Y-33433609D01*
X28193191Y-33433609D01*
X28143799Y-33420375D01*
X28065892Y-33399500D01*
X27934108Y-33399500D01*
X27856200Y-33420375D01*
X27806809Y-33433609D01*
X27692690Y-33499496D01*
X27599496Y-33592690D01*
X27533609Y-33706809D01*
X27533608Y-33706814D01*
X27499500Y-33834108D01*
X6973187Y-33834108D01*
X6965925Y-33807007D01*
X6933012Y-33750000D01*
X7849999Y-33750000D01*
X7850000Y-33749999D01*
X7850000Y-33102175D01*
X7843598Y-33042629D01*
X7843596Y-33042618D01*
X7793353Y-32907911D01*
X7793352Y-32907909D01*
X7707192Y-32792815D01*
X7707184Y-32792807D01*
X7632464Y-32736871D01*
X7592090Y-32706647D01*
X7592088Y-32706646D01*
X7478036Y-32664107D01*
X59799500Y-32664107D01*
X59799500Y-32795891D01*
X59829515Y-32907909D01*
X59833609Y-32923189D01*
X59899496Y-33037308D01*
X59899498Y-33037310D01*
X59899500Y-33037313D01*
X59992686Y-33130499D01*
X59992688Y-33130500D01*
X59992690Y-33130502D01*
X60106810Y-33196389D01*
X60106808Y-33196389D01*
X60106812Y-33196390D01*
X60106814Y-33196391D01*
X60234108Y-33230499D01*
X60234110Y-33230499D01*
X60365890Y-33230499D01*
X60365892Y-33230499D01*
X60493186Y-33196391D01*
X60493188Y-33196389D01*
X60493190Y-33196389D01*
X60607309Y-33130502D01*
X60607309Y-33130501D01*
X60607314Y-33130499D01*
X60700500Y-33037313D01*
X60766392Y-32923185D01*
X60800500Y-32795891D01*
X60800500Y-32664107D01*
X64424500Y-32664107D01*
X64424500Y-32795891D01*
X64454515Y-32907909D01*
X64458609Y-32923189D01*
X64524496Y-33037308D01*
X64524498Y-33037310D01*
X64524500Y-33037313D01*
X64617686Y-33130499D01*
X64617688Y-33130500D01*
X64617690Y-33130502D01*
X64731810Y-33196389D01*
X64731808Y-33196389D01*
X64731812Y-33196390D01*
X64731814Y-33196391D01*
X64859108Y-33230499D01*
X64859110Y-33230499D01*
X64990890Y-33230499D01*
X64990892Y-33230499D01*
X65118186Y-33196391D01*
X65118188Y-33196389D01*
X65118190Y-33196389D01*
X65232309Y-33130502D01*
X65232309Y-33130501D01*
X65232314Y-33130499D01*
X65325500Y-33037313D01*
X65391392Y-32923185D01*
X65425500Y-32795891D01*
X65425500Y-32664107D01*
X74374500Y-32664107D01*
X74374500Y-32795891D01*
X74404515Y-32907909D01*
X74408609Y-32923189D01*
X74474496Y-33037308D01*
X74474498Y-33037310D01*
X74474500Y-33037313D01*
X74567686Y-33130499D01*
X74567688Y-33130500D01*
X74567690Y-33130502D01*
X74681810Y-33196389D01*
X74681808Y-33196389D01*
X74681812Y-33196390D01*
X74681814Y-33196391D01*
X74809108Y-33230499D01*
X74809110Y-33230499D01*
X74940890Y-33230499D01*
X74940892Y-33230499D01*
X75068186Y-33196391D01*
X75068188Y-33196389D01*
X75068190Y-33196389D01*
X75182309Y-33130502D01*
X75182309Y-33130501D01*
X75182314Y-33130499D01*
X75275500Y-33037313D01*
X75341392Y-32923185D01*
X75375500Y-32795891D01*
X75375500Y-32664107D01*
X75341392Y-32536813D01*
X75341390Y-32536810D01*
X75341390Y-32536808D01*
X75275503Y-32422689D01*
X75275501Y-32422687D01*
X75275500Y-32422685D01*
X75182314Y-32329499D01*
X75182311Y-32329497D01*
X75182309Y-32329495D01*
X75068189Y-32263608D01*
X75068191Y-32263608D01*
X75018799Y-32250374D01*
X74940892Y-32229499D01*
X74809108Y-32229499D01*
X74731200Y-32250374D01*
X74681809Y-32263608D01*
X74567690Y-32329495D01*
X74474496Y-32422689D01*
X74408609Y-32536808D01*
X74408608Y-32536813D01*
X74374500Y-32664107D01*
X65425500Y-32664107D01*
X65391392Y-32536813D01*
X65391390Y-32536810D01*
X65391390Y-32536808D01*
X65325503Y-32422689D01*
X65325501Y-32422687D01*
X65325500Y-32422685D01*
X65232314Y-32329499D01*
X65232311Y-32329497D01*
X65232309Y-32329495D01*
X65118189Y-32263608D01*
X65118191Y-32263608D01*
X65068799Y-32250374D01*
X64990892Y-32229499D01*
X64859108Y-32229499D01*
X64781200Y-32250374D01*
X64731809Y-32263608D01*
X64617690Y-32329495D01*
X64524496Y-32422689D01*
X64458609Y-32536808D01*
X64458608Y-32536813D01*
X64424500Y-32664107D01*
X60800500Y-32664107D01*
X60766392Y-32536813D01*
X60766390Y-32536810D01*
X60766390Y-32536808D01*
X60700503Y-32422689D01*
X60700501Y-32422687D01*
X60700500Y-32422685D01*
X60607314Y-32329499D01*
X60607311Y-32329497D01*
X60607309Y-32329495D01*
X60493189Y-32263608D01*
X60493191Y-32263608D01*
X60443799Y-32250374D01*
X60365892Y-32229499D01*
X60234108Y-32229499D01*
X60156200Y-32250374D01*
X60106809Y-32263608D01*
X59992690Y-32329495D01*
X59899496Y-32422689D01*
X59833609Y-32536808D01*
X59833608Y-32536813D01*
X59799500Y-32664107D01*
X7478036Y-32664107D01*
X7457381Y-32656403D01*
X7457370Y-32656401D01*
X7397824Y-32650000D01*
X6750001Y-32650000D01*
X6750000Y-32650001D01*
X6750000Y-33566988D01*
X6692993Y-33534075D01*
X6565826Y-33500000D01*
X6434174Y-33500000D01*
X6307007Y-33534075D01*
X6250000Y-33566988D01*
X6250000Y-32650001D01*
X6249999Y-32650000D01*
X5602176Y-32650000D01*
X5542629Y-32656401D01*
X5542618Y-32656403D01*
X5407911Y-32706646D01*
X5407909Y-32706647D01*
X5292815Y-32792807D01*
X5292807Y-32792815D01*
X5206647Y-32907909D01*
X5206646Y-32907911D01*
X5156403Y-33042618D01*
X5156401Y-33042629D01*
X5150000Y-33102175D01*
X5150000Y-33749999D01*
X5150001Y-33750000D01*
X6066988Y-33750000D01*
X6034075Y-33807007D01*
X6000000Y-33934174D01*
X6000000Y-34065826D01*
X6034075Y-34192993D01*
X6066988Y-34250000D01*
X5150001Y-34250000D01*
X5150000Y-34250001D01*
X5150000Y-34897824D01*
X5149999Y-34897824D01*
X500500Y-34897824D01*
X500500Y-31934108D01*
X34587000Y-31934108D01*
X34587000Y-32065892D01*
X34617079Y-32178151D01*
X34621109Y-32193190D01*
X34686996Y-32307309D01*
X34686998Y-32307311D01*
X34687000Y-32307314D01*
X34780186Y-32400500D01*
X34780188Y-32400501D01*
X34780190Y-32400503D01*
X34894310Y-32466390D01*
X34894308Y-32466390D01*
X34894312Y-32466391D01*
X34894314Y-32466392D01*
X35021608Y-32500500D01*
X35021610Y-32500500D01*
X35153390Y-32500500D01*
X35153392Y-32500500D01*
X35280686Y-32466392D01*
X35280688Y-32466390D01*
X35280690Y-32466390D01*
X35394809Y-32400503D01*
X35394809Y-32400502D01*
X35394814Y-32400500D01*
X35488000Y-32307314D01*
X35513234Y-32263608D01*
X35553890Y-32193190D01*
X35553890Y-32193188D01*
X35553892Y-32193186D01*
X35588000Y-32065892D01*
X35588000Y-31934108D01*
X39587000Y-31934108D01*
X39587000Y-32065892D01*
X39617079Y-32178151D01*
X39621109Y-32193190D01*
X39686996Y-32307309D01*
X39686998Y-32307311D01*
X39687000Y-32307314D01*
X39780186Y-32400500D01*
X39780188Y-32400501D01*
X39780190Y-32400503D01*
X39894310Y-32466390D01*
X39894308Y-32466390D01*
X39894312Y-32466391D01*
X39894314Y-32466392D01*
X40021608Y-32500500D01*
X40021610Y-32500500D01*
X40153390Y-32500500D01*
X40153392Y-32500500D01*
X40280686Y-32466392D01*
X40280688Y-32466390D01*
X40280690Y-32466390D01*
X40394809Y-32400503D01*
X40394809Y-32400502D01*
X40394814Y-32400500D01*
X40488000Y-32307314D01*
X40513234Y-32263608D01*
X40553890Y-32193190D01*
X40553890Y-32193188D01*
X40553892Y-32193186D01*
X40588000Y-32065892D01*
X40588000Y-31934108D01*
X40553892Y-31806814D01*
X40553890Y-31806811D01*
X40553890Y-31806809D01*
X40488003Y-31692690D01*
X40488001Y-31692688D01*
X40488000Y-31692686D01*
X40394814Y-31599500D01*
X40394811Y-31599498D01*
X40394809Y-31599496D01*
X40280689Y-31533609D01*
X40280691Y-31533609D01*
X40231299Y-31520375D01*
X40153392Y-31499500D01*
X40021608Y-31499500D01*
X39943700Y-31520375D01*
X39894309Y-31533609D01*
X39780190Y-31599496D01*
X39686996Y-31692690D01*
X39621109Y-31806809D01*
X39621108Y-31806814D01*
X39587000Y-31934108D01*
X35588000Y-31934108D01*
X35553892Y-31806814D01*
X35553890Y-31806811D01*
X35553890Y-31806809D01*
X35488003Y-31692690D01*
X35488001Y-31692688D01*
X35488000Y-31692686D01*
X35394814Y-31599500D01*
X35394811Y-31599498D01*
X35394809Y-31599496D01*
X35280689Y-31533609D01*
X35280691Y-31533609D01*
X35231299Y-31520375D01*
X35153392Y-31499500D01*
X35021608Y-31499500D01*
X34943700Y-31520375D01*
X34894309Y-31533609D01*
X34780190Y-31599496D01*
X34686996Y-31692690D01*
X34621109Y-31806809D01*
X34621108Y-31806814D01*
X34587000Y-31934108D01*
X500500Y-31934108D01*
X500500Y-31394108D01*
X74374500Y-31394108D01*
X74374500Y-31525892D01*
X74376568Y-31533609D01*
X74408609Y-31653190D01*
X74474496Y-31767309D01*
X74474498Y-31767311D01*
X74474500Y-31767314D01*
X74567686Y-31860500D01*
X74567688Y-31860501D01*
X74567690Y-31860503D01*
X74681810Y-31926390D01*
X74681808Y-31926390D01*
X74681812Y-31926391D01*
X74681814Y-31926392D01*
X74809108Y-31960500D01*
X74809110Y-31960500D01*
X74940890Y-31960500D01*
X74940892Y-31960500D01*
X75068186Y-31926392D01*
X75068188Y-31926390D01*
X75068190Y-31926390D01*
X75182309Y-31860503D01*
X75182309Y-31860502D01*
X75182314Y-31860500D01*
X75275500Y-31767314D01*
X75275503Y-31767309D01*
X75341390Y-31653190D01*
X75341390Y-31653188D01*
X75341392Y-31653186D01*
X75375500Y-31525892D01*
X75375500Y-31394108D01*
X75341392Y-31266814D01*
X75341390Y-31266811D01*
X75341390Y-31266809D01*
X75275503Y-31152690D01*
X75275501Y-31152688D01*
X75275500Y-31152686D01*
X75182314Y-31059500D01*
X75182311Y-31059498D01*
X75182309Y-31059496D01*
X75068189Y-30993609D01*
X75068191Y-30993609D01*
X75018799Y-30980375D01*
X74940892Y-30959500D01*
X74809108Y-30959500D01*
X74731200Y-30980375D01*
X74681809Y-30993609D01*
X74567690Y-31059496D01*
X74474496Y-31152690D01*
X74408609Y-31266809D01*
X74408608Y-31266814D01*
X74374500Y-31394108D01*
X500500Y-31394108D01*
X500500Y-30124108D01*
X58899500Y-30124108D01*
X58899500Y-30255892D01*
X58929579Y-30368151D01*
X58933609Y-30383190D01*
X58999496Y-30497309D01*
X58999498Y-30497311D01*
X58999500Y-30497314D01*
X59092686Y-30590500D01*
X59092688Y-30590501D01*
X59092690Y-30590503D01*
X59206810Y-30656390D01*
X59206808Y-30656390D01*
X59206812Y-30656391D01*
X59206814Y-30656392D01*
X59334108Y-30690500D01*
X59334110Y-30690500D01*
X59465890Y-30690500D01*
X59465892Y-30690500D01*
X59593186Y-30656392D01*
X59593188Y-30656390D01*
X59593190Y-30656390D01*
X59707309Y-30590503D01*
X59707309Y-30590502D01*
X59707314Y-30590500D01*
X59800500Y-30497314D01*
X59866392Y-30383186D01*
X59900500Y-30255892D01*
X59900500Y-30124108D01*
X64424500Y-30124108D01*
X64424500Y-30255892D01*
X64454579Y-30368151D01*
X64458609Y-30383190D01*
X64524496Y-30497309D01*
X64524498Y-30497311D01*
X64524500Y-30497314D01*
X64617686Y-30590500D01*
X64617688Y-30590501D01*
X64617690Y-30590503D01*
X64731810Y-30656390D01*
X64731808Y-30656390D01*
X64731812Y-30656391D01*
X64731814Y-30656392D01*
X64859108Y-30690500D01*
X64859110Y-30690500D01*
X64990890Y-30690500D01*
X64990892Y-30690500D01*
X65118186Y-30656392D01*
X65118188Y-30656390D01*
X65118190Y-30656390D01*
X65232309Y-30590503D01*
X65232309Y-30590502D01*
X65232314Y-30590500D01*
X65325500Y-30497314D01*
X65391392Y-30383186D01*
X65425500Y-30255892D01*
X65425500Y-30124108D01*
X65391392Y-29996814D01*
X65391390Y-29996811D01*
X65391390Y-29996809D01*
X65325503Y-29882690D01*
X65325501Y-29882688D01*
X65325500Y-29882686D01*
X65232314Y-29789500D01*
X65232311Y-29789498D01*
X65232309Y-29789496D01*
X65118189Y-29723609D01*
X65118191Y-29723609D01*
X65068799Y-29710375D01*
X64990892Y-29689500D01*
X64859108Y-29689500D01*
X64781200Y-29710375D01*
X64731809Y-29723609D01*
X64617690Y-29789496D01*
X64524496Y-29882690D01*
X64458609Y-29996809D01*
X64458608Y-29996814D01*
X64424500Y-30124108D01*
X59900500Y-30124108D01*
X59866392Y-29996814D01*
X59866390Y-29996811D01*
X59866390Y-29996809D01*
X59800503Y-29882690D01*
X59800501Y-29882688D01*
X59800500Y-29882686D01*
X59707314Y-29789500D01*
X59707311Y-29789498D01*
X59707309Y-29789496D01*
X59593189Y-29723609D01*
X59593191Y-29723609D01*
X59543799Y-29710375D01*
X59465892Y-29689500D01*
X59334108Y-29689500D01*
X59256200Y-29710375D01*
X59206809Y-29723609D01*
X59092690Y-29789496D01*
X58999496Y-29882690D01*
X58933609Y-29996809D01*
X58933608Y-29996814D01*
X58899500Y-30124108D01*
X500500Y-30124108D01*
X500500Y-28234108D01*
X23499500Y-28234108D01*
X23499500Y-28365892D01*
X23529579Y-28478151D01*
X23533609Y-28493190D01*
X23599496Y-28607309D01*
X23599498Y-28607311D01*
X23599500Y-28607314D01*
X23692686Y-28700500D01*
X23692688Y-28700501D01*
X23692690Y-28700503D01*
X23806810Y-28766390D01*
X23806808Y-28766390D01*
X23806812Y-28766391D01*
X23806814Y-28766392D01*
X23934108Y-28800500D01*
X23934110Y-28800500D01*
X24065890Y-28800500D01*
X24065892Y-28800500D01*
X24193186Y-28766392D01*
X24193188Y-28766390D01*
X24193190Y-28766390D01*
X24249104Y-28734108D01*
X36412000Y-28734108D01*
X36412000Y-28865892D01*
X36442079Y-28978151D01*
X36446109Y-28993190D01*
X36511996Y-29107309D01*
X36511998Y-29107311D01*
X36512000Y-29107314D01*
X36605186Y-29200500D01*
X36605188Y-29200501D01*
X36605190Y-29200503D01*
X36719310Y-29266390D01*
X36719308Y-29266390D01*
X36719312Y-29266391D01*
X36719314Y-29266392D01*
X36846608Y-29300500D01*
X36846610Y-29300500D01*
X36978390Y-29300500D01*
X36978392Y-29300500D01*
X37105686Y-29266392D01*
X37105688Y-29266390D01*
X37105690Y-29266390D01*
X37219809Y-29200503D01*
X37219809Y-29200502D01*
X37219814Y-29200500D01*
X37313000Y-29107314D01*
X37378892Y-28993186D01*
X37413000Y-28865892D01*
X37413000Y-28734108D01*
X37378892Y-28606814D01*
X37378890Y-28606811D01*
X37378890Y-28606809D01*
X37313003Y-28492690D01*
X37313001Y-28492688D01*
X37313000Y-28492686D01*
X37219814Y-28399500D01*
X37219811Y-28399498D01*
X37219809Y-28399496D01*
X37105689Y-28333609D01*
X37105691Y-28333609D01*
X37056299Y-28320375D01*
X36978392Y-28299500D01*
X36846608Y-28299500D01*
X36768700Y-28320375D01*
X36719309Y-28333609D01*
X36605190Y-28399496D01*
X36511996Y-28492690D01*
X36446109Y-28606809D01*
X36446108Y-28606814D01*
X36412000Y-28734108D01*
X24249104Y-28734108D01*
X24307309Y-28700503D01*
X24307309Y-28700502D01*
X24307314Y-28700500D01*
X24400500Y-28607314D01*
X24466392Y-28493186D01*
X24500500Y-28365892D01*
X24500500Y-28234108D01*
X24466392Y-28106814D01*
X24466390Y-28106811D01*
X24466390Y-28106809D01*
X24400503Y-27992690D01*
X24400501Y-27992688D01*
X24400500Y-27992686D01*
X24307314Y-27899500D01*
X24307311Y-27899498D01*
X24307309Y-27899496D01*
X24193189Y-27833609D01*
X24193191Y-27833609D01*
X24178722Y-27829732D01*
X24065892Y-27799500D01*
X23934108Y-27799500D01*
X23856200Y-27820375D01*
X23806809Y-27833609D01*
X23692690Y-27899496D01*
X23599496Y-27992690D01*
X23533609Y-28106809D01*
X23533608Y-28106814D01*
X23499500Y-28234108D01*
X500500Y-28234108D01*
X500500Y-27734108D01*
X53499500Y-27734108D01*
X53499500Y-27865892D01*
X53529579Y-27978151D01*
X53533609Y-27993190D01*
X53599496Y-28107309D01*
X53599498Y-28107311D01*
X53599500Y-28107314D01*
X53692686Y-28200500D01*
X53692688Y-28200501D01*
X53692690Y-28200503D01*
X53806810Y-28266390D01*
X53806808Y-28266390D01*
X53806812Y-28266391D01*
X53806814Y-28266392D01*
X53934108Y-28300500D01*
X53934110Y-28300500D01*
X54065890Y-28300500D01*
X54065892Y-28300500D01*
X54193186Y-28266392D01*
X54193188Y-28266390D01*
X54193190Y-28266390D01*
X54307309Y-28200503D01*
X54307309Y-28200502D01*
X54307314Y-28200500D01*
X54400500Y-28107314D01*
X54406274Y-28097314D01*
X54466390Y-27993190D01*
X54466390Y-27993188D01*
X54466392Y-27993186D01*
X54500500Y-27865892D01*
X54500500Y-27734108D01*
X59799500Y-27734108D01*
X59799500Y-27865892D01*
X59829579Y-27978151D01*
X59833609Y-27993190D01*
X59899496Y-28107309D01*
X59899498Y-28107311D01*
X59899500Y-28107314D01*
X59992686Y-28200500D01*
X59992688Y-28200501D01*
X59992690Y-28200503D01*
X60106810Y-28266390D01*
X60106808Y-28266390D01*
X60106812Y-28266391D01*
X60106814Y-28266392D01*
X60234108Y-28300500D01*
X60234110Y-28300500D01*
X60365890Y-28300500D01*
X60365892Y-28300500D01*
X60493186Y-28266392D01*
X60493188Y-28266390D01*
X60493190Y-28266390D01*
X60607309Y-28200503D01*
X60607309Y-28200502D01*
X60607314Y-28200500D01*
X60700500Y-28107314D01*
X60706274Y-28097314D01*
X60766390Y-27993190D01*
X60766390Y-27993188D01*
X60766392Y-27993186D01*
X60800500Y-27865892D01*
X60800500Y-27734108D01*
X60797821Y-27724108D01*
X71974500Y-27724108D01*
X71974500Y-27855892D01*
X71986184Y-27899496D01*
X72008609Y-27983190D01*
X72074496Y-28097309D01*
X72074498Y-28097311D01*
X72074500Y-28097314D01*
X72167686Y-28190500D01*
X72167688Y-28190501D01*
X72167690Y-28190503D01*
X72281810Y-28256390D01*
X72281808Y-28256390D01*
X72281812Y-28256391D01*
X72281814Y-28256392D01*
X72409108Y-28290500D01*
X72409110Y-28290500D01*
X72540890Y-28290500D01*
X72540892Y-28290500D01*
X72668186Y-28256392D01*
X72668188Y-28256390D01*
X72668190Y-28256390D01*
X72782309Y-28190503D01*
X72782309Y-28190502D01*
X72782314Y-28190500D01*
X72875500Y-28097314D01*
X72935616Y-27993190D01*
X72941390Y-27983190D01*
X72941390Y-27983188D01*
X72941392Y-27983186D01*
X72975500Y-27855892D01*
X72975500Y-27724108D01*
X72941392Y-27596814D01*
X72941390Y-27596811D01*
X72941390Y-27596809D01*
X72875503Y-27482690D01*
X72875501Y-27482688D01*
X72875500Y-27482686D01*
X72782314Y-27389500D01*
X72782311Y-27389498D01*
X72782309Y-27389496D01*
X72668189Y-27323609D01*
X72668191Y-27323609D01*
X72618799Y-27310375D01*
X72540892Y-27289500D01*
X72409108Y-27289500D01*
X72331200Y-27310375D01*
X72281809Y-27323609D01*
X72167690Y-27389496D01*
X72074496Y-27482690D01*
X72008609Y-27596809D01*
X71989539Y-27667978D01*
X71974500Y-27724108D01*
X60797821Y-27724108D01*
X60766392Y-27606814D01*
X60766390Y-27606811D01*
X60766390Y-27606809D01*
X60700503Y-27492690D01*
X60700501Y-27492688D01*
X60700500Y-27492686D01*
X60607314Y-27399500D01*
X60607311Y-27399498D01*
X60607309Y-27399496D01*
X60493189Y-27333609D01*
X60493191Y-27333609D01*
X60443799Y-27320375D01*
X60365892Y-27299500D01*
X60234108Y-27299500D01*
X60156200Y-27320375D01*
X60106809Y-27333609D01*
X59992690Y-27399496D01*
X59899496Y-27492690D01*
X59833609Y-27606809D01*
X59833608Y-27606814D01*
X59799500Y-27734108D01*
X54500500Y-27734108D01*
X54466392Y-27606814D01*
X54466390Y-27606811D01*
X54466390Y-27606809D01*
X54400503Y-27492690D01*
X54400501Y-27492688D01*
X54400500Y-27492686D01*
X54307314Y-27399500D01*
X54307311Y-27399498D01*
X54307309Y-27399496D01*
X54193189Y-27333609D01*
X54193191Y-27333609D01*
X54143799Y-27320375D01*
X54065892Y-27299500D01*
X53934108Y-27299500D01*
X53856200Y-27320375D01*
X53806809Y-27333609D01*
X53692690Y-27399496D01*
X53599496Y-27492690D01*
X53533609Y-27606809D01*
X53533608Y-27606814D01*
X53499500Y-27734108D01*
X500500Y-27734108D01*
X500500Y-24976532D01*
X5449500Y-24976532D01*
X5449500Y-25183467D01*
X5489869Y-25386418D01*
X5569058Y-25577597D01*
X5569059Y-25577598D01*
X5684023Y-25749655D01*
X5830345Y-25895977D01*
X6002402Y-26010941D01*
X6193580Y-26090130D01*
X6396535Y-26130500D01*
X6396536Y-26130500D01*
X6603464Y-26130500D01*
X6603465Y-26130500D01*
X6806420Y-26090130D01*
X6997598Y-26010941D01*
X7169655Y-25895977D01*
X7315977Y-25749655D01*
X7430941Y-25577598D01*
X7434458Y-25569108D01*
X30499500Y-25569108D01*
X30499500Y-25700892D01*
X30512565Y-25749651D01*
X30533609Y-25828190D01*
X30599496Y-25942309D01*
X30599498Y-25942311D01*
X30599500Y-25942314D01*
X30692686Y-26035500D01*
X30692688Y-26035501D01*
X30692690Y-26035503D01*
X30806810Y-26101390D01*
X30806808Y-26101390D01*
X30806812Y-26101391D01*
X30806814Y-26101392D01*
X30934108Y-26135500D01*
X30934110Y-26135500D01*
X31065890Y-26135500D01*
X31065892Y-26135500D01*
X31193186Y-26101392D01*
X31193188Y-26101390D01*
X31193190Y-26101390D01*
X31307309Y-26035503D01*
X31307309Y-26035502D01*
X31307314Y-26035500D01*
X31400500Y-25942314D01*
X31466392Y-25828186D01*
X31500500Y-25700892D01*
X31500500Y-25569108D01*
X31466392Y-25441814D01*
X31466390Y-25441811D01*
X31466390Y-25441809D01*
X31400503Y-25327690D01*
X31400501Y-25327688D01*
X31400500Y-25327686D01*
X31307314Y-25234500D01*
X31307311Y-25234498D01*
X31307309Y-25234496D01*
X31193189Y-25168609D01*
X31193191Y-25168609D01*
X31143799Y-25155375D01*
X31065892Y-25134500D01*
X30934108Y-25134500D01*
X30856200Y-25155375D01*
X30806809Y-25168609D01*
X30692690Y-25234496D01*
X30599496Y-25327690D01*
X30533609Y-25441809D01*
X30533608Y-25441814D01*
X30499500Y-25569108D01*
X7434458Y-25569108D01*
X7510130Y-25386420D01*
X7550500Y-25183465D01*
X7550500Y-24976535D01*
X7510130Y-24773580D01*
X7430941Y-24582402D01*
X7315977Y-24410345D01*
X7169655Y-24264023D01*
X7169651Y-24264020D01*
X7124884Y-24234108D01*
X64549500Y-24234108D01*
X64549500Y-24365892D01*
X64561411Y-24410345D01*
X64583609Y-24493190D01*
X64649496Y-24607309D01*
X64649498Y-24607311D01*
X64649500Y-24607314D01*
X64742686Y-24700500D01*
X64742688Y-24700501D01*
X64742690Y-24700503D01*
X64856810Y-24766390D01*
X64856808Y-24766390D01*
X64856812Y-24766391D01*
X64856814Y-24766392D01*
X64984108Y-24800500D01*
X64984110Y-24800500D01*
X65115890Y-24800500D01*
X65115892Y-24800500D01*
X65243186Y-24766392D01*
X65243188Y-24766390D01*
X65243190Y-24766390D01*
X65357309Y-24700503D01*
X65357309Y-24700502D01*
X65357314Y-24700500D01*
X65450500Y-24607314D01*
X65516392Y-24493186D01*
X65550500Y-24365892D01*
X65550500Y-24234108D01*
X72549500Y-24234108D01*
X72549500Y-24365892D01*
X72561411Y-24410345D01*
X72583609Y-24493190D01*
X72649496Y-24607309D01*
X72649498Y-24607311D01*
X72649500Y-24607314D01*
X72742686Y-24700500D01*
X72742688Y-24700501D01*
X72742690Y-24700503D01*
X72856810Y-24766390D01*
X72856808Y-24766390D01*
X72856812Y-24766391D01*
X72856814Y-24766392D01*
X72984108Y-24800500D01*
X72984110Y-24800500D01*
X73115890Y-24800500D01*
X73115892Y-24800500D01*
X73243186Y-24766392D01*
X73243188Y-24766390D01*
X73243190Y-24766390D01*
X73357309Y-24700503D01*
X73357309Y-24700502D01*
X73357314Y-24700500D01*
X73450500Y-24607314D01*
X73516392Y-24493186D01*
X73550500Y-24365892D01*
X73550500Y-24234108D01*
X73516392Y-24106814D01*
X73516390Y-24106811D01*
X73516390Y-24106809D01*
X73450503Y-23992690D01*
X73450501Y-23992688D01*
X73450500Y-23992686D01*
X73357314Y-23899500D01*
X73357311Y-23899498D01*
X73357309Y-23899496D01*
X73243189Y-23833609D01*
X73243191Y-23833609D01*
X73193799Y-23820375D01*
X73115892Y-23799500D01*
X72984108Y-23799500D01*
X72906200Y-23820375D01*
X72856809Y-23833609D01*
X72742690Y-23899496D01*
X72649496Y-23992690D01*
X72583609Y-24106809D01*
X72564539Y-24177978D01*
X72549500Y-24234108D01*
X65550500Y-24234108D01*
X65516392Y-24106814D01*
X65516390Y-24106811D01*
X65516390Y-24106809D01*
X65450503Y-23992690D01*
X65450501Y-23992688D01*
X65450500Y-23992686D01*
X65357314Y-23899500D01*
X65357311Y-23899498D01*
X65357309Y-23899496D01*
X65243189Y-23833609D01*
X65243191Y-23833609D01*
X65193799Y-23820375D01*
X65115892Y-23799500D01*
X64984108Y-23799500D01*
X64906200Y-23820375D01*
X64856809Y-23833609D01*
X64742690Y-23899496D01*
X64649496Y-23992690D01*
X64583609Y-24106809D01*
X64564539Y-24177978D01*
X64549500Y-24234108D01*
X7124884Y-24234108D01*
X6997597Y-24149058D01*
X6806418Y-24069869D01*
X6603467Y-24029500D01*
X6603465Y-24029500D01*
X6396535Y-24029500D01*
X6396532Y-24029500D01*
X6193581Y-24069869D01*
X6002402Y-24149058D01*
X5830348Y-24264020D01*
X5684020Y-24410348D01*
X5569058Y-24582402D01*
X5489869Y-24773581D01*
X5449500Y-24976532D01*
X500500Y-24976532D01*
X500500Y-20897824D01*
X5149999Y-20897824D01*
X5156401Y-20957370D01*
X5156403Y-20957381D01*
X5206646Y-21092088D01*
X5206647Y-21092090D01*
X5292807Y-21207184D01*
X5292815Y-21207192D01*
X5407909Y-21293352D01*
X5407911Y-21293353D01*
X5542618Y-21343596D01*
X5542629Y-21343598D01*
X5602176Y-21350000D01*
X6130119Y-21350000D01*
X6188310Y-21368907D01*
X6224274Y-21418407D01*
X6224274Y-21479593D01*
X6188310Y-21529093D01*
X6168007Y-21540462D01*
X6118697Y-21560887D01*
X6002402Y-21609058D01*
X5830348Y-21724020D01*
X5684020Y-21870348D01*
X5569058Y-22042402D01*
X5489869Y-22233581D01*
X5449500Y-22436532D01*
X5449500Y-22643467D01*
X5489869Y-22846418D01*
X5569058Y-23037597D01*
X5569059Y-23037598D01*
X5684023Y-23209655D01*
X5830345Y-23355977D01*
X6002402Y-23470941D01*
X6193580Y-23550130D01*
X6396535Y-23590500D01*
X6396536Y-23590500D01*
X6603464Y-23590500D01*
X6603465Y-23590500D01*
X6806420Y-23550130D01*
X6997598Y-23470941D01*
X7169655Y-23355977D01*
X7315977Y-23209655D01*
X7430941Y-23037598D01*
X7510130Y-22846420D01*
X7550500Y-22643465D01*
X7550500Y-22436535D01*
X7510130Y-22233580D01*
X7430941Y-22042402D01*
X7315977Y-21870345D01*
X7169655Y-21724023D01*
X7169651Y-21724020D01*
X6997597Y-21609058D01*
X6901528Y-21569265D01*
X6831994Y-21540463D01*
X6785470Y-21500727D01*
X6771186Y-21441233D01*
X6794601Y-21384705D01*
X6846770Y-21352735D01*
X6869881Y-21350000D01*
X7397824Y-21350000D01*
X7457370Y-21343598D01*
X7457381Y-21343596D01*
X7592088Y-21293353D01*
X7592090Y-21293352D01*
X7707184Y-21207192D01*
X7707192Y-21207184D01*
X7761898Y-21134108D01*
X28499500Y-21134108D01*
X28499500Y-21265892D01*
X28522769Y-21352735D01*
X28533609Y-21393190D01*
X28599496Y-21507309D01*
X28599498Y-21507311D01*
X28599500Y-21507314D01*
X28692686Y-21600500D01*
X28692688Y-21600501D01*
X28692690Y-21600503D01*
X28806810Y-21666390D01*
X28806808Y-21666390D01*
X28806812Y-21666391D01*
X28806814Y-21666392D01*
X28934108Y-21700500D01*
X28934110Y-21700500D01*
X29065890Y-21700500D01*
X29065892Y-21700500D01*
X29193186Y-21666392D01*
X29193188Y-21666390D01*
X29193190Y-21666390D01*
X29307309Y-21600503D01*
X29307309Y-21600502D01*
X29307314Y-21600500D01*
X29400500Y-21507314D01*
X29466392Y-21393186D01*
X29500500Y-21265892D01*
X29500500Y-21134108D01*
X29466392Y-21006814D01*
X29466390Y-21006811D01*
X29466390Y-21006809D01*
X29400503Y-20892690D01*
X29400501Y-20892688D01*
X29400500Y-20892686D01*
X29307314Y-20799500D01*
X29307311Y-20799498D01*
X29307309Y-20799496D01*
X29193189Y-20733609D01*
X29193191Y-20733609D01*
X29143799Y-20720375D01*
X29065892Y-20699500D01*
X28934108Y-20699500D01*
X28856200Y-20720375D01*
X28806809Y-20733609D01*
X28692690Y-20799496D01*
X28599496Y-20892690D01*
X28533609Y-21006809D01*
X28533608Y-21006814D01*
X28499500Y-21134108D01*
X7761898Y-21134108D01*
X7793352Y-21092091D01*
X7843596Y-20957378D01*
X7843598Y-20957370D01*
X7850000Y-20897824D01*
X7850000Y-20250001D01*
X7849999Y-20250000D01*
X6933012Y-20250000D01*
X6965925Y-20192993D01*
X7000000Y-20065826D01*
X7000000Y-19934174D01*
X6973187Y-19834108D01*
X27499500Y-19834108D01*
X27499500Y-19965892D01*
X27526277Y-20065826D01*
X27533609Y-20093190D01*
X27599496Y-20207309D01*
X27599498Y-20207311D01*
X27599500Y-20207314D01*
X27692686Y-20300500D01*
X27692688Y-20300501D01*
X27692690Y-20300503D01*
X27806810Y-20366390D01*
X27806808Y-20366390D01*
X27806812Y-20366391D01*
X27806814Y-20366392D01*
X27934108Y-20400500D01*
X27934110Y-20400500D01*
X28065890Y-20400500D01*
X28065892Y-20400500D01*
X28193186Y-20366392D01*
X28193188Y-20366390D01*
X28193190Y-20366390D01*
X28249104Y-20334108D01*
X34587000Y-20334108D01*
X34587000Y-20465892D01*
X34587009Y-20465925D01*
X34621109Y-20593190D01*
X34686996Y-20707309D01*
X34686998Y-20707311D01*
X34687000Y-20707314D01*
X34780186Y-20800500D01*
X34780188Y-20800501D01*
X34780190Y-20800503D01*
X34894310Y-20866390D01*
X34894308Y-20866390D01*
X34894312Y-20866391D01*
X34894314Y-20866392D01*
X35021608Y-20900500D01*
X35021610Y-20900500D01*
X35153390Y-20900500D01*
X35153392Y-20900500D01*
X35280686Y-20866392D01*
X35280688Y-20866390D01*
X35280690Y-20866390D01*
X35394809Y-20800503D01*
X35394809Y-20800502D01*
X35394814Y-20800500D01*
X35488000Y-20707314D01*
X35488003Y-20707309D01*
X35553890Y-20593190D01*
X35553890Y-20593188D01*
X35553892Y-20593186D01*
X35588000Y-20465892D01*
X35588000Y-20334108D01*
X39549500Y-20334108D01*
X39549500Y-20465892D01*
X39549509Y-20465925D01*
X39583609Y-20593190D01*
X39649496Y-20707309D01*
X39649498Y-20707311D01*
X39649500Y-20707314D01*
X39742686Y-20800500D01*
X39742688Y-20800501D01*
X39742690Y-20800503D01*
X39856810Y-20866390D01*
X39856808Y-20866390D01*
X39856812Y-20866391D01*
X39856814Y-20866392D01*
X39984108Y-20900500D01*
X39984110Y-20900500D01*
X40115890Y-20900500D01*
X40115892Y-20900500D01*
X40243186Y-20866392D01*
X40243188Y-20866390D01*
X40243190Y-20866390D01*
X40357309Y-20800503D01*
X40357309Y-20800502D01*
X40357314Y-20800500D01*
X40450500Y-20707314D01*
X40450503Y-20707309D01*
X40516390Y-20593190D01*
X40516390Y-20593188D01*
X40516392Y-20593186D01*
X40550500Y-20465892D01*
X40550500Y-20334108D01*
X40516392Y-20206814D01*
X40516390Y-20206811D01*
X40516390Y-20206809D01*
X40450503Y-20092690D01*
X40450501Y-20092688D01*
X40450500Y-20092686D01*
X40357314Y-19999500D01*
X40357311Y-19999498D01*
X40357309Y-19999496D01*
X40243189Y-19933609D01*
X40243191Y-19933609D01*
X40193799Y-19920375D01*
X40115892Y-19899500D01*
X39984108Y-19899500D01*
X39906200Y-19920375D01*
X39856809Y-19933609D01*
X39742690Y-19999496D01*
X39649496Y-20092690D01*
X39583609Y-20206809D01*
X39583608Y-20206814D01*
X39549500Y-20334108D01*
X35588000Y-20334108D01*
X35553892Y-20206814D01*
X35553890Y-20206811D01*
X35553890Y-20206809D01*
X35488003Y-20092690D01*
X35488001Y-20092688D01*
X35488000Y-20092686D01*
X35394814Y-19999500D01*
X35394811Y-19999498D01*
X35394809Y-19999496D01*
X35280689Y-19933609D01*
X35280691Y-19933609D01*
X35231299Y-19920375D01*
X35153392Y-19899500D01*
X35021608Y-19899500D01*
X34943700Y-19920375D01*
X34894309Y-19933609D01*
X34780190Y-19999496D01*
X34686996Y-20092690D01*
X34621109Y-20206809D01*
X34621108Y-20206814D01*
X34587000Y-20334108D01*
X28249104Y-20334108D01*
X28307309Y-20300503D01*
X28307309Y-20300502D01*
X28307314Y-20300500D01*
X28400500Y-20207314D01*
X28466392Y-20093186D01*
X28500500Y-19965892D01*
X28500500Y-19834108D01*
X28466392Y-19706814D01*
X28466389Y-19706809D01*
X28466388Y-19706806D01*
X28400503Y-19592690D01*
X28400501Y-19592688D01*
X28400500Y-19592686D01*
X28307314Y-19499500D01*
X28307311Y-19499498D01*
X28307309Y-19499496D01*
X28193189Y-19433609D01*
X28193191Y-19433609D01*
X28143799Y-19420375D01*
X28065892Y-19399500D01*
X27934108Y-19399500D01*
X27856200Y-19420375D01*
X27806809Y-19433609D01*
X27692690Y-19499496D01*
X27599496Y-19592690D01*
X27533609Y-19706809D01*
X27533608Y-19706814D01*
X27499500Y-19834108D01*
X6973187Y-19834108D01*
X6965925Y-19807007D01*
X6933012Y-19750000D01*
X7849999Y-19750000D01*
X7850000Y-19749999D01*
X7850000Y-19102175D01*
X7843598Y-19042629D01*
X7843596Y-19042618D01*
X7793353Y-18907911D01*
X7793352Y-18907909D01*
X7707192Y-18792815D01*
X7707184Y-18792807D01*
X7592090Y-18706647D01*
X7592088Y-18706646D01*
X7457381Y-18656403D01*
X7457370Y-18656401D01*
X7397824Y-18650000D01*
X6750001Y-18650000D01*
X6750000Y-18650001D01*
X6750000Y-19566988D01*
X6692993Y-19534075D01*
X6565826Y-19500000D01*
X6434174Y-19500000D01*
X6307007Y-19534075D01*
X6250000Y-19566988D01*
X6250000Y-18650001D01*
X6249999Y-18650000D01*
X5602176Y-18650000D01*
X5542629Y-18656401D01*
X5542618Y-18656403D01*
X5407911Y-18706646D01*
X5407909Y-18706647D01*
X5292815Y-18792807D01*
X5292807Y-18792815D01*
X5206647Y-18907909D01*
X5206646Y-18907911D01*
X5156403Y-19042618D01*
X5156401Y-19042629D01*
X5150000Y-19102175D01*
X5150000Y-19749999D01*
X5150001Y-19750000D01*
X6066988Y-19750000D01*
X6034075Y-19807007D01*
X6000000Y-19934174D01*
X6000000Y-20065826D01*
X6034075Y-20192993D01*
X6066988Y-20250000D01*
X5150001Y-20250000D01*
X5150000Y-20250001D01*
X5150000Y-20897824D01*
X5149999Y-20897824D01*
X500500Y-20897824D01*
X500500Y-17934108D01*
X34587000Y-17934108D01*
X34587000Y-18065892D01*
X34617079Y-18178151D01*
X34621109Y-18193190D01*
X34686996Y-18307309D01*
X34686998Y-18307311D01*
X34687000Y-18307314D01*
X34780186Y-18400500D01*
X34780188Y-18400501D01*
X34780190Y-18400503D01*
X34894310Y-18466390D01*
X34894308Y-18466390D01*
X34894312Y-18466391D01*
X34894314Y-18466392D01*
X35021608Y-18500500D01*
X35021610Y-18500500D01*
X35153390Y-18500500D01*
X35153392Y-18500500D01*
X35280686Y-18466392D01*
X35280688Y-18466390D01*
X35280690Y-18466390D01*
X35394809Y-18400503D01*
X35394809Y-18400502D01*
X35394814Y-18400500D01*
X35488000Y-18307314D01*
X35553892Y-18193186D01*
X35588000Y-18065892D01*
X35588000Y-17934108D01*
X39587000Y-17934108D01*
X39587000Y-18065892D01*
X39617079Y-18178151D01*
X39621109Y-18193190D01*
X39686996Y-18307309D01*
X39686998Y-18307311D01*
X39687000Y-18307314D01*
X39780186Y-18400500D01*
X39780188Y-18400501D01*
X39780190Y-18400503D01*
X39894310Y-18466390D01*
X39894308Y-18466390D01*
X39894312Y-18466391D01*
X39894314Y-18466392D01*
X40021608Y-18500500D01*
X40021610Y-18500500D01*
X40153390Y-18500500D01*
X40153392Y-18500500D01*
X40280686Y-18466392D01*
X40280688Y-18466390D01*
X40280690Y-18466390D01*
X40394809Y-18400503D01*
X40394809Y-18400502D01*
X40394814Y-18400500D01*
X40488000Y-18307314D01*
X40553892Y-18193186D01*
X40588000Y-18065892D01*
X40588000Y-17934108D01*
X40553892Y-17806814D01*
X40553890Y-17806811D01*
X40553890Y-17806809D01*
X40488003Y-17692690D01*
X40488001Y-17692688D01*
X40488000Y-17692686D01*
X40394814Y-17599500D01*
X40394811Y-17599498D01*
X40394809Y-17599496D01*
X40280689Y-17533609D01*
X40280691Y-17533609D01*
X40231299Y-17520375D01*
X40153392Y-17499500D01*
X40021608Y-17499500D01*
X39943700Y-17520375D01*
X39894309Y-17533609D01*
X39780190Y-17599496D01*
X39686996Y-17692690D01*
X39621109Y-17806809D01*
X39621108Y-17806814D01*
X39587000Y-17934108D01*
X35588000Y-17934108D01*
X35553892Y-17806814D01*
X35553890Y-17806811D01*
X35553890Y-17806809D01*
X35488003Y-17692690D01*
X35488001Y-17692688D01*
X35488000Y-17692686D01*
X35394814Y-17599500D01*
X35394811Y-17599498D01*
X35394809Y-17599496D01*
X35280689Y-17533609D01*
X35280691Y-17533609D01*
X35231299Y-17520375D01*
X35153392Y-17499500D01*
X35021608Y-17499500D01*
X34943700Y-17520375D01*
X34894309Y-17533609D01*
X34780190Y-17599496D01*
X34686996Y-17692690D01*
X34621109Y-17806809D01*
X34621108Y-17806814D01*
X34587000Y-17934108D01*
X500500Y-17934108D01*
X500500Y-17133749D01*
X62650000Y-17133749D01*
X62650000Y-17346250D01*
X62683240Y-17556121D01*
X62748904Y-17758215D01*
X62845376Y-17947553D01*
X62845380Y-17947559D01*
X62884728Y-18001716D01*
X62884729Y-18001716D01*
X63517037Y-17369407D01*
X63534075Y-17432993D01*
X63599901Y-17547007D01*
X63692993Y-17640099D01*
X63807007Y-17705925D01*
X63870589Y-17722962D01*
X63238282Y-18355269D01*
X63238282Y-18355270D01*
X63292440Y-18394619D01*
X63292446Y-18394623D01*
X63481784Y-18491095D01*
X63683878Y-18556759D01*
X63738176Y-18565359D01*
X63792692Y-18593136D01*
X63820470Y-18647653D01*
X63810899Y-18708085D01*
X63767634Y-18751350D01*
X63742003Y-18760238D01*
X63693581Y-18769869D01*
X63502402Y-18849058D01*
X63330348Y-18964020D01*
X63184020Y-19110348D01*
X63069058Y-19282402D01*
X62989869Y-19473581D01*
X62949500Y-19676532D01*
X62949500Y-19883467D01*
X62989869Y-20086418D01*
X63069058Y-20277597D01*
X63106818Y-20334109D01*
X63184023Y-20449655D01*
X63330345Y-20595977D01*
X63502402Y-20710941D01*
X63693580Y-20790130D01*
X63896535Y-20830500D01*
X63896536Y-20830500D01*
X64103464Y-20830500D01*
X64103465Y-20830500D01*
X64306420Y-20790130D01*
X64497598Y-20710941D01*
X64669655Y-20595977D01*
X64815977Y-20449655D01*
X64930941Y-20277598D01*
X65010130Y-20086420D01*
X65050500Y-19883465D01*
X65050500Y-19676535D01*
X65010130Y-19473580D01*
X64930941Y-19282402D01*
X64815977Y-19110345D01*
X64669655Y-18964023D01*
X64497598Y-18849059D01*
X64497599Y-18849059D01*
X64497597Y-18849058D01*
X64306418Y-18769869D01*
X64257996Y-18760238D01*
X64204612Y-18730341D01*
X64178996Y-18674776D01*
X64190933Y-18614766D01*
X64235863Y-18573234D01*
X64261823Y-18565359D01*
X64316121Y-18556759D01*
X64518215Y-18491095D01*
X64707556Y-18394620D01*
X64761716Y-18355270D01*
X64129408Y-17722962D01*
X64192993Y-17705925D01*
X64307007Y-17640099D01*
X64400099Y-17547007D01*
X64465925Y-17432993D01*
X64482962Y-17369408D01*
X65115270Y-18001716D01*
X65154620Y-17947556D01*
X65251095Y-17758215D01*
X65316759Y-17556121D01*
X65350000Y-17346250D01*
X65350000Y-17133749D01*
X65316759Y-16923878D01*
X65251095Y-16721784D01*
X65154623Y-16532446D01*
X65154619Y-16532440D01*
X65115270Y-16478282D01*
X65115269Y-16478282D01*
X64482962Y-17110589D01*
X64465925Y-17047007D01*
X64400099Y-16932993D01*
X64307007Y-16839901D01*
X64192993Y-16774075D01*
X64129407Y-16757037D01*
X64761716Y-16124729D01*
X64761716Y-16124728D01*
X64707559Y-16085380D01*
X64707553Y-16085376D01*
X64518215Y-15988904D01*
X64316122Y-15923241D01*
X64261822Y-15914640D01*
X64207306Y-15886862D01*
X64179529Y-15832345D01*
X64189101Y-15771913D01*
X64232366Y-15728649D01*
X64257993Y-15719762D01*
X64306420Y-15710130D01*
X64497598Y-15630941D01*
X64669655Y-15515977D01*
X64815977Y-15369655D01*
X64930941Y-15197598D01*
X65010130Y-15006420D01*
X65050500Y-14803465D01*
X65050500Y-14596535D01*
X65010130Y-14393580D01*
X64930941Y-14202402D01*
X64815977Y-14030345D01*
X64669655Y-13884023D01*
X64594205Y-13833609D01*
X64497597Y-13769058D01*
X64306418Y-13689869D01*
X64103467Y-13649500D01*
X64103465Y-13649500D01*
X63896535Y-13649500D01*
X63896532Y-13649500D01*
X63693581Y-13689869D01*
X63502402Y-13769058D01*
X63330348Y-13884020D01*
X63184020Y-14030348D01*
X63069058Y-14202402D01*
X62989869Y-14393581D01*
X62949500Y-14596532D01*
X62949500Y-14803467D01*
X62989869Y-15006418D01*
X63069058Y-15197597D01*
X63069059Y-15197598D01*
X63184023Y-15369655D01*
X63330345Y-15515977D01*
X63502402Y-15630941D01*
X63693580Y-15710130D01*
X63742003Y-15719762D01*
X63795386Y-15749657D01*
X63821003Y-15805221D01*
X63809067Y-15865231D01*
X63764138Y-15906765D01*
X63738177Y-15914640D01*
X63683877Y-15923241D01*
X63481784Y-15988904D01*
X63292446Y-16085376D01*
X63292442Y-16085378D01*
X63238282Y-16124728D01*
X63870591Y-16757037D01*
X63807007Y-16774075D01*
X63692993Y-16839901D01*
X63599901Y-16932993D01*
X63534075Y-17047007D01*
X63517037Y-17110591D01*
X62884728Y-16478282D01*
X62845378Y-16532442D01*
X62845376Y-16532446D01*
X62748904Y-16721784D01*
X62683240Y-16923878D01*
X62650000Y-17133749D01*
X500500Y-17133749D01*
X500500Y-14234108D01*
X23499500Y-14234108D01*
X23499500Y-14365892D01*
X23529579Y-14478151D01*
X23533609Y-14493190D01*
X23599496Y-14607309D01*
X23599498Y-14607311D01*
X23599500Y-14607314D01*
X23692686Y-14700500D01*
X23692688Y-14700501D01*
X23692690Y-14700503D01*
X23806810Y-14766390D01*
X23806808Y-14766390D01*
X23806812Y-14766391D01*
X23806814Y-14766392D01*
X23934108Y-14800500D01*
X23934110Y-14800500D01*
X24065890Y-14800500D01*
X24065892Y-14800500D01*
X24193186Y-14766392D01*
X24193188Y-14766390D01*
X24193190Y-14766390D01*
X24249104Y-14734108D01*
X36412000Y-14734108D01*
X36412000Y-14865892D01*
X36442079Y-14978151D01*
X36446109Y-14993190D01*
X36511996Y-15107309D01*
X36511998Y-15107311D01*
X36512000Y-15107314D01*
X36605186Y-15200500D01*
X36605188Y-15200501D01*
X36605190Y-15200503D01*
X36719310Y-15266390D01*
X36719308Y-15266390D01*
X36719312Y-15266391D01*
X36719314Y-15266392D01*
X36846608Y-15300500D01*
X36846610Y-15300500D01*
X36978390Y-15300500D01*
X36978392Y-15300500D01*
X37105686Y-15266392D01*
X37105688Y-15266390D01*
X37105690Y-15266390D01*
X37219809Y-15200503D01*
X37219809Y-15200502D01*
X37219814Y-15200500D01*
X37313000Y-15107314D01*
X37370738Y-15007309D01*
X37378890Y-14993190D01*
X37378890Y-14993188D01*
X37378892Y-14993186D01*
X37413000Y-14865892D01*
X37413000Y-14734108D01*
X37386205Y-14634108D01*
X57899500Y-14634108D01*
X57899500Y-14765892D01*
X57908773Y-14800500D01*
X57933609Y-14893190D01*
X57999496Y-15007309D01*
X57999498Y-15007311D01*
X57999500Y-15007314D01*
X58092686Y-15100500D01*
X58092688Y-15100501D01*
X58092690Y-15100503D01*
X58206810Y-15166390D01*
X58206808Y-15166390D01*
X58206812Y-15166391D01*
X58206814Y-15166392D01*
X58334108Y-15200500D01*
X58334110Y-15200500D01*
X58465890Y-15200500D01*
X58465892Y-15200500D01*
X58593186Y-15166392D01*
X58593188Y-15166390D01*
X58593190Y-15166390D01*
X58707309Y-15100503D01*
X58707309Y-15100502D01*
X58707314Y-15100500D01*
X58800500Y-15007314D01*
X58866392Y-14893186D01*
X58900500Y-14765892D01*
X58900500Y-14634108D01*
X58866392Y-14506814D01*
X58866390Y-14506811D01*
X58866390Y-14506809D01*
X58800503Y-14392690D01*
X58800501Y-14392688D01*
X58800500Y-14392686D01*
X58707314Y-14299500D01*
X58707311Y-14299498D01*
X58707309Y-14299496D01*
X58593189Y-14233609D01*
X58593191Y-14233609D01*
X58543799Y-14220375D01*
X58465892Y-14199500D01*
X58334108Y-14199500D01*
X58256200Y-14220375D01*
X58206809Y-14233609D01*
X58092690Y-14299496D01*
X57999496Y-14392690D01*
X57933609Y-14506809D01*
X57933608Y-14506814D01*
X57899500Y-14634108D01*
X37386205Y-14634108D01*
X37378892Y-14606814D01*
X37378890Y-14606811D01*
X37378890Y-14606809D01*
X37313003Y-14492690D01*
X37313001Y-14492688D01*
X37313000Y-14492686D01*
X37219814Y-14399500D01*
X37219811Y-14399498D01*
X37219809Y-14399496D01*
X37105689Y-14333609D01*
X37105691Y-14333609D01*
X37056299Y-14320375D01*
X36978392Y-14299500D01*
X36846608Y-14299500D01*
X36768700Y-14320375D01*
X36719309Y-14333609D01*
X36605190Y-14399496D01*
X36511996Y-14492690D01*
X36446109Y-14606809D01*
X36438794Y-14634109D01*
X36412000Y-14734108D01*
X24249104Y-14734108D01*
X24307309Y-14700503D01*
X24307309Y-14700502D01*
X24307314Y-14700500D01*
X24400500Y-14607314D01*
X24466392Y-14493186D01*
X24500500Y-14365892D01*
X24500500Y-14234108D01*
X24466392Y-14106814D01*
X24466390Y-14106811D01*
X24466390Y-14106809D01*
X24400503Y-13992690D01*
X24400501Y-13992688D01*
X24400500Y-13992686D01*
X24307314Y-13899500D01*
X24307311Y-13899498D01*
X24307309Y-13899496D01*
X24193189Y-13833609D01*
X24193191Y-13833609D01*
X24178722Y-13829732D01*
X24065892Y-13799500D01*
X23934108Y-13799500D01*
X23856200Y-13820375D01*
X23806809Y-13833609D01*
X23692690Y-13899496D01*
X23599496Y-13992690D01*
X23533609Y-14106809D01*
X23533608Y-14106814D01*
X23499500Y-14234108D01*
X500500Y-14234108D01*
X500500Y-13734108D01*
X53499500Y-13734108D01*
X53499500Y-13865892D01*
X53529579Y-13978151D01*
X53533609Y-13993190D01*
X53599496Y-14107309D01*
X53599498Y-14107311D01*
X53599500Y-14107314D01*
X53692686Y-14200500D01*
X53692688Y-14200501D01*
X53692690Y-14200503D01*
X53806810Y-14266390D01*
X53806808Y-14266390D01*
X53806812Y-14266391D01*
X53806814Y-14266392D01*
X53934108Y-14300500D01*
X53934110Y-14300500D01*
X54065890Y-14300500D01*
X54065892Y-14300500D01*
X54193186Y-14266392D01*
X54193188Y-14266390D01*
X54193190Y-14266390D01*
X54307309Y-14200503D01*
X54307309Y-14200502D01*
X54307314Y-14200500D01*
X54400500Y-14107314D01*
X54400792Y-14106809D01*
X54466390Y-13993190D01*
X54466390Y-13993188D01*
X54466392Y-13993186D01*
X54500500Y-13865892D01*
X54500500Y-13734108D01*
X58899500Y-13734108D01*
X58899500Y-13865892D01*
X58929579Y-13978151D01*
X58933609Y-13993190D01*
X58999496Y-14107309D01*
X58999498Y-14107311D01*
X58999500Y-14107314D01*
X59092686Y-14200500D01*
X59092688Y-14200501D01*
X59092690Y-14200503D01*
X59206810Y-14266390D01*
X59206808Y-14266390D01*
X59206812Y-14266391D01*
X59206814Y-14266392D01*
X59334108Y-14300500D01*
X59334110Y-14300500D01*
X59465890Y-14300500D01*
X59465892Y-14300500D01*
X59593186Y-14266392D01*
X59593188Y-14266390D01*
X59593190Y-14266390D01*
X59707309Y-14200503D01*
X59707309Y-14200502D01*
X59707314Y-14200500D01*
X59800500Y-14107314D01*
X59800792Y-14106809D01*
X59866390Y-13993190D01*
X59866390Y-13993188D01*
X59866392Y-13993186D01*
X59900500Y-13865892D01*
X59900500Y-13734108D01*
X59866392Y-13606814D01*
X59866390Y-13606811D01*
X59866390Y-13606809D01*
X59800503Y-13492690D01*
X59800501Y-13492688D01*
X59800500Y-13492686D01*
X59707314Y-13399500D01*
X59707311Y-13399498D01*
X59707309Y-13399496D01*
X59593189Y-13333609D01*
X59593191Y-13333609D01*
X59543799Y-13320375D01*
X59465892Y-13299500D01*
X59334108Y-13299500D01*
X59256200Y-13320375D01*
X59206809Y-13333609D01*
X59092690Y-13399496D01*
X58999496Y-13492690D01*
X58933609Y-13606809D01*
X58933608Y-13606814D01*
X58899500Y-13734108D01*
X54500500Y-13734108D01*
X54466392Y-13606814D01*
X54466390Y-13606811D01*
X54466390Y-13606809D01*
X54400503Y-13492690D01*
X54400501Y-13492688D01*
X54400500Y-13492686D01*
X54307314Y-13399500D01*
X54307311Y-13399498D01*
X54307309Y-13399496D01*
X54193189Y-13333609D01*
X54193191Y-13333609D01*
X54143799Y-13320375D01*
X54065892Y-13299500D01*
X53934108Y-13299500D01*
X53856200Y-13320375D01*
X53806809Y-13333609D01*
X53692690Y-13399496D01*
X53599496Y-13492690D01*
X53533609Y-13606809D01*
X53533608Y-13606814D01*
X53499500Y-13734108D01*
X500500Y-13734108D01*
X500500Y-10976532D01*
X5449500Y-10976532D01*
X5449500Y-11183467D01*
X5489869Y-11386418D01*
X5569058Y-11577597D01*
X5651439Y-11700890D01*
X5684023Y-11749655D01*
X5830345Y-11895977D01*
X6002402Y-12010941D01*
X6193580Y-12090130D01*
X6396535Y-12130500D01*
X6396536Y-12130500D01*
X6603464Y-12130500D01*
X6603465Y-12130500D01*
X6806420Y-12090130D01*
X6997598Y-12010941D01*
X7169655Y-11895977D01*
X7315977Y-11749655D01*
X7430941Y-11577598D01*
X7434458Y-11569108D01*
X30499500Y-11569108D01*
X30499500Y-11700892D01*
X30512565Y-11749651D01*
X30533609Y-11828190D01*
X30599496Y-11942309D01*
X30599498Y-11942311D01*
X30599500Y-11942314D01*
X30692686Y-12035500D01*
X30692688Y-12035501D01*
X30692690Y-12035503D01*
X30806810Y-12101390D01*
X30806808Y-12101390D01*
X30806812Y-12101391D01*
X30806814Y-12101392D01*
X30934108Y-12135500D01*
X30934110Y-12135500D01*
X31065890Y-12135500D01*
X31065892Y-12135500D01*
X31193186Y-12101392D01*
X31193188Y-12101390D01*
X31193190Y-12101390D01*
X31205803Y-12094108D01*
X57099500Y-12094108D01*
X57099500Y-12225892D01*
X57109567Y-12263463D01*
X57133609Y-12353190D01*
X57199496Y-12467309D01*
X57199498Y-12467311D01*
X57199500Y-12467314D01*
X57292686Y-12560500D01*
X57292688Y-12560501D01*
X57292690Y-12560503D01*
X57406810Y-12626390D01*
X57406808Y-12626390D01*
X57406812Y-12626391D01*
X57406814Y-12626392D01*
X57534108Y-12660500D01*
X57534110Y-12660500D01*
X57665890Y-12660500D01*
X57665892Y-12660500D01*
X57793186Y-12626392D01*
X57793188Y-12626390D01*
X57793190Y-12626390D01*
X57907309Y-12560503D01*
X57907309Y-12560502D01*
X57907314Y-12560500D01*
X58000500Y-12467314D01*
X58066392Y-12353186D01*
X58100500Y-12225892D01*
X58100500Y-12094108D01*
X58090432Y-12056532D01*
X62949500Y-12056532D01*
X62949500Y-12263467D01*
X62989869Y-12466418D01*
X63069058Y-12657597D01*
X63069059Y-12657598D01*
X63184023Y-12829655D01*
X63330345Y-12975977D01*
X63502402Y-13090941D01*
X63693580Y-13170130D01*
X63896535Y-13210500D01*
X63896536Y-13210500D01*
X64103464Y-13210500D01*
X64103465Y-13210500D01*
X64306420Y-13170130D01*
X64497598Y-13090941D01*
X64669655Y-12975977D01*
X64815977Y-12829655D01*
X64930941Y-12657598D01*
X65010130Y-12466420D01*
X65050500Y-12263465D01*
X65050500Y-12056535D01*
X65010130Y-11853580D01*
X64930941Y-11662402D01*
X64815977Y-11490345D01*
X64669655Y-11344023D01*
X64645205Y-11327686D01*
X64497597Y-11229058D01*
X64306418Y-11149869D01*
X64103467Y-11109500D01*
X64103465Y-11109500D01*
X63896535Y-11109500D01*
X63896532Y-11109500D01*
X63693581Y-11149869D01*
X63502402Y-11229058D01*
X63330348Y-11344020D01*
X63184020Y-11490348D01*
X63069058Y-11662402D01*
X62989869Y-11853581D01*
X62949500Y-12056532D01*
X58090432Y-12056532D01*
X58066392Y-11966814D01*
X58066390Y-11966811D01*
X58066390Y-11966809D01*
X58000503Y-11852690D01*
X58000501Y-11852688D01*
X58000500Y-11852686D01*
X57907314Y-11759500D01*
X57907311Y-11759498D01*
X57907309Y-11759496D01*
X57793189Y-11693609D01*
X57793191Y-11693609D01*
X57743799Y-11680375D01*
X57665892Y-11659500D01*
X57534108Y-11659500D01*
X57456200Y-11680375D01*
X57406809Y-11693609D01*
X57292690Y-11759496D01*
X57199496Y-11852690D01*
X57133609Y-11966809D01*
X57133608Y-11966814D01*
X57099500Y-12094108D01*
X31205803Y-12094108D01*
X31307309Y-12035503D01*
X31307309Y-12035502D01*
X31307314Y-12035500D01*
X31400500Y-11942314D01*
X31466392Y-11828186D01*
X31500500Y-11700892D01*
X31500500Y-11569108D01*
X31466392Y-11441814D01*
X31466390Y-11441811D01*
X31466390Y-11441809D01*
X31400503Y-11327690D01*
X31400501Y-11327688D01*
X31400500Y-11327686D01*
X31307314Y-11234500D01*
X31307311Y-11234498D01*
X31307309Y-11234496D01*
X31193189Y-11168609D01*
X31193191Y-11168609D01*
X31123250Y-11149869D01*
X31065892Y-11134500D01*
X30934108Y-11134500D01*
X30876750Y-11149869D01*
X30806809Y-11168609D01*
X30692690Y-11234496D01*
X30599496Y-11327690D01*
X30533609Y-11441809D01*
X30533608Y-11441814D01*
X30499500Y-11569108D01*
X7434458Y-11569108D01*
X7510130Y-11386420D01*
X7550500Y-11183465D01*
X7550500Y-10976535D01*
X7510130Y-10773580D01*
X7430941Y-10582402D01*
X7315977Y-10410345D01*
X7169655Y-10264023D01*
X6997598Y-10149059D01*
X6997599Y-10149059D01*
X6997597Y-10149058D01*
X6806418Y-10069869D01*
X6603467Y-10029500D01*
X6603465Y-10029500D01*
X6396535Y-10029500D01*
X6396532Y-10029500D01*
X6193581Y-10069869D01*
X6002402Y-10149058D01*
X5830348Y-10264020D01*
X5684020Y-10410348D01*
X5569058Y-10582402D01*
X5489869Y-10773581D01*
X5449500Y-10976532D01*
X500500Y-10976532D01*
X500500Y-6897824D01*
X5149999Y-6897824D01*
X5156401Y-6957370D01*
X5156403Y-6957381D01*
X5206646Y-7092088D01*
X5206647Y-7092090D01*
X5292807Y-7207184D01*
X5292815Y-7207192D01*
X5407909Y-7293352D01*
X5407911Y-7293353D01*
X5542618Y-7343596D01*
X5542629Y-7343598D01*
X5602176Y-7350000D01*
X6130119Y-7350000D01*
X6188310Y-7368907D01*
X6224274Y-7418407D01*
X6224274Y-7479593D01*
X6188310Y-7529093D01*
X6168007Y-7540462D01*
X6153693Y-7546392D01*
X6002402Y-7609058D01*
X5830348Y-7724020D01*
X5684020Y-7870348D01*
X5569058Y-8042402D01*
X5489869Y-8233581D01*
X5449500Y-8436532D01*
X5449500Y-8643467D01*
X5489869Y-8846418D01*
X5569058Y-9037597D01*
X5684020Y-9209651D01*
X5684023Y-9209655D01*
X5830345Y-9355977D01*
X6002402Y-9470941D01*
X6193580Y-9550130D01*
X6396535Y-9590500D01*
X6396536Y-9590500D01*
X6603464Y-9590500D01*
X6603465Y-9590500D01*
X6786421Y-9554108D01*
X56299500Y-9554108D01*
X56299500Y-9685892D01*
X56309567Y-9723463D01*
X56333609Y-9813190D01*
X56399496Y-9927309D01*
X56399498Y-9927311D01*
X56399500Y-9927314D01*
X56492686Y-10020500D01*
X56492688Y-10020501D01*
X56492690Y-10020503D01*
X56606810Y-10086390D01*
X56606808Y-10086390D01*
X56606812Y-10086391D01*
X56606814Y-10086392D01*
X56734108Y-10120500D01*
X56734110Y-10120500D01*
X56865890Y-10120500D01*
X56865892Y-10120500D01*
X56993186Y-10086392D01*
X56993188Y-10086390D01*
X56993190Y-10086390D01*
X57107309Y-10020503D01*
X57107309Y-10020502D01*
X57107314Y-10020500D01*
X57200500Y-9927314D01*
X57266392Y-9813186D01*
X57300500Y-9685892D01*
X57300500Y-9554108D01*
X57290432Y-9516532D01*
X62949500Y-9516532D01*
X62949500Y-9723467D01*
X62989869Y-9926418D01*
X63069058Y-10117597D01*
X63090080Y-10149059D01*
X63184023Y-10289655D01*
X63330345Y-10435977D01*
X63502402Y-10550941D01*
X63693580Y-10630130D01*
X63896535Y-10670500D01*
X63896536Y-10670500D01*
X64103464Y-10670500D01*
X64103465Y-10670500D01*
X64306420Y-10630130D01*
X64497598Y-10550941D01*
X64669655Y-10435977D01*
X64815977Y-10289655D01*
X64930941Y-10117598D01*
X65010130Y-9926420D01*
X65050500Y-9723465D01*
X65050500Y-9516535D01*
X65010130Y-9313580D01*
X64930941Y-9122402D01*
X64815977Y-8950345D01*
X64669655Y-8804023D01*
X64497598Y-8689059D01*
X64497599Y-8689059D01*
X64497597Y-8689058D01*
X64306418Y-8609869D01*
X64103467Y-8569500D01*
X64103465Y-8569500D01*
X63896535Y-8569500D01*
X63896532Y-8569500D01*
X63693581Y-8609869D01*
X63502402Y-8689058D01*
X63330348Y-8804020D01*
X63184020Y-8950348D01*
X63069058Y-9122402D01*
X62989869Y-9313581D01*
X62949500Y-9516532D01*
X57290432Y-9516532D01*
X57266392Y-9426814D01*
X57266390Y-9426811D01*
X57266390Y-9426809D01*
X57200503Y-9312690D01*
X57200501Y-9312688D01*
X57200500Y-9312686D01*
X57107314Y-9219500D01*
X57107311Y-9219498D01*
X57107309Y-9219496D01*
X56993189Y-9153609D01*
X56993191Y-9153609D01*
X56943799Y-9140375D01*
X56865892Y-9119500D01*
X56734108Y-9119500D01*
X56656200Y-9140375D01*
X56606809Y-9153609D01*
X56492690Y-9219496D01*
X56399496Y-9312690D01*
X56333609Y-9426809D01*
X56333608Y-9426814D01*
X56299500Y-9554108D01*
X6786421Y-9554108D01*
X6806420Y-9550130D01*
X6997598Y-9470941D01*
X7169655Y-9355977D01*
X7315977Y-9209655D01*
X7430941Y-9037598D01*
X7510130Y-8846420D01*
X7550500Y-8643465D01*
X7550500Y-8436535D01*
X7510130Y-8233580D01*
X7430941Y-8042402D01*
X7315977Y-7870345D01*
X7169655Y-7724023D01*
X7169651Y-7724020D01*
X6997597Y-7609058D01*
X6846307Y-7546392D01*
X6831994Y-7540463D01*
X6785470Y-7500727D01*
X6771186Y-7441233D01*
X6794601Y-7384705D01*
X6846770Y-7352735D01*
X6869881Y-7350000D01*
X7397824Y-7350000D01*
X7457370Y-7343598D01*
X7457381Y-7343596D01*
X7592088Y-7293353D01*
X7592090Y-7293352D01*
X7707184Y-7207192D01*
X7707192Y-7207184D01*
X7761898Y-7134108D01*
X28499500Y-7134108D01*
X28499500Y-7265892D01*
X28522769Y-7352735D01*
X28533609Y-7393190D01*
X28599496Y-7507309D01*
X28599498Y-7507311D01*
X28599500Y-7507314D01*
X28692686Y-7600500D01*
X28692688Y-7600501D01*
X28692690Y-7600503D01*
X28806810Y-7666390D01*
X28806808Y-7666390D01*
X28806812Y-7666391D01*
X28806814Y-7666392D01*
X28934108Y-7700500D01*
X28934110Y-7700500D01*
X29065890Y-7700500D01*
X29065892Y-7700500D01*
X29193186Y-7666392D01*
X29193188Y-7666390D01*
X29193190Y-7666390D01*
X29307309Y-7600503D01*
X29307309Y-7600502D01*
X29307314Y-7600500D01*
X29400500Y-7507314D01*
X29410785Y-7489500D01*
X29466390Y-7393190D01*
X29466390Y-7393188D01*
X29466392Y-7393186D01*
X29500500Y-7265892D01*
X29500500Y-7134108D01*
X29468346Y-7014108D01*
X55499500Y-7014108D01*
X55499500Y-7145892D01*
X55509567Y-7183463D01*
X55533609Y-7273190D01*
X55599496Y-7387309D01*
X55599498Y-7387311D01*
X55599500Y-7387314D01*
X55692686Y-7480500D01*
X55692688Y-7480501D01*
X55692690Y-7480503D01*
X55806810Y-7546390D01*
X55806808Y-7546390D01*
X55806812Y-7546391D01*
X55806814Y-7546392D01*
X55934108Y-7580500D01*
X55934110Y-7580500D01*
X56065890Y-7580500D01*
X56065892Y-7580500D01*
X56193186Y-7546392D01*
X56193188Y-7546390D01*
X56193190Y-7546390D01*
X56307309Y-7480503D01*
X56307309Y-7480502D01*
X56307314Y-7480500D01*
X56400500Y-7387314D01*
X56466392Y-7273186D01*
X56500500Y-7145892D01*
X56500500Y-7014108D01*
X56490432Y-6976532D01*
X62949500Y-6976532D01*
X62949500Y-7183467D01*
X62989869Y-7386418D01*
X63069058Y-7577597D01*
X63090080Y-7609059D01*
X63184023Y-7749655D01*
X63330345Y-7895977D01*
X63502402Y-8010941D01*
X63693580Y-8090130D01*
X63896535Y-8130500D01*
X63896536Y-8130500D01*
X64103464Y-8130500D01*
X64103465Y-8130500D01*
X64306420Y-8090130D01*
X64497598Y-8010941D01*
X64669655Y-7895977D01*
X64815977Y-7749655D01*
X64930941Y-7577598D01*
X65010130Y-7386420D01*
X65050500Y-7183465D01*
X65050500Y-6976535D01*
X65010130Y-6773580D01*
X64930941Y-6582402D01*
X64815977Y-6410345D01*
X64669655Y-6264023D01*
X64660065Y-6257615D01*
X64497597Y-6149058D01*
X64306418Y-6069869D01*
X64103467Y-6029500D01*
X64103465Y-6029500D01*
X63896535Y-6029500D01*
X63896532Y-6029500D01*
X63693581Y-6069869D01*
X63502402Y-6149058D01*
X63330348Y-6264020D01*
X63184020Y-6410348D01*
X63069058Y-6582402D01*
X62989869Y-6773581D01*
X62949500Y-6976532D01*
X56490432Y-6976532D01*
X56466392Y-6886814D01*
X56466390Y-6886811D01*
X56466390Y-6886809D01*
X56400503Y-6772690D01*
X56400501Y-6772688D01*
X56400500Y-6772686D01*
X56307314Y-6679500D01*
X56307311Y-6679498D01*
X56307309Y-6679496D01*
X56193189Y-6613609D01*
X56193191Y-6613609D01*
X56116969Y-6593186D01*
X56065892Y-6579500D01*
X55934108Y-6579500D01*
X55883031Y-6593186D01*
X55806809Y-6613609D01*
X55692690Y-6679496D01*
X55599496Y-6772690D01*
X55533609Y-6886809D01*
X55530658Y-6897824D01*
X55499500Y-7014108D01*
X29468346Y-7014108D01*
X29466392Y-7006814D01*
X29466390Y-7006811D01*
X29466390Y-7006809D01*
X29400503Y-6892690D01*
X29400501Y-6892688D01*
X29400500Y-6892686D01*
X29307314Y-6799500D01*
X29307311Y-6799498D01*
X29307309Y-6799496D01*
X29193189Y-6733609D01*
X29193191Y-6733609D01*
X29143799Y-6720375D01*
X29065892Y-6699500D01*
X28934108Y-6699500D01*
X28856200Y-6720375D01*
X28806809Y-6733609D01*
X28692690Y-6799496D01*
X28599496Y-6892690D01*
X28533609Y-7006809D01*
X28514539Y-7077978D01*
X28499500Y-7134108D01*
X7761898Y-7134108D01*
X7793352Y-7092091D01*
X7843596Y-6957378D01*
X7843598Y-6957370D01*
X7850000Y-6897824D01*
X7850000Y-6250001D01*
X7849999Y-6250000D01*
X6933012Y-6250000D01*
X6965925Y-6192993D01*
X7000000Y-6065826D01*
X7000000Y-5934174D01*
X6973187Y-5834108D01*
X27499500Y-5834108D01*
X27499500Y-5965892D01*
X27516544Y-6029500D01*
X27533609Y-6093190D01*
X27599496Y-6207309D01*
X27599498Y-6207311D01*
X27599500Y-6207314D01*
X27692686Y-6300500D01*
X27692688Y-6300501D01*
X27692690Y-6300503D01*
X27806810Y-6366390D01*
X27806808Y-6366390D01*
X27806812Y-6366391D01*
X27806814Y-6366392D01*
X27934108Y-6400500D01*
X27934110Y-6400500D01*
X28065890Y-6400500D01*
X28065892Y-6400500D01*
X28193186Y-6366392D01*
X28193188Y-6366390D01*
X28193190Y-6366390D01*
X28249104Y-6334108D01*
X34587000Y-6334108D01*
X34587000Y-6465892D01*
X34587009Y-6465925D01*
X34621109Y-6593190D01*
X34686996Y-6707309D01*
X34686998Y-6707311D01*
X34687000Y-6707314D01*
X34780186Y-6800500D01*
X34780188Y-6800501D01*
X34780190Y-6800503D01*
X34894310Y-6866390D01*
X34894308Y-6866390D01*
X34894312Y-6866391D01*
X34894314Y-6866392D01*
X35021608Y-6900500D01*
X35021610Y-6900500D01*
X35153390Y-6900500D01*
X35153392Y-6900500D01*
X35280686Y-6866392D01*
X35280688Y-6866390D01*
X35280690Y-6866390D01*
X35394809Y-6800503D01*
X35394809Y-6800502D01*
X35394814Y-6800500D01*
X35488000Y-6707314D01*
X35488003Y-6707309D01*
X35553890Y-6593190D01*
X35553890Y-6593188D01*
X35553892Y-6593186D01*
X35588000Y-6465892D01*
X35588000Y-6334108D01*
X39549500Y-6334108D01*
X39549500Y-6465892D01*
X39549509Y-6465925D01*
X39583609Y-6593190D01*
X39649496Y-6707309D01*
X39649498Y-6707311D01*
X39649500Y-6707314D01*
X39742686Y-6800500D01*
X39742688Y-6800501D01*
X39742690Y-6800503D01*
X39856810Y-6866390D01*
X39856808Y-6866390D01*
X39856812Y-6866391D01*
X39856814Y-6866392D01*
X39984108Y-6900500D01*
X39984110Y-6900500D01*
X40115890Y-6900500D01*
X40115892Y-6900500D01*
X40243186Y-6866392D01*
X40243188Y-6866390D01*
X40243190Y-6866390D01*
X40357309Y-6800503D01*
X40357309Y-6800502D01*
X40357314Y-6800500D01*
X40450500Y-6707314D01*
X40450503Y-6707309D01*
X40516390Y-6593190D01*
X40516390Y-6593188D01*
X40516392Y-6593186D01*
X40550500Y-6465892D01*
X40550500Y-6334108D01*
X40516392Y-6206814D01*
X40516390Y-6206811D01*
X40516390Y-6206809D01*
X40450503Y-6092690D01*
X40450501Y-6092688D01*
X40450500Y-6092686D01*
X40357314Y-5999500D01*
X40357311Y-5999498D01*
X40357309Y-5999496D01*
X40243189Y-5933609D01*
X40243191Y-5933609D01*
X40193799Y-5920375D01*
X40115892Y-5899500D01*
X39984108Y-5899500D01*
X39906200Y-5920375D01*
X39856809Y-5933609D01*
X39742690Y-5999496D01*
X39649496Y-6092690D01*
X39583609Y-6206809D01*
X39583608Y-6206814D01*
X39549500Y-6334108D01*
X35588000Y-6334108D01*
X35553892Y-6206814D01*
X35553890Y-6206811D01*
X35553890Y-6206809D01*
X35488003Y-6092690D01*
X35488001Y-6092688D01*
X35488000Y-6092686D01*
X35394814Y-5999500D01*
X35394811Y-5999498D01*
X35394809Y-5999496D01*
X35280689Y-5933609D01*
X35280691Y-5933609D01*
X35231299Y-5920375D01*
X35153392Y-5899500D01*
X35021608Y-5899500D01*
X34943700Y-5920375D01*
X34894309Y-5933609D01*
X34780190Y-5999496D01*
X34686996Y-6092690D01*
X34621109Y-6206809D01*
X34621108Y-6206814D01*
X34587000Y-6334108D01*
X28249104Y-6334108D01*
X28307309Y-6300503D01*
X28307309Y-6300502D01*
X28307314Y-6300500D01*
X28400500Y-6207314D01*
X28466392Y-6093186D01*
X28500500Y-5965892D01*
X28500500Y-5834108D01*
X28466392Y-5706814D01*
X28466390Y-5706811D01*
X28466390Y-5706809D01*
X28400503Y-5592690D01*
X28400501Y-5592688D01*
X28400500Y-5592686D01*
X28307314Y-5499500D01*
X28307311Y-5499498D01*
X28307309Y-5499496D01*
X28193189Y-5433609D01*
X28193191Y-5433609D01*
X28143799Y-5420375D01*
X28065892Y-5399500D01*
X27934108Y-5399500D01*
X27856200Y-5420375D01*
X27806809Y-5433609D01*
X27692690Y-5499496D01*
X27599496Y-5592690D01*
X27533609Y-5706809D01*
X27533608Y-5706814D01*
X27499500Y-5834108D01*
X6973187Y-5834108D01*
X6965925Y-5807007D01*
X6933012Y-5750000D01*
X7849999Y-5750000D01*
X7850000Y-5749999D01*
X7850000Y-5102175D01*
X7843598Y-5042629D01*
X7843596Y-5042618D01*
X7793353Y-4907911D01*
X7793352Y-4907909D01*
X7707192Y-4792815D01*
X7707184Y-4792807D01*
X7592090Y-4706647D01*
X7592088Y-4706646D01*
X7457381Y-4656403D01*
X7457370Y-4656401D01*
X7397824Y-4650000D01*
X6750001Y-4650000D01*
X6750000Y-4650001D01*
X6750000Y-5566988D01*
X6692993Y-5534075D01*
X6565826Y-5500000D01*
X6434174Y-5500000D01*
X6307007Y-5534075D01*
X6250000Y-5566988D01*
X6250000Y-4650001D01*
X6249999Y-4650000D01*
X5602176Y-4650000D01*
X5542629Y-4656401D01*
X5542618Y-4656403D01*
X5407911Y-4706646D01*
X5407909Y-4706647D01*
X5292815Y-4792807D01*
X5292807Y-4792815D01*
X5206647Y-4907909D01*
X5206646Y-4907911D01*
X5156403Y-5042618D01*
X5156401Y-5042629D01*
X5150000Y-5102175D01*
X5150000Y-5749999D01*
X5150001Y-5750000D01*
X6066988Y-5750000D01*
X6034075Y-5807007D01*
X6000000Y-5934174D01*
X6000000Y-6065826D01*
X6034075Y-6192993D01*
X6066988Y-6250000D01*
X5150001Y-6250000D01*
X5150000Y-6250001D01*
X5150000Y-6897824D01*
X5149999Y-6897824D01*
X500500Y-6897824D01*
X500500Y-4474108D01*
X54699499Y-4474108D01*
X54699499Y-4605892D01*
X54726496Y-4706646D01*
X54733608Y-4733190D01*
X54799495Y-4847309D01*
X54799497Y-4847311D01*
X54799499Y-4847314D01*
X54892685Y-4940500D01*
X54892687Y-4940501D01*
X54892689Y-4940503D01*
X55006809Y-5006390D01*
X55006807Y-5006390D01*
X55006811Y-5006391D01*
X55006813Y-5006392D01*
X55134107Y-5040500D01*
X55134109Y-5040500D01*
X55265889Y-5040500D01*
X55265891Y-5040500D01*
X55393185Y-5006392D01*
X55393187Y-5006390D01*
X55393189Y-5006390D01*
X55507308Y-4940503D01*
X55507308Y-4940502D01*
X55507313Y-4940500D01*
X55600499Y-4847314D01*
X55666391Y-4733186D01*
X55700499Y-4605892D01*
X55700499Y-4474108D01*
X55690431Y-4436532D01*
X62949500Y-4436532D01*
X62949500Y-4643467D01*
X62989869Y-4846418D01*
X63069058Y-5037597D01*
X63184020Y-5209651D01*
X63184023Y-5209655D01*
X63330345Y-5355977D01*
X63502402Y-5470941D01*
X63693580Y-5550130D01*
X63896535Y-5590500D01*
X63896536Y-5590500D01*
X64103464Y-5590500D01*
X64103465Y-5590500D01*
X64306420Y-5550130D01*
X64497598Y-5470941D01*
X64669655Y-5355977D01*
X64815977Y-5209655D01*
X64930941Y-5037598D01*
X65010130Y-4846420D01*
X65050500Y-4643465D01*
X65050500Y-4436535D01*
X65010130Y-4233580D01*
X64930941Y-4042402D01*
X64815977Y-3870345D01*
X64669655Y-3724023D01*
X64497598Y-3609059D01*
X64497599Y-3609059D01*
X64497597Y-3609058D01*
X64306418Y-3529869D01*
X64103467Y-3489500D01*
X64103465Y-3489500D01*
X63896535Y-3489500D01*
X63896532Y-3489500D01*
X63693581Y-3529869D01*
X63502402Y-3609058D01*
X63330348Y-3724020D01*
X63184020Y-3870348D01*
X63069058Y-4042402D01*
X62989869Y-4233581D01*
X62949500Y-4436532D01*
X55690431Y-4436532D01*
X55666391Y-4346814D01*
X55666389Y-4346811D01*
X55666389Y-4346809D01*
X55600502Y-4232690D01*
X55600500Y-4232688D01*
X55600499Y-4232686D01*
X55507313Y-4139500D01*
X55507310Y-4139498D01*
X55507308Y-4139496D01*
X55393188Y-4073609D01*
X55393190Y-4073609D01*
X55343798Y-4060375D01*
X55265891Y-4039500D01*
X55134107Y-4039500D01*
X55056199Y-4060375D01*
X55006808Y-4073609D01*
X54892689Y-4139496D01*
X54799495Y-4232690D01*
X54733608Y-4346809D01*
X54733607Y-4346814D01*
X54699499Y-4474108D01*
X500500Y-4474108D01*
X500500Y-1934108D01*
X53899500Y-1934108D01*
X53899500Y-2065892D01*
X53929579Y-2178151D01*
X53933609Y-2193190D01*
X53999496Y-2307309D01*
X53999498Y-2307311D01*
X53999500Y-2307314D01*
X54092686Y-2400500D01*
X54092688Y-2400501D01*
X54092690Y-2400503D01*
X54206810Y-2466390D01*
X54206808Y-2466390D01*
X54206812Y-2466391D01*
X54206814Y-2466392D01*
X54334108Y-2500500D01*
X54334110Y-2500500D01*
X54465890Y-2500500D01*
X54465892Y-2500500D01*
X54593186Y-2466392D01*
X54593188Y-2466390D01*
X54593190Y-2466390D01*
X54707309Y-2400503D01*
X54707309Y-2400502D01*
X54707314Y-2400500D01*
X54800500Y-2307314D01*
X54866392Y-2193186D01*
X54900500Y-2065892D01*
X54900500Y-1934108D01*
X54866392Y-1806814D01*
X54866390Y-1806811D01*
X54866390Y-1806809D01*
X54800503Y-1692690D01*
X54800501Y-1692688D01*
X54800500Y-1692686D01*
X54707314Y-1599500D01*
X54707311Y-1599498D01*
X54707309Y-1599496D01*
X54593189Y-1533609D01*
X54593191Y-1533609D01*
X54543799Y-1520375D01*
X54465892Y-1499500D01*
X54334108Y-1499500D01*
X54256200Y-1520375D01*
X54206809Y-1533609D01*
X54092690Y-1599496D01*
X53999496Y-1692690D01*
X53933609Y-1806809D01*
X53933608Y-1806814D01*
X53899500Y-1934108D01*
X500500Y-1934108D01*
X500500Y-1130253D01*
X62949500Y-1130253D01*
X62949500Y-2869746D01*
X62949501Y-2869758D01*
X62961132Y-2928227D01*
X62961133Y-2928231D01*
X63005448Y-2994552D01*
X63071769Y-3038867D01*
X63116231Y-3047711D01*
X63130241Y-3050498D01*
X63130246Y-3050498D01*
X63130252Y-3050500D01*
X63130253Y-3050500D01*
X64869747Y-3050500D01*
X64869748Y-3050500D01*
X64928231Y-3038867D01*
X64994552Y-2994552D01*
X65038867Y-2928231D01*
X65050500Y-2869748D01*
X65050500Y-1130252D01*
X65038867Y-1071769D01*
X64994552Y-1005448D01*
X64994548Y-1005445D01*
X64928233Y-961134D01*
X64928231Y-961133D01*
X64928228Y-961132D01*
X64928227Y-961132D01*
X64869758Y-949501D01*
X64869748Y-949500D01*
X63130252Y-949500D01*
X63130251Y-949500D01*
X63130241Y-949501D01*
X63071772Y-961132D01*
X63071766Y-961134D01*
X63005451Y-1005445D01*
X63005445Y-1005451D01*
X62961134Y-1071766D01*
X62961132Y-1071772D01*
X62949501Y-1130241D01*
X62949500Y-1130253D01*
X500500Y-1130253D01*
X500500Y-599500D01*
X519407Y-541309D01*
X568907Y-505345D01*
X599500Y-500500D01*
X87400500Y-500500D01*
X87458691Y-519407D01*
G37*
%TD.AperFunction*%
%TD*%
M02*
