M48
; DRILL file KiCad 10.0.5 date 2026-07-30T08:28:01
; FORMAT={-:-/ absolute / metric / decimal}
; #@! TF.CreationDate,2026-07-30T08:28:01+01:00
; #@! TF.GenerationSoftware,Kicad,Pcbnew,10.0.5
; #@! TF.FileFunction,MixedPlating,1,4
FMAT,2
METRIC
; #@! TA.AperFunction,Plated,PTH,ViaDrill
T1C0.300
; #@! TA.AperFunction,Plated,PTH,ComponentDrill
T2C1.000
%
G90
G05
T1
X4.0Y-106.04
X8.7Y-6.0
X8.7Y-20.0
X8.7Y-34.0
X8.7Y-48.0
X8.7Y-62.0
X8.7Y-76.0
X10.5Y-14.659
X10.5Y-28.659
X10.5Y-42.66
X10.5Y-56.659
X10.5Y-70.659
X10.5Y-84.659
X18.0Y-14.735
X18.0Y-28.735
X18.0Y-42.735
X18.0Y-56.735
X18.0Y-70.735
X18.0Y-84.735
X19.25Y-14.3
X19.25Y-28.3
X19.25Y-42.3
X19.25Y-56.3
X19.25Y-70.3
X19.25Y-84.3
X20.0Y-98.3
X24.0Y-14.3
X24.0Y-28.3
X24.0Y-42.3
X24.0Y-56.3
X24.0Y-70.3
X24.0Y-84.3
X24.0Y-102.7
X28.0Y-5.9
X28.0Y-19.9
X28.0Y-33.9
X28.0Y-47.9
X28.0Y-61.9
X28.0Y-75.9
X28.2Y-97.1
X29.0Y-7.2
X29.0Y-21.2
X29.0Y-35.2
X29.0Y-49.2
X29.0Y-63.2
X29.0Y-77.2
X31.0Y-11.635
X31.0Y-25.635
X31.0Y-39.635
X31.0Y-53.635
X31.0Y-67.635
X31.0Y-81.635
X32.75Y-7.2
X32.75Y-21.2
X32.75Y-35.2
X32.75Y-49.2
X32.75Y-63.2
X32.75Y-77.2
X33.8Y-103.9
X35.087Y-6.4
X35.087Y-18.0
X35.087Y-20.4
X35.087Y-32.0
X35.087Y-34.4
X35.087Y-46.0
X35.087Y-48.4
X35.087Y-60.0
X35.087Y-62.4
X35.087Y-74.0
X35.087Y-76.4
X35.087Y-88.0
X36.913Y-14.8
X36.913Y-28.8
X36.913Y-42.8
X36.913Y-56.8
X36.913Y-70.8
X36.913Y-84.8
X37.05Y-98.3
X38.95Y-102.7
X40.05Y-6.4
X40.05Y-20.4
X40.05Y-34.4
X40.05Y-48.4
X40.05Y-62.4
X40.05Y-76.4
X40.087Y-18.0
X40.087Y-32.0
X40.087Y-46.0
X40.087Y-60.0
X40.087Y-74.0
X40.087Y-88.0
X41.55Y-98.3
X43.45Y-102.7
X46.087Y-94.8
X46.087Y-105.2
X48.25Y-16.5
X48.25Y-30.5
X48.25Y-44.5
X48.25Y-58.5
X48.25Y-72.5
X48.25Y-86.5
X48.887Y-98.595
X52.95Y-107.2
X53.325Y-99.865
X54.0Y-13.8
X54.0Y-27.8
X54.0Y-41.8
X54.0Y-55.8
X54.0Y-69.8
X54.0Y-83.8
X54.4Y-2.0
X55.2Y-4.54
X55.525Y-104.605
X56.0Y-7.08
X56.8Y-9.62
X57.6Y-12.16
X58.4Y-14.7
X59.4Y-13.8
X59.4Y-22.19
X60.3Y-24.73
X60.3Y-27.8
X60.475Y-96.395
X61.2Y-41.8
X61.2Y-48.19
X62.1Y-50.73
X62.1Y-55.8
X62.675Y-102.405
X63.0Y-69.8
X63.0Y-80.19
X63.9Y-82.73
X63.9Y-83.8
X64.925Y-22.19
X64.925Y-24.73
X64.925Y-48.19
X64.925Y-50.73
X64.925Y-80.19
X64.925Y-82.73
X65.05Y-95.8
X65.05Y-100.8
X65.325Y-23.46
X65.325Y-26.0
X65.325Y-28.54
X65.325Y-49.46
X65.325Y-52.0
X65.325Y-54.54
X65.325Y-81.46
X65.325Y-84.0
X65.325Y-86.54
X66.0Y-27.27
X66.0Y-53.27
X66.0Y-85.27
X66.5Y-17.24
X66.95Y-100.2
X66.95Y-105.2
X67.525Y-32.21
X67.525Y-58.21
X67.525Y-90.21
X70.95Y-19.78
X71.05Y-95.8
X71.05Y-100.8
X71.55Y-72.0
X71.587Y-68.0
X72.475Y-19.79
X72.475Y-45.79
X72.475Y-77.79
X72.95Y-100.2
X72.95Y-105.2
X74.675Y-24.73
X74.675Y-26.0
X74.675Y-27.27
X74.675Y-28.54
X74.675Y-29.81
X74.675Y-50.73
X74.675Y-52.0
X74.675Y-53.27
X74.675Y-54.54
X74.675Y-55.81
X74.675Y-82.73
X74.675Y-84.0
X74.675Y-85.27
X74.675Y-86.54
X74.675Y-87.81
X74.875Y-23.46
X74.875Y-49.46
X74.875Y-81.46
X76.212Y-68.0
X76.25Y-72.0
X79.55Y-22.0
X79.55Y-30.0
X79.55Y-48.0
X79.55Y-56.0
X79.55Y-80.0
X79.55Y-88.0
X82.5Y-66.54
X84.45Y-22.0
X84.45Y-30.0
X84.45Y-48.0
X84.45Y-56.0
X84.45Y-80.0
X84.45Y-88.0
T2
X4.0Y-100.5
X4.0Y-103.04
X6.5Y-6.0
X6.5Y-8.54
X6.5Y-11.08
X6.5Y-20.0
X6.5Y-22.54
X6.5Y-25.08
X6.5Y-34.0
X6.5Y-36.54
X6.5Y-39.08
X6.5Y-48.0
X6.5Y-50.54
X6.5Y-53.08
X6.5Y-62.0
X6.5Y-64.54
X6.5Y-67.08
X6.5Y-76.0
X6.5Y-78.54
X6.5Y-81.08
X64.0Y-2.0
X64.0Y-4.54
X64.0Y-7.08
X64.0Y-9.62
X64.0Y-12.16
X64.0Y-14.7
X64.0Y-17.24
X64.0Y-19.78
X80.0Y-64.0
X80.0Y-66.54
M30
