%TF.GenerationSoftware,KiCad,Pcbnew,10.0.5*%
%TF.CreationDate,2026-08-01T10:16:10+01:00*%
%TF.ProjectId,rmc-pizz-arco,726d632d-7069-47a7-9a2d-6172636f2e6b,rev?*%
%TF.SameCoordinates,Original*%
%TF.FileFunction,Copper,L1,Top*%
%TF.FilePolarity,Positive*%
%FSLAX46Y46*%
G04 Gerber Fmt 4.6, Leading zero omitted, Abs format (unit mm)*
G04 Created by KiCad (PCBNEW 10.0.5) date 2026-08-01 10:16:10*
%MOMM*%
%LPD*%
G01*
G04 APERTURE LIST*
G04 Aperture macros list*
%AMRoundRect*
0 Rectangle with rounded corners*
0 $1 Rounding radius*
0 $2 $3 $4 $5 $6 $7 $8 $9 X,Y pos of 4 corners*
0 Add a 4 corners polygon primitive as box body*
4,1,4,$2,$3,$4,$5,$6,$7,$8,$9,$2,$3,0*
0 Add four circle primitives for the rounded corners*
1,1,$1+$1,$2,$3*
1,1,$1+$1,$4,$5*
1,1,$1+$1,$6,$7*
1,1,$1+$1,$8,$9*
0 Add four rect primitives between the rounded corners*
20,1,$1+$1,$2,$3,$4,$5,0*
20,1,$1+$1,$4,$5,$6,$7,0*
20,1,$1+$1,$6,$7,$8,$9,0*
20,1,$1+$1,$8,$9,$2,$3,0*%
G04 Aperture macros list end*
%TA.AperFunction,SMDPad,CuDef*%
%ADD10RoundRect,0.250000X-0.312500X-0.625000X0.312500X-0.625000X0.312500X0.625000X-0.312500X0.625000X0*%
%TD*%
%TA.AperFunction,SMDPad,CuDef*%
%ADD11RoundRect,0.250000X-0.325000X-0.650000X0.325000X-0.650000X0.325000X0.650000X-0.325000X0.650000X0*%
%TD*%
%TA.AperFunction,SMDPad,CuDef*%
%ADD12RoundRect,0.150000X-0.825000X-0.150000X0.825000X-0.150000X0.825000X0.150000X-0.825000X0.150000X0*%
%TD*%
%TA.AperFunction,ComponentPad*%
%ADD13R,1.700000X1.700000*%
%TD*%
%TA.AperFunction,ComponentPad*%
%ADD14C,1.700000*%
%TD*%
%TA.AperFunction,ViaPad*%
%ADD15C,0.600000*%
%TD*%
%TA.AperFunction,Conductor*%
%ADD16C,0.500000*%
%TD*%
%TA.AperFunction,Conductor*%
%ADD17C,0.250000*%
%TD*%
G04 APERTURE END LIST*
D10*
%TO.P,R106,1*%
%TO.N,APN1*%
X40037500Y-9400000D03*
%TO.P,R106,2*%
%TO.N,APOUT1*%
X42962500Y-9400000D03*
%TD*%
%TO.P,R401,1*%
%TO.N,IN_W4*%
X16537500Y-41600000D03*
%TO.P,R401,2*%
%TO.N,BUFIN4*%
X19462500Y-41600000D03*
%TD*%
%TO.P,R203,1*%
%TO.N,BUFFB2*%
X21037500Y-24100000D03*
%TO.P,R203,2*%
%TO.N,BUFOUT2*%
X23962500Y-24100000D03*
%TD*%
D11*
%TO.P,C103,1*%
%TO.N,SWN1*%
X45525000Y-3900000D03*
%TO.P,C103,2*%
%TO.N,AGND*%
X48475000Y-3900000D03*
%TD*%
%TO.P,C903,1*%
%TO.N,V+*%
X72025000Y-62000000D03*
%TO.P,C903,2*%
%TO.N,AGND*%
X74975000Y-62000000D03*
%TD*%
%TO.P,C204,1*%
%TO.N,APOUT2*%
X45525000Y-18600000D03*
%TO.P,C204,2*%
%TO.N,OUT2*%
X48475000Y-18600000D03*
%TD*%
D10*
%TO.P,R202,1*%
%TO.N,IN_W2*%
X6537500Y-24100000D03*
%TO.P,R202,2*%
%TO.N,AGND*%
X9462500Y-24100000D03*
%TD*%
D11*
%TO.P,C503,1*%
%TO.N,SWN5*%
X45525000Y-49900000D03*
%TO.P,C503,2*%
%TO.N,AGND*%
X48475000Y-49900000D03*
%TD*%
%TO.P,C501,1*%
%TO.N,BUFIN5*%
X12025000Y-49900000D03*
%TO.P,C501,2*%
%TO.N,AGND*%
X14975000Y-49900000D03*
%TD*%
%TO.P,C403,1*%
%TO.N,SWN4*%
X45525000Y-47100000D03*
%TO.P,C403,2*%
%TO.N,AGND*%
X48475000Y-47100000D03*
%TD*%
D12*
%TO.P,U5,1*%
%TO.N,SWN4*%
X61525000Y-47190000D03*
%TO.P,U5,2*%
%TO.N,AGND*%
X61525000Y-48460000D03*
%TO.P,U5,3*%
%TO.N,SWN5*%
X61525000Y-49730000D03*
%TO.P,U5,4*%
%TO.N,AGND*%
X61525000Y-51000000D03*
%TO.P,U5,5*%
%TO.N,SW_CTL*%
X61525000Y-52270000D03*
%TO.P,U5,6*%
X61525000Y-53540000D03*
%TO.P,U5,7*%
%TO.N,V-*%
X61525000Y-54810000D03*
%TO.P,U5,8*%
%TO.N,SWN6*%
X66475000Y-54810000D03*
%TO.P,U5,9*%
%TO.N,AGND*%
X66475000Y-53540000D03*
%TO.P,U5,10*%
X66475000Y-52270000D03*
%TO.P,U5,11*%
X66475000Y-51000000D03*
%TO.P,U5,12*%
%TO.N,V-*%
X66475000Y-49730000D03*
%TO.P,U5,13*%
%TO.N,SW_CTL*%
X66475000Y-48460000D03*
%TO.P,U5,14*%
%TO.N,V+*%
X66475000Y-47190000D03*
%TD*%
D11*
%TO.P,C603,1*%
%TO.N,SWN6*%
X45525000Y-70100000D03*
%TO.P,C603,2*%
%TO.N,AGND*%
X48475000Y-70100000D03*
%TD*%
D12*
%TO.P,U2,1*%
%TO.N,BUFOUT3*%
X26025000Y-33190000D03*
%TO.P,U2,2*%
%TO.N,BUFFB3*%
X26025000Y-34460000D03*
%TO.P,U2,3*%
%TO.N,BUFIN3*%
X26025000Y-35730000D03*
%TO.P,U2,4*%
%TO.N,V+*%
X26025000Y-37000000D03*
%TO.P,U2,5*%
%TO.N,BUFIN4*%
X26025000Y-38270000D03*
%TO.P,U2,6*%
%TO.N,BUFFB4*%
X26025000Y-39540000D03*
%TO.P,U2,7*%
%TO.N,BUFOUT4*%
X26025000Y-40810000D03*
%TO.P,U2,8*%
%TO.N,APOUT4*%
X30975000Y-40810000D03*
%TO.P,U2,9*%
%TO.N,APN4*%
X30975000Y-39540000D03*
%TO.P,U2,10*%
%TO.N,SWN4*%
X30975000Y-38270000D03*
%TO.P,U2,11*%
%TO.N,V-*%
X30975000Y-37000000D03*
%TO.P,U2,12*%
%TO.N,SWN3*%
X30975000Y-35730000D03*
%TO.P,U2,13*%
%TO.N,APN3*%
X30975000Y-34460000D03*
%TO.P,U2,14*%
%TO.N,APOUT3*%
X30975000Y-33190000D03*
%TD*%
D10*
%TO.P,R101,1*%
%TO.N,IN_W1*%
X16537500Y-9400000D03*
%TO.P,R101,2*%
%TO.N,BUFIN1*%
X19462500Y-9400000D03*
%TD*%
%TO.P,R504,1*%
%TO.N,BUFOUT5*%
X34537500Y-55400000D03*
%TO.P,R504,2*%
%TO.N,APN5*%
X37462500Y-55400000D03*
%TD*%
D11*
%TO.P,C301,1*%
%TO.N,BUFIN3*%
X12025000Y-26900000D03*
%TO.P,C301,2*%
%TO.N,AGND*%
X14975000Y-26900000D03*
%TD*%
D10*
%TO.P,R305,1*%
%TO.N,BUFOUT3*%
X34537500Y-26900000D03*
%TO.P,R305,2*%
%TO.N,SWN3*%
X37462500Y-26900000D03*
%TD*%
D11*
%TO.P,C302,1*%
%TO.N,APN3*%
X40025000Y-26900000D03*
%TO.P,C302,2*%
%TO.N,APOUT3*%
X42975000Y-26900000D03*
%TD*%
%TO.P,C904,1*%
%TO.N,V-*%
X72025000Y-66000000D03*
%TO.P,C904,2*%
%TO.N,AGND*%
X74975000Y-66000000D03*
%TD*%
D10*
%TO.P,R601,1*%
%TO.N,IN_W6*%
X16537500Y-64599999D03*
%TO.P,R601,2*%
%TO.N,BUFIN6*%
X19462500Y-64599999D03*
%TD*%
%TO.P,R405,1*%
%TO.N,BUFOUT4*%
X34537500Y-47100000D03*
%TO.P,R405,2*%
%TO.N,SWN4*%
X37462500Y-47100000D03*
%TD*%
%TO.P,R306,1*%
%TO.N,APN3*%
X40037500Y-32400000D03*
%TO.P,R306,2*%
%TO.N,APOUT3*%
X42962500Y-32400000D03*
%TD*%
D11*
%TO.P,C701,1*%
%TO.N,SW_CTL*%
X60525000Y-44000000D03*
%TO.P,C701,2*%
%TO.N,AGND*%
X63475000Y-44000000D03*
%TD*%
%TO.P,C304,1*%
%TO.N,APOUT3*%
X45525000Y-32400000D03*
%TO.P,C304,2*%
%TO.N,OUT3*%
X48475000Y-32400000D03*
%TD*%
%TO.P,C402,1*%
%TO.N,APN4*%
X40025000Y-47100000D03*
%TO.P,C402,2*%
%TO.N,APOUT4*%
X42975000Y-47100000D03*
%TD*%
D10*
%TO.P,R303,1*%
%TO.N,BUFFB3*%
X21037500Y-26900000D03*
%TO.P,R303,2*%
%TO.N,BUFOUT3*%
X23962500Y-26900000D03*
%TD*%
%TO.P,R404,1*%
%TO.N,BUFOUT4*%
X34537500Y-41600000D03*
%TO.P,R404,2*%
%TO.N,APN4*%
X37462500Y-41600000D03*
%TD*%
D12*
%TO.P,U4,1*%
%TO.N,SWN1*%
X61525000Y-15190000D03*
%TO.P,U4,2*%
%TO.N,AGND*%
X61525000Y-16460000D03*
%TO.P,U4,3*%
%TO.N,SWN2*%
X61525000Y-17730000D03*
%TO.P,U4,4*%
%TO.N,AGND*%
X61525000Y-19000000D03*
%TO.P,U4,5*%
%TO.N,SW_CTL*%
X61525000Y-20270000D03*
%TO.P,U4,6*%
X61525000Y-21540000D03*
%TO.P,U4,7*%
%TO.N,V-*%
X61525000Y-22810000D03*
%TO.P,U4,8*%
%TO.N,SWN3*%
X66475000Y-22810000D03*
%TO.P,U4,9*%
%TO.N,AGND*%
X66475000Y-21540000D03*
%TO.P,U4,10*%
X66475000Y-20270000D03*
%TO.P,U4,11*%
X66475000Y-19000000D03*
%TO.P,U4,12*%
%TO.N,V-*%
X66475000Y-17730000D03*
%TO.P,U4,13*%
%TO.N,SW_CTL*%
X66475000Y-16460000D03*
%TO.P,U4,14*%
%TO.N,V+*%
X66475000Y-15190000D03*
%TD*%
D10*
%TO.P,R501,1*%
%TO.N,IN_W5*%
X16537500Y-55400000D03*
%TO.P,R501,2*%
%TO.N,BUFIN5*%
X19462500Y-55400000D03*
%TD*%
%TO.P,R604,1*%
%TO.N,BUFOUT6*%
X34537500Y-64599999D03*
%TO.P,R604,2*%
%TO.N,APN6*%
X37462500Y-64599999D03*
%TD*%
%TO.P,R105,1*%
%TO.N,BUFOUT1*%
X34537500Y-3900000D03*
%TO.P,R105,2*%
%TO.N,SWN1*%
X37462500Y-3900000D03*
%TD*%
%TO.P,R505,1*%
%TO.N,BUFOUT5*%
X34537500Y-49900000D03*
%TO.P,R505,2*%
%TO.N,SWN5*%
X37462500Y-49900000D03*
%TD*%
%TO.P,R406,1*%
%TO.N,APN4*%
X40037500Y-41600000D03*
%TO.P,R406,2*%
%TO.N,APOUT4*%
X42962500Y-41600000D03*
%TD*%
D11*
%TO.P,C601,1*%
%TO.N,BUFIN6*%
X12025000Y-70100000D03*
%TO.P,C601,2*%
%TO.N,AGND*%
X14975000Y-70100000D03*
%TD*%
D12*
%TO.P,U3,1*%
%TO.N,BUFOUT5*%
X26025000Y-56190000D03*
%TO.P,U3,2*%
%TO.N,BUFFB5*%
X26025000Y-57460000D03*
%TO.P,U3,3*%
%TO.N,BUFIN5*%
X26025000Y-58730000D03*
%TO.P,U3,4*%
%TO.N,V+*%
X26025000Y-60000000D03*
%TO.P,U3,5*%
%TO.N,BUFIN6*%
X26025000Y-61270000D03*
%TO.P,U3,6*%
%TO.N,BUFFB6*%
X26025000Y-62540000D03*
%TO.P,U3,7*%
%TO.N,BUFOUT6*%
X26025000Y-63810000D03*
%TO.P,U3,8*%
%TO.N,APOUT6*%
X30975000Y-63810000D03*
%TO.P,U3,9*%
%TO.N,APN6*%
X30975000Y-62540000D03*
%TO.P,U3,10*%
%TO.N,SWN6*%
X30975000Y-61270000D03*
%TO.P,U3,11*%
%TO.N,V-*%
X30975000Y-60000000D03*
%TO.P,U3,12*%
%TO.N,SWN5*%
X30975000Y-58730000D03*
%TO.P,U3,13*%
%TO.N,APN5*%
X30975000Y-57460000D03*
%TO.P,U3,14*%
%TO.N,APOUT5*%
X30975000Y-56190000D03*
%TD*%
D11*
%TO.P,C502,1*%
%TO.N,APN5*%
X40025000Y-49900000D03*
%TO.P,C502,2*%
%TO.N,APOUT5*%
X42975000Y-49900000D03*
%TD*%
D10*
%TO.P,R701,1*%
%TO.N,SW_CTL*%
X60537500Y-34000000D03*
%TO.P,R701,2*%
%TO.N,V-*%
X63462500Y-34000000D03*
%TD*%
%TO.P,R502,1*%
%TO.N,IN_W5*%
X6537500Y-49900000D03*
%TO.P,R502,2*%
%TO.N,AGND*%
X9462500Y-49900000D03*
%TD*%
%TO.P,R304,1*%
%TO.N,BUFOUT3*%
X34537500Y-32400000D03*
%TO.P,R304,2*%
%TO.N,APN3*%
X37462500Y-32400000D03*
%TD*%
D13*
%TO.P,J1,1*%
%TO.N,AGND*%
X8000000Y-9400000D03*
D14*
%TO.P,J1,2*%
%TO.N,IN_W1*%
X10540000Y-9400000D03*
%TO.P,J1,3*%
%TO.N,OUT1*%
X13080000Y-9400000D03*
%TD*%
D11*
%TO.P,C104,1*%
%TO.N,APOUT1*%
X45525000Y-9400000D03*
%TO.P,C104,2*%
%TO.N,OUT1*%
X48475000Y-9400000D03*
%TD*%
D13*
%TO.P,J5,1*%
%TO.N,AGND*%
X8000000Y-55400000D03*
D14*
%TO.P,J5,2*%
%TO.N,IN_W5*%
X10540000Y-55400000D03*
%TO.P,J5,3*%
%TO.N,OUT5*%
X13080000Y-55400000D03*
%TD*%
D11*
%TO.P,C404,1*%
%TO.N,APOUT4*%
X45525000Y-41600000D03*
%TO.P,C404,2*%
%TO.N,OUT4*%
X48475000Y-41600000D03*
%TD*%
%TO.P,C504,1*%
%TO.N,APOUT5*%
X45525000Y-55400000D03*
%TO.P,C504,2*%
%TO.N,OUT5*%
X48475000Y-55400000D03*
%TD*%
%TO.P,C401,1*%
%TO.N,BUFIN4*%
X12025000Y-47100000D03*
%TO.P,C401,2*%
%TO.N,AGND*%
X14975000Y-47100000D03*
%TD*%
%TO.P,C202,1*%
%TO.N,APN2*%
X40025000Y-24100000D03*
%TO.P,C202,2*%
%TO.N,APOUT2*%
X42975000Y-24100000D03*
%TD*%
D10*
%TO.P,R403,1*%
%TO.N,BUFFB4*%
X21037500Y-47100000D03*
%TO.P,R403,2*%
%TO.N,BUFOUT4*%
X23962500Y-47100000D03*
%TD*%
%TO.P,R205,1*%
%TO.N,BUFOUT2*%
X34537500Y-24100000D03*
%TO.P,R205,2*%
%TO.N,SWN2*%
X37462500Y-24100000D03*
%TD*%
%TO.P,R104,1*%
%TO.N,BUFOUT1*%
X34537500Y-9400000D03*
%TO.P,R104,2*%
%TO.N,APN1*%
X37462500Y-9400000D03*
%TD*%
%TO.P,R605,1*%
%TO.N,BUFOUT6*%
X34537500Y-70100000D03*
%TO.P,R605,2*%
%TO.N,SWN6*%
X37462500Y-70100000D03*
%TD*%
D12*
%TO.P,U1,1*%
%TO.N,BUFOUT1*%
X26025000Y-10190000D03*
%TO.P,U1,2*%
%TO.N,BUFFB1*%
X26025000Y-11460000D03*
%TO.P,U1,3*%
%TO.N,BUFIN1*%
X26025000Y-12730000D03*
%TO.P,U1,4*%
%TO.N,V+*%
X26025000Y-14000000D03*
%TO.P,U1,5*%
%TO.N,BUFIN2*%
X26025000Y-15270000D03*
%TO.P,U1,6*%
%TO.N,BUFFB2*%
X26025000Y-16540000D03*
%TO.P,U1,7*%
%TO.N,BUFOUT2*%
X26025000Y-17810000D03*
%TO.P,U1,8*%
%TO.N,APOUT2*%
X30975000Y-17810000D03*
%TO.P,U1,9*%
%TO.N,APN2*%
X30975000Y-16540000D03*
%TO.P,U1,10*%
%TO.N,SWN2*%
X30975000Y-15270000D03*
%TO.P,U1,11*%
%TO.N,V-*%
X30975000Y-14000000D03*
%TO.P,U1,12*%
%TO.N,SWN1*%
X30975000Y-12730000D03*
%TO.P,U1,13*%
%TO.N,APN1*%
X30975000Y-11460000D03*
%TO.P,U1,14*%
%TO.N,APOUT1*%
X30975000Y-10190000D03*
%TD*%
D10*
%TO.P,R103,1*%
%TO.N,BUFFB1*%
X21037500Y-3900000D03*
%TO.P,R103,2*%
%TO.N,BUFOUT1*%
X23962500Y-3900000D03*
%TD*%
%TO.P,R402,1*%
%TO.N,IN_W4*%
X6537500Y-47100000D03*
%TO.P,R402,2*%
%TO.N,AGND*%
X9462500Y-47100000D03*
%TD*%
D13*
%TO.P,J6,1*%
%TO.N,AGND*%
X8000000Y-64599999D03*
D14*
%TO.P,J6,2*%
%TO.N,IN_W6*%
X10540000Y-64599999D03*
%TO.P,J6,3*%
%TO.N,OUT6*%
X13080000Y-64599999D03*
%TD*%
D11*
%TO.P,C303,1*%
%TO.N,SWN3*%
X45525000Y-26900000D03*
%TO.P,C303,2*%
%TO.N,AGND*%
X48475000Y-26900000D03*
%TD*%
D13*
%TO.P,J8,1*%
%TO.N,SW_TOG*%
X50000000Y-76500000D03*
D14*
%TO.P,J8,2*%
%TO.N,SW_CTL*%
X52540000Y-76500000D03*
%TD*%
D13*
%TO.P,J4,1*%
%TO.N,AGND*%
X8000000Y-41600000D03*
D14*
%TO.P,J4,2*%
%TO.N,IN_W4*%
X10540000Y-41600000D03*
%TO.P,J4,3*%
%TO.N,OUT4*%
X13080000Y-41600000D03*
%TD*%
D10*
%TO.P,R603,1*%
%TO.N,BUFFB6*%
X21037500Y-70100000D03*
%TO.P,R603,2*%
%TO.N,BUFOUT6*%
X23962500Y-70100000D03*
%TD*%
%TO.P,R506,1*%
%TO.N,APN5*%
X40037500Y-55400000D03*
%TO.P,R506,2*%
%TO.N,APOUT5*%
X42962500Y-55400000D03*
%TD*%
%TO.P,R301,1*%
%TO.N,IN_W3*%
X16537500Y-32400000D03*
%TO.P,R301,2*%
%TO.N,BUFIN3*%
X19462500Y-32400000D03*
%TD*%
%TO.P,R302,1*%
%TO.N,IN_W3*%
X6537500Y-26900000D03*
%TO.P,R302,2*%
%TO.N,AGND*%
X9462500Y-26900000D03*
%TD*%
%TO.P,R204,1*%
%TO.N,BUFOUT2*%
X34537500Y-18600000D03*
%TO.P,R204,2*%
%TO.N,APN2*%
X37462500Y-18600000D03*
%TD*%
D11*
%TO.P,C102,1*%
%TO.N,APN1*%
X40025000Y-3900000D03*
%TO.P,C102,2*%
%TO.N,APOUT1*%
X42975000Y-3900000D03*
%TD*%
D10*
%TO.P,R602,1*%
%TO.N,IN_W6*%
X6537500Y-70100000D03*
%TO.P,R602,2*%
%TO.N,AGND*%
X9462500Y-70100000D03*
%TD*%
%TO.P,R503,1*%
%TO.N,BUFFB5*%
X21037500Y-49900000D03*
%TO.P,R503,2*%
%TO.N,BUFOUT5*%
X23962500Y-49900000D03*
%TD*%
D11*
%TO.P,C902,1*%
%TO.N,V-*%
X72025000Y-12000000D03*
%TO.P,C902,2*%
%TO.N,AGND*%
X74975000Y-12000000D03*
%TD*%
%TO.P,C604,1*%
%TO.N,APOUT6*%
X45525000Y-64599999D03*
%TO.P,C604,2*%
%TO.N,OUT6*%
X48475000Y-64599999D03*
%TD*%
D10*
%TO.P,R102,1*%
%TO.N,IN_W1*%
X6537500Y-3900000D03*
%TO.P,R102,2*%
%TO.N,AGND*%
X9462500Y-3900000D03*
%TD*%
%TO.P,R201,1*%
%TO.N,IN_W2*%
X16537500Y-18600000D03*
%TO.P,R201,2*%
%TO.N,BUFIN2*%
X19462500Y-18600000D03*
%TD*%
%TO.P,R702,1*%
%TO.N,V+*%
X60537500Y-30000000D03*
%TO.P,R702,2*%
%TO.N,SW_TOG*%
X63462500Y-30000000D03*
%TD*%
D13*
%TO.P,J7,1*%
%TO.N,OUT1*%
X26000000Y-76500000D03*
D14*
%TO.P,J7,2*%
%TO.N,OUT2*%
X28540000Y-76500000D03*
%TO.P,J7,3*%
%TO.N,OUT3*%
X31080000Y-76500000D03*
%TO.P,J7,4*%
%TO.N,OUT4*%
X33620000Y-76500000D03*
%TO.P,J7,5*%
%TO.N,OUT5*%
X36160000Y-76500000D03*
%TO.P,J7,6*%
%TO.N,OUT6*%
X38700000Y-76500000D03*
%TO.P,J7,7*%
%TO.N,V+*%
X41240000Y-76500000D03*
%TO.P,J7,8*%
%TO.N,V-*%
X43780000Y-76500000D03*
%TO.P,J7,9*%
%TO.N,AGND*%
X46320000Y-76500000D03*
%TD*%
D10*
%TO.P,R206,1*%
%TO.N,APN2*%
X40037500Y-18600000D03*
%TO.P,R206,2*%
%TO.N,APOUT2*%
X42962500Y-18600000D03*
%TD*%
D11*
%TO.P,C201,1*%
%TO.N,BUFIN2*%
X12025000Y-24100000D03*
%TO.P,C201,2*%
%TO.N,AGND*%
X14975000Y-24100000D03*
%TD*%
D10*
%TO.P,R606,1*%
%TO.N,APN6*%
X40037500Y-64599999D03*
%TO.P,R606,2*%
%TO.N,APOUT6*%
X42962500Y-64599999D03*
%TD*%
D13*
%TO.P,J3,1*%
%TO.N,AGND*%
X8000000Y-32400000D03*
D14*
%TO.P,J3,2*%
%TO.N,IN_W3*%
X10540000Y-32400000D03*
%TO.P,J3,3*%
%TO.N,OUT3*%
X13080000Y-32400000D03*
%TD*%
D11*
%TO.P,C203,1*%
%TO.N,SWN2*%
X45525000Y-24100000D03*
%TO.P,C203,2*%
%TO.N,AGND*%
X48475000Y-24100000D03*
%TD*%
%TO.P,C602,1*%
%TO.N,APN6*%
X40025000Y-70100000D03*
%TO.P,C602,2*%
%TO.N,APOUT6*%
X42975000Y-70100000D03*
%TD*%
%TO.P,C901,1*%
%TO.N,V+*%
X72025000Y-8000000D03*
%TO.P,C901,2*%
%TO.N,AGND*%
X74975000Y-8000000D03*
%TD*%
%TO.P,C101,1*%
%TO.N,BUFIN1*%
X12025000Y-3900000D03*
%TO.P,C101,2*%
%TO.N,AGND*%
X14975000Y-3900000D03*
%TD*%
D13*
%TO.P,J2,1*%
%TO.N,AGND*%
X8000000Y-18600000D03*
D14*
%TO.P,J2,2*%
%TO.N,IN_W2*%
X10540000Y-18600000D03*
%TO.P,J2,3*%
%TO.N,OUT2*%
X13080000Y-18600000D03*
%TD*%
D15*
%TO.N,AGND*%
X8000000Y-40000000D03*
X8000000Y-63000000D03*
X63475000Y-45600000D03*
X14975000Y-45500000D03*
X14975000Y-68500000D03*
X64900000Y-20270000D03*
X64900000Y-21540000D03*
X48475000Y-5500000D03*
X63100000Y-19000000D03*
X8000000Y-17000000D03*
X8000000Y-34000000D03*
X64900000Y-53540000D03*
X64900000Y-19000000D03*
X46320000Y-78100000D03*
X74975000Y-9600000D03*
X74975000Y-13600000D03*
X63100000Y-16460000D03*
X48475000Y-22500000D03*
X9462500Y-5500000D03*
X14975000Y-5500000D03*
X74975000Y-67600000D03*
X9462500Y-22500000D03*
X64900000Y-51000000D03*
X9462500Y-28500000D03*
X14975000Y-28500000D03*
X74975000Y-63600000D03*
X8000000Y-57000000D03*
X9462500Y-45500000D03*
X64900000Y-52270000D03*
X14975000Y-51500000D03*
X48475000Y-68500000D03*
X63100000Y-48460000D03*
X8000000Y-11000000D03*
X48475000Y-28500000D03*
X9462500Y-51500000D03*
X63100000Y-51000000D03*
X48475000Y-45500000D03*
X9462500Y-68500000D03*
X14975000Y-22500000D03*
X48475000Y-51500000D03*
%TO.N,APOUT1*%
X32756300Y-7000000D03*
X44243700Y-7000000D03*
%TO.N,APOUT2*%
X32756300Y-21000000D03*
X44243700Y-21000000D03*
%TO.N,APOUT3*%
X32756300Y-30000000D03*
X44243700Y-30000000D03*
%TO.N,APOUT4*%
X32756300Y-44000000D03*
X44243700Y-44000000D03*
%TO.N,APOUT5*%
X32756300Y-53000000D03*
X44243700Y-53000000D03*
%TO.N,APOUT6*%
X32756300Y-67000000D03*
X44243700Y-67000000D03*
%TO.N,BUFFB1*%
X21037500Y-9400000D03*
X28625000Y-11460000D03*
%TO.N,BUFFB2*%
X28625000Y-16540000D03*
X21037500Y-18600000D03*
%TO.N,BUFFB3*%
X21037500Y-32400000D03*
X28625000Y-34460000D03*
%TO.N,BUFFB4*%
X21037500Y-41600000D03*
X28625000Y-39540000D03*
%TO.N,BUFFB5*%
X28625000Y-57460000D03*
X21037500Y-55400000D03*
%TO.N,BUFFB6*%
X28625000Y-62540000D03*
X21037500Y-64599999D03*
%TO.N,BUFOUT1*%
X36000000Y-9400000D03*
X27525000Y-10190000D03*
X23962500Y-9400000D03*
%TO.N,BUFOUT2*%
X27525000Y-17810000D03*
X23962500Y-18600000D03*
X36000000Y-18600000D03*
%TO.N,BUFOUT3*%
X23962500Y-32400000D03*
X27525000Y-33189999D03*
X36000000Y-32400000D03*
%TO.N,BUFOUT4*%
X27525000Y-40810000D03*
X36000000Y-41600000D03*
X23962500Y-41600000D03*
%TO.N,BUFOUT5*%
X36000000Y-55400000D03*
X27525000Y-56190000D03*
X23962500Y-55400000D03*
%TO.N,BUFOUT6*%
X23962500Y-64599999D03*
X36000000Y-64599999D03*
X27525000Y-63810000D03*
%TO.N,OUT1*%
X26000000Y-75150000D03*
X13080000Y-8050000D03*
X48475000Y-8050000D03*
%TO.N,OUT2*%
X13080000Y-19950000D03*
X28540000Y-74385000D03*
X48475000Y-19950000D03*
%TO.N,OUT3*%
X48475000Y-31050000D03*
X13080000Y-31050000D03*
X31080000Y-73620000D03*
%TO.N,OUT4*%
X13080000Y-42950000D03*
X33620000Y-72855000D03*
X48475000Y-42950000D03*
%TO.N,OUT5*%
X48475000Y-54050000D03*
X36160000Y-72090000D03*
X13080000Y-54050000D03*
%TO.N,OUT6*%
X38700000Y-71325000D03*
X13080000Y-65950000D03*
X48475000Y-65950000D03*
%TO.N,SWN1*%
X47000000Y-3900000D03*
X38743700Y-3900000D03*
%TO.N,SWN2*%
X38743700Y-24100000D03*
X47000000Y-24100000D03*
%TO.N,SWN3*%
X47000000Y-26900000D03*
X38743700Y-26900000D03*
%TO.N,SWN4*%
X38743700Y-47100000D03*
X47000000Y-47100000D03*
%TO.N,SWN5*%
X38743700Y-49900000D03*
X47000000Y-49900000D03*
%TO.N,SWN6*%
X38743700Y-70100000D03*
X47000000Y-70100000D03*
%TO.N,SW_CTL*%
X59300000Y-35500000D03*
X70400000Y-16460000D03*
X59300000Y-51000000D03*
X59300000Y-39500000D03*
X70400000Y-39500000D03*
X59300000Y-24000000D03*
X59300000Y-32500000D03*
X70400000Y-74000000D03*
X70400000Y-48460000D03*
X59300000Y-45500000D03*
X59300000Y-42500000D03*
%TO.N,SW_TOG*%
X76800000Y-73000000D03*
X76800000Y-30000000D03*
%TO.N,V+*%
X64900000Y-47190000D03*
X60537500Y-31600000D03*
X72025000Y-63600000D03*
X64900000Y-15190000D03*
X72025000Y-9600000D03*
X41240000Y-78100000D03*
X27600000Y-14000000D03*
X27600000Y-37000000D03*
X27600000Y-60000000D03*
%TO.N,V-*%
X69000000Y-66000000D03*
X50000000Y-14000000D03*
X69000000Y-37000000D03*
X69000000Y-12000000D03*
X53000000Y-60000000D03*
X69000000Y-34000000D03*
X61525000Y-24000000D03*
X61525000Y-56000000D03*
X52000000Y-14000000D03*
X69000000Y-49730000D03*
X54650000Y-60000000D03*
X69000000Y-17730000D03*
X69000000Y-60000000D03*
X69000000Y-72000000D03*
%TD*%
%TO.N,AGND*%
D16*
X9462500Y-24100000D02*
X9462500Y-22500000D01*
X14975000Y-70100000D02*
X14975000Y-68500000D01*
X14975000Y-3900000D02*
X14975000Y-5500000D01*
X8000000Y-32400000D02*
X8000000Y-34000000D01*
X8000000Y-41600000D02*
X8000000Y-40000000D01*
X61525000Y-16460000D02*
X63100000Y-16460000D01*
X9462500Y-26900000D02*
X9462500Y-28500000D01*
X74975000Y-62000000D02*
X74975000Y-63600000D01*
X63475000Y-44000000D02*
X63475000Y-45600000D01*
X61525000Y-48460000D02*
X63100000Y-48460000D01*
X9462500Y-49900000D02*
X9462500Y-51500000D01*
X74975000Y-8000000D02*
X74975000Y-9600000D01*
X48475000Y-26900000D02*
X48475000Y-28500000D01*
X9462500Y-47100000D02*
X9462500Y-45500000D01*
X74975000Y-12000000D02*
X74975000Y-13600000D01*
X66474999Y-21540000D02*
X64900000Y-21540000D01*
X9462500Y-70100000D02*
X9462500Y-68500000D01*
X66474999Y-52270000D02*
X64900000Y-52270000D01*
X14975000Y-49900000D02*
X14975000Y-51500000D01*
X14975000Y-24100000D02*
X14975000Y-22500000D01*
X48475000Y-24100000D02*
X48475000Y-22500000D01*
X48475000Y-47100000D02*
X48475000Y-45500000D01*
X8000000Y-55400000D02*
X8000000Y-57000000D01*
X14975000Y-47100000D02*
X14975000Y-45500000D01*
X8000000Y-18600000D02*
X8000000Y-17000000D01*
X8000000Y-64599999D02*
X8000000Y-63000000D01*
X61525000Y-51000000D02*
X63100000Y-51000000D01*
X66474999Y-53540000D02*
X64900000Y-53540000D01*
X14975000Y-26900000D02*
X14975000Y-28500000D01*
X46320000Y-76500000D02*
X46320000Y-78100000D01*
X48475000Y-49900000D02*
X48475000Y-51500000D01*
X8000000Y-9400000D02*
X8000000Y-11000000D01*
X48475000Y-70100000D02*
X48475000Y-68500000D01*
X74975000Y-66000000D02*
X74975000Y-67600000D01*
X61525000Y-19000000D02*
X63100000Y-19000000D01*
X48475000Y-3900000D02*
X48475000Y-5500000D01*
X66474999Y-19000000D02*
X64900000Y-19000000D01*
X66474999Y-20270000D02*
X64900000Y-20270000D01*
X9462500Y-3900000D02*
X9462500Y-5500000D01*
X66474999Y-51000000D02*
X64900000Y-51000000D01*
%TO.N,APN1*%
D17*
X30975000Y-11460000D02*
X41500000Y-11460000D01*
X41500000Y-3900000D02*
X40025000Y-3900000D01*
X41500000Y-11460000D02*
X41500000Y-9400000D01*
X41500000Y-9400000D02*
X40037500Y-9400000D01*
X37462500Y-9400000D02*
X40037500Y-9400000D01*
X41500000Y-9400000D02*
X41500000Y-3900000D01*
%TO.N,APN2*%
X41500000Y-18600000D02*
X40037500Y-18600000D01*
X41500000Y-24100000D02*
X40025000Y-24100000D01*
X41500000Y-18600000D02*
X41500000Y-24100000D01*
X37462500Y-18600000D02*
X40037500Y-18600000D01*
X41500000Y-16540000D02*
X41500000Y-18600000D01*
X30975000Y-16540000D02*
X41500000Y-16540000D01*
%TO.N,APN3*%
X41500000Y-34460000D02*
X41500000Y-32400000D01*
X37462500Y-32400000D02*
X40037500Y-32400000D01*
X41500000Y-32400000D02*
X40037500Y-32400000D01*
X41500000Y-26900000D02*
X40025000Y-26900000D01*
X41500000Y-32400000D02*
X41500000Y-26900000D01*
X30975000Y-34460000D02*
X41500000Y-34460000D01*
%TO.N,APN4*%
X41500000Y-47100000D02*
X40025000Y-47100000D01*
X37462500Y-41600000D02*
X40037500Y-41600000D01*
X41500000Y-39540000D02*
X41500000Y-41600000D01*
X30975000Y-39540000D02*
X41500000Y-39540000D01*
X41500000Y-41600000D02*
X41500000Y-47100000D01*
X41500000Y-41600000D02*
X40037500Y-41600000D01*
%TO.N,APN5*%
X37462500Y-55400000D02*
X40037500Y-55400000D01*
X41500000Y-55400000D02*
X40037500Y-55400000D01*
X41500000Y-55400000D02*
X41500000Y-49900000D01*
X41500000Y-57460000D02*
X41500000Y-55400000D01*
X41500000Y-49900000D02*
X40025000Y-49900000D01*
X30975000Y-57460000D02*
X41500000Y-57460000D01*
%TO.N,APN6*%
X41500000Y-70100000D02*
X40025000Y-70100000D01*
X41500000Y-64599999D02*
X40037500Y-64599999D01*
X41500000Y-62540000D02*
X41500000Y-64599999D01*
X41500000Y-64599999D02*
X41500000Y-70100000D01*
X30975000Y-62540000D02*
X41500000Y-62540000D01*
X37462500Y-64599999D02*
X40037500Y-64599999D01*
%TO.N,APOUT1*%
X44243700Y-7000000D02*
X44243700Y-9400000D01*
X42962500Y-9400000D02*
X45525000Y-9400000D01*
X44243700Y-7000000D02*
X44243700Y-3900000D01*
X32756300Y-10190000D02*
X32756300Y-7000000D01*
X44243700Y-3900000D02*
X42975000Y-3900000D01*
X30975000Y-10190000D02*
X32756300Y-10190000D01*
%TO.N,APOUT2*%
X30975000Y-17810000D02*
X32756300Y-17810000D01*
X44243700Y-24100000D02*
X42975000Y-24100000D01*
X32756300Y-17810000D02*
X32756300Y-21000000D01*
X44243700Y-21000000D02*
X44243700Y-24100000D01*
X42962500Y-18600000D02*
X45525000Y-18600000D01*
X44243700Y-21000000D02*
X44243700Y-18600000D01*
%TO.N,APOUT3*%
X44243700Y-26900000D02*
X42975000Y-26900000D01*
X30975000Y-33189999D02*
X32756300Y-33189999D01*
X44243700Y-30000000D02*
X44243700Y-32400000D01*
X32756300Y-33189999D02*
X32756300Y-30000000D01*
X44243700Y-30000000D02*
X44243700Y-26900000D01*
X42962500Y-32400000D02*
X45525000Y-32400000D01*
%TO.N,APOUT4*%
X30975000Y-40810000D02*
X32756300Y-40810000D01*
X42962500Y-41600000D02*
X45525000Y-41600000D01*
X44243700Y-44000000D02*
X44243700Y-47100000D01*
X32756300Y-40810000D02*
X32756300Y-44000000D01*
X44243700Y-47100000D02*
X42975000Y-47100000D01*
X44243700Y-44000000D02*
X44243700Y-41600000D01*
%TO.N,APOUT5*%
X32756300Y-56190000D02*
X32756300Y-53000000D01*
X44243700Y-49900000D02*
X42975000Y-49900000D01*
X44243700Y-53000000D02*
X44243700Y-55400000D01*
X30975000Y-56190000D02*
X32756300Y-56190000D01*
X42962500Y-55400000D02*
X45525000Y-55400000D01*
X44243700Y-53000000D02*
X44243700Y-49900000D01*
%TO.N,APOUT6*%
X42962500Y-64599999D02*
X45525000Y-64599999D01*
X30975000Y-63810000D02*
X32756300Y-63810000D01*
X44243700Y-67000000D02*
X44243700Y-70100000D01*
X44243700Y-70100000D02*
X42975000Y-70100000D01*
X32756300Y-63810000D02*
X32756300Y-67000000D01*
X44243700Y-67000000D02*
X44243700Y-64599999D01*
%TO.N,BUFFB1*%
X21037500Y-9400000D02*
X21037500Y-3900000D01*
X26025000Y-11460000D02*
X28625000Y-11460000D01*
%TO.N,BUFFB2*%
X21037500Y-18600000D02*
X21037500Y-24100000D01*
X26025000Y-16540000D02*
X28625000Y-16540000D01*
%TO.N,BUFFB3*%
X26025000Y-34460000D02*
X28625000Y-34460000D01*
X21037500Y-32400000D02*
X21037500Y-26900000D01*
%TO.N,BUFFB4*%
X21037500Y-41600000D02*
X21037500Y-47100000D01*
X26025000Y-39540000D02*
X28625000Y-39540000D01*
%TO.N,BUFFB5*%
X21037500Y-55400000D02*
X21037500Y-49900000D01*
X26025000Y-57460000D02*
X28625000Y-57460000D01*
%TO.N,BUFFB6*%
X26025000Y-62540000D02*
X28625000Y-62540000D01*
X21037500Y-64599999D02*
X21037500Y-70100000D01*
%TO.N,BUFIN1*%
X12025000Y-3900000D02*
X12025000Y-6300000D01*
X19462500Y-6300000D02*
X19462500Y-9400000D01*
X19462500Y-12730000D02*
X26025000Y-12730000D01*
X19462500Y-9400000D02*
X19462500Y-12730000D01*
X12025000Y-6300000D02*
X19462500Y-6300000D01*
%TO.N,BUFIN2*%
X19462500Y-21700000D02*
X19462500Y-18600000D01*
X12025000Y-21700000D02*
X19462500Y-21700000D01*
X12025000Y-24100000D02*
X12025000Y-21700000D01*
X19462500Y-18600000D02*
X19462500Y-15270000D01*
X19462500Y-15270000D02*
X26025000Y-15270000D01*
%TO.N,BUFIN3*%
X12025000Y-26900000D02*
X12025000Y-29300000D01*
X19462500Y-32400000D02*
X19462500Y-35730000D01*
X12025000Y-29300000D02*
X19462500Y-29300000D01*
X19462500Y-29300000D02*
X19462500Y-32400000D01*
X19462500Y-35730000D02*
X26025000Y-35730000D01*
%TO.N,BUFIN4*%
X12025000Y-44700000D02*
X19462500Y-44700000D01*
X19462500Y-38270000D02*
X26025000Y-38270000D01*
X12025000Y-47100000D02*
X12025000Y-44700000D01*
X19462500Y-41600000D02*
X19462500Y-38270000D01*
X19462500Y-44700000D02*
X19462500Y-41600000D01*
%TO.N,BUFIN5*%
X12025000Y-49900000D02*
X12025000Y-52300000D01*
X19462500Y-55400000D02*
X19462500Y-58730000D01*
X12025000Y-52300000D02*
X19462500Y-52300000D01*
X19462500Y-58730000D02*
X26025000Y-58730000D01*
X19462500Y-52300000D02*
X19462500Y-55400000D01*
%TO.N,BUFIN6*%
X19462500Y-64599999D02*
X19462500Y-61270000D01*
X12025000Y-70100000D02*
X12025000Y-67700000D01*
X19462500Y-61270000D02*
X26025000Y-61270000D01*
X12025000Y-67700000D02*
X19462500Y-67700000D01*
X19462500Y-67700000D02*
X19462500Y-64599999D01*
%TO.N,BUFOUT1*%
X36000000Y-9400000D02*
X36000000Y-3900000D01*
X36000000Y-3900000D02*
X34537500Y-3900000D01*
X23962500Y-9400000D02*
X23962500Y-3900000D01*
X36000000Y-9400000D02*
X34537500Y-9400000D01*
X26025000Y-10190000D02*
X27525000Y-10190000D01*
%TO.N,BUFOUT2*%
X23962500Y-18600000D02*
X23962500Y-24100000D01*
X26025000Y-17810000D02*
X27525000Y-17810000D01*
X36000000Y-24100000D02*
X34537500Y-24100000D01*
X36000000Y-18600000D02*
X36000000Y-24100000D01*
X36000000Y-18600000D02*
X34537500Y-18600000D01*
%TO.N,BUFOUT3*%
X26025000Y-33189999D02*
X27525000Y-33189999D01*
X36000000Y-26900000D02*
X34537500Y-26900000D01*
X36000000Y-32400000D02*
X36000000Y-26900000D01*
X23962500Y-32400000D02*
X23962500Y-26900000D01*
X36000000Y-32400000D02*
X34537500Y-32400000D01*
%TO.N,BUFOUT4*%
X36000000Y-41600000D02*
X34537500Y-41600000D01*
X36000000Y-41600000D02*
X36000000Y-47100000D01*
X36000000Y-47100000D02*
X34537500Y-47100000D01*
X26025000Y-40810000D02*
X27525000Y-40810000D01*
X23962500Y-41600000D02*
X23962500Y-47100000D01*
%TO.N,BUFOUT5*%
X23962500Y-55400000D02*
X23962500Y-49900000D01*
X36000000Y-49900000D02*
X34537500Y-49900000D01*
X26025000Y-56190000D02*
X27525000Y-56190000D01*
X36000000Y-55400000D02*
X36000000Y-49900000D01*
X36000000Y-55400000D02*
X34537500Y-55400000D01*
%TO.N,BUFOUT6*%
X36000000Y-70100000D02*
X34537500Y-70100000D01*
X23962500Y-64599999D02*
X23962500Y-70100000D01*
X26025000Y-63810000D02*
X27525000Y-63810000D01*
X36000000Y-64599999D02*
X34537500Y-64599999D01*
X36000000Y-64599999D02*
X36000000Y-70100000D01*
%TO.N,IN_W1*%
X10540000Y-9400000D02*
X10540000Y-7200000D01*
X6537500Y-7200000D02*
X6537500Y-3900000D01*
X16537500Y-7200000D02*
X16537500Y-9400000D01*
X10540000Y-7200000D02*
X16537500Y-7200000D01*
X10540000Y-7200000D02*
X6537500Y-7200000D01*
%TO.N,IN_W2*%
X10540000Y-18600000D02*
X10540000Y-20800000D01*
X16537500Y-20800000D02*
X16537500Y-18600000D01*
X6537500Y-20800000D02*
X6537500Y-24100000D01*
X10540000Y-20800000D02*
X16537500Y-20800000D01*
X10540000Y-20800000D02*
X6537500Y-20800000D01*
%TO.N,IN_W3*%
X10540000Y-30200000D02*
X6537500Y-30200000D01*
X6537500Y-30200000D02*
X6537500Y-26900000D01*
X10540000Y-30200000D02*
X16537500Y-30200000D01*
X16537500Y-30200000D02*
X16537500Y-32400000D01*
X10540000Y-32400000D02*
X10540000Y-30200000D01*
%TO.N,IN_W4*%
X10540000Y-41600000D02*
X10540000Y-43800000D01*
X16537500Y-43800000D02*
X16537500Y-41600000D01*
X10540000Y-43800000D02*
X16537500Y-43800000D01*
X10540000Y-43800000D02*
X6537500Y-43800000D01*
X6537500Y-43800000D02*
X6537500Y-47100000D01*
%TO.N,IN_W5*%
X6537500Y-53200000D02*
X6537500Y-49900000D01*
X10540000Y-53200000D02*
X6537500Y-53200000D01*
X10540000Y-55400000D02*
X10540000Y-53200000D01*
X16537500Y-53200000D02*
X16537500Y-55400000D01*
X10540000Y-53200000D02*
X16537500Y-53200000D01*
%TO.N,IN_W6*%
X10540000Y-66800000D02*
X6537500Y-66800000D01*
X6537500Y-66800000D02*
X6537500Y-70100000D01*
X10540000Y-64599999D02*
X10540000Y-66800000D01*
X10540000Y-66800000D02*
X16537500Y-66800000D01*
X16537500Y-66800000D02*
X16537500Y-64599999D01*
%TO.N,OUT1*%
X13080000Y-9400000D02*
X13080000Y-8050000D01*
X48475000Y-8050000D02*
X48475000Y-9400000D01*
X26000000Y-75150000D02*
X26000000Y-76500000D01*
%TO.N,OUT2*%
X13080000Y-18600000D02*
X13080000Y-19950000D01*
X28540000Y-74385000D02*
X28540000Y-76500000D01*
X48475000Y-19950000D02*
X48475000Y-18600000D01*
%TO.N,OUT3*%
X48475000Y-31050000D02*
X48475000Y-32400000D01*
X13080000Y-32400000D02*
X13080000Y-31050000D01*
X31080000Y-73620000D02*
X31080000Y-76500000D01*
%TO.N,OUT4*%
X48475000Y-42950000D02*
X48475000Y-41600000D01*
X13080000Y-41600000D02*
X13080000Y-42950000D01*
X33620000Y-72855000D02*
X33620000Y-76500000D01*
%TO.N,OUT5*%
X13080000Y-55400000D02*
X13080000Y-54050000D01*
X48475000Y-54050000D02*
X48475000Y-55400000D01*
X36160000Y-72090000D02*
X36160000Y-76500000D01*
%TO.N,OUT6*%
X38700000Y-71325000D02*
X38700000Y-76500000D01*
X48475000Y-65950000D02*
X48475000Y-64599999D01*
X13080000Y-64599999D02*
X13080000Y-65950000D01*
%TO.N,SWN1*%
X51100000Y-12730000D02*
X51100000Y-15190000D01*
X47000000Y-12730000D02*
X51100000Y-12730000D01*
X47000000Y-12730000D02*
X47000000Y-3900000D01*
X30975000Y-12730000D02*
X47000000Y-12730000D01*
X47000000Y-3900000D02*
X45525000Y-3900000D01*
X38743700Y-3900000D02*
X37462500Y-3900000D01*
X51100000Y-15190000D02*
X61525000Y-15190000D01*
%TO.N,SWN2*%
X47000000Y-24100000D02*
X45525000Y-24100000D01*
X38743700Y-24100000D02*
X37462500Y-24100000D01*
X30975000Y-15270000D02*
X47000000Y-15270000D01*
X47000000Y-15270000D02*
X50400000Y-15270000D01*
X47000000Y-15270000D02*
X47000000Y-24100000D01*
X50400000Y-15270000D02*
X50400000Y-17730000D01*
X50400000Y-17730000D02*
X61525000Y-17730000D01*
%TO.N,SWN3*%
X47000000Y-35730000D02*
X47000000Y-26900000D01*
X47000000Y-26900000D02*
X45525000Y-26900000D01*
X38743700Y-26900000D02*
X37462500Y-26900000D01*
X51800000Y-25825000D02*
X66474999Y-25825000D01*
X66474999Y-25825000D02*
X66474999Y-22810000D01*
X51800000Y-35730000D02*
X51800000Y-25825000D01*
X30975000Y-35730000D02*
X47000000Y-35730000D01*
X47000000Y-35730000D02*
X51800000Y-35730000D01*
%TO.N,SWN4*%
X47000000Y-38270000D02*
X52500000Y-38270000D01*
X47000000Y-47100000D02*
X45525000Y-47100000D01*
X47000000Y-38270000D02*
X47000000Y-47100000D01*
X52500000Y-38270000D02*
X52500000Y-47190000D01*
X52500000Y-47190000D02*
X61525000Y-47190000D01*
X30975000Y-38270000D02*
X47000000Y-38270000D01*
X38743700Y-47100000D02*
X37462500Y-47100000D01*
%TO.N,SWN5*%
X53200000Y-58730000D02*
X53200000Y-49730000D01*
X47000000Y-49900000D02*
X45525000Y-49900000D01*
X47000000Y-58730000D02*
X53200000Y-58730000D01*
X47000000Y-58730000D02*
X47000000Y-49900000D01*
X38743700Y-49900000D02*
X37462500Y-49900000D01*
X53200000Y-49730000D02*
X61525000Y-49730000D01*
X30975000Y-58730000D02*
X47000000Y-58730000D01*
%TO.N,SWN6*%
X66474999Y-57825000D02*
X66474999Y-54810000D01*
X53900000Y-57825000D02*
X66474999Y-57825000D01*
X47000000Y-61270000D02*
X47000000Y-70100000D01*
X38743700Y-70100000D02*
X37462500Y-70100000D01*
X47000000Y-61270000D02*
X53900000Y-61270000D01*
X30975000Y-61270000D02*
X47000000Y-61270000D01*
X47000000Y-70100000D02*
X45525000Y-70100000D01*
X53900000Y-61270000D02*
X53900000Y-57825000D01*
%TO.N,SW_CTL*%
X59300000Y-20270000D02*
X59300000Y-24000000D01*
X52540000Y-74000000D02*
X52540000Y-76500000D01*
X59300000Y-34000000D02*
X60537500Y-34000000D01*
X59300000Y-39500000D02*
X70400000Y-39500000D01*
X61525000Y-20270000D02*
X59300000Y-20270000D01*
X66474999Y-16460000D02*
X70400000Y-16460000D01*
X61525000Y-21540000D02*
X59300000Y-21540000D01*
X66474999Y-48460000D02*
X70400000Y-48460000D01*
X59300000Y-52270000D02*
X61525000Y-52270000D01*
X59300000Y-42500000D02*
X59300000Y-45500000D01*
X59300000Y-51000000D02*
X59300000Y-53540000D01*
X59300000Y-32500000D02*
X59300000Y-35500000D01*
X59300000Y-53540000D02*
X61525000Y-53540000D01*
X59300000Y-44000000D02*
X60525000Y-44000000D01*
X70400000Y-74000000D02*
X52540000Y-74000000D01*
%TO.N,SW_TOG*%
X50000000Y-73000000D02*
X50000000Y-76500000D01*
X63462500Y-30000000D02*
X76800000Y-30000000D01*
X76800000Y-73000000D02*
X50000000Y-73000000D01*
%TO.N,V+*%
D16*
X26025000Y-37000000D02*
X27600000Y-37000000D01*
X41240000Y-76500000D02*
X41240000Y-78100000D01*
X26025000Y-60000000D02*
X27600000Y-60000000D01*
X60537500Y-30000000D02*
X60537500Y-31600000D01*
X26025000Y-14000000D02*
X27600000Y-14000000D01*
X72025000Y-62000000D02*
X72025000Y-63600000D01*
X66474999Y-15190000D02*
X64900000Y-15190000D01*
X66474999Y-47190000D02*
X64900000Y-47190000D01*
X72025000Y-8000000D02*
X72025000Y-9600000D01*
%TO.N,V-*%
D17*
X61525000Y-54810000D02*
X61525000Y-56000000D01*
X61525000Y-22810000D02*
X61525000Y-24000000D01*
X54650000Y-60000000D02*
X69000000Y-60000000D01*
X52000000Y-14000000D02*
X52000000Y-12000000D01*
X63462500Y-34000000D02*
X69000000Y-34000000D01*
X66474999Y-17730000D02*
X69000000Y-17730000D01*
X43780000Y-72000000D02*
X43780000Y-76500000D01*
X52000000Y-12000000D02*
X72025000Y-12000000D01*
X69000000Y-72000000D02*
X43780000Y-72000000D01*
X30975000Y-37000000D02*
X69000000Y-37000000D01*
X72025000Y-12000000D02*
X69000000Y-12000000D01*
X72025000Y-66000000D02*
X69000000Y-66000000D01*
X66474999Y-49730000D02*
X69000000Y-49730000D01*
X30975000Y-60000000D02*
X53000000Y-60000000D01*
X30975000Y-14000000D02*
X50000000Y-14000000D01*
%TD*%
M02*
