%TF.GenerationSoftware,KiCad,Pcbnew,10.0.5*%
%TF.CreationDate,2026-08-01T10:11:57+01:00*%
%TF.ProjectId,rmc-pizz-arco,726d632d-7069-47a7-9a2d-6172636f2e6b,rev?*%
%TF.SameCoordinates,Original*%
%TF.FileFunction,Soldermask,Top*%
%TF.FilePolarity,Negative*%
%FSLAX46Y46*%
G04 Gerber Fmt 4.6, Leading zero omitted, Abs format (unit mm)*
G04 Created by KiCad (PCBNEW 10.0.5) date 2026-08-01 10:11:57*
%MOMM*%
%LPD*%
G01*
G04 APERTURE LIST*
G04 Aperture macros list*
%AMRoundRect*
0 Rectangle with rounded corners*
0 $1 Rounding radius*
0 $2 $3 $4 $5 $6 $7 $8 $9 X,Y pos of 4 corners*
0 Add a 4 corners polygon primitive as box body*
4,1,4,$2,$3,$4,$5,$6,$7,$8,$9,$2,$3,0*
0 Add four circle primitives for the rounded corners*
1,1,$1+$1,$2,$3*
1,1,$1+$1,$4,$5*
1,1,$1+$1,$6,$7*
1,1,$1+$1,$8,$9*
0 Add four rect primitives between the rounded corners*
20,1,$1+$1,$2,$3,$4,$5,0*
20,1,$1+$1,$4,$5,$6,$7,0*
20,1,$1+$1,$6,$7,$8,$9,0*
20,1,$1+$1,$8,$9,$2,$3,0*%
G04 Aperture macros list end*
%ADD10RoundRect,0.250000X-0.312500X-0.625000X0.312500X-0.625000X0.312500X0.625000X-0.312500X0.625000X0*%
%ADD11RoundRect,0.150000X-0.825000X-0.150000X0.825000X-0.150000X0.825000X0.150000X-0.825000X0.150000X0*%
%ADD12RoundRect,0.250000X-0.325000X-0.650000X0.325000X-0.650000X0.325000X0.650000X-0.325000X0.650000X0*%
%ADD13R,1.700000X1.700000*%
%ADD14C,1.700000*%
G04 APERTURE END LIST*
D10*
%TO.C,R505*%
X34537500Y-49900000D03*
X37462500Y-49900000D03*
%TD*%
D11*
%TO.C,U2*%
X26025000Y-33190000D03*
X26025000Y-34460000D03*
X26025000Y-35730000D03*
X26025000Y-37000000D03*
X26025000Y-38270000D03*
X26025000Y-39540000D03*
X26025000Y-40810000D03*
X30975000Y-40810000D03*
X30975000Y-39540000D03*
X30975000Y-38270000D03*
X30975000Y-37000000D03*
X30975000Y-35730000D03*
X30975000Y-34460000D03*
X30975000Y-33190000D03*
%TD*%
D12*
%TO.C,C902*%
X72025000Y-12000000D03*
X74975000Y-12000000D03*
%TD*%
D13*
%TO.C,J5*%
X8000000Y-55400000D03*
D14*
X10540000Y-55400000D03*
X13080000Y-55400000D03*
%TD*%
D10*
%TO.C,R605*%
X34537500Y-70100000D03*
X37462500Y-70100000D03*
%TD*%
D12*
%TO.C,C201*%
X12025000Y-24100000D03*
X14975000Y-24100000D03*
%TD*%
D10*
%TO.C,R206*%
X40037500Y-18600000D03*
X42962500Y-18600000D03*
%TD*%
%TO.C,R702*%
X60537500Y-30000000D03*
X63462500Y-30000000D03*
%TD*%
D12*
%TO.C,C101*%
X12025000Y-3900000D03*
X14975000Y-3900000D03*
%TD*%
D13*
%TO.C,J6*%
X8000000Y-64599999D03*
D14*
X10540000Y-64599999D03*
X13080000Y-64599999D03*
%TD*%
D10*
%TO.C,R502*%
X6537500Y-49900000D03*
X9462500Y-49900000D03*
%TD*%
D12*
%TO.C,C701*%
X60525000Y-44000000D03*
X63475000Y-44000000D03*
%TD*%
D10*
%TO.C,R406*%
X40037500Y-41600000D03*
X42962500Y-41600000D03*
%TD*%
D11*
%TO.C,U5*%
X61525000Y-47190000D03*
X61525000Y-48460000D03*
X61525000Y-49730000D03*
X61525000Y-51000000D03*
X61525000Y-52270000D03*
X61525000Y-53540000D03*
X61525000Y-54810000D03*
X66475000Y-54810000D03*
X66475000Y-53540000D03*
X66475000Y-52270000D03*
X66475000Y-51000000D03*
X66475000Y-49730000D03*
X66475000Y-48460000D03*
X66475000Y-47190000D03*
%TD*%
D10*
%TO.C,R404*%
X34537500Y-41600000D03*
X37462500Y-41600000D03*
%TD*%
D12*
%TO.C,C602*%
X40025000Y-70100000D03*
X42975000Y-70100000D03*
%TD*%
D10*
%TO.C,R403*%
X21037500Y-47100000D03*
X23962500Y-47100000D03*
%TD*%
D12*
%TO.C,C603*%
X45525000Y-70100000D03*
X48475000Y-70100000D03*
%TD*%
D10*
%TO.C,R606*%
X40037500Y-64599999D03*
X42962500Y-64599999D03*
%TD*%
D12*
%TO.C,C302*%
X40025000Y-26900000D03*
X42975000Y-26900000D03*
%TD*%
D10*
%TO.C,R405*%
X34537500Y-47100000D03*
X37462500Y-47100000D03*
%TD*%
%TO.C,R104*%
X34537500Y-9400000D03*
X37462500Y-9400000D03*
%TD*%
%TO.C,R302*%
X6537500Y-26900000D03*
X9462500Y-26900000D03*
%TD*%
%TO.C,R701*%
X60537500Y-34000000D03*
X63462500Y-34000000D03*
%TD*%
%TO.C,R303*%
X21037500Y-26900000D03*
X23962500Y-26900000D03*
%TD*%
D12*
%TO.C,C504*%
X45525000Y-55400000D03*
X48475000Y-55400000D03*
%TD*%
%TO.C,C601*%
X12025000Y-70100000D03*
X14975000Y-70100000D03*
%TD*%
%TO.C,C501*%
X12025000Y-49900000D03*
X14975000Y-49900000D03*
%TD*%
%TO.C,C202*%
X40025000Y-24100000D03*
X42975000Y-24100000D03*
%TD*%
%TO.C,C301*%
X12025000Y-26900000D03*
X14975000Y-26900000D03*
%TD*%
%TO.C,C403*%
X45525000Y-47100000D03*
X48475000Y-47100000D03*
%TD*%
D10*
%TO.C,R202*%
X6537500Y-24100000D03*
X9462500Y-24100000D03*
%TD*%
D12*
%TO.C,C203*%
X45525000Y-24100000D03*
X48475000Y-24100000D03*
%TD*%
D10*
%TO.C,R102*%
X6537500Y-3900000D03*
X9462500Y-3900000D03*
%TD*%
D12*
%TO.C,C604*%
X45525000Y-64599999D03*
X48475000Y-64599999D03*
%TD*%
%TO.C,C304*%
X45525000Y-32400000D03*
X48475000Y-32400000D03*
%TD*%
D10*
%TO.C,R301*%
X16537500Y-32400000D03*
X19462500Y-32400000D03*
%TD*%
D12*
%TO.C,C103*%
X45525000Y-3900000D03*
X48475000Y-3900000D03*
%TD*%
D10*
%TO.C,R306*%
X40037500Y-32400000D03*
X42962500Y-32400000D03*
%TD*%
%TO.C,R203*%
X21037500Y-24100000D03*
X23962500Y-24100000D03*
%TD*%
%TO.C,R504*%
X34537500Y-55400000D03*
X37462500Y-55400000D03*
%TD*%
D11*
%TO.C,U3*%
X26025000Y-56190000D03*
X26025000Y-57460000D03*
X26025000Y-58730000D03*
X26025000Y-60000000D03*
X26025000Y-61270000D03*
X26025000Y-62540000D03*
X26025000Y-63810000D03*
X30975000Y-63810000D03*
X30975000Y-62540000D03*
X30975000Y-61270000D03*
X30975000Y-60000000D03*
X30975000Y-58730000D03*
X30975000Y-57460000D03*
X30975000Y-56190000D03*
%TD*%
D10*
%TO.C,R503*%
X21037500Y-49900000D03*
X23962500Y-49900000D03*
%TD*%
%TO.C,R506*%
X40037500Y-55400000D03*
X42962500Y-55400000D03*
%TD*%
D12*
%TO.C,C104*%
X45525000Y-9400000D03*
X48475000Y-9400000D03*
%TD*%
%TO.C,C204*%
X45525000Y-18600000D03*
X48475000Y-18600000D03*
%TD*%
D10*
%TO.C,R402*%
X6537500Y-47100000D03*
X9462500Y-47100000D03*
%TD*%
D11*
%TO.C,U4*%
X61525000Y-15190000D03*
X61525000Y-16460000D03*
X61525000Y-17730000D03*
X61525000Y-19000000D03*
X61525000Y-20270000D03*
X61525000Y-21540000D03*
X61525000Y-22810000D03*
X66475000Y-22810000D03*
X66475000Y-21540000D03*
X66475000Y-20270000D03*
X66475000Y-19000000D03*
X66475000Y-17730000D03*
X66475000Y-16460000D03*
X66475000Y-15190000D03*
%TD*%
D10*
%TO.C,R602*%
X6537500Y-70100000D03*
X9462500Y-70100000D03*
%TD*%
%TO.C,R101*%
X16537500Y-9400000D03*
X19462500Y-9400000D03*
%TD*%
%TO.C,R305*%
X34537500Y-26900000D03*
X37462500Y-26900000D03*
%TD*%
D13*
%TO.C,J7*%
X26000000Y-76500000D03*
D14*
X28540000Y-76500000D03*
X31080000Y-76500000D03*
X33620000Y-76500000D03*
X36160000Y-76500000D03*
X38700000Y-76500000D03*
X41240000Y-76500000D03*
X43780000Y-76500000D03*
X46320000Y-76500000D03*
%TD*%
D11*
%TO.C,U1*%
X26025000Y-10190000D03*
X26025000Y-11460000D03*
X26025000Y-12730000D03*
X26025000Y-14000000D03*
X26025000Y-15270000D03*
X26025000Y-16540000D03*
X26025000Y-17810000D03*
X30975000Y-17810000D03*
X30975000Y-16540000D03*
X30975000Y-15270000D03*
X30975000Y-14000000D03*
X30975000Y-12730000D03*
X30975000Y-11460000D03*
X30975000Y-10190000D03*
%TD*%
D10*
%TO.C,R204*%
X34537500Y-18600000D03*
X37462500Y-18600000D03*
%TD*%
D12*
%TO.C,C404*%
X45525000Y-41600000D03*
X48475000Y-41600000D03*
%TD*%
D10*
%TO.C,R103*%
X21037500Y-3900000D03*
X23962500Y-3900000D03*
%TD*%
D13*
%TO.C,J1*%
X8000000Y-9400000D03*
D14*
X10540000Y-9400000D03*
X13080000Y-9400000D03*
%TD*%
D10*
%TO.C,R201*%
X16537500Y-18600000D03*
X19462500Y-18600000D03*
%TD*%
D12*
%TO.C,C502*%
X40025000Y-49900000D03*
X42975000Y-49900000D03*
%TD*%
%TO.C,C102*%
X40025000Y-3900000D03*
X42975000Y-3900000D03*
%TD*%
D10*
%TO.C,R205*%
X34537500Y-24100000D03*
X37462500Y-24100000D03*
%TD*%
D13*
%TO.C,J3*%
X8000000Y-32400000D03*
D14*
X10540000Y-32400000D03*
X13080000Y-32400000D03*
%TD*%
D10*
%TO.C,R604*%
X34537500Y-64599999D03*
X37462500Y-64599999D03*
%TD*%
%TO.C,R106*%
X40037500Y-9400000D03*
X42962500Y-9400000D03*
%TD*%
%TO.C,R304*%
X34537500Y-32400000D03*
X37462500Y-32400000D03*
%TD*%
D13*
%TO.C,J8*%
X50000000Y-76500000D03*
D14*
X52540000Y-76500000D03*
%TD*%
D12*
%TO.C,C901*%
X72025000Y-8000000D03*
X74975000Y-8000000D03*
%TD*%
D13*
%TO.C,J2*%
X8000000Y-18600000D03*
D14*
X10540000Y-18600000D03*
X13080000Y-18600000D03*
%TD*%
D12*
%TO.C,C904*%
X72025000Y-66000000D03*
X74975000Y-66000000D03*
%TD*%
D13*
%TO.C,J4*%
X8000000Y-41600000D03*
D14*
X10540000Y-41600000D03*
X13080000Y-41600000D03*
%TD*%
D12*
%TO.C,C303*%
X45525000Y-26900000D03*
X48475000Y-26900000D03*
%TD*%
%TO.C,C503*%
X45525000Y-49900000D03*
X48475000Y-49900000D03*
%TD*%
D10*
%TO.C,R401*%
X16537500Y-41600000D03*
X19462500Y-41600000D03*
%TD*%
%TO.C,R105*%
X34537500Y-3900000D03*
X37462500Y-3900000D03*
%TD*%
%TO.C,R601*%
X16537500Y-64599999D03*
X19462500Y-64599999D03*
%TD*%
D12*
%TO.C,C402*%
X40025000Y-47100000D03*
X42975000Y-47100000D03*
%TD*%
D10*
%TO.C,R501*%
X16537500Y-55400000D03*
X19462500Y-55400000D03*
%TD*%
D12*
%TO.C,C903*%
X72025000Y-62000000D03*
X74975000Y-62000000D03*
%TD*%
%TO.C,C401*%
X12025000Y-47100000D03*
X14975000Y-47100000D03*
%TD*%
D10*
%TO.C,R603*%
X21037500Y-70100000D03*
X23962500Y-70100000D03*
%TD*%
M02*
