%TF.GenerationSoftware,KiCad,Pcbnew,10.0.5*%
%TF.CreationDate,2026-07-30T11:09:05+01:00*%
%TF.ProjectId,rmc-pizz-arco,726d632d-7069-47a7-9a2d-6172636f2e6b,rev?*%
%TF.SameCoordinates,Original*%
%TF.FileFunction,Copper,L1,Top*%
%TF.FilePolarity,Positive*%
%FSLAX46Y46*%
G04 Gerber Fmt 4.6, Leading zero omitted, Abs format (unit mm)*
G04 Created by KiCad (PCBNEW 10.0.5) date 2026-07-30 11:09:05*
%MOMM*%
%LPD*%
G01*
G04 APERTURE LIST*
G04 Aperture macros list*
%AMRoundRect*
0 Rectangle with rounded corners*
0 $1 Rounding radius*
0 $2 $3 $4 $5 $6 $7 $8 $9 X,Y pos of 4 corners*
0 Add a 4 corners polygon primitive as box body*
4,1,4,$2,$3,$4,$5,$6,$7,$8,$9,$2,$3,0*
0 Add four circle primitives for the rounded corners*
1,1,$1+$1,$2,$3*
1,1,$1+$1,$4,$5*
1,1,$1+$1,$6,$7*
1,1,$1+$1,$8,$9*
0 Add four rect primitives between the rounded corners*
20,1,$1+$1,$2,$3,$4,$5,0*
20,1,$1+$1,$4,$5,$6,$7,0*
20,1,$1+$1,$6,$7,$8,$9,0*
20,1,$1+$1,$8,$9,$2,$3,0*%
G04 Aperture macros list end*
%TA.AperFunction,SMDPad,CuDef*%
%ADD10RoundRect,0.250000X0.250000X0.475000X-0.250000X0.475000X-0.250000X-0.475000X0.250000X-0.475000X0*%
%TD*%
%TA.AperFunction,SMDPad,CuDef*%
%ADD11RoundRect,0.250000X-0.262500X-0.450000X0.262500X-0.450000X0.262500X0.450000X-0.262500X0.450000X0*%
%TD*%
%TA.AperFunction,SMDPad,CuDef*%
%ADD12RoundRect,0.250000X-0.250000X-0.475000X0.250000X-0.475000X0.250000X0.475000X-0.250000X0.475000X0*%
%TD*%
%TA.AperFunction,SMDPad,CuDef*%
%ADD13RoundRect,0.250000X-0.475000X0.250000X-0.475000X-0.250000X0.475000X-0.250000X0.475000X0.250000X0*%
%TD*%
%TA.AperFunction,ComponentPad*%
%ADD14R,1.700000X1.700000*%
%TD*%
%TA.AperFunction,ComponentPad*%
%ADD15C,1.700000*%
%TD*%
%TA.AperFunction,SMDPad,CuDef*%
%ADD16RoundRect,0.250000X0.450000X-0.262500X0.450000X0.262500X-0.450000X0.262500X-0.450000X-0.262500X0*%
%TD*%
%TA.AperFunction,SMDPad,CuDef*%
%ADD17RoundRect,0.150000X-0.825000X-0.150000X0.825000X-0.150000X0.825000X0.150000X-0.825000X0.150000X0*%
%TD*%
%TA.AperFunction,SMDPad,CuDef*%
%ADD18RoundRect,0.250000X-0.450000X0.262500X-0.450000X-0.262500X0.450000X-0.262500X0.450000X0.262500X0*%
%TD*%
%TA.AperFunction,SMDPad,CuDef*%
%ADD19RoundRect,0.250000X0.262500X0.450000X-0.262500X0.450000X-0.262500X-0.450000X0.262500X-0.450000X0*%
%TD*%
%TA.AperFunction,SMDPad,CuDef*%
%ADD20RoundRect,0.250000X-0.375000X-0.625000X0.375000X-0.625000X0.375000X0.625000X-0.375000X0.625000X0*%
%TD*%
%TA.AperFunction,SMDPad,CuDef*%
%ADD21RoundRect,0.225000X0.225000X0.375000X-0.225000X0.375000X-0.225000X-0.375000X0.225000X-0.375000X0*%
%TD*%
%TA.AperFunction,SMDPad,CuDef*%
%ADD22R,1.000000X1.500000*%
%TD*%
%TA.AperFunction,SMDPad,CuDef*%
%ADD23RoundRect,0.250000X-1.000000X-0.650000X1.000000X-0.650000X1.000000X0.650000X-1.000000X0.650000X0*%
%TD*%
%TA.AperFunction,SMDPad,CuDef*%
%ADD24RoundRect,0.250000X-1.500000X-0.550000X1.500000X-0.550000X1.500000X0.550000X-1.500000X0.550000X0*%
%TD*%
%TA.AperFunction,ViaPad*%
%ADD25C,0.600000*%
%TD*%
%TA.AperFunction,Conductor*%
%ADD26C,0.500000*%
%TD*%
%TA.AperFunction,Conductor*%
%ADD27C,0.250000*%
%TD*%
G04 APERTURE END LIST*
D10*
%TO.P,C307,1*%
%TO.N,V-*%
X22450000Y-42300000D03*
%TO.P,C307,2*%
%TO.N,AGND*%
X20550000Y-42300000D03*
%TD*%
D11*
%TO.P,R205,1*%
%TO.N,BUFOUT2*%
X40087500Y-30500000D03*
%TO.P,R205,2*%
%TO.N,SWN2*%
X41912500Y-30500000D03*
%TD*%
D12*
%TO.P,C704,1*%
%TO.N,V+*%
X41550000Y-100500000D03*
%TO.P,C704,2*%
%TO.N,V-*%
X43450000Y-100500000D03*
%TD*%
%TO.P,C705,1*%
%TO.N,MIDREF*%
X51050000Y-105000000D03*
%TO.P,C705,2*%
%TO.N,V-*%
X52950000Y-105000000D03*
%TD*%
D13*
%TO.P,C601,1*%
%TO.N,BUFIN6*%
X18000000Y-81635000D03*
%TO.P,C601,2*%
%TO.N,AGND*%
X18000000Y-83535000D03*
%TD*%
D14*
%TO.P,J3,1*%
%TO.N,AGND*%
X6500000Y-34000000D03*
D15*
%TO.P,J3,2*%
%TO.N,IN_W3*%
X6500000Y-36540000D03*
%TO.P,J3,3*%
%TO.N,OUT3*%
X6500000Y-39080000D03*
%TD*%
D16*
%TO.P,R503,1*%
%TO.N,BUFFB5*%
X22300000Y-66642500D03*
%TO.P,R503,2*%
%TO.N,BUFOUT5*%
X22300000Y-64817500D03*
%TD*%
D12*
%TO.P,C803,1*%
%TO.N,V+*%
X81050000Y-48000000D03*
%TO.P,C803,2*%
%TO.N,AGND*%
X82950000Y-48000000D03*
%TD*%
%TO.P,C402,1*%
%TO.N,APN4*%
X40050000Y-49200000D03*
%TO.P,C402,2*%
%TO.N,APOUT4*%
X41950000Y-49200000D03*
%TD*%
D11*
%TO.P,R505,1*%
%TO.N,BUFOUT5*%
X40087500Y-72500000D03*
%TO.P,R505,2*%
%TO.N,SWN5*%
X41912500Y-72500000D03*
%TD*%
D10*
%TO.P,C207,1*%
%TO.N,V-*%
X22450000Y-28300000D03*
%TO.P,C207,2*%
%TO.N,AGND*%
X20550000Y-28300000D03*
%TD*%
D17*
%TO.P,U6,1*%
%TO.N,BUFOUT6*%
X24525000Y-79095000D03*
%TO.P,U6,2*%
%TO.N,BUFFB6*%
X24525000Y-80365000D03*
%TO.P,U6,3*%
%TO.N,BUFIN6*%
X24525000Y-81635000D03*
%TO.P,U6,4*%
%TO.N,V-*%
X24525000Y-82905000D03*
%TO.P,U6,5*%
%TO.N,SWN6*%
X29475000Y-82905000D03*
%TO.P,U6,6*%
%TO.N,APN6*%
X29475000Y-81635000D03*
%TO.P,U6,7*%
%TO.N,APOUT6*%
X29475000Y-80365000D03*
%TO.P,U6,8*%
%TO.N,V+*%
X29475000Y-79095000D03*
%TD*%
D18*
%TO.P,R302,1*%
%TO.N,IN_W3*%
X10500000Y-39634500D03*
%TO.P,R302,2*%
%TO.N,AGND*%
X10500000Y-41459500D03*
%TD*%
D14*
%TO.P,J7,1*%
%TO.N,OUT1*%
X64000000Y-2000000D03*
D15*
%TO.P,J7,2*%
%TO.N,OUT2*%
X64000000Y-4540000D03*
%TO.P,J7,3*%
%TO.N,OUT3*%
X64000000Y-7080000D03*
%TO.P,J7,4*%
%TO.N,OUT4*%
X64000000Y-9620000D03*
%TO.P,J7,5*%
%TO.N,OUT5*%
X64000000Y-12160000D03*
%TO.P,J7,6*%
%TO.N,OUT6*%
X64000000Y-14700000D03*
%TO.P,J7,7*%
%TO.N,AGND*%
X64000000Y-17240000D03*
%TO.P,J7,8*%
%TO.N,DIN8*%
X64000000Y-19780000D03*
%TD*%
D11*
%TO.P,R204,1*%
%TO.N,BUFOUT2*%
X35087500Y-30500000D03*
%TO.P,R204,2*%
%TO.N,APN2*%
X36912500Y-30500000D03*
%TD*%
D14*
%TO.P,J4,1*%
%TO.N,AGND*%
X6500000Y-48000000D03*
D15*
%TO.P,J4,2*%
%TO.N,IN_W4*%
X6500000Y-50540000D03*
%TO.P,J4,3*%
%TO.N,OUT4*%
X6500000Y-53080000D03*
%TD*%
D11*
%TO.P,R305,1*%
%TO.N,BUFOUT3*%
X40087500Y-44500000D03*
%TO.P,R305,2*%
%TO.N,SWN3*%
X41912500Y-44500000D03*
%TD*%
D14*
%TO.P,J2,1*%
%TO.N,AGND*%
X6500000Y-20000000D03*
D15*
%TO.P,J2,2*%
%TO.N,IN_W2*%
X6500000Y-22540000D03*
%TO.P,J2,3*%
%TO.N,OUT2*%
X6500000Y-25080000D03*
%TD*%
D16*
%TO.P,R303,1*%
%TO.N,BUFFB3*%
X22300000Y-38642500D03*
%TO.P,R303,2*%
%TO.N,BUFOUT3*%
X22300000Y-36817500D03*
%TD*%
D12*
%TO.P,C504,1*%
%TO.N,APOUT5*%
X45050000Y-63200000D03*
%TO.P,C504,2*%
%TO.N,OUT5*%
X46950000Y-63200000D03*
%TD*%
D11*
%TO.P,R104,1*%
%TO.N,BUFOUT1*%
X35087500Y-16500000D03*
%TO.P,R104,2*%
%TO.N,APN1*%
X36912500Y-16500000D03*
%TD*%
D18*
%TO.P,R402,1*%
%TO.N,IN_W4*%
X10500000Y-53634500D03*
%TO.P,R402,2*%
%TO.N,AGND*%
X10500000Y-55459500D03*
%TD*%
D12*
%TO.P,C106,1*%
%TO.N,V+*%
X29550000Y-7200000D03*
%TO.P,C106,2*%
%TO.N,AGND*%
X31450000Y-7200000D03*
%TD*%
%TO.P,C105,1*%
%TO.N,APOUT1*%
X45050000Y-10000000D03*
%TO.P,C105,2*%
%TO.N,OUT1*%
X46950000Y-10000000D03*
%TD*%
D14*
%TO.P,J9,1*%
%TO.N,VIN*%
X4000000Y-100500000D03*
D15*
%TO.P,J9,2*%
%TO.N,V-*%
X4000000Y-103040000D03*
%TD*%
D11*
%TO.P,R206,1*%
%TO.N,APN2*%
X35087500Y-21200000D03*
%TO.P,R206,2*%
%TO.N,APOUT2*%
X36912500Y-21200000D03*
%TD*%
%TO.P,R404,1*%
%TO.N,BUFOUT4*%
X35087500Y-58500000D03*
%TO.P,R404,2*%
%TO.N,APN4*%
X36912500Y-58500000D03*
%TD*%
D14*
%TO.P,J6,1*%
%TO.N,AGND*%
X6500000Y-76000000D03*
D15*
%TO.P,J6,2*%
%TO.N,IN_W6*%
X6500000Y-78540000D03*
%TO.P,J6,3*%
%TO.N,OUT6*%
X6500000Y-81080000D03*
%TD*%
D12*
%TO.P,C806,1*%
%TO.N,V-*%
X81050000Y-88000000D03*
%TO.P,C806,2*%
%TO.N,AGND*%
X82950000Y-88000000D03*
%TD*%
%TO.P,C606,1*%
%TO.N,V+*%
X29550000Y-77200000D03*
%TO.P,C606,2*%
%TO.N,AGND*%
X31450000Y-77200000D03*
%TD*%
%TO.P,C306,1*%
%TO.N,V+*%
X29550000Y-35200000D03*
%TO.P,C306,2*%
%TO.N,AGND*%
X31450000Y-35200000D03*
%TD*%
%TO.P,C403,1*%
%TO.N,SWN4*%
X45050000Y-58500000D03*
%TO.P,C403,2*%
%TO.N,AGND*%
X46950000Y-58500000D03*
%TD*%
D11*
%TO.P,R606,1*%
%TO.N,APN6*%
X35087500Y-77200000D03*
%TO.P,R606,2*%
%TO.N,APOUT6*%
X36912500Y-77200000D03*
%TD*%
D13*
%TO.P,C501,1*%
%TO.N,BUFIN5*%
X18000000Y-67635000D03*
%TO.P,C501,2*%
%TO.N,AGND*%
X18000000Y-69535000D03*
%TD*%
D12*
%TO.P,C707,1*%
%TO.N,AGND*%
X65050000Y-103000000D03*
%TO.P,C707,2*%
%TO.N,V-*%
X66950000Y-103000000D03*
%TD*%
D19*
%TO.P,R703,1*%
%TO.N,MIDREF*%
X47912500Y-103000000D03*
%TO.P,R703,2*%
%TO.N,V-*%
X46087500Y-103000000D03*
%TD*%
D10*
%TO.P,C507,1*%
%TO.N,V-*%
X22450000Y-70300000D03*
%TO.P,C507,2*%
%TO.N,AGND*%
X20550000Y-70300000D03*
%TD*%
D13*
%TO.P,C201,1*%
%TO.N,BUFIN2*%
X18000000Y-25635000D03*
%TO.P,C201,2*%
%TO.N,AGND*%
X18000000Y-27535000D03*
%TD*%
D12*
%TO.P,C802,1*%
%TO.N,V-*%
X81050000Y-30000000D03*
%TO.P,C802,2*%
%TO.N,AGND*%
X82950000Y-30000000D03*
%TD*%
%TO.P,C506,1*%
%TO.N,V+*%
X29550000Y-63200000D03*
%TO.P,C506,2*%
%TO.N,AGND*%
X31450000Y-63200000D03*
%TD*%
D13*
%TO.P,C401,1*%
%TO.N,BUFIN4*%
X18000000Y-53635000D03*
%TO.P,C401,2*%
%TO.N,AGND*%
X18000000Y-55535000D03*
%TD*%
D11*
%TO.P,R301,1*%
%TO.N,IN_W3*%
X14087500Y-39635000D03*
%TO.P,R301,2*%
%TO.N,BUFIN3*%
X15912500Y-39635000D03*
%TD*%
D16*
%TO.P,R603,1*%
%TO.N,BUFFB6*%
X22300000Y-80642500D03*
%TO.P,R603,2*%
%TO.N,BUFOUT6*%
X22300000Y-78817500D03*
%TD*%
D11*
%TO.P,R306,1*%
%TO.N,APN3*%
X35087500Y-35200000D03*
%TO.P,R306,2*%
%TO.N,APOUT3*%
X36912500Y-35200000D03*
%TD*%
%TO.P,R304,1*%
%TO.N,BUFOUT3*%
X35087500Y-44500000D03*
%TO.P,R304,2*%
%TO.N,APN3*%
X36912500Y-44500000D03*
%TD*%
D17*
%TO.P,U7,1*%
%TO.N,AGND_DRV*%
X55525000Y-98595000D03*
%TO.P,U7,2*%
%TO.N,AGND*%
X55525000Y-99865000D03*
%TO.P,U7,3*%
%TO.N,MIDREF*%
X55525000Y-101135000D03*
%TO.P,U7,4*%
%TO.N,V-*%
X55525000Y-102405000D03*
%TO.P,U7,5*%
%TO.N,AGND*%
X60475000Y-102405000D03*
%TO.P,U7,6*%
%TO.N,SPARE*%
X60475000Y-101135000D03*
%TO.P,U7,7*%
X60475000Y-99865000D03*
%TO.P,U7,8*%
%TO.N,V+*%
X60475000Y-98595000D03*
%TD*%
D18*
%TO.P,R102,1*%
%TO.N,IN_W1*%
X10500000Y-11634500D03*
%TO.P,R102,2*%
%TO.N,AGND*%
X10500000Y-13459500D03*
%TD*%
D11*
%TO.P,R601,1*%
%TO.N,IN_W6*%
X14087500Y-81635000D03*
%TO.P,R601,2*%
%TO.N,BUFIN6*%
X15912500Y-81635000D03*
%TD*%
D12*
%TO.P,C801,1*%
%TO.N,V+*%
X81050000Y-22000000D03*
%TO.P,C801,2*%
%TO.N,AGND*%
X82950000Y-22000000D03*
%TD*%
%TO.P,C603,1*%
%TO.N,SWN6*%
X45050000Y-86500000D03*
%TO.P,C603,2*%
%TO.N,AGND*%
X46950000Y-86500000D03*
%TD*%
%TO.P,C104,1*%
%TO.N,APOUT1*%
X45050000Y-7200000D03*
%TO.P,C104,2*%
%TO.N,OUT1*%
X46950000Y-7200000D03*
%TD*%
D18*
%TO.P,R602,1*%
%TO.N,IN_W6*%
X10500000Y-81634500D03*
%TO.P,R602,2*%
%TO.N,AGND*%
X10500000Y-83459500D03*
%TD*%
D12*
%TO.P,C204,1*%
%TO.N,APOUT2*%
X45050000Y-21200000D03*
%TO.P,C204,2*%
%TO.N,OUT2*%
X46950000Y-21200000D03*
%TD*%
D11*
%TO.P,R604,1*%
%TO.N,BUFOUT6*%
X35087500Y-86500000D03*
%TO.P,R604,2*%
%TO.N,APN6*%
X36912500Y-86500000D03*
%TD*%
D12*
%TO.P,C605,1*%
%TO.N,APOUT6*%
X45050000Y-80000000D03*
%TO.P,C605,2*%
%TO.N,OUT6*%
X46950000Y-80000000D03*
%TD*%
D16*
%TO.P,R403,1*%
%TO.N,BUFFB4*%
X22300000Y-52642500D03*
%TO.P,R403,2*%
%TO.N,BUFOUT4*%
X22300000Y-50817500D03*
%TD*%
D11*
%TO.P,R504,1*%
%TO.N,BUFOUT5*%
X35087500Y-72500000D03*
%TO.P,R504,2*%
%TO.N,APN5*%
X36912500Y-72500000D03*
%TD*%
D17*
%TO.P,U5,1*%
%TO.N,BUFOUT5*%
X24525000Y-65095000D03*
%TO.P,U5,2*%
%TO.N,BUFFB5*%
X24525000Y-66365000D03*
%TO.P,U5,3*%
%TO.N,BUFIN5*%
X24525000Y-67635000D03*
%TO.P,U5,4*%
%TO.N,V-*%
X24525000Y-68905000D03*
%TO.P,U5,5*%
%TO.N,SWN5*%
X29475000Y-68905000D03*
%TO.P,U5,6*%
%TO.N,APN5*%
X29475000Y-67635000D03*
%TO.P,U5,7*%
%TO.N,APOUT5*%
X29475000Y-66365000D03*
%TO.P,U5,8*%
%TO.N,V+*%
X29475000Y-65095000D03*
%TD*%
D11*
%TO.P,R101,1*%
%TO.N,IN_W1*%
X14087500Y-11635000D03*
%TO.P,R101,2*%
%TO.N,BUFIN1*%
X15912500Y-11635000D03*
%TD*%
D12*
%TO.P,C709,1*%
%TO.N,V-*%
X71050000Y-103000000D03*
%TO.P,C709,2*%
%TO.N,AGND*%
X72950000Y-103000000D03*
%TD*%
D13*
%TO.P,C101,1*%
%TO.N,BUFIN1*%
X18000000Y-11635000D03*
%TO.P,C101,2*%
%TO.N,AGND*%
X18000000Y-13535000D03*
%TD*%
D10*
%TO.P,C607,1*%
%TO.N,V-*%
X22450000Y-84300000D03*
%TO.P,C607,2*%
%TO.N,AGND*%
X20550000Y-84300000D03*
%TD*%
D12*
%TO.P,C206,1*%
%TO.N,V+*%
X29550000Y-21200000D03*
%TO.P,C206,2*%
%TO.N,AGND*%
X31450000Y-21200000D03*
%TD*%
D17*
%TO.P,U10,1*%
%TO.N,SWN5*%
X67525000Y-80190000D03*
%TO.P,U10,2*%
%TO.N,AGND*%
X67525000Y-81460000D03*
%TO.P,U10,3*%
%TO.N,SWN6*%
X67525000Y-82730000D03*
%TO.P,U10,4*%
%TO.N,AGND*%
X67525000Y-84000000D03*
%TO.P,U10,5*%
%TO.N,SW_CTL*%
X67525000Y-85270000D03*
%TO.P,U10,6*%
%TO.N,V-*%
X67525000Y-86540000D03*
%TO.P,U10,7*%
X67525000Y-87810000D03*
%TO.P,U10,8*%
%TO.N,AGND*%
X72475000Y-87810000D03*
%TO.P,U10,9*%
X72475000Y-86540000D03*
%TO.P,U10,10*%
X72475000Y-85270000D03*
%TO.P,U10,11*%
X72475000Y-84000000D03*
%TO.P,U10,12*%
%TO.N,V-*%
X72475000Y-82730000D03*
%TO.P,U10,13*%
%TO.N,SW_CTL*%
X72475000Y-81460000D03*
%TO.P,U10,14*%
%TO.N,V+*%
X72475000Y-80190000D03*
%TD*%
D12*
%TO.P,C708,1*%
%TO.N,V+*%
X71050000Y-98000000D03*
%TO.P,C708,2*%
%TO.N,AGND*%
X72950000Y-98000000D03*
%TD*%
%TO.P,C604,1*%
%TO.N,APOUT6*%
X45050000Y-77200000D03*
%TO.P,C604,2*%
%TO.N,OUT6*%
X46950000Y-77200000D03*
%TD*%
D17*
%TO.P,U2,1*%
%TO.N,BUFOUT2*%
X24525000Y-23095000D03*
%TO.P,U2,2*%
%TO.N,BUFFB2*%
X24525000Y-24365000D03*
%TO.P,U2,3*%
%TO.N,BUFIN2*%
X24525000Y-25635000D03*
%TO.P,U2,4*%
%TO.N,V-*%
X24525000Y-26905000D03*
%TO.P,U2,5*%
%TO.N,SWN2*%
X29475000Y-26905000D03*
%TO.P,U2,6*%
%TO.N,APN2*%
X29475000Y-25635000D03*
%TO.P,U2,7*%
%TO.N,APOUT2*%
X29475000Y-24365000D03*
%TO.P,U2,8*%
%TO.N,V+*%
X29475000Y-23095000D03*
%TD*%
D18*
%TO.P,R202,1*%
%TO.N,IN_W2*%
X10500000Y-25634500D03*
%TO.P,R202,2*%
%TO.N,AGND*%
X10500000Y-27459500D03*
%TD*%
D11*
%TO.P,R506,1*%
%TO.N,APN5*%
X35087500Y-63200000D03*
%TO.P,R506,2*%
%TO.N,APOUT5*%
X36912500Y-63200000D03*
%TD*%
D12*
%TO.P,C305,1*%
%TO.N,APOUT3*%
X45050000Y-38000000D03*
%TO.P,C305,2*%
%TO.N,OUT3*%
X46950000Y-38000000D03*
%TD*%
D20*
%TO.P,F701,1*%
%TO.N,VIN*%
X8600000Y-100500000D03*
%TO.P,F701,2*%
%TO.N,VFUSED*%
X11400000Y-100500000D03*
%TD*%
D14*
%TO.P,J1,1*%
%TO.N,AGND*%
X6500000Y-6000000D03*
D15*
%TO.P,J1,2*%
%TO.N,IN_W1*%
X6500000Y-8540000D03*
%TO.P,J1,3*%
%TO.N,OUT1*%
X6500000Y-11080000D03*
%TD*%
D14*
%TO.P,J8,1*%
%TO.N,SW_CTL*%
X80000000Y-64000000D03*
D15*
%TO.P,J8,2*%
%TO.N,V+*%
X80000000Y-66540000D03*
%TD*%
D12*
%TO.P,C805,1*%
%TO.N,V+*%
X81050000Y-80000000D03*
%TO.P,C805,2*%
%TO.N,AGND*%
X82950000Y-80000000D03*
%TD*%
%TO.P,C706,1*%
%TO.N,AGND*%
X65050000Y-98000000D03*
%TO.P,C706,2*%
%TO.N,V+*%
X66950000Y-98000000D03*
%TD*%
D21*
%TO.P,D701,1*%
%TO.N,V+*%
X17650000Y-100500000D03*
%TO.P,D701,2*%
%TO.N,VFUSED*%
X14350000Y-100500000D03*
%TD*%
D12*
%TO.P,C502,1*%
%TO.N,APN5*%
X40050000Y-63200000D03*
%TO.P,C502,2*%
%TO.N,APOUT5*%
X41950000Y-63200000D03*
%TD*%
%TO.P,C103,1*%
%TO.N,SWN1*%
X45050000Y-16500000D03*
%TO.P,C103,2*%
%TO.N,AGND*%
X46950000Y-16500000D03*
%TD*%
D11*
%TO.P,R702,1*%
%TO.N,V+*%
X46087500Y-97000000D03*
%TO.P,R702,2*%
%TO.N,MIDREF*%
X47912500Y-97000000D03*
%TD*%
%TO.P,R401,1*%
%TO.N,IN_W4*%
X14087500Y-53635000D03*
%TO.P,R401,2*%
%TO.N,BUFIN4*%
X15912500Y-53635000D03*
%TD*%
D22*
%TO.P,JP1,1*%
%TO.N,DIN8*%
X68350000Y-19780000D03*
%TO.P,JP1,2*%
%TO.N,AGND*%
X69650000Y-19780000D03*
%TD*%
D17*
%TO.P,U1,1*%
%TO.N,BUFOUT1*%
X24525000Y-9095000D03*
%TO.P,U1,2*%
%TO.N,BUFFB1*%
X24525000Y-10365000D03*
%TO.P,U1,3*%
%TO.N,BUFIN1*%
X24525000Y-11635000D03*
%TO.P,U1,4*%
%TO.N,V-*%
X24525000Y-12905000D03*
%TO.P,U1,5*%
%TO.N,SWN1*%
X29475000Y-12905000D03*
%TO.P,U1,6*%
%TO.N,APN1*%
X29475000Y-11635000D03*
%TO.P,U1,7*%
%TO.N,APOUT1*%
X29475000Y-10365000D03*
%TO.P,U1,8*%
%TO.N,V+*%
X29475000Y-9095000D03*
%TD*%
D11*
%TO.P,R106,1*%
%TO.N,APN1*%
X35087500Y-7200000D03*
%TO.P,R106,2*%
%TO.N,APOUT1*%
X36912500Y-7200000D03*
%TD*%
%TO.P,R406,1*%
%TO.N,APN4*%
X35087500Y-49200000D03*
%TO.P,R406,2*%
%TO.N,APOUT4*%
X36912500Y-49200000D03*
%TD*%
D12*
%TO.P,C503,1*%
%TO.N,SWN5*%
X45050000Y-72500000D03*
%TO.P,C503,2*%
%TO.N,AGND*%
X46950000Y-72500000D03*
%TD*%
D11*
%TO.P,R605,1*%
%TO.N,BUFOUT6*%
X40087500Y-86500000D03*
%TO.P,R605,2*%
%TO.N,SWN6*%
X41912500Y-86500000D03*
%TD*%
D12*
%TO.P,C302,1*%
%TO.N,APN3*%
X40050000Y-35200000D03*
%TO.P,C302,2*%
%TO.N,APOUT3*%
X41950000Y-35200000D03*
%TD*%
D11*
%TO.P,R105,1*%
%TO.N,BUFOUT1*%
X40087500Y-16500000D03*
%TO.P,R105,2*%
%TO.N,SWN1*%
X41912500Y-16500000D03*
%TD*%
D16*
%TO.P,R103,1*%
%TO.N,BUFFB1*%
X22300000Y-10642500D03*
%TO.P,R103,2*%
%TO.N,BUFOUT1*%
X22300000Y-8817500D03*
%TD*%
D10*
%TO.P,C107,1*%
%TO.N,V-*%
X22450000Y-14300000D03*
%TO.P,C107,2*%
%TO.N,AGND*%
X20550000Y-14300000D03*
%TD*%
D11*
%TO.P,R501,1*%
%TO.N,IN_W5*%
X14087500Y-67635000D03*
%TO.P,R501,2*%
%TO.N,BUFIN5*%
X15912500Y-67635000D03*
%TD*%
D12*
%TO.P,C102,1*%
%TO.N,APN1*%
X40050000Y-7200000D03*
%TO.P,C102,2*%
%TO.N,APOUT1*%
X41950000Y-7200000D03*
%TD*%
D23*
%TO.P,D702,1*%
%TO.N,V+*%
X20000000Y-100500000D03*
%TO.P,D702,2*%
%TO.N,V-*%
X24000000Y-100500000D03*
%TD*%
D11*
%TO.P,R701,1*%
%TO.N,SW_CTL*%
X73087500Y-68000000D03*
%TO.P,R701,2*%
%TO.N,V-*%
X74912500Y-68000000D03*
%TD*%
D12*
%TO.P,C804,1*%
%TO.N,V-*%
X81050000Y-56000000D03*
%TO.P,C804,2*%
%TO.N,AGND*%
X82950000Y-56000000D03*
%TD*%
D17*
%TO.P,U9,1*%
%TO.N,SWN3*%
X67525000Y-48190000D03*
%TO.P,U9,2*%
%TO.N,AGND*%
X67525000Y-49460000D03*
%TO.P,U9,3*%
%TO.N,SWN4*%
X67525000Y-50730000D03*
%TO.P,U9,4*%
%TO.N,AGND*%
X67525000Y-52000000D03*
%TO.P,U9,5*%
%TO.N,SW_CTL*%
X67525000Y-53270000D03*
%TO.P,U9,6*%
%TO.N,V-*%
X67525000Y-54540000D03*
%TO.P,U9,7*%
X67525000Y-55810000D03*
%TO.P,U9,8*%
%TO.N,AGND*%
X72475000Y-55810000D03*
%TO.P,U9,9*%
X72475000Y-54540000D03*
%TO.P,U9,10*%
X72475000Y-53270000D03*
%TO.P,U9,11*%
X72475000Y-52000000D03*
%TO.P,U9,12*%
%TO.N,V-*%
X72475000Y-50730000D03*
%TO.P,U9,13*%
%TO.N,SW_CTL*%
X72475000Y-49460000D03*
%TO.P,U9,14*%
%TO.N,V+*%
X72475000Y-48190000D03*
%TD*%
D12*
%TO.P,C205,1*%
%TO.N,APOUT2*%
X45050000Y-24000000D03*
%TO.P,C205,2*%
%TO.N,OUT2*%
X46950000Y-24000000D03*
%TD*%
%TO.P,C505,1*%
%TO.N,APOUT5*%
X45050000Y-66000000D03*
%TO.P,C505,2*%
%TO.N,OUT5*%
X46950000Y-66000000D03*
%TD*%
D19*
%TO.P,R704,1*%
%TO.N,AGND_DRV*%
X52912500Y-98595000D03*
%TO.P,R704,2*%
%TO.N,AGND*%
X51087500Y-98595000D03*
%TD*%
D12*
%TO.P,C404,1*%
%TO.N,APOUT4*%
X45050000Y-49200000D03*
%TO.P,C404,2*%
%TO.N,OUT4*%
X46950000Y-49200000D03*
%TD*%
D17*
%TO.P,U4,1*%
%TO.N,BUFOUT4*%
X24525000Y-51095000D03*
%TO.P,U4,2*%
%TO.N,BUFFB4*%
X24525000Y-52365000D03*
%TO.P,U4,3*%
%TO.N,BUFIN4*%
X24525000Y-53635000D03*
%TO.P,U4,4*%
%TO.N,V-*%
X24525000Y-54905000D03*
%TO.P,U4,5*%
%TO.N,SWN4*%
X29475000Y-54905000D03*
%TO.P,U4,6*%
%TO.N,APN4*%
X29475000Y-53635000D03*
%TO.P,U4,7*%
%TO.N,APOUT4*%
X29475000Y-52365000D03*
%TO.P,U4,8*%
%TO.N,V+*%
X29475000Y-51095000D03*
%TD*%
D12*
%TO.P,C202,1*%
%TO.N,APN2*%
X40050000Y-21200000D03*
%TO.P,C202,2*%
%TO.N,APOUT2*%
X41950000Y-21200000D03*
%TD*%
D10*
%TO.P,C407,1*%
%TO.N,V-*%
X22450000Y-56300000D03*
%TO.P,C407,2*%
%TO.N,AGND*%
X20550000Y-56300000D03*
%TD*%
D12*
%TO.P,C703,1*%
%TO.N,SW_CTL*%
X73050000Y-72000000D03*
%TO.P,C703,2*%
%TO.N,V-*%
X74950000Y-72000000D03*
%TD*%
%TO.P,C406,1*%
%TO.N,V+*%
X29550000Y-49200000D03*
%TO.P,C406,2*%
%TO.N,AGND*%
X31450000Y-49200000D03*
%TD*%
%TO.P,C602,1*%
%TO.N,APN6*%
X40050000Y-77200000D03*
%TO.P,C602,2*%
%TO.N,APOUT6*%
X41950000Y-77200000D03*
%TD*%
D11*
%TO.P,R201,1*%
%TO.N,IN_W2*%
X14087500Y-25634999D03*
%TO.P,R201,2*%
%TO.N,BUFIN2*%
X15912500Y-25634999D03*
%TD*%
D17*
%TO.P,U8,1*%
%TO.N,SWN1*%
X67525000Y-22190000D03*
%TO.P,U8,2*%
%TO.N,AGND*%
X67525000Y-23460000D03*
%TO.P,U8,3*%
%TO.N,SWN2*%
X67525000Y-24730000D03*
%TO.P,U8,4*%
%TO.N,AGND*%
X67525000Y-26000000D03*
%TO.P,U8,5*%
%TO.N,SW_CTL*%
X67525000Y-27270000D03*
%TO.P,U8,6*%
%TO.N,V-*%
X67525000Y-28540000D03*
%TO.P,U8,7*%
X67525000Y-29810000D03*
%TO.P,U8,8*%
%TO.N,AGND*%
X72475000Y-29810000D03*
%TO.P,U8,9*%
X72475000Y-28540000D03*
%TO.P,U8,10*%
X72475000Y-27270000D03*
%TO.P,U8,11*%
X72475000Y-26000000D03*
%TO.P,U8,12*%
%TO.N,V-*%
X72475000Y-24730000D03*
%TO.P,U8,13*%
%TO.N,SW_CTL*%
X72475000Y-23460000D03*
%TO.P,U8,14*%
%TO.N,V+*%
X72475000Y-22190000D03*
%TD*%
D11*
%TO.P,R405,1*%
%TO.N,BUFOUT4*%
X40087500Y-58500000D03*
%TO.P,R405,2*%
%TO.N,SWN4*%
X41912500Y-58500000D03*
%TD*%
D12*
%TO.P,C304,1*%
%TO.N,APOUT3*%
X45050000Y-35200000D03*
%TO.P,C304,2*%
%TO.N,OUT3*%
X46950000Y-35200000D03*
%TD*%
%TO.P,C203,1*%
%TO.N,SWN2*%
X45050000Y-30500000D03*
%TO.P,C203,2*%
%TO.N,AGND*%
X46950000Y-30500000D03*
%TD*%
D24*
%TO.P,C701,1*%
%TO.N,V+*%
X28200000Y-100500000D03*
%TO.P,C701,2*%
%TO.N,V-*%
X33800000Y-100500000D03*
%TD*%
D17*
%TO.P,U3,1*%
%TO.N,BUFOUT3*%
X24525000Y-37095000D03*
%TO.P,U3,2*%
%TO.N,BUFFB3*%
X24525000Y-38365000D03*
%TO.P,U3,3*%
%TO.N,BUFIN3*%
X24525000Y-39635000D03*
%TO.P,U3,4*%
%TO.N,V-*%
X24525000Y-40905000D03*
%TO.P,U3,5*%
%TO.N,SWN3*%
X29475000Y-40905000D03*
%TO.P,U3,6*%
%TO.N,APN3*%
X29475000Y-39635000D03*
%TO.P,U3,7*%
%TO.N,APOUT3*%
X29475000Y-38365000D03*
%TO.P,U3,8*%
%TO.N,V+*%
X29475000Y-37095000D03*
%TD*%
D12*
%TO.P,C303,1*%
%TO.N,SWN3*%
X45050000Y-44500000D03*
%TO.P,C303,2*%
%TO.N,AGND*%
X46950000Y-44500000D03*
%TD*%
%TO.P,C405,1*%
%TO.N,APOUT4*%
X45050000Y-52000000D03*
%TO.P,C405,2*%
%TO.N,OUT4*%
X46950000Y-52000000D03*
%TD*%
D16*
%TO.P,R203,1*%
%TO.N,BUFFB2*%
X22300000Y-24642500D03*
%TO.P,R203,2*%
%TO.N,BUFOUT2*%
X22300000Y-22817500D03*
%TD*%
D13*
%TO.P,C301,1*%
%TO.N,BUFIN3*%
X18000000Y-39635000D03*
%TO.P,C301,2*%
%TO.N,AGND*%
X18000000Y-41535000D03*
%TD*%
D14*
%TO.P,J5,1*%
%TO.N,AGND*%
X6500000Y-62000000D03*
D15*
%TO.P,J5,2*%
%TO.N,IN_W5*%
X6500000Y-64540000D03*
%TO.P,J5,3*%
%TO.N,OUT5*%
X6500000Y-67080000D03*
%TD*%
D18*
%TO.P,R502,1*%
%TO.N,IN_W5*%
X10500000Y-67634500D03*
%TO.P,R502,2*%
%TO.N,AGND*%
X10500000Y-69459500D03*
%TD*%
D12*
%TO.P,C702,1*%
%TO.N,V+*%
X37050000Y-100500000D03*
%TO.P,C702,2*%
%TO.N,V-*%
X38950000Y-100500000D03*
%TD*%
D25*
%TO.N,AGND*%
X18000000Y-14735000D03*
X74675000Y-53270000D03*
X74675000Y-29810000D03*
X19250000Y-42300000D03*
X10500000Y-70659500D03*
X48250000Y-44500000D03*
X65050000Y-95800000D03*
X18000000Y-28735000D03*
X32750000Y-49200000D03*
X84450000Y-48000000D03*
X65325000Y-81460000D03*
X65325000Y-26000000D03*
X74675000Y-54540000D03*
X19250000Y-70300000D03*
X48887500Y-98595000D03*
X48250000Y-86500000D03*
X10500000Y-14659500D03*
X19250000Y-14300000D03*
X62675000Y-102405000D03*
X74675000Y-26000000D03*
X66500000Y-17240000D03*
X74675000Y-52000000D03*
X65325000Y-49460000D03*
X19250000Y-56300000D03*
X65325000Y-23460000D03*
X48250000Y-16500000D03*
X32750000Y-7200000D03*
X70950000Y-19780000D03*
X8700000Y-48000000D03*
X84450000Y-30000000D03*
X65325000Y-84000000D03*
X74675000Y-85270000D03*
X19250000Y-84300000D03*
X48250000Y-58500000D03*
X8700000Y-62000000D03*
X72950000Y-105200000D03*
X18000000Y-56735000D03*
X18000000Y-84735000D03*
X48250000Y-30500000D03*
X74675000Y-27270000D03*
X8700000Y-76000000D03*
X53325000Y-99865000D03*
X84450000Y-88000000D03*
X8700000Y-6000000D03*
X84450000Y-56000000D03*
X74675000Y-86540000D03*
X10500000Y-84659500D03*
X48250000Y-72500000D03*
X84450000Y-22000000D03*
X65050000Y-100800000D03*
X10500000Y-42659500D03*
X32750000Y-21200000D03*
X74675000Y-87810000D03*
X65325000Y-52000000D03*
X10500000Y-28659500D03*
X18000000Y-70735000D03*
X18000000Y-42735000D03*
X10500000Y-56659500D03*
X32750000Y-77200000D03*
X8700000Y-34000000D03*
X8700000Y-20000000D03*
X32750000Y-35200000D03*
X74675000Y-84000000D03*
X19250000Y-28300000D03*
X84450000Y-80000000D03*
X32750000Y-63200000D03*
X74675000Y-28540000D03*
X74675000Y-55810000D03*
X72950000Y-100200000D03*
%TO.N,APN1*%
X31000000Y-11635000D03*
X40050000Y-6400000D03*
X36912500Y-14800000D03*
X35087500Y-6400000D03*
%TO.N,APN2*%
X36912500Y-28800000D03*
X40050000Y-20400000D03*
X35087500Y-20400000D03*
X31000000Y-25635000D03*
%TO.N,APN3*%
X35087500Y-34400000D03*
X36912500Y-42800000D03*
X31000000Y-39635000D03*
X40050000Y-34400000D03*
%TO.N,APN4*%
X31000000Y-53635000D03*
X35087500Y-48400000D03*
X36912500Y-56800000D03*
X40050000Y-48400000D03*
%TO.N,APN5*%
X36912500Y-70800000D03*
X35087500Y-62400000D03*
X40050000Y-62400000D03*
X31000000Y-67635000D03*
%TO.N,APN6*%
X40050000Y-76400000D03*
X31000000Y-81635000D03*
X35087500Y-76400000D03*
X36912500Y-84800000D03*
%TO.N,BUFOUT1*%
X28000000Y-5900000D03*
X35087500Y-18000000D03*
X40087500Y-18000000D03*
%TO.N,BUFOUT2*%
X35087500Y-32000000D03*
X28000000Y-19900000D03*
X40087500Y-32000000D03*
%TO.N,BUFOUT3*%
X35087500Y-46000000D03*
X40087500Y-46000000D03*
X28000000Y-33900000D03*
%TO.N,BUFOUT4*%
X28000000Y-47900000D03*
X35087500Y-60000000D03*
X40087500Y-60000000D03*
%TO.N,BUFOUT5*%
X40087500Y-74000000D03*
X35087500Y-74000000D03*
X28000000Y-61900000D03*
%TO.N,BUFOUT6*%
X40087500Y-88000000D03*
X35087500Y-88000000D03*
X28000000Y-75900000D03*
%TO.N,OUT1*%
X54400000Y-2000000D03*
%TO.N,OUT2*%
X55199999Y-4540000D03*
%TO.N,OUT3*%
X56000000Y-7080000D03*
%TO.N,OUT4*%
X56800000Y-9620000D03*
%TO.N,OUT5*%
X57600000Y-12160000D03*
%TO.N,OUT6*%
X58400000Y-14700000D03*
%TO.N,SWN1*%
X59400000Y-22190000D03*
X54000000Y-13800000D03*
X59400000Y-13800000D03*
X64925000Y-22190000D03*
%TO.N,SWN2*%
X64925000Y-24730000D03*
X54000000Y-27800000D03*
X60300000Y-24730000D03*
X60300000Y-27800000D03*
%TO.N,SWN3*%
X64925000Y-48190000D03*
X54000000Y-41800000D03*
X61199999Y-48190000D03*
X61199999Y-41800000D03*
%TO.N,SWN4*%
X62100000Y-55800000D03*
X64925000Y-50730000D03*
X54000000Y-55800000D03*
X62100000Y-50730000D03*
%TO.N,SWN5*%
X63000000Y-80190000D03*
X63000000Y-69800000D03*
X54000000Y-69800000D03*
X64925000Y-80190000D03*
%TO.N,SWN6*%
X64925000Y-82730000D03*
X63900000Y-82730000D03*
X54000000Y-83800000D03*
X63900000Y-83800000D03*
%TO.N,SW_CTL*%
X71587500Y-68000000D03*
X71550000Y-72000000D03*
X74875000Y-49460000D03*
X74875000Y-81460000D03*
X66000000Y-53270000D03*
X66000000Y-27270000D03*
X74875000Y-23460000D03*
X66000000Y-85270000D03*
%TO.N,V+*%
X71050000Y-95800000D03*
X29000000Y-21200000D03*
X72475000Y-45790000D03*
X29000000Y-63200000D03*
X28200000Y-97100000D03*
X79550000Y-22000000D03*
X60475000Y-96395000D03*
X82500000Y-66540000D03*
X37050000Y-98300000D03*
X72475000Y-19790000D03*
X29000000Y-35200000D03*
X29000000Y-77200000D03*
X20000000Y-98300000D03*
X29000000Y-49200000D03*
X79550000Y-48000000D03*
X66950000Y-100200000D03*
X79550000Y-80000000D03*
X41550000Y-98300000D03*
X72475000Y-77790000D03*
X46087500Y-94800000D03*
X29000000Y-7200000D03*
%TO.N,V-*%
X65325000Y-54540000D03*
X66950000Y-105200000D03*
X4000000Y-106040000D03*
X65325000Y-28540000D03*
X52950000Y-107200000D03*
X67525000Y-32210000D03*
X24000000Y-42300000D03*
X38950000Y-102700000D03*
X79550000Y-88000000D03*
X74675000Y-24730000D03*
X24000000Y-84300000D03*
X67525000Y-90210000D03*
X79550000Y-30000000D03*
X24000000Y-56300000D03*
X71050000Y-100800000D03*
X79550000Y-56000000D03*
X76212500Y-68000000D03*
X24000000Y-70300000D03*
X24000000Y-102700000D03*
X74675000Y-50730000D03*
X33800000Y-103900000D03*
X55525000Y-104605000D03*
X24000000Y-14300000D03*
X76250000Y-72000000D03*
X74675000Y-82730000D03*
X46087500Y-105200000D03*
X65325000Y-86540000D03*
X67525000Y-58210000D03*
X24000000Y-28300000D03*
X43450000Y-102700000D03*
%TD*%
%TO.N,AGND*%
D26*
X46950000Y-16500000D02*
X48250000Y-16500000D01*
X46950000Y-44500000D02*
X48250000Y-44500000D01*
X67525000Y-81460000D02*
X65325000Y-81460000D01*
X20550000Y-28300000D02*
X19250000Y-28300000D01*
X20550000Y-84300000D02*
X19250000Y-84300000D01*
X72475000Y-86540000D02*
X74675000Y-86540000D01*
X72475000Y-87810000D02*
X74675000Y-87810000D01*
X10500000Y-83459500D02*
X10500000Y-84659500D01*
X18000000Y-41535000D02*
X18000000Y-42735000D01*
X6500000Y-34000000D02*
X8700000Y-34000000D01*
X82950000Y-48000000D02*
X84450000Y-48000000D01*
X72475000Y-28540000D02*
X74675000Y-28540000D01*
X64000000Y-17240000D02*
X66500000Y-17240000D01*
X67525000Y-52000000D02*
X65325000Y-52000000D01*
X18000000Y-69535000D02*
X18000000Y-70735000D01*
X72475000Y-55810000D02*
X74675000Y-55810000D01*
X72950000Y-98000000D02*
X72950000Y-100200000D01*
X72475000Y-54540000D02*
X74675000Y-54540000D01*
X6500000Y-48000000D02*
X8700000Y-48000000D01*
X55525000Y-99865000D02*
X53325000Y-99865000D01*
X46950000Y-58500000D02*
X48250000Y-58500000D01*
X60475000Y-102405000D02*
X62675000Y-102405000D01*
X51087500Y-98595000D02*
X48887500Y-98595000D01*
X72475000Y-26000000D02*
X74675000Y-26000000D01*
X72475000Y-29810000D02*
X74675000Y-29810000D01*
X18000000Y-83535000D02*
X18000000Y-84735000D01*
X18000000Y-13535000D02*
X18000000Y-14735000D01*
X72475000Y-52000000D02*
X74675000Y-52000000D01*
X31450000Y-63200000D02*
X32750000Y-63200000D01*
X10500000Y-13459500D02*
X10500000Y-14659500D01*
X31450000Y-77200000D02*
X32750000Y-77200000D01*
X10500000Y-55459500D02*
X10500000Y-56659500D01*
X18000000Y-55535000D02*
X18000000Y-56735000D01*
X72475000Y-27270000D02*
X74675000Y-27270000D01*
X46950000Y-86500000D02*
X48250000Y-86500000D01*
X10500000Y-27459500D02*
X10500000Y-28659500D01*
X72475000Y-85270000D02*
X74675000Y-85270000D01*
X72475000Y-84000000D02*
X74675000Y-84000000D01*
X67525000Y-84000000D02*
X65325000Y-84000000D01*
X82950000Y-56000000D02*
X84450000Y-56000000D01*
X72475000Y-53270000D02*
X74675000Y-53270000D01*
X67525000Y-23460000D02*
X65325000Y-23460000D01*
X20550000Y-42300000D02*
X19250000Y-42300000D01*
X67525000Y-26000000D02*
X65325000Y-26000000D01*
X46950000Y-30500000D02*
X48250000Y-30500000D01*
X6500000Y-76000000D02*
X8700000Y-76000000D01*
X82950000Y-30000000D02*
X84450000Y-30000000D01*
X20550000Y-56300000D02*
X19250000Y-56300000D01*
X31450000Y-7200000D02*
X32750000Y-7200000D01*
X10500000Y-69459500D02*
X10500000Y-70659500D01*
X18000000Y-27535000D02*
X18000000Y-28735000D01*
X82950000Y-80000000D02*
X84450000Y-80000000D01*
X72950000Y-103000000D02*
X72950000Y-105200000D01*
X46950000Y-72500000D02*
X48250000Y-72500000D01*
X10500000Y-41459500D02*
X10500000Y-42659500D01*
X20550000Y-14300000D02*
X19250000Y-14300000D01*
X31450000Y-35200000D02*
X32750000Y-35200000D01*
X31450000Y-21200000D02*
X32750000Y-21200000D01*
X6500000Y-6000000D02*
X8700000Y-6000000D01*
X82950000Y-22000000D02*
X84450000Y-22000000D01*
X67525000Y-49460000D02*
X65325000Y-49460000D01*
X65050000Y-103000000D02*
X65050000Y-100800000D01*
X6500000Y-20000000D02*
X8700000Y-20000000D01*
X31450000Y-49200000D02*
X32750000Y-49200000D01*
X65050000Y-98000000D02*
X65050000Y-95800000D01*
X20550000Y-70300000D02*
X19250000Y-70300000D01*
X6500000Y-62000000D02*
X8700000Y-62000000D01*
X69650000Y-19780000D02*
X70950000Y-19780000D01*
X82950000Y-88000000D02*
X84450000Y-88000000D01*
%TO.N,AGND_DRV*%
D27*
X55525000Y-98595000D02*
X52912500Y-98595000D01*
%TO.N,APN1*%
X35087500Y-6400000D02*
X35087500Y-7200000D01*
X40050000Y-6400000D02*
X40050000Y-7200000D01*
X29475000Y-11635000D02*
X31000000Y-11635000D01*
X36912500Y-16500000D02*
X36912500Y-14800000D01*
%TO.N,APN2*%
X35087500Y-20400000D02*
X35087500Y-21200000D01*
X40050000Y-20400000D02*
X40050000Y-21200000D01*
X36912500Y-30500000D02*
X36912500Y-28800000D01*
X29475000Y-25635000D02*
X31000000Y-25635000D01*
%TO.N,APN3*%
X36912500Y-44500000D02*
X36912500Y-42800000D01*
X35087500Y-34400000D02*
X35087500Y-35200000D01*
X40050000Y-34400000D02*
X40050000Y-35200000D01*
X29475000Y-39635000D02*
X31000000Y-39635000D01*
%TO.N,APN4*%
X29475000Y-53635000D02*
X31000000Y-53635000D01*
X36912500Y-58500000D02*
X36912500Y-56800000D01*
X35087500Y-48400000D02*
X35087500Y-49200000D01*
X40050000Y-48400000D02*
X40050000Y-49200000D01*
%TO.N,APN5*%
X35087500Y-62400000D02*
X35087500Y-63200000D01*
X40050000Y-62400000D02*
X40050000Y-63200000D01*
X36912500Y-72500000D02*
X36912500Y-70800000D01*
X29475000Y-67635000D02*
X31000000Y-67635000D01*
%TO.N,APN6*%
X29475000Y-81635000D02*
X31000000Y-81635000D01*
X40050000Y-76400000D02*
X40050000Y-77200000D01*
X35087500Y-76400000D02*
X35087500Y-77200000D01*
X36912500Y-86500000D02*
X36912500Y-84800000D01*
%TO.N,APOUT1*%
X36912500Y-8300000D02*
X36912500Y-7200000D01*
X41950000Y-8300000D02*
X41950000Y-7200000D01*
X45050000Y-8300000D02*
X45050000Y-10000000D01*
X31200000Y-8300000D02*
X36912500Y-8300000D01*
X29475000Y-10365000D02*
X31200000Y-10365000D01*
X31200000Y-10365000D02*
X31200000Y-8300000D01*
X36912500Y-8300000D02*
X45050000Y-8300000D01*
X36912500Y-8300000D02*
X41950000Y-8300000D01*
X45050000Y-8300000D02*
X45050000Y-7200000D01*
%TO.N,APOUT2*%
X31200000Y-22300000D02*
X36912500Y-22300000D01*
X31200000Y-24365000D02*
X31200000Y-22300000D01*
X29475000Y-24365000D02*
X31200000Y-24365000D01*
X41950000Y-22300000D02*
X41950000Y-21200000D01*
X45050000Y-22300000D02*
X45050000Y-24000000D01*
X36912500Y-22300000D02*
X41950000Y-22300000D01*
X45050000Y-22300000D02*
X45050000Y-21200000D01*
X36912500Y-22300000D02*
X45050000Y-22300000D01*
X36912500Y-22300000D02*
X36912500Y-21200000D01*
%TO.N,APOUT3*%
X36912500Y-36300000D02*
X36912500Y-35200000D01*
X45050000Y-36300000D02*
X45050000Y-38000000D01*
X31200000Y-38365000D02*
X31200000Y-36300000D01*
X36912500Y-36300000D02*
X45050000Y-36300000D01*
X41950000Y-36300000D02*
X41950000Y-35200000D01*
X36912500Y-36300000D02*
X41950000Y-36300000D01*
X45050000Y-36300000D02*
X45050000Y-35200000D01*
X29475000Y-38365000D02*
X31200000Y-38365000D01*
X31200000Y-36300000D02*
X36912500Y-36300000D01*
%TO.N,APOUT4*%
X45050000Y-50300000D02*
X45050000Y-52000000D01*
X36912500Y-50300000D02*
X45050000Y-50300000D01*
X31200000Y-50300000D02*
X36912500Y-50300000D01*
X36912500Y-50300000D02*
X36912500Y-49200000D01*
X31200000Y-52365000D02*
X31200000Y-50300000D01*
X29475000Y-52365000D02*
X31200000Y-52365000D01*
X36912500Y-50300000D02*
X41950000Y-50300000D01*
X45050000Y-50300000D02*
X45050000Y-49200000D01*
X41950000Y-50300000D02*
X41950000Y-49200000D01*
%TO.N,APOUT5*%
X31200000Y-66364999D02*
X31200000Y-64300000D01*
X36912500Y-64300000D02*
X45050000Y-64300000D01*
X45050000Y-64300000D02*
X45050000Y-63200000D01*
X31200000Y-64300000D02*
X36912500Y-64300000D01*
X45050000Y-64300000D02*
X45050000Y-66000000D01*
X41950000Y-64300000D02*
X41950000Y-63200000D01*
X36912500Y-64300000D02*
X36912500Y-63200000D01*
X29475000Y-66364999D02*
X31200000Y-66364999D01*
X36912500Y-64300000D02*
X41950000Y-64300000D01*
%TO.N,APOUT6*%
X45050000Y-78300000D02*
X45050000Y-80000000D01*
X31200000Y-80365000D02*
X31200000Y-78300000D01*
X36912500Y-78300000D02*
X36912500Y-77200000D01*
X36912500Y-78300000D02*
X45050000Y-78300000D01*
X41950000Y-78300000D02*
X41950000Y-77200000D01*
X29475000Y-80365000D02*
X31200000Y-80365000D01*
X36912500Y-78300000D02*
X41950000Y-78300000D01*
X45050000Y-78300000D02*
X45050000Y-77200000D01*
X31200000Y-78300000D02*
X36912500Y-78300000D01*
%TO.N,BUFFB1*%
X23300000Y-10642000D02*
X22300000Y-10642500D01*
X23300000Y-10365000D02*
X23300000Y-10642000D01*
X24525000Y-10365000D02*
X23300000Y-10365000D01*
%TO.N,BUFFB2*%
X23300000Y-24642000D02*
X22300000Y-24642500D01*
X23300000Y-24365000D02*
X23300000Y-24642000D01*
X24525000Y-24365000D02*
X23300000Y-24365000D01*
%TO.N,BUFFB3*%
X23300000Y-38642000D02*
X22300000Y-38642500D01*
X23300000Y-38365000D02*
X23300000Y-38642000D01*
X24525000Y-38365000D02*
X23300000Y-38365000D01*
%TO.N,BUFFB4*%
X23300000Y-52642000D02*
X22300000Y-52642500D01*
X23300000Y-52365000D02*
X23300000Y-52642000D01*
X24525000Y-52365000D02*
X23300000Y-52365000D01*
%TO.N,BUFFB5*%
X23300000Y-66364999D02*
X23300000Y-66641999D01*
X24525000Y-66364999D02*
X23300000Y-66364999D01*
X23300000Y-66641999D02*
X22300000Y-66642500D01*
%TO.N,BUFFB6*%
X24525000Y-80365000D02*
X23300000Y-80365000D01*
X23300000Y-80365000D02*
X23300000Y-80642000D01*
X23300000Y-80642000D02*
X22300000Y-80642500D01*
%TO.N,BUFIN1*%
X15912500Y-11635000D02*
X18000000Y-11635000D01*
X18000000Y-11635000D02*
X24525000Y-11635000D01*
%TO.N,BUFIN2*%
X18000000Y-25635000D02*
X24525000Y-25635000D01*
X15912500Y-25635000D02*
X18000000Y-25635000D01*
%TO.N,BUFIN3*%
X15912500Y-39635000D02*
X18000000Y-39635000D01*
X18000000Y-39635000D02*
X24525000Y-39635000D01*
%TO.N,BUFIN4*%
X15912500Y-53635000D02*
X18000000Y-53635000D01*
X18000000Y-53635000D02*
X24525000Y-53635000D01*
%TO.N,BUFIN5*%
X18000000Y-67635000D02*
X24525000Y-67635000D01*
X15912500Y-67635000D02*
X18000000Y-67635000D01*
%TO.N,BUFIN6*%
X18000000Y-81635000D02*
X24525000Y-81635000D01*
X15912500Y-81635000D02*
X18000000Y-81635000D01*
%TO.N,BUFOUT1*%
X24525000Y-9095000D02*
X24525000Y-5900000D01*
X23000000Y-8818000D02*
X22300000Y-8817500D01*
X24525000Y-5900000D02*
X28000000Y-5900000D01*
X24525000Y-9095000D02*
X23000000Y-9095000D01*
X23000000Y-9095000D02*
X23000000Y-8818000D01*
X40087500Y-18000000D02*
X40087500Y-16500000D01*
X35087500Y-18000000D02*
X35087500Y-16500000D01*
%TO.N,BUFOUT2*%
X24525000Y-19900000D02*
X28000000Y-19900000D01*
X23000000Y-22818000D02*
X22300000Y-22817500D01*
X23000000Y-23095000D02*
X23000000Y-22818000D01*
X24525000Y-23095000D02*
X24525000Y-19900000D01*
X24525000Y-23095000D02*
X23000000Y-23095000D01*
X35087500Y-32000000D02*
X35087500Y-30500000D01*
X40087500Y-32000000D02*
X40087500Y-30500000D01*
%TO.N,BUFOUT3*%
X35087500Y-46000000D02*
X35087500Y-44500000D01*
X23000000Y-37095000D02*
X23000000Y-36818000D01*
X23000000Y-36818000D02*
X22300000Y-36817500D01*
X24525000Y-37095000D02*
X23000000Y-37095000D01*
X40087500Y-46000000D02*
X40087500Y-44500000D01*
X24525000Y-33900000D02*
X28000000Y-33900000D01*
X24525000Y-37095000D02*
X24525000Y-33900000D01*
%TO.N,BUFOUT4*%
X24525000Y-51095000D02*
X24525000Y-47900000D01*
X23000000Y-51095000D02*
X23000000Y-50818000D01*
X40087500Y-60000000D02*
X40087500Y-58500000D01*
X24525000Y-51095000D02*
X23000000Y-51095000D01*
X23000000Y-50818000D02*
X22300000Y-50817500D01*
X24525000Y-47900000D02*
X28000000Y-47900000D01*
X35087500Y-60000000D02*
X35087500Y-58500000D01*
%TO.N,BUFOUT5*%
X24525000Y-61900000D02*
X28000000Y-61900000D01*
X40087500Y-74000000D02*
X40087500Y-72500000D01*
X24525000Y-65095000D02*
X23000000Y-65095000D01*
X23000000Y-65095000D02*
X23000000Y-64818000D01*
X24525000Y-65095000D02*
X24525000Y-61900000D01*
X23000000Y-64818000D02*
X22300000Y-64817499D01*
X35087500Y-74000000D02*
X35087500Y-72500000D01*
%TO.N,BUFOUT6*%
X35087500Y-88000000D02*
X35087500Y-86500000D01*
X23000000Y-78818000D02*
X22300000Y-78817500D01*
X40087500Y-88000000D02*
X40087500Y-86500000D01*
X23000000Y-79095000D02*
X23000000Y-78818000D01*
X24525000Y-75900000D02*
X28000000Y-75900000D01*
X24525000Y-79095000D02*
X24525000Y-75900000D01*
X24525000Y-79095000D02*
X23000000Y-79095000D01*
%TO.N,DIN8*%
X64000000Y-19780000D02*
X68350000Y-19780000D01*
%TO.N,IN_W1*%
X8199999Y-8540000D02*
X8199999Y-11635000D01*
X6500000Y-8540000D02*
X8199999Y-8540000D01*
X8199999Y-11635000D02*
X10500000Y-11634500D01*
X10500000Y-11634500D02*
X14087500Y-11635000D01*
%TO.N,IN_W2*%
X10500000Y-25634500D02*
X14087500Y-25635000D01*
X8199999Y-25635000D02*
X10500000Y-25634500D01*
X8199999Y-22540000D02*
X8199999Y-25635000D01*
X6500000Y-22540000D02*
X8199999Y-22540000D01*
%TO.N,IN_W3*%
X6500000Y-36540000D02*
X8199999Y-36540000D01*
X8199999Y-36540000D02*
X8199999Y-39635000D01*
X8199999Y-39635000D02*
X10500000Y-39634500D01*
X10500000Y-39634500D02*
X14087500Y-39635000D01*
%TO.N,IN_W4*%
X10500000Y-53634500D02*
X14087500Y-53635000D01*
X8199999Y-50540000D02*
X8199999Y-53635000D01*
X8199999Y-53635000D02*
X10500000Y-53634500D01*
X6500000Y-50540000D02*
X8199999Y-50540000D01*
%TO.N,IN_W5*%
X10500000Y-67634500D02*
X14087500Y-67635000D01*
X6500000Y-64540000D02*
X8199999Y-64540000D01*
X8199999Y-64540000D02*
X8199999Y-67635000D01*
X8199999Y-67635000D02*
X10500000Y-67634500D01*
%TO.N,IN_W6*%
X8199999Y-81635000D02*
X10500000Y-81634500D01*
X8199999Y-78540000D02*
X8199999Y-81635000D01*
X10500000Y-81634500D02*
X14087500Y-81635000D01*
X6500000Y-78540000D02*
X8199999Y-78540000D01*
%TO.N,MIDREF*%
X48200000Y-103000000D02*
X47912500Y-103000000D01*
X47912500Y-97000000D02*
X48200000Y-97000000D01*
X48200000Y-105000000D02*
X51050000Y-105000000D01*
X48200000Y-101135000D02*
X55525000Y-101135000D01*
X48200000Y-103000000D02*
X48200000Y-105000000D01*
X48200000Y-97000000D02*
X48200000Y-103000000D01*
%TO.N,OUT1*%
X46950000Y-7200000D02*
X46950000Y-10000000D01*
X5000000Y-11080000D02*
X5000000Y-4700000D01*
X46950000Y-4700000D02*
X46950000Y-7200000D01*
X54000000Y-4700000D02*
X54400000Y-4700000D01*
X6500000Y-11080000D02*
X5000000Y-11080000D01*
X5000000Y-4700000D02*
X54000000Y-4700000D01*
X54400000Y-4700000D02*
X54400000Y-2000000D01*
%TO.N,OUT2*%
X46950000Y-21200000D02*
X46950000Y-24000000D01*
X54000000Y-18700000D02*
X55199999Y-18700000D01*
X5000000Y-18700000D02*
X54000000Y-18700000D01*
X55199999Y-18700000D02*
X55199999Y-4540000D01*
X5000000Y-25080000D02*
X5000000Y-18700000D01*
X46950000Y-18700000D02*
X46950000Y-21200000D01*
X6500000Y-25080000D02*
X5000000Y-25080000D01*
%TO.N,OUT3*%
X5000000Y-39080000D02*
X5000000Y-32700000D01*
X6500000Y-39080000D02*
X5000000Y-39080000D01*
X56000000Y-32700000D02*
X56000000Y-7080000D01*
X5000000Y-32700000D02*
X54000000Y-32700000D01*
X46950000Y-32700000D02*
X46950000Y-35200000D01*
X46950000Y-35200000D02*
X46950000Y-38000000D01*
X54000000Y-32700000D02*
X56000000Y-32700000D01*
%TO.N,OUT4*%
X6500000Y-53080000D02*
X5000000Y-53080000D01*
X46950000Y-49200000D02*
X46950000Y-52000000D01*
X5000000Y-53080000D02*
X5000000Y-46700000D01*
X54000000Y-46700000D02*
X56800000Y-46700000D01*
X56800000Y-46700000D02*
X56800000Y-9620000D01*
X46950000Y-46700000D02*
X46950000Y-49200000D01*
X5000000Y-46700000D02*
X54000000Y-46700000D01*
%TO.N,OUT5*%
X5000000Y-60700000D02*
X54000000Y-60700000D01*
X46950000Y-60700000D02*
X46950000Y-63200000D01*
X6500000Y-67080000D02*
X5000000Y-67080000D01*
X54000000Y-60700000D02*
X57600000Y-60700000D01*
X57600000Y-60700000D02*
X57600000Y-12160000D01*
X5000000Y-67080000D02*
X5000000Y-60700000D01*
X46950000Y-63200000D02*
X46950000Y-66000000D01*
%TO.N,OUT6*%
X46950000Y-77200000D02*
X46950000Y-80000000D01*
X6500000Y-81080000D02*
X5000000Y-81080000D01*
X5000000Y-74700000D02*
X54000000Y-74700000D01*
X54000000Y-74700000D02*
X58400000Y-74700000D01*
X58400000Y-74700000D02*
X58400000Y-14700000D01*
X5000000Y-81080000D02*
X5000000Y-74700000D01*
X46950000Y-74700000D02*
X46950000Y-77200000D01*
%TO.N,SPARE*%
X60475000Y-101135000D02*
X60475000Y-99865000D01*
%TO.N,SWN1*%
X45050000Y-13800000D02*
X45050000Y-16500000D01*
X59400000Y-13800000D02*
X59400000Y-22190000D01*
X29475000Y-12905000D02*
X31800000Y-12905000D01*
X41912500Y-13800000D02*
X41912500Y-16500000D01*
X31800000Y-13800000D02*
X54000000Y-13800000D01*
X64925000Y-22190000D02*
X67525000Y-22190000D01*
X31800000Y-12905000D02*
X31800000Y-13800000D01*
%TO.N,SWN2*%
X31800000Y-26905000D02*
X31800000Y-27800000D01*
X60300000Y-27800000D02*
X60300000Y-24730000D01*
X45050000Y-27800000D02*
X45050000Y-30500000D01*
X29475000Y-26905000D02*
X31800000Y-26905000D01*
X31800000Y-27800000D02*
X54000000Y-27800000D01*
X41912500Y-27800000D02*
X41912500Y-30500000D01*
X64925000Y-24730000D02*
X67525000Y-24730000D01*
%TO.N,SWN3*%
X45050000Y-41800000D02*
X45050000Y-44500000D01*
X41912500Y-41800000D02*
X41912500Y-44500000D01*
X29475000Y-40905000D02*
X31800000Y-40905000D01*
X61199999Y-41800000D02*
X61199999Y-48190000D01*
X31800000Y-40905000D02*
X31800000Y-41800000D01*
X31800000Y-41800000D02*
X54000000Y-41800000D01*
X64925000Y-48190000D02*
X67525000Y-48190000D01*
%TO.N,SWN4*%
X31800000Y-54905000D02*
X31800000Y-55800000D01*
X64925000Y-50730000D02*
X67525000Y-50730000D01*
X45050000Y-55800000D02*
X45050000Y-58500000D01*
X62100000Y-55800000D02*
X62100000Y-50730000D01*
X31800000Y-55800000D02*
X54000000Y-55800000D01*
X29475000Y-54905000D02*
X31800000Y-54905000D01*
X41912500Y-55800000D02*
X41912500Y-58500000D01*
%TO.N,SWN5*%
X63000000Y-69800000D02*
X63000000Y-80190000D01*
X45050000Y-69800000D02*
X45050000Y-72500000D01*
X29475000Y-68905000D02*
X31800000Y-68905000D01*
X41912500Y-69800000D02*
X41912500Y-72500000D01*
X31800000Y-68905000D02*
X31800000Y-69800000D01*
X64925000Y-80190000D02*
X67525000Y-80190000D01*
X31800000Y-69800000D02*
X54000000Y-69800000D01*
%TO.N,SWN6*%
X63900000Y-83800000D02*
X63900000Y-82730000D01*
X31800000Y-83800000D02*
X54000000Y-83800000D01*
X41912500Y-83800000D02*
X41912500Y-86500000D01*
X45050000Y-83800000D02*
X45050000Y-86500000D01*
X64925000Y-82730000D02*
X67525000Y-82730000D01*
X31800000Y-82905000D02*
X31800000Y-83800000D01*
X29475000Y-82905000D02*
X31800000Y-82905000D01*
%TO.N,SW_CTL*%
X74875000Y-49460000D02*
X72475000Y-49460000D01*
X73087500Y-68000000D02*
X71587500Y-68000000D01*
X66000000Y-53270000D02*
X67525000Y-53270000D01*
X74875000Y-81460000D02*
X72475000Y-81460000D01*
X66000000Y-27270000D02*
X67525000Y-27270000D01*
X66000000Y-85270000D02*
X67525000Y-85270000D01*
X74875000Y-23460000D02*
X72475000Y-23460000D01*
X73050000Y-72000000D02*
X71550000Y-72000000D01*
%TO.N,V+*%
D26*
X29475000Y-23095000D02*
X29475000Y-21200000D01*
X81050000Y-48000000D02*
X79550000Y-48000000D01*
X80000000Y-66540000D02*
X82500000Y-66540000D01*
X29475000Y-35200000D02*
X29550000Y-35200000D01*
X29475000Y-49200000D02*
X29550000Y-49200000D01*
X81050000Y-22000000D02*
X79550000Y-22000000D01*
X29475000Y-63200000D02*
X29550000Y-63200000D01*
X29475000Y-79095000D02*
X29475000Y-77200000D01*
X81050000Y-80000000D02*
X79550000Y-80000000D01*
X72475000Y-48190000D02*
X72475000Y-45790000D01*
X72475000Y-80190000D02*
X72475000Y-77790000D01*
X28200000Y-100500000D02*
X28200000Y-97100000D01*
X29475000Y-7200000D02*
X29550000Y-7200000D01*
X29475000Y-77200000D02*
X29550000Y-77200000D01*
X17650000Y-100500000D02*
X20000000Y-100500000D01*
X20000000Y-100500000D02*
X20000000Y-98300000D01*
X41550000Y-100500000D02*
X41550000Y-98300000D01*
X46087500Y-97000000D02*
X46087500Y-94800000D01*
X29475000Y-65095000D02*
X29475000Y-63200000D01*
X29475000Y-9095000D02*
X29475000Y-7200000D01*
X29475000Y-51095000D02*
X29475000Y-49200000D01*
X37050000Y-100500000D02*
X37050000Y-98300000D01*
X66950000Y-98000000D02*
X66950000Y-100200000D01*
X60475000Y-98595000D02*
X60475000Y-96395000D01*
X71050000Y-98000000D02*
X71050000Y-95800000D01*
X72475000Y-22190000D02*
X72475000Y-19790000D01*
X29475000Y-37095000D02*
X29475000Y-35200000D01*
X29475000Y-21200000D02*
X29550000Y-21200000D01*
%TO.N,V-*%
X24000000Y-100500000D02*
X24000000Y-102700000D01*
X81050000Y-88000000D02*
X79550000Y-88000000D01*
X24525000Y-84300000D02*
X22450000Y-84300000D01*
X43450000Y-100500000D02*
X43450000Y-102700000D01*
X74912500Y-68000000D02*
X76212500Y-68000000D01*
X4000000Y-103040000D02*
X4000000Y-106040000D01*
X81050000Y-30000000D02*
X79550000Y-30000000D01*
X24525000Y-40905000D02*
X24525000Y-42300000D01*
X52950000Y-105000000D02*
X52950000Y-107200000D01*
X71050000Y-103000000D02*
X71050000Y-100800000D01*
X24525000Y-26905000D02*
X24525000Y-28300000D01*
X74950000Y-72000000D02*
X76250000Y-72000000D01*
X38950000Y-100500000D02*
X38950000Y-102700000D01*
X66950000Y-103000000D02*
X66950000Y-105200000D01*
X72475000Y-82730000D02*
X74675000Y-82730000D01*
X24525000Y-14300000D02*
X22450000Y-14300000D01*
X67525000Y-55810000D02*
X67525000Y-58210000D01*
X33800000Y-100500000D02*
X33800000Y-103900000D01*
X24525000Y-12905000D02*
X24525000Y-14300000D01*
X24525000Y-42300000D02*
X22450000Y-42300000D01*
X46087500Y-103000000D02*
X46087500Y-105200000D01*
X72475000Y-24730000D02*
X74675000Y-24730000D01*
X24525000Y-70300000D02*
X22450000Y-70300000D01*
X67525000Y-28540000D02*
X65325000Y-28540000D01*
X72475000Y-50730000D02*
X74675000Y-50730000D01*
X67525000Y-54540000D02*
X65325000Y-54540000D01*
X24525000Y-28300000D02*
X22450000Y-28300000D01*
X24525000Y-82905000D02*
X24525000Y-84300000D01*
X67525000Y-87810000D02*
X67525000Y-90210000D01*
X81050000Y-56000000D02*
X79550000Y-56000000D01*
X24525000Y-56300000D02*
X22450000Y-56300000D01*
X67525000Y-86540000D02*
X65325000Y-86540000D01*
X24525000Y-54905000D02*
X24525000Y-56300000D01*
X24525000Y-68905000D02*
X24525000Y-70300000D01*
X55525000Y-102405000D02*
X55525000Y-104605000D01*
X67525000Y-29810000D02*
X67525000Y-32210000D01*
%TO.N,VFUSED*%
X11400000Y-100500000D02*
X14350000Y-100500000D01*
%TO.N,VIN*%
X4000000Y-100500000D02*
X8600000Y-100500000D01*
%TD*%
M02*
