M48
; DRILL file KiCad 10.0.5 date 2026-08-01T10:00:22
; FORMAT={-:-/ absolute / metric / decimal}
; #@! TF.CreationDate,2026-08-01T10:00:22+01:00
; #@! TF.GenerationSoftware,Kicad,Pcbnew,10.0.5
; #@! TF.FileFunction,MixedPlating,1,4
FMAT,2
METRIC
; #@! TA.AperFunction,Plated,PTH,ViaDrill
T1C0.300
; #@! TA.AperFunction,Plated,PTH,ComponentDrill
T2C1.000
%
G90
G05
T1
X8.0Y-11.0
X8.0Y-17.0
X8.0Y-34.0
X8.0Y-40.0
X8.0Y-57.0
X8.0Y-63.0
X9.463Y-5.5
X9.463Y-22.5
X9.463Y-28.5
X9.463Y-45.5
X9.463Y-51.5
X9.463Y-68.5
X13.08Y-8.05
X13.08Y-19.95
X13.08Y-31.05
X13.08Y-42.95
X13.08Y-54.05
X13.08Y-65.95
X14.975Y-5.5
X14.975Y-22.5
X14.975Y-28.5
X14.975Y-45.5
X14.975Y-51.5
X14.975Y-68.5
X21.037Y-9.4
X21.037Y-18.6
X21.037Y-32.4
X21.037Y-41.6
X21.037Y-55.4
X21.037Y-64.6
X23.962Y-9.4
X23.962Y-18.6
X23.962Y-32.4
X23.962Y-41.6
X23.962Y-55.4
X23.962Y-64.6
X26.0Y-75.15
X27.525Y-10.19
X27.525Y-17.81
X27.525Y-33.19
X27.525Y-40.81
X27.525Y-56.19
X27.525Y-63.81
X27.6Y-14.0
X27.6Y-37.0
X27.6Y-60.0
X28.54Y-74.385
X28.625Y-11.46
X28.625Y-16.54
X28.625Y-34.46
X28.625Y-39.54
X28.625Y-57.46
X28.625Y-62.54
X31.08Y-73.62
X32.756Y-7.0
X32.756Y-21.0
X32.756Y-30.0
X32.756Y-44.0
X32.756Y-53.0
X32.756Y-67.0
X33.62Y-72.855
X36.0Y-9.4
X36.0Y-18.6
X36.0Y-32.4
X36.0Y-41.6
X36.0Y-55.4
X36.0Y-64.6
X36.16Y-72.09
X38.7Y-71.325
X38.744Y-3.9
X38.744Y-24.1
X38.744Y-26.9
X38.744Y-47.1
X38.744Y-49.9
X38.744Y-70.1
X41.24Y-78.1
X44.244Y-7.0
X44.244Y-21.0
X44.244Y-30.0
X44.244Y-44.0
X44.244Y-53.0
X44.244Y-67.0
X46.32Y-78.1
X47.0Y-3.9
X47.0Y-24.1
X47.0Y-26.9
X47.0Y-47.1
X47.0Y-49.9
X47.0Y-70.1
X48.475Y-5.5
X48.475Y-8.05
X48.475Y-19.95
X48.475Y-22.5
X48.475Y-28.5
X48.475Y-31.05
X48.475Y-42.95
X48.475Y-45.5
X48.475Y-51.5
X48.475Y-54.05
X48.475Y-65.95
X48.475Y-68.5
X50.0Y-14.0
X52.0Y-14.0
X53.0Y-60.0
X54.65Y-60.0
X59.3Y-24.0
X59.3Y-32.5
X59.3Y-35.5
X59.3Y-39.5
X59.3Y-42.5
X59.3Y-45.5
X59.3Y-51.0
X60.537Y-31.6
X61.525Y-24.0
X61.525Y-56.0
X63.1Y-16.46
X63.1Y-19.0
X63.1Y-48.46
X63.1Y-51.0
X63.475Y-45.6
X64.9Y-15.19
X64.9Y-19.0
X64.9Y-20.27
X64.9Y-21.54
X64.9Y-47.19
X64.9Y-51.0
X64.9Y-52.27
X64.9Y-53.54
X69.0Y-12.0
X69.0Y-17.73
X69.0Y-34.0
X69.0Y-37.0
X69.0Y-49.73
X69.0Y-60.0
X69.0Y-66.0
X69.0Y-72.0
X70.4Y-16.46
X70.4Y-39.5
X70.4Y-48.46
X70.4Y-74.0
X72.025Y-9.6
X72.025Y-63.6
X74.975Y-9.6
X74.975Y-13.6
X74.975Y-63.6
X74.975Y-67.6
X76.8Y-30.0
X76.8Y-73.0
T2
X8.0Y-9.4
X8.0Y-18.6
X8.0Y-32.4
X8.0Y-41.6
X8.0Y-55.4
X8.0Y-64.6
X10.54Y-9.4
X10.54Y-18.6
X10.54Y-32.4
X10.54Y-41.6
X10.54Y-55.4
X10.54Y-64.6
X13.08Y-9.4
X13.08Y-18.6
X13.08Y-32.4
X13.08Y-41.6
X13.08Y-55.4
X13.08Y-64.6
X26.0Y-76.5
X28.54Y-76.5
X31.08Y-76.5
X33.62Y-76.5
X36.16Y-76.5
X38.7Y-76.5
X41.24Y-76.5
X43.78Y-76.5
X46.32Y-76.5
X50.0Y-76.5
X52.54Y-76.5
M30
