ISO-10303-21;
HEADER;
FILE_DESCRIPTION(('Open CASCADE Model'),'2;1');
FILE_NAME('Open CASCADE Shape Model','2026-07-29T17:45:47',('Author'),(
    'Open CASCADE'),'Open CASCADE STEP processor 7.9','Open CASCADE 7.9'
  ,'Unknown');
FILE_SCHEMA(('AUTOMOTIVE_DESIGN { 1 0 10303 214 1 1 1 1 }'));
ENDSEC;
DATA;
#1 = APPLICATION_PROTOCOL_DEFINITION('international standard',
  'automotive_design',2000,#2);
#2 = APPLICATION_CONTEXT(
  'core data for automotive mechanical design processes');
#3 = SHAPE_DEFINITION_REPRESENTATION(#4,#10);
#4 = PRODUCT_DEFINITION_SHAPE('','',#5);
#5 = PRODUCT_DEFINITION('design','',#6,#9);
#6 = PRODUCT_DEFINITION_FORMATION('','',#7);
#7 = PRODUCT('Open CASCADE STEP translator 7.9 1',
  'Open CASCADE STEP translator 7.9 1','',(#8));
#8 = PRODUCT_CONTEXT('',#2,'mechanical');
#9 = PRODUCT_DEFINITION_CONTEXT('part definition',#2,'design');
#10 = ADVANCED_BREP_SHAPE_REPRESENTATION('',(#11,#15),#1520);
#11 = AXIS2_PLACEMENT_3D('',#12,#13,#14);
#12 = CARTESIAN_POINT('',(0.,0.,0.));
#13 = DIRECTION('',(0.,0.,1.));
#14 = DIRECTION('',(1.,0.,-0.));
#15 = MANIFOLD_SOLID_BREP('',#16);
#16 = CLOSED_SHELL('',(#17,#665,#914,#961,#1008,#1178,#1233,#1288,#1343,
    #1370,#1397,#1422,#1447,#1474,#1501,#1508,#1512,#1516));
#17 = ADVANCED_FACE('',(#18,#143,#317,#491),#33,.T.);
#18 = FACE_BOUND('',#19,.F.);
#19 = EDGE_LOOP('',(#20,#56,#84,#117));
#20 = ORIENTED_EDGE('',*,*,#21,.F.);
#21 = EDGE_CURVE('',#22,#24,#26,.T.);
#22 = VERTEX_POINT('',#23);
#23 = CARTESIAN_POINT('',(45.299746087455,32.575779742319,0.));
#24 = VERTEX_POINT('',#25);
#25 = CARTESIAN_POINT('',(-45.29974608745,32.575779742319,0.));
#26 = SURFACE_CURVE('',#27,(#32,#44),.PCURVE_S1.);
#27 = CIRCLE('',#28,60.);
#28 = AXIS2_PLACEMENT_3D('',#29,#30,#31);
#29 = CARTESIAN_POINT('',(0.,-6.768,0.));
#30 = DIRECTION('',(0.,0.,1.));
#31 = DIRECTION('',(0.754995768124,0.655729662372,-0.));
#32 = PCURVE('',#33,#38);
#33 = CYLINDRICAL_SURFACE('',#34,60.);
#34 = AXIS2_PLACEMENT_3D('',#35,#36,#37);
#35 = CARTESIAN_POINT('',(0.,-6.768,0.));
#36 = DIRECTION('',(-0.,-0.,-1.));
#37 = DIRECTION('',(0.754995768124,0.655729662372,-0.));
#38 = DEFINITIONAL_REPRESENTATION('',(#39),#43);
#39 = LINE('',#40,#41);
#40 = CARTESIAN_POINT('',(-0.,0.));
#41 = VECTOR('',#42,1.);
#42 = DIRECTION('',(-1.,0.));
#43 = ( GEOMETRIC_REPRESENTATION_CONTEXT(2) 
PARAMETRIC_REPRESENTATION_CONTEXT() REPRESENTATION_CONTEXT('2D SPACE',''
  ) );
#44 = PCURVE('',#45,#50);
#45 = PLANE('',#46);
#46 = AXIS2_PLACEMENT_3D('',#47,#48,#49);
#47 = CARTESIAN_POINT('',(-5.526809780689E-16,39.707969609307,0.));
#48 = DIRECTION('',(0.,0.,1.));
#49 = DIRECTION('',(1.,0.,-0.));
#50 = DEFINITIONAL_REPRESENTATION('',(#51),#55);
#51 = CIRCLE('',#52,60.);
#52 = AXIS2_PLACEMENT_2D('',#53,#54);
#53 = CARTESIAN_POINT('',(5.526809780689E-16,-46.4759696093));
#54 = DIRECTION('',(0.754995768124,0.655729662372));
#55 = ( GEOMETRIC_REPRESENTATION_CONTEXT(2) 
PARAMETRIC_REPRESENTATION_CONTEXT() REPRESENTATION_CONTEXT('2D SPACE',''
  ) );
#56 = ORIENTED_EDGE('',*,*,#57,.T.);
#57 = EDGE_CURVE('',#22,#58,#60,.T.);
#58 = VERTEX_POINT('',#59);
#59 = CARTESIAN_POINT('',(45.299746087455,32.575779742319,25.));
#60 = SURFACE_CURVE('',#61,(#65,#72),.PCURVE_S1.);
#61 = LINE('',#62,#63);
#62 = CARTESIAN_POINT('',(45.299746087455,32.575779742319,0.));
#63 = VECTOR('',#64,1.);
#64 = DIRECTION('',(0.,0.,1.));
#65 = PCURVE('',#33,#66);
#66 = DEFINITIONAL_REPRESENTATION('',(#67),#71);
#67 = LINE('',#68,#69);
#68 = CARTESIAN_POINT('',(-0.,0.));
#69 = VECTOR('',#70,1.);
#70 = DIRECTION('',(-0.,-1.));
#71 = ( GEOMETRIC_REPRESENTATION_CONTEXT(2) 
PARAMETRIC_REPRESENTATION_CONTEXT() REPRESENTATION_CONTEXT('2D SPACE',''
  ) );
#72 = PCURVE('',#73,#78);
#73 = PLANE('',#74);
#74 = AXIS2_PLACEMENT_3D('',#75,#76,#77);
#75 = CARTESIAN_POINT('',(37.749788406212,26.018483118599,0.));
#76 = DIRECTION('',(-0.655729662372,0.754995768124,0.));
#77 = DIRECTION('',(0.754995768124,0.655729662372,0.));
#78 = DEFINITIONAL_REPRESENTATION('',(#79),#83);
#79 = LINE('',#80,#81);
#80 = CARTESIAN_POINT('',(10.,0.));
#81 = VECTOR('',#82,1.);
#82 = DIRECTION('',(0.,-1.));
#83 = ( GEOMETRIC_REPRESENTATION_CONTEXT(2) 
PARAMETRIC_REPRESENTATION_CONTEXT() REPRESENTATION_CONTEXT('2D SPACE',''
  ) );
#84 = ORIENTED_EDGE('',*,*,#85,.F.);
#85 = EDGE_CURVE('',#86,#58,#88,.T.);
#86 = VERTEX_POINT('',#87);
#87 = CARTESIAN_POINT('',(-45.29974608745,32.575779742319,25.));
#88 = SURFACE_CURVE('',#89,(#94,#101),.PCURVE_S1.);
#89 = CIRCLE('',#90,60.);
#90 = AXIS2_PLACEMENT_3D('',#91,#92,#93);
#91 = CARTESIAN_POINT('',(0.,-6.768,25.));
#92 = DIRECTION('',(0.,0.,-1.));
#93 = DIRECTION('',(-0.754995768124,0.655729662372,0.));
#94 = PCURVE('',#33,#95);
#95 = DEFINITIONAL_REPRESENTATION('',(#96),#100);
#96 = LINE('',#97,#98);
#97 = CARTESIAN_POINT('',(-1.71129533158,-25.));
#98 = VECTOR('',#99,1.);
#99 = DIRECTION('',(1.,-0.));
#100 = ( GEOMETRIC_REPRESENTATION_CONTEXT(2) 
PARAMETRIC_REPRESENTATION_CONTEXT() REPRESENTATION_CONTEXT('2D SPACE',''
  ) );
#101 = PCURVE('',#102,#107);
#102 = PLANE('',#103);
#103 = AXIS2_PLACEMENT_3D('',#104,#105,#106);
#104 = CARTESIAN_POINT('',(-5.526809780689E-16,39.707969609307,25.));
#105 = DIRECTION('',(0.,0.,1.));
#106 = DIRECTION('',(1.,0.,-0.));
#107 = DEFINITIONAL_REPRESENTATION('',(#108),#116);
#108 = ( BOUNDED_CURVE() B_SPLINE_CURVE(2,(#109,#110,#111,#112,#113,#114
,#115),.UNSPECIFIED.,.T.,.F.) B_SPLINE_CURVE_WITH_KNOTS((1,2,2,2,2,1),(
    -2.094395102393,0.,2.094395102393,4.188790204786,6.28318530718,
8.377580409573),.UNSPECIFIED.) CURVE() GEOMETRIC_REPRESENTATION_ITEM() 
RATIONAL_B_SPLINE_CURVE((1.,0.5,1.,0.5,1.,0.5,1.)) REPRESENTATION_ITEM(
  '') );
#109 = CARTESIAN_POINT('',(-45.29974608745,-7.132189866988));
#110 = CARTESIAN_POINT('',(22.845679388041,71.329271926453));
#111 = CARTESIAN_POINT('',(56.722585781475,-26.91712858374));
#112 = CARTESIAN_POINT('',(90.59949217491,-125.1635290939));
#113 = CARTESIAN_POINT('',(-11.42283969402,-105.3785903771));
#114 = CARTESIAN_POINT('',(-113.4451715629,-85.59365166042));
#115 = CARTESIAN_POINT('',(-45.29974608745,-7.132189866988));
#116 = ( GEOMETRIC_REPRESENTATION_CONTEXT(2) 
PARAMETRIC_REPRESENTATION_CONTEXT() REPRESENTATION_CONTEXT('2D SPACE',''
  ) );
#117 = ORIENTED_EDGE('',*,*,#118,.F.);
#118 = EDGE_CURVE('',#24,#86,#119,.T.);
#119 = SURFACE_CURVE('',#120,(#124,#131),.PCURVE_S1.);
#120 = LINE('',#121,#122);
#121 = CARTESIAN_POINT('',(-45.29974608745,32.575779742319,0.));
#122 = VECTOR('',#123,1.);
#123 = DIRECTION('',(0.,0.,1.));
#124 = PCURVE('',#33,#125);
#125 = DEFINITIONAL_REPRESENTATION('',(#126),#130);
#126 = LINE('',#127,#128);
#127 = CARTESIAN_POINT('',(-1.71129533158,0.));
#128 = VECTOR('',#129,1.);
#129 = DIRECTION('',(-0.,-1.));
#130 = ( GEOMETRIC_REPRESENTATION_CONTEXT(2) 
PARAMETRIC_REPRESENTATION_CONTEXT() REPRESENTATION_CONTEXT('2D SPACE',''
  ) );
#131 = PCURVE('',#132,#137);
#132 = PLANE('',#133);
#133 = AXIS2_PLACEMENT_3D('',#134,#135,#136);
#134 = CARTESIAN_POINT('',(-45.29974608745,32.575779742319,0.));
#135 = DIRECTION('',(0.655729662372,0.754995768124,-0.));
#136 = DIRECTION('',(0.754995768124,-0.655729662372,0.));
#137 = DEFINITIONAL_REPRESENTATION('',(#138),#142);
#138 = LINE('',#139,#140);
#139 = CARTESIAN_POINT('',(0.,0.));
#140 = VECTOR('',#141,1.);
#141 = DIRECTION('',(0.,-1.));
#142 = ( GEOMETRIC_REPRESENTATION_CONTEXT(2) 
PARAMETRIC_REPRESENTATION_CONTEXT() REPRESENTATION_CONTEXT('2D SPACE',''
  ) );
#143 = FACE_BOUND('',#144,.F.);
#144 = EDGE_LOOP('',(#145));
#145 = ORIENTED_EDGE('',*,*,#146,.F.);
#146 = EDGE_CURVE('',#147,#147,#149,.T.);
#147 = VERTEX_POINT('',#148);
#148 = CARTESIAN_POINT('',(-4.590628397968,53.056126662341,12.5));
#149 = SURFACE_CURVE('',#150,(#202,#257),.PCURVE_S1.);
#150 = B_SPLINE_CURVE_WITH_KNOTS('',8,(#151,#152,#153,#154,#155,#156,
    #157,#158,#159,#160,#161,#162,#163,#164,#165,#166,#167,#168,#169,
    #170,#171,#172,#173,#174,#175,#176,#177,#178,#179,#180,#181,#182,
    #183,#184,#185,#186,#187,#188,#189,#190,#191,#192,#193,#194,#195,
    #196,#197,#198,#199,#200,#201),.UNSPECIFIED.,.T.,.F.,(9,7,7,7,7,7,7,
    9),(0.,0.154897705646,0.286324958567,0.411357041464,0.569154377946,
    0.707511542679,0.827707368838,1.),.UNSPECIFIED.);
#151 = CARTESIAN_POINT('',(-4.590628397968,53.056126662341,12.5));
#152 = CARTESIAN_POINT('',(-4.590628397968,53.056126662341,
    12.239634053018));
#153 = CARTESIAN_POINT('',(-4.5597021561,53.058499707773,11.979660396068
    ));
#154 = CARTESIAN_POINT('',(-4.498014920659,53.063233655517,
    11.721957604341));
#155 = CARTESIAN_POINT('',(-4.404822181721,53.070294275094,
    11.468619005966));
#156 = CARTESIAN_POINT('',(-4.278770228296,53.079609181161,
    11.222456089653));
#157 = CARTESIAN_POINT('',(-4.1180965775,53.091018353886,10.987313203294
    ));
#158 = CARTESIAN_POINT('',(-3.920921310666,53.104212736024,
    10.768508600618));
#159 = CARTESIAN_POINT('',(-3.48634242416,53.130959579229,
    10.408440468148));
#160 = CARTESIAN_POINT('',(-3.252035141945,53.144618202866,
    10.25421468132));
#161 = CARTESIAN_POINT('',(-2.986283070685,53.158984314206,
    10.12453521882));
#162 = CARTESIAN_POINT('',(-2.695480658563,53.173160492054,
    10.02955438504));
#163 = CARTESIAN_POINT('',(-2.388506882696,53.186204496795,
    9.976060551416));
#164 = CARTESIAN_POINT('',(-2.075537353335,53.197470668118,
    9.967317129783));
#165 = CARTESIAN_POINT('',(-1.76702578505,53.20669808904,10.002904934116
    ));
#166 = CARTESIAN_POINT('',(-1.192327908454,53.220806491374,
    10.150498801986));
#167 = CARTESIAN_POINT('',(-0.93343491987,53.225665439627,
    10.256486387981));
#168 = CARTESIAN_POINT('',(-0.698406243735,53.228840811078,
    10.390016283404));
#169 = CARTESIAN_POINT('',(-0.48858044666,53.23073189081,10.545490145548
    ));
#170 = CARTESIAN_POINT('',(-0.304467520682,53.231710600052,
    10.717968806279));
#171 = CARTESIAN_POINT('',(-0.145978079722,53.232085843507,
    10.903040673516));
#172 = CARTESIAN_POINT('',(-1.253674390683E-02,53.232098418328,
    11.096758798012));
#173 = CARTESIAN_POINT('',(0.234921583474,53.231698943231,11.54658426104
    ));
#174 = CARTESIAN_POINT('',(0.336188048189,53.231172406858,
    11.808472493882));
#175 = CARTESIAN_POINT('',(0.402495134195,53.230677837814,
    12.076889307089));
#176 = CARTESIAN_POINT('',(0.435119326665,53.230398631916,
    12.348748293617));
#177 = CARTESIAN_POINT('',(0.434687626307,53.230409876181,
    12.621538209087));
#178 = CARTESIAN_POINT('',(0.401128970368,53.230699276162,
    12.892918001291));
#179 = CARTESIAN_POINT('',(0.333638516729,53.231160800736,
    13.160328327547));
#180 = CARTESIAN_POINT('',(0.140306902756,53.231903932265,13.64826528166
    ));
#181 = CARTESIAN_POINT('',(2.219650673249E-02,53.232202379115,
    13.87172486547));
#182 = CARTESIAN_POINT('',(-0.124969479316,53.232290583115,
    14.087466007012));
#183 = CARTESIAN_POINT('',(-0.302386773379,53.231919036698,
    14.291552370848));
#184 = CARTESIAN_POINT('',(-0.510931134446,53.230743432389,
    14.479153703329));
#185 = CARTESIAN_POINT('',(-0.750969180361,53.228303547456,
    14.644420355733));
#186 = CARTESIAN_POINT('',(-1.02197835298,53.224044902042,
    14.780232349144));
#187 = CARTESIAN_POINT('',(-1.582124433063,53.211702595158,
    14.962263928335));
#188 = CARTESIAN_POINT('',(-1.860209007152,53.204282126714,
    15.016602051868));
#189 = CARTESIAN_POINT('',(-2.148227922022,53.195045689541,
    15.034685213857));
#190 = CARTESIAN_POINT('',(-2.437211542895,53.184058431695,
    15.014019273502));
#191 = CARTESIAN_POINT('',(-2.717856873324,53.171723312058,
    14.95549663882));
#192 = CARTESIAN_POINT('',(-2.981545183026,53.158721923471,
    14.863306652902));
#193 = CARTESIAN_POINT('',(-3.221263061596,53.145839004477,
    14.744869850827));
#194 = CARTESIAN_POINT('',(-3.734561042775,53.116428500811,
    14.41866810323));
#195 = CARTESIAN_POINT('',(-3.988131640488,53.100149592679,
    14.187858481859));
#196 = CARTESIAN_POINT('',(-4.194018237839,53.085839690607,
    13.93162162163));
#197 = CARTESIAN_POINT('',(-4.354842238005,53.074076007078,
    13.658716786924));
#198 = CARTESIAN_POINT('',(-4.473259072649,53.065132726777,
    13.375324706479));
#199 = CARTESIAN_POINT('',(-4.551434488727,53.059134287194,
    13.085770733077));
#200 = CARTESIAN_POINT('',(-4.590628397968,53.056126662341,
    12.793109603406));
#201 = CARTESIAN_POINT('',(-4.590628397968,53.056126662341,12.5));
#202 = PCURVE('',#33,#203);
#203 = DEFINITIONAL_REPRESENTATION('',(#204),#256);
#204 = B_SPLINE_CURVE_WITH_KNOTS('',8,(#205,#206,#207,#208,#209,#210,
    #211,#212,#213,#214,#215,#216,#217,#218,#219,#220,#221,#222,#223,
    #224,#225,#226,#227,#228,#229,#230,#231,#232,#233,#234,#235,#236,
    #237,#238,#239,#240,#241,#242,#243,#244,#245,#246,#247,#248,#249,
    #250,#251,#252,#253,#254,#255),.UNSPECIFIED.,.T.,.F.,(9,7,7,7,7,7,7,
    9),(0.,0.154897705646,0.286324958567,0.411357041464,0.569154377946,
    0.707511542679,0.827707368838,1.),.UNSPECIFIED.);
#205 = CARTESIAN_POINT('',(-0.932232983253,-12.5));
#206 = CARTESIAN_POINT('',(-0.932232983253,-12.23963405301));
#207 = CARTESIAN_POINT('',(-0.931716030706,-11.97966039606));
#208 = CARTESIAN_POINT('',(-0.930684887106,-11.72195760434));
#209 = CARTESIAN_POINT('',(-0.929127224304,-11.46861900596));
#210 = CARTESIAN_POINT('',(-0.927020637785,-11.22245608965));
#211 = CARTESIAN_POINT('',(-0.924336027684,-10.98731320329));
#212 = CARTESIAN_POINT('',(-0.921042470836,-10.76850860061));
#213 = CARTESIAN_POINT('',(-0.913785784222,-10.40844046814));
#214 = CARTESIAN_POINT('',(-0.909874054049,-10.25421468132));
#215 = CARTESIAN_POINT('',(-0.90543845247,-10.12453521882));
#216 = CARTESIAN_POINT('',(-0.900586135155,-10.02955438504));
#217 = CARTESIAN_POINT('',(-0.89546550085,-9.976060551416));
#218 = CARTESIAN_POINT('',(-0.890246123625,-9.967317129783));
#219 = CARTESIAN_POINT('',(-0.885102038705,-10.00290493411));
#220 = CARTESIAN_POINT('',(-0.875520854941,-10.15049880198));
#221 = CARTESIAN_POINT('',(-0.871205284123,-10.25648638798));
#222 = CARTESIAN_POINT('',(-0.867287864536,-10.3900162834));
#223 = CARTESIAN_POINT('',(-0.863790682422,-10.54549014554));
#224 = CARTESIAN_POINT('',(-0.860722118107,-10.71796880627));
#225 = CARTESIAN_POINT('',(-0.858080632387,-10.90304067351));
#226 = CARTESIAN_POINT('',(-0.855856613197,-11.09675879801));
#227 = CARTESIAN_POINT('',(-0.851732302366,-11.54658426104));
#228 = CARTESIAN_POINT('',(-0.850044515851,-11.80847249388));
#229 = CARTESIAN_POINT('',(-0.848939367892,-12.07688930708));
#230 = CARTESIAN_POINT('',(-0.848395609358,-12.34874829361));
#231 = CARTESIAN_POINT('',(-0.848402806949,-12.62153820908));
#232 = CARTESIAN_POINT('',(-0.848962139405,-12.89291800129));
#233 = CARTESIAN_POINT('',(-0.850087001696,-13.16032832754));
#234 = CARTESIAN_POINT('',(-0.853309219066,-13.64826528166));
#235 = CARTESIAN_POINT('',(-0.855277730565,-13.87172486547));
#236 = CARTESIAN_POINT('',(-0.85773048846,-14.08746600701));
#237 = CARTESIAN_POINT('',(-0.860687428768,-14.29155237084));
#238 = CARTESIAN_POINT('',(-0.86416317044,-14.47915370332));
#239 = CARTESIAN_POINT('',(-0.86816392107,-14.64442035573));
#240 = CARTESIAN_POINT('',(-0.872681207782,-14.78023234914));
#241 = CARTESIAN_POINT('',(-0.882019241771,-14.96226392833));
#242 = CARTESIAN_POINT('',(-0.886655584975,-15.01660205186));
#243 = CARTESIAN_POINT('',(-0.89145824897,-15.03468521385));
#244 = CARTESIAN_POINT('',(-0.896277955717,-15.0140192735));
#245 = CARTESIAN_POINT('',(-0.900959749352,-14.95549663882));
#246 = CARTESIAN_POINT('',(-0.905359822665,-14.8633066529));
#247 = CARTESIAN_POINT('',(-0.909360860418,-14.74486985082));
#248 = CARTESIAN_POINT('',(-0.917929858078,-14.41866810323));
#249 = CARTESIAN_POINT('',(-0.922164634578,-14.18785848185));
#250 = CARTESIAN_POINT('',(-0.925604298563,-13.93162162163));
#251 = CARTESIAN_POINT('',(-0.928291845485,-13.65871678692));
#252 = CARTESIAN_POINT('',(-0.93027107701,-13.37532470648));
#253 = CARTESIAN_POINT('',(-0.931577831047,-13.08577073307));
#254 = CARTESIAN_POINT('',(-0.932232983253,-12.7931096034));
#255 = CARTESIAN_POINT('',(-0.932232983253,-12.5));
#256 = ( GEOMETRIC_REPRESENTATION_CONTEXT(2) 
PARAMETRIC_REPRESENTATION_CONTEXT() REPRESENTATION_CONTEXT('2D SPACE',''
  ) );
#257 = PCURVE('',#258,#263);
#258 = CYLINDRICAL_SURFACE('',#259,2.5);
#259 = AXIS2_PLACEMENT_3D('',#260,#261,#262);
#260 = CARTESIAN_POINT('',(-2.128869298853,54.194840448165,12.5));
#261 = DIRECTION('',(3.48994967025E-02,-0.999390827019,0.));
#262 = DIRECTION('',(-0.999390827019,-3.48994967025E-02,0.));
#263 = DEFINITIONAL_REPRESENTATION('',(#264),#316);
#264 = B_SPLINE_CURVE_WITH_KNOTS('',8,(#265,#266,#267,#268,#269,#270,
    #271,#272,#273,#274,#275,#276,#277,#278,#279,#280,#281,#282,#283,
    #284,#285,#286,#287,#288,#289,#290,#291,#292,#293,#294,#295,#296,
    #297,#298,#299,#300,#301,#302,#303,#304,#305,#306,#307,#308,#309,
    #310,#311,#312,#313,#314,#315),.UNSPECIFIED.,.F.,.F.,(9,7,7,7,7,7,7,
    9),(0.,0.154897705646,0.286324958567,0.411357041464,0.569154377946,
    0.707511542679,0.827707368838,1.),.UNSPECIFIED.);
#265 = CARTESIAN_POINT('',(0.,1.052105958591));
#266 = CARTESIAN_POINT('',(0.104146378793,1.052105958591));
#267 = CARTESIAN_POINT('',(0.208135370689,1.05081366903));
#268 = CARTESIAN_POINT('',(0.312939533741,1.048235458549));
#269 = CARTESIAN_POINT('',(0.419414972262,1.044431519795));
#270 = CARTESIAN_POINT('',(0.528397694661,1.039521437851));
#271 = CARTESIAN_POINT('',(0.64074444304,1.033726644832));
#272 = CARTESIAN_POINT('',(0.757409120613,1.02742161793));
#273 = CARTESIAN_POINT('',(0.983361164001,1.015857652595));
#274 = CARTESIAN_POINT('',(1.095001928818,1.010384555646));
#275 = CARTESIAN_POINT('',(1.211775697981,1.005301809287));
#276 = CARTESIAN_POINT('',(1.331914349074,1.001283125006));
#277 = CARTESIAN_POINT('',(1.454140971111,0.998960296599));
#278 = CARTESIAN_POINT('',(1.577346743474,0.998623467382));
#279 = CARTESIAN_POINT('',(1.700466740601,1.000168566015));
#280 = CARTESIAN_POINT('',(1.937860982165,1.006125424788));
#281 = CARTESIAN_POINT('',(2.048712974637,1.010304671477));
#282 = CARTESIAN_POINT('',(2.155401723308,1.015333616883));
#283 = CARTESIAN_POINT('',(2.258391614372,1.02076650386));
#284 = CARTESIAN_POINT('',(2.358028117966,1.026213839273));
#285 = CARTESIAN_POINT('',(2.454566415522,1.031370026128));
#286 = CARTESIAN_POINT('',(2.548167316243,1.036014494427));
#287 = CARTESIAN_POINT('',(2.753495187534,1.045049897255));
#288 = CARTESIAN_POINT('',(2.864791914049,1.049110261528));
#289 = CARTESIAN_POINT('',(2.973934261325,1.051918613224));
#290 = CARTESIAN_POINT('',(3.081835899812,1.053336216935));
#291 = CARTESIAN_POINT('',(3.189356207574,1.053309913394));
#292 = CARTESIAN_POINT('',(3.297353905585,1.051849509505));
#293 = CARTESIAN_POINT('',(3.406736222374,1.049032883215));
#294 = CARTESIAN_POINT('',(3.616652029675,1.041543028358));
#295 = CARTESIAN_POINT('',(3.717137894196,1.037122769936));
#296 = CARTESIAN_POINT('',(3.820470834323,1.031898600823));
#297 = CARTESIAN_POINT('',(3.927088303076,1.026078146636));
#298 = CARTESIAN_POINT('',(4.037490175544,1.019974941556));
#299 = CARTESIAN_POINT('',(4.152260875326,1.014036133185));
#300 = CARTESIAN_POINT('',(4.27214093238,1.008834100622));
#301 = CARTESIAN_POINT('',(4.507767558106,1.001620072631));
#302 = CARTESIAN_POINT('',(4.620307472017,0.999331009049));
#303 = CARTESIAN_POINT('',(4.734171466901,0.998510104465));
#304 = CARTESIAN_POINT('',(4.848100072395,0.999405286247));
#305 = CARTESIAN_POINT('',(4.960920516083,1.001938510878));
#306 = CARTESIAN_POINT('',(5.071357846254,1.005729390075));
#307 = CARTESIAN_POINT('',(5.177805980047,1.01023842783));
#308 = CARTESIAN_POINT('',(5.421318809681,1.021717174211));
#309 = CARTESIAN_POINT('',(5.556567309887,1.029136679433));
#310 = CARTESIAN_POINT('',(5.685641467808,1.036252525675));
#311 = CARTESIAN_POINT('',(5.809900962209,1.042396366421));
#312 = CARTESIAN_POINT('',(5.930602042462,1.047201510787));
#313 = CARTESIAN_POINT('',(6.048876476249,1.050468013608));
#314 = CARTESIAN_POINT('',(6.165941465817,1.052105958591));
#315 = CARTESIAN_POINT('',(6.28318530718,1.052105958591));
#316 = ( GEOMETRIC_REPRESENTATION_CONTEXT(2) 
PARAMETRIC_REPRESENTATION_CONTEXT() REPRESENTATION_CONTEXT('2D SPACE',''
  ) );
#317 = FACE_BOUND('',#318,.F.);
#318 = EDGE_LOOP('',(#319));
#319 = ORIENTED_EDGE('',*,*,#320,.F.);
#320 = EDGE_CURVE('',#321,#321,#323,.T.);
#321 = VERTEX_POINT('',#322);
#322 = CARTESIAN_POINT('',(-42.78197070423,35.299837865313,12.5));
#323 = SURFACE_CURVE('',#324,(#376,#431),.PCURVE_S1.);
#324 = B_SPLINE_CURVE_WITH_KNOTS('',8,(#325,#326,#327,#328,#329,#330,
    #331,#332,#333,#334,#335,#336,#337,#338,#339,#340,#341,#342,#343,
    #344,#345,#346,#347,#348,#349,#350,#351,#352,#353,#354,#355,#356,
    #357,#358,#359,#360,#361,#362,#363,#364,#365,#366,#367,#368,#369,
    #370,#371,#372,#373,#374,#375),.UNSPECIFIED.,.T.,.F.,(9,7,7,7,7,7,7,
    9),(0.,0.154897708328,0.286324960916,0.411357043451,0.569154379401,
    0.707511543667,0.82770736942,1.),.UNSPECIFIED.);
#325 = CARTESIAN_POINT('',(-42.78197070423,35.299837865313,12.5));
#326 = CARTESIAN_POINT('',(-42.78197070423,35.299837865313,
    12.239634047967));
#327 = CARTESIAN_POINT('',(-42.76022356518,35.321954047221,
    11.97966041073));
#328 = CARTESIAN_POINT('',(-42.71684582825,35.366068655217,
    11.72195758917));
#329 = CARTESIAN_POINT('',(-42.65125393562,35.432645231194,
    11.468619005181));
#330 = CARTESIAN_POINT('',(-42.56238009046,35.522519036889,
    11.222456104883));
#331 = CARTESIAN_POINT('',(-42.44879084047,35.636727966187,
    10.987313190372));
#332 = CARTESIAN_POINT('',(-42.30886632011,35.776274732814,
    10.768508604484));
#333 = CARTESIAN_POINT('',(-41.99893532781,36.082080204156,
    10.408440468148));
#334 = CARTESIAN_POINT('',(-41.83133214334,36.246383682674,
    10.25421468132));
#335 = CARTESIAN_POINT('',(-41.64049625525,36.431888971956,
    10.12453521882));
#336 = CARTESIAN_POINT('',(-41.43065683715,36.633716684445,
    10.029554385041));
#337 = CARTESIAN_POINT('',(-41.20788601894,36.845320577795,
    9.976060551416));
#338 = CARTESIAN_POINT('',(-40.97942805333,37.059525645139,
    9.967317129783));
#339 = CARTESIAN_POINT('',(-40.75298967217,37.269264035996,
    10.002904934116));
#340 = CARTESIAN_POINT('',(-40.329153583,37.657644861711,10.15049880196)
  );
#341 = CARTESIAN_POINT('',(-40.13723785663,37.831476800428,
    10.256486387943));
#342 = CARTESIAN_POINT('',(-39.96220037736,37.988353957736,
    10.390016283411));
#343 = CARTESIAN_POINT('',(-39.80531237883,38.127697408344,
    10.545490145609));
#344 = CARTESIAN_POINT('',(-39.66720266973,38.24945222599,
    10.717968806339));
#345 = CARTESIAN_POINT('',(-39.54800692874,38.353909963917,
    10.903040673501));
#346 = CARTESIAN_POINT('',(-39.44744980803,38.4416302907,11.096758797916
    ));
#347 = CARTESIAN_POINT('',(-39.26069522856,38.603983333312,
    11.54658426104));
#348 = CARTESIAN_POINT('',(-39.18403169685,38.670148860751,
    11.808472493881));
#349 = CARTESIAN_POINT('',(-39.13373561177,38.713359716777,
    12.076889307089));
#350 = CARTESIAN_POINT('',(-39.10896552175,38.734593146336,
    12.348748293618));
#351 = CARTESIAN_POINT('',(-39.10929825491,38.734317864159,
    12.621538209086));
#352 = CARTESIAN_POINT('',(-39.13477928513,38.712477895308,
    12.89291800129));
#353 = CARTESIAN_POINT('',(-39.1859454714,38.668464309675,
    13.160328327547));
#354 = CARTESIAN_POINT('',(-39.33213442396,38.541947688812,
    13.648265281659));
#355 = CARTESIAN_POINT('',(-39.42134212365,38.464538767902,
    13.871724865471));
#356 = CARTESIAN_POINT('',(-39.53230879355,38.367873192843,
    14.087466007011));
#357 = CARTESIAN_POINT('',(-39.66577156147,38.250976983085,
    14.291552370848));
#358 = CARTESIAN_POINT('',(-39.82216411269,38.113015022739,
    14.479153703329));
#359 = CARTESIAN_POINT('',(-40.00146023746,37.95339949665,
    14.644420355733));
#360 = CARTESIAN_POINT('',(-40.20290166128,37.772056009117,
    14.780232349144));
#361 = CARTESIAN_POINT('',(-40.61693193365,37.394571046326,
    14.962263928335));
#362 = CARTESIAN_POINT('',(-40.82162732892,37.206194060323,
    15.016602051868));
#363 = CARTESIAN_POINT('',(-41.03261590651,37.009918674139,
    15.034685213857));
#364 = CARTESIAN_POINT('',(-41.24318070283,36.81168971683,
    15.014019273503));
#365 = CARTESIAN_POINT('',(-41.44657556568,36.617925720079,
    14.955496638821));
#366 = CARTESIAN_POINT('',(-41.6367531721,36.43480543503,14.863306652901
    ));
#367 = CARTESIAN_POINT('',(-41.80894381383,36.267530171451,
    14.744869850827));
#368 = CARTESIAN_POINT('',(-42.17644904831,35.907975310772,
    14.41866810323));
#369 = CARTESIAN_POINT('',(-42.35684733388,35.729035350334,
    14.187858481857));
#370 = CARTESIAN_POINT('',(-42.50260375463,35.582921935235,
    13.931621621636));
#371 = CARTESIAN_POINT('',(-42.61607327968,35.468347024514,
    13.658716786916));
#372 = CARTESIAN_POINT('',(-42.69943734312,35.383771839528,
    13.375324706485));
#373 = CARTESIAN_POINT('',(-42.75440990935,35.32786661688,
    13.085770733074));
#374 = CARTESIAN_POINT('',(-42.78197070423,35.299837865313,
    12.793109603407));
#375 = CARTESIAN_POINT('',(-42.78197070423,35.299837865313,12.5));
#376 = PCURVE('',#33,#377);
#377 = DEFINITIONAL_REPRESENTATION('',(#378),#430);
#378 = B_SPLINE_CURVE_WITH_KNOTS('',8,(#379,#380,#381,#382,#383,#384,
    #385,#386,#387,#388,#389,#390,#391,#392,#393,#394,#395,#396,#397,
    #398,#399,#400,#401,#402,#403,#404,#405,#406,#407,#408,#409,#410,
    #411,#412,#413,#414,#415,#416,#417,#418,#419,#420,#421,#422,#423,
    #424,#425,#426,#427,#428,#429),.UNSPECIFIED.,.F.,.F.,(9,7,7,7,7,7,7,
    9),(0.,0.154897708328,0.286324960916,0.411357043451,0.569154379401,
    0.707511543667,0.82770736942,1.),.UNSPECIFIED.);
#379 = CARTESIAN_POINT('',(-1.649462064763,-12.5));
#380 = CARTESIAN_POINT('',(-1.649462064763,-12.23963404796));
#381 = CARTESIAN_POINT('',(-1.648945112276,-11.97966041073));
#382 = CARTESIAN_POINT('',(-1.647913968485,-11.72195758917));
#383 = CARTESIAN_POINT('',(-1.646356305869,-11.46861900518));
#384 = CARTESIAN_POINT('',(-1.644249719425,-11.22245610488));
#385 = CARTESIAN_POINT('',(-1.641565109015,-10.98731319037));
#386 = CARTESIAN_POINT('',(-1.638271552425,-10.76850860448));
#387 = CARTESIAN_POINT('',(-1.631014865733,-10.40844046814));
#388 = CARTESIAN_POINT('',(-1.627103135559,-10.25421468132));
#389 = CARTESIAN_POINT('',(-1.62266753398,-10.12453521881));
#390 = CARTESIAN_POINT('',(-1.617815216665,-10.02955438504));
#391 = CARTESIAN_POINT('',(-1.612694582361,-9.976060551416));
#392 = CARTESIAN_POINT('',(-1.607475205136,-9.967317129783));
#393 = CARTESIAN_POINT('',(-1.602331120215,-10.00290493411));
#394 = CARTESIAN_POINT('',(-1.592749936453,-10.15049880196));
#395 = CARTESIAN_POINT('',(-1.588434365634,-10.25648638794));
#396 = CARTESIAN_POINT('',(-1.584516946046,-10.39001628341));
#397 = CARTESIAN_POINT('',(-1.581019763931,-10.5454901456));
#398 = CARTESIAN_POINT('',(-1.577951199617,-10.71796880633));
#399 = CARTESIAN_POINT('',(-1.575309713898,-10.9030406735));
#400 = CARTESIAN_POINT('',(-1.573085694708,-11.09675879791));
#401 = CARTESIAN_POINT('',(-1.568961383877,-11.54658426104));
#402 = CARTESIAN_POINT('',(-1.567273597361,-11.80847249388));
#403 = CARTESIAN_POINT('',(-1.566168449403,-12.07688930708));
#404 = CARTESIAN_POINT('',(-1.565624690869,-12.34874829361));
#405 = CARTESIAN_POINT('',(-1.565631888459,-12.62153820908));
#406 = CARTESIAN_POINT('',(-1.566191220915,-12.89291800129));
#407 = CARTESIAN_POINT('',(-1.567316083207,-13.16032832754));
#408 = CARTESIAN_POINT('',(-1.570538300577,-13.64826528165));
#409 = CARTESIAN_POINT('',(-1.572506812075,-13.87172486547));
#410 = CARTESIAN_POINT('',(-1.574959569971,-14.08746600701));
#411 = CARTESIAN_POINT('',(-1.577916510278,-14.29155237084));
#412 = CARTESIAN_POINT('',(-1.581392251951,-14.47915370332));
#413 = CARTESIAN_POINT('',(-1.58539300258,-14.64442035573));
#414 = CARTESIAN_POINT('',(-1.589910289292,-14.78023234914));
#415 = CARTESIAN_POINT('',(-1.599248323281,-14.96226392833));
#416 = CARTESIAN_POINT('',(-1.603884666485,-15.01660205186));
#417 = CARTESIAN_POINT('',(-1.60868733048,-15.03468521385));
#418 = CARTESIAN_POINT('',(-1.613507037228,-15.0140192735));
#419 = CARTESIAN_POINT('',(-1.618188830862,-14.95549663882));
#420 = CARTESIAN_POINT('',(-1.622588904175,-14.8633066529));
#421 = CARTESIAN_POINT('',(-1.626589941929,-14.74486985082));
#422 = CARTESIAN_POINT('',(-1.635158939588,-14.41866810323));
#423 = CARTESIAN_POINT('',(-1.639393716088,-14.18785848185));
#424 = CARTESIAN_POINT('',(-1.642833380073,-13.93162162163));
#425 = CARTESIAN_POINT('',(-1.645520926995,-13.65871678691));
#426 = CARTESIAN_POINT('',(-1.64750015852,-13.37532470648));
#427 = CARTESIAN_POINT('',(-1.648806912557,-13.08577073307));
#428 = CARTESIAN_POINT('',(-1.649462064763,-12.7931096034));
#429 = CARTESIAN_POINT('',(-1.649462064763,-12.5));
#430 = ( GEOMETRIC_REPRESENTATION_CONTEXT(2) 
PARAMETRIC_REPRESENTATION_CONTEXT() REPRESENTATION_CONTEXT('2D SPACE',''
  ) );
#431 = PCURVE('',#432,#437);
#432 = CYLINDRICAL_SURFACE('',#433,2.5);
#433 = AXIS2_PLACEMENT_3D('',#434,#435,#436);
#434 = CARTESIAN_POINT('',(-41.67519071438,37.776118342598,12.5));
#435 = DIRECTION('',(0.683199847777,-0.730231448239,0.));
#436 = DIRECTION('',(-0.730231448239,-0.683199847777,0.));
#437 = DEFINITIONAL_REPRESENTATION('',(#438),#490);
#438 = B_SPLINE_CURVE_WITH_KNOTS('',8,(#439,#440,#441,#442,#443,#444,
    #445,#446,#447,#448,#449,#450,#451,#452,#453,#454,#455,#456,#457,
    #458,#459,#460,#461,#462,#463,#464,#465,#466,#467,#468,#469,#470,
    #471,#472,#473,#474,#475,#476,#477,#478,#479,#480,#481,#482,#483,
    #484,#485,#486,#487,#488,#489),.UNSPECIFIED.,.F.,.F.,(9,7,7,7,7,7,7,
    9),(0.,0.154897708328,0.286324960916,0.411357043451,0.569154379401,
    0.707511543667,0.82770736942,1.),.UNSPECIFIED.);
#439 = CARTESIAN_POINT('',(0.,1.052105958591));
#440 = CARTESIAN_POINT('',(0.104146380813,1.052105958591));
#441 = CARTESIAN_POINT('',(0.208135364256,1.050813669136));
#442 = CARTESIAN_POINT('',(0.312939541119,1.048235458318));
#443 = CARTESIAN_POINT('',(0.419414971966,1.044431519883));
#444 = CARTESIAN_POINT('',(0.528397687293,1.039521438077));
#445 = CARTESIAN_POINT('',(0.640744450118,1.033726644533));
#446 = CARTESIAN_POINT('',(0.757409118187,1.027421618054));
#447 = CARTESIAN_POINT('',(0.983361164001,1.015857652595));
#448 = CARTESIAN_POINT('',(1.095001928818,1.010384555646));
#449 = CARTESIAN_POINT('',(1.211775697981,1.005301809288));
#450 = CARTESIAN_POINT('',(1.331914349075,1.001283125006));
#451 = CARTESIAN_POINT('',(1.45414097111,0.9989602966));
#452 = CARTESIAN_POINT('',(1.577346743474,0.998623467382));
#453 = CARTESIAN_POINT('',(1.700466740601,1.000168566015));
#454 = CARTESIAN_POINT('',(1.937860982123,1.006125424787));
#455 = CARTESIAN_POINT('',(2.048712974619,1.010304671475));
#456 = CARTESIAN_POINT('',(2.155401723326,1.015333616884));
#457 = CARTESIAN_POINT('',(2.258391614409,1.020766503862));
#458 = CARTESIAN_POINT('',(2.358028117992,1.026213839275));
#459 = CARTESIAN_POINT('',(2.45456641551,1.031370026128));
#460 = CARTESIAN_POINT('',(2.548167316199,1.036014494425));
#461 = CARTESIAN_POINT('',(2.753495187534,1.045049897255));
#462 = CARTESIAN_POINT('',(2.864791914048,1.049110261528));
#463 = CARTESIAN_POINT('',(2.973934261325,1.051918613224));
#464 = CARTESIAN_POINT('',(3.081835899812,1.053336216935));
#465 = CARTESIAN_POINT('',(3.189356207574,1.053309913394));
#466 = CARTESIAN_POINT('',(3.297353905585,1.051849509505));
#467 = CARTESIAN_POINT('',(3.406736222374,1.049032883215));
#468 = CARTESIAN_POINT('',(3.616652029675,1.041543028358));
#469 = CARTESIAN_POINT('',(3.717137894196,1.037122769936));
#470 = CARTESIAN_POINT('',(3.820470834323,1.031898600823));
#471 = CARTESIAN_POINT('',(3.927088303076,1.026078146636));
#472 = CARTESIAN_POINT('',(4.037490175544,1.019974941557));
#473 = CARTESIAN_POINT('',(4.152260875327,1.014036133185));
#474 = CARTESIAN_POINT('',(4.27214093238,1.008834100622));
#475 = CARTESIAN_POINT('',(4.507767558106,1.001620072631));
#476 = CARTESIAN_POINT('',(4.620307472017,0.99933100905));
#477 = CARTESIAN_POINT('',(4.734171466901,0.998510104465));
#478 = CARTESIAN_POINT('',(4.848100072395,0.999405286247));
#479 = CARTESIAN_POINT('',(4.960920516083,1.001938510878));
#480 = CARTESIAN_POINT('',(5.071357846255,1.005729390075));
#481 = CARTESIAN_POINT('',(5.177805980047,1.010238427831));
#482 = CARTESIAN_POINT('',(5.42131880968,1.021717174211));
#483 = CARTESIAN_POINT('',(5.556567309888,1.029136679433));
#484 = CARTESIAN_POINT('',(5.685641467805,1.036252525675));
#485 = CARTESIAN_POINT('',(5.809900962214,1.042396366421));
#486 = CARTESIAN_POINT('',(5.930602042458,1.047201510787));
#487 = CARTESIAN_POINT('',(6.04887647625,1.050468013608));
#488 = CARTESIAN_POINT('',(6.165941465817,1.052105958591));
#489 = CARTESIAN_POINT('',(6.28318530718,1.052105958591));
#490 = ( GEOMETRIC_REPRESENTATION_CONTEXT(2) 
PARAMETRIC_REPRESENTATION_CONTEXT() REPRESENTATION_CONTEXT('2D SPACE',''
  ) );
#491 = FACE_BOUND('',#492,.F.);
#492 = EDGE_LOOP('',(#493));
#493 = ORIENTED_EDGE('',*,*,#494,.F.);
#494 = EDGE_CURVE('',#495,#495,#497,.T.);
#495 = VERTEX_POINT('',#496);
#496 = CARTESIAN_POINT('',(37.519613005718,40.053775274985,12.5));
#497 = SURFACE_CURVE('',#498,(#550,#605),.PCURVE_S1.);
#498 = B_SPLINE_CURVE_WITH_KNOTS('',8,(#499,#500,#501,#502,#503,#504,
    #505,#506,#507,#508,#509,#510,#511,#512,#513,#514,#515,#516,#517,
    #518,#519,#520,#521,#522,#523,#524,#525,#526,#527,#528,#529,#530,
    #531,#532,#533,#534,#535,#536,#537,#538,#539,#540,#541,#542,#543,
    #544,#545,#546,#547,#548,#549),.UNSPECIFIED.,.T.,.F.,(9,7,7,7,7,7,7,
    9),(0.,0.154897705634,0.286324958544,0.411357041437,0.569154377927,
    0.707511542666,0.82770736883,1.),.UNSPECIFIED.);
#499 = CARTESIAN_POINT('',(37.519613005718,40.053775274985,12.5));
#500 = CARTESIAN_POINT('',(37.519613005718,40.053775274985,
    12.239634053018));
#501 = CARTESIAN_POINT('',(37.543817584384,40.034379343651,
    11.979660396068));
#502 = CARTESIAN_POINT('',(37.592097776035,39.995691511306,
    11.721957604341));
#503 = CARTESIAN_POINT('',(37.664973858976,39.937178132709,
    11.468619005966));
#504 = CARTESIAN_POINT('',(37.763384901886,39.857861494664,
    11.222456089653));
#505 = CARTESIAN_POINT('',(37.88850859967,39.75642061762,10.987313203294
    ));
#506 = CARTESIAN_POINT('',(38.041506580195,39.631345458111,
    10.768508600618));
#507 = CARTESIAN_POINT('',(38.377123189067,39.353972615055,
    10.40844046815));
#508 = CARTESIAN_POINT('',(38.557553304685,39.203867872028,
    10.254214681318));
#509 = CARTESIAN_POINT('',(38.761428749632,39.032796683688,
    10.12453521882));
#510 = CARTESIAN_POINT('',(38.98346697874,38.84447241087,10.029554385041
    ));
#511 = CARTESIAN_POINT('',(39.216540545707,38.644273116407,
    9.976060551417));
#512 = CARTESIAN_POINT('',(39.452777784925,38.438679294185,
    9.967317129781));
#513 = CARTESIAN_POINT('',(39.684366806803,38.234642390638,
    10.002904934116));
#514 = CARTESIAN_POINT('',(40.113668127866,37.852311287889,
    10.15049880199));
#515 = CARTESIAN_POINT('',(40.306039562558,37.678983794324,
    10.256486387987));
#516 = CARTESIAN_POINT('',(40.479834306393,37.520730994668,
    10.390016283403));
#517 = CARTESIAN_POINT('',(40.634347687451,37.378758967941,
    10.545490145539));
#518 = CARTESIAN_POINT('',(40.769461390037,37.253687729203,
    10.717968806269));
#519 = CARTESIAN_POINT('',(40.88545173032,37.145681781829,
    10.903040673518));
#520 = CARTESIAN_POINT('',(40.982903381344,37.054523864041,
    11.096758798026));
#521 = CARTESIAN_POINT('',(41.163332312796,36.885168663169,
    11.54658426104));
#522 = CARTESIAN_POINT('',(41.236920540412,36.815598936473,
    11.808472493881));
#523 = CARTESIAN_POINT('',(41.285002170359,36.769936795538,
    12.076889307089));
#524 = CARTESIAN_POINT('',(41.308634628247,36.747444067281,
    12.348748293618));
#525 = CARTESIAN_POINT('',(41.30832706915,36.747747215816,
    12.621538209087));
#526 = CARTESIAN_POINT('',(41.284019201246,36.770885813412,
    12.89291800129));
#527 = CARTESIAN_POINT('',(41.235050863061,36.817332300823,
    13.160328327548));
#528 = CARTESIAN_POINT('',(41.094381745947,36.949959088072,
    13.64826528166));
#529 = CARTESIAN_POINT('',(41.008337719249,37.030870027933,
    13.871724865471));
#530 = CARTESIAN_POINT('',(40.900932749084,37.131478216533,
    14.087466007011));
#531 = CARTESIAN_POINT('',(40.771123221042,37.252418369952,
    14.291552370848));
#532 = CARTESIAN_POINT('',(40.618034397553,37.394037382451,
    14.47915370333));
#533 = CARTESIAN_POINT('',(40.441084138637,37.556249658172,
    14.644420355732));
#534 = CARTESIAN_POINT('',(40.240275212132,37.738293286843,
    14.780232349144));
#535 = CARTESIAN_POINT('',(39.822806666664,38.111972262858,
    14.962263928335));
#536 = CARTESIAN_POINT('',(39.61467090248,38.296540942128,
    15.016602051869));
#537 = CARTESIAN_POINT('',(39.398040100684,38.48657068403,
    15.034685213857));
#538 = CARTESIAN_POINT('',(39.17950867981,38.67598100861,15.014019273502
    ));
#539 = CARTESIAN_POINT('',(38.966145281871,38.858710363362,
    14.955496638821));
#540 = CARTESIAN_POINT('',(38.764709238889,39.029368153594,
    14.863306652902));
#541 = CARTESIAN_POINT('',(38.580858096956,39.183735859148,
    14.744869850826));
#542 = CARTESIAN_POINT('',(38.185938517154,39.512944487068,
    14.41866810323));
#543 = CARTESIAN_POINT('',(37.989651544797,39.674296510167,
    14.187858481858));
#544 = CARTESIAN_POINT('',(37.829530153725,39.80450866162,
    13.931621621632));
#545 = CARTESIAN_POINT('',(37.704054464374,39.905793382393,
    13.658716786922));
#546 = CARTESIAN_POINT('',(37.611472719977,39.98016508127,
    13.375324706481));
#547 = CARTESIAN_POINT('',(37.550288439667,40.02919426441,
    13.085770733076));
#548 = CARTESIAN_POINT('',(37.519613005718,40.053775274985,
    12.793109603407));
#549 = CARTESIAN_POINT('',(37.519613005718,40.053775274985,12.5));
#550 = PCURVE('',#33,#551);
#551 = DEFINITIONAL_REPRESENTATION('',(#552),#604);
#552 = B_SPLINE_CURVE_WITH_KNOTS('',8,(#553,#554,#555,#556,#557,#558,
    #559,#560,#561,#562,#563,#564,#565,#566,#567,#568,#569,#570,#571,
    #572,#573,#574,#575,#576,#577,#578,#579,#580,#581,#582,#583,#584,
    #585,#586,#587,#588,#589,#590,#591,#592,#593,#594,#595,#596,#597,
    #598,#599,#600,#601,#602,#603),.UNSPECIFIED.,.T.,.F.,(9,7,7,7,7,7,7,
    9),(0.,0.154897705634,0.286324958544,0.411357041437,0.569154377927,
    0.707511542666,0.82770736883,1.),.UNSPECIFIED.);
#553 = CARTESIAN_POINT('',(-0.180097316702,-12.5));
#554 = CARTESIAN_POINT('',(-0.180097316702,-12.23963405301));
#555 = CARTESIAN_POINT('',(-0.179580364156,-11.97966039606));
#556 = CARTESIAN_POINT('',(-0.178549220556,-11.72195760434));
#557 = CARTESIAN_POINT('',(-0.176991557754,-11.46861900596));
#558 = CARTESIAN_POINT('',(-0.174884971235,-11.22245608965));
#559 = CARTESIAN_POINT('',(-0.172200361133,-10.98731320329));
#560 = CARTESIAN_POINT('',(-0.168906804286,-10.76850860061));
#561 = CARTESIAN_POINT('',(-0.161650117672,-10.40844046815));
#562 = CARTESIAN_POINT('',(-0.157738387498,-10.25421468131));
#563 = CARTESIAN_POINT('',(-0.153302785919,-10.12453521882));
#564 = CARTESIAN_POINT('',(-0.148450468605,-10.02955438504));
#565 = CARTESIAN_POINT('',(-0.1433298343,-9.976060551417));
#566 = CARTESIAN_POINT('',(-0.138110457075,-9.967317129781));
#567 = CARTESIAN_POINT('',(-0.132966372155,-10.00290493411));
#568 = CARTESIAN_POINT('',(-0.12338518839,-10.15049880199));
#569 = CARTESIAN_POINT('',(-0.119069617572,-10.25648638798));
#570 = CARTESIAN_POINT('',(-0.115152197986,-10.3900162834));
#571 = CARTESIAN_POINT('',(-0.111655015872,-10.54549014553));
#572 = CARTESIAN_POINT('',(-0.108586451557,-10.71796880626));
#573 = CARTESIAN_POINT('',(-0.105944965837,-10.90304067351));
#574 = CARTESIAN_POINT('',(-0.103720946646,-11.09675879802));
#575 = CARTESIAN_POINT('',(-9.959663581601E-02,-11.54658426104));
#576 = CARTESIAN_POINT('',(-9.790884930059E-02,-11.80847249388));
#577 = CARTESIAN_POINT('',(-9.680370134213E-02,-12.07688930708));
#578 = CARTESIAN_POINT('',(-9.625994280801E-02,-12.34874829361));
#579 = CARTESIAN_POINT('',(-9.626714039839E-02,-12.62153820908));
#580 = CARTESIAN_POINT('',(-9.682647285484E-02,-12.89291800129));
#581 = CARTESIAN_POINT('',(-9.795133514617E-02,-13.16032832754));
#582 = CARTESIAN_POINT('',(-0.101173552516,-13.64826528166));
#583 = CARTESIAN_POINT('',(-0.103142064015,-13.87172486547));
#584 = CARTESIAN_POINT('',(-0.10559482191,-14.08746600701));
#585 = CARTESIAN_POINT('',(-0.108551762218,-14.29155237084));
#586 = CARTESIAN_POINT('',(-0.11202750389,-14.47915370332));
#587 = CARTESIAN_POINT('',(-0.11602825452,-14.64442035573));
#588 = CARTESIAN_POINT('',(-0.120545541232,-14.78023234914));
#589 = CARTESIAN_POINT('',(-0.12988357522,-14.96226392833));
#590 = CARTESIAN_POINT('',(-0.134519918425,-15.01660205186));
#591 = CARTESIAN_POINT('',(-0.139322582419,-15.03468521385));
#592 = CARTESIAN_POINT('',(-0.144142289167,-15.0140192735));
#593 = CARTESIAN_POINT('',(-0.148824082802,-14.95549663882));
#594 = CARTESIAN_POINT('',(-0.153224156114,-14.8633066529));
#595 = CARTESIAN_POINT('',(-0.157225193868,-14.74486985082));
#596 = CARTESIAN_POINT('',(-0.165794191528,-14.41866810323));
#597 = CARTESIAN_POINT('',(-0.170028968028,-14.18785848185));
#598 = CARTESIAN_POINT('',(-0.173468632013,-13.93162162163));
#599 = CARTESIAN_POINT('',(-0.176156178935,-13.65871678692));
#600 = CARTESIAN_POINT('',(-0.17813541046,-13.37532470648));
#601 = CARTESIAN_POINT('',(-0.179442164497,-13.08577073307));
#602 = CARTESIAN_POINT('',(-0.180097316702,-12.7931096034));
#603 = CARTESIAN_POINT('',(-0.180097316702,-12.5));
#604 = ( GEOMETRIC_REPRESENTATION_CONTEXT(2) 
PARAMETRIC_REPRESENTATION_CONTEXT() REPRESENTATION_CONTEXT('2D SPACE',''
  ) );
#605 = PCURVE('',#606,#611);
#606 = CYLINDRICAL_SURFACE('',#607,2.5);
#607 = AXIS2_PLACEMENT_3D('',#608,#609,#610);
#608 = CARTESIAN_POINT('',(40.095236003017,39.203426450159,12.5));
#609 = DIRECTION('',(-0.657298950869,-0.753629941806,0.));
#610 = DIRECTION('',(-0.753629941806,0.657298950869,0.));
#611 = DEFINITIONAL_REPRESENTATION('',(#612),#664);
#612 = B_SPLINE_CURVE_WITH_KNOTS('',8,(#613,#614,#615,#616,#617,#618,
    #619,#620,#621,#622,#623,#624,#625,#626,#627,#628,#629,#630,#631,
    #632,#633,#634,#635,#636,#637,#638,#639,#640,#641,#642,#643,#644,
    #645,#646,#647,#648,#649,#650,#651,#652,#653,#654,#655,#656,#657,
    #658,#659,#660,#661,#662,#663),.UNSPECIFIED.,.F.,.F.,(9,7,7,7,7,7,7,
    9),(0.,0.154897705634,0.286324958544,0.411357041437,0.569154377927,
    0.707511542666,0.82770736883,1.),.UNSPECIFIED.);
#613 = CARTESIAN_POINT('',(0.,1.052105958591));
#614 = CARTESIAN_POINT('',(0.104146378793,1.052105958591));
#615 = CARTESIAN_POINT('',(0.208135370689,1.05081366903));
#616 = CARTESIAN_POINT('',(0.312939533741,1.048235458549));
#617 = CARTESIAN_POINT('',(0.419414972262,1.044431519795));
#618 = CARTESIAN_POINT('',(0.528397694661,1.039521437851));
#619 = CARTESIAN_POINT('',(0.64074444304,1.033726644832));
#620 = CARTESIAN_POINT('',(0.757409120613,1.02742161793));
#621 = CARTESIAN_POINT('',(0.983361164,1.015857652595));
#622 = CARTESIAN_POINT('',(1.095001928819,1.010384555645));
#623 = CARTESIAN_POINT('',(1.211775697981,1.005301809288));
#624 = CARTESIAN_POINT('',(1.331914349076,1.001283125006));
#625 = CARTESIAN_POINT('',(1.454140971108,0.998960296599));
#626 = CARTESIAN_POINT('',(1.577346743474,0.998623467382));
#627 = CARTESIAN_POINT('',(1.700466740602,1.000168566015));
#628 = CARTESIAN_POINT('',(1.937860982171,1.006125424788));
#629 = CARTESIAN_POINT('',(2.04871297464,1.010304671477));
#630 = CARTESIAN_POINT('',(2.155401723305,1.015333616883));
#631 = CARTESIAN_POINT('',(2.258391614366,1.020766503859));
#632 = CARTESIAN_POINT('',(2.358028117962,1.026213839273));
#633 = CARTESIAN_POINT('',(2.454566415524,1.031370026129));
#634 = CARTESIAN_POINT('',(2.548167316249,1.036014494427));
#635 = CARTESIAN_POINT('',(2.753495187534,1.045049897255));
#636 = CARTESIAN_POINT('',(2.864791914048,1.049110261528));
#637 = CARTESIAN_POINT('',(2.973934261325,1.051918613224));
#638 = CARTESIAN_POINT('',(3.081835899812,1.053336216935));
#639 = CARTESIAN_POINT('',(3.189356207574,1.053309913393));
#640 = CARTESIAN_POINT('',(3.297353905585,1.051849509505));
#641 = CARTESIAN_POINT('',(3.406736222374,1.049032883215));
#642 = CARTESIAN_POINT('',(3.616652029675,1.041543028358));
#643 = CARTESIAN_POINT('',(3.717137894196,1.037122769936));
#644 = CARTESIAN_POINT('',(3.820470834323,1.031898600823));
#645 = CARTESIAN_POINT('',(3.927088303076,1.026078146636));
#646 = CARTESIAN_POINT('',(4.037490175544,1.019974941556));
#647 = CARTESIAN_POINT('',(4.152260875326,1.014036133185));
#648 = CARTESIAN_POINT('',(4.27214093238,1.008834100622));
#649 = CARTESIAN_POINT('',(4.507767558106,1.001620072631));
#650 = CARTESIAN_POINT('',(4.620307472017,0.999331009049));
#651 = CARTESIAN_POINT('',(4.734171466902,0.998510104465));
#652 = CARTESIAN_POINT('',(4.848100072395,0.999405286247));
#653 = CARTESIAN_POINT('',(4.960920516082,1.001938510878));
#654 = CARTESIAN_POINT('',(5.071357846254,1.005729390075));
#655 = CARTESIAN_POINT('',(5.177805980047,1.01023842783));
#656 = CARTESIAN_POINT('',(5.42131880968,1.021717174211));
#657 = CARTESIAN_POINT('',(5.556567309888,1.029136679433));
#658 = CARTESIAN_POINT('',(5.685641467805,1.036252525674));
#659 = CARTESIAN_POINT('',(5.809900962213,1.042396366421));
#660 = CARTESIAN_POINT('',(5.930602042459,1.047201510787));
#661 = CARTESIAN_POINT('',(6.04887647625,1.050468013608));
#662 = CARTESIAN_POINT('',(6.165941465817,1.052105958591));
#663 = CARTESIAN_POINT('',(6.28318530718,1.052105958591));
#664 = ( GEOMETRIC_REPRESENTATION_CONTEXT(2) 
PARAMETRIC_REPRESENTATION_CONTEXT() REPRESENTATION_CONTEXT('2D SPACE',''
  ) );
#665 = ADVANCED_FACE('',(#666),#45,.F.);
#666 = FACE_BOUND('',#667,.F.);
#667 = EDGE_LOOP('',(#668,#691,#692,#715,#743,#771,#799,#832,#860,#888)
  );
#668 = ORIENTED_EDGE('',*,*,#669,.T.);
#669 = EDGE_CURVE('',#670,#22,#672,.T.);
#670 = VERTEX_POINT('',#671);
#671 = CARTESIAN_POINT('',(40.332724506711,28.261817304851,0.));
#672 = SURFACE_CURVE('',#673,(#677,#684),.PCURVE_S1.);
#673 = LINE('',#674,#675);
#674 = CARTESIAN_POINT('',(37.749788406212,26.018483118599,0.));
#675 = VECTOR('',#676,1.);
#676 = DIRECTION('',(0.754995768124,0.655729662372,0.));
#677 = PCURVE('',#45,#678);
#678 = DEFINITIONAL_REPRESENTATION('',(#679),#683);
#679 = LINE('',#680,#681);
#680 = CARTESIAN_POINT('',(37.749788406212,-13.6894864907));
#681 = VECTOR('',#682,1.);
#682 = DIRECTION('',(0.754995768124,0.655729662372));
#683 = ( GEOMETRIC_REPRESENTATION_CONTEXT(2) 
PARAMETRIC_REPRESENTATION_CONTEXT() REPRESENTATION_CONTEXT('2D SPACE',''
  ) );
#684 = PCURVE('',#73,#685);
#685 = DEFINITIONAL_REPRESENTATION('',(#686),#690);
#686 = LINE('',#687,#688);
#687 = CARTESIAN_POINT('',(0.,0.));
#688 = VECTOR('',#689,1.);
#689 = DIRECTION('',(1.,0.));
#690 = ( GEOMETRIC_REPRESENTATION_CONTEXT(2) 
PARAMETRIC_REPRESENTATION_CONTEXT() REPRESENTATION_CONTEXT('2D SPACE',''
  ) );
#691 = ORIENTED_EDGE('',*,*,#21,.T.);
#692 = ORIENTED_EDGE('',*,*,#693,.T.);
#693 = EDGE_CURVE('',#24,#694,#696,.T.);
#694 = VERTEX_POINT('',#695);
#695 = CARTESIAN_POINT('',(-40.33272450671,28.261817304851,0.));
#696 = SURFACE_CURVE('',#697,(#701,#708),.PCURVE_S1.);
#697 = LINE('',#698,#699);
#698 = CARTESIAN_POINT('',(-45.29974608745,32.575779742319,0.));
#699 = VECTOR('',#700,1.);
#700 = DIRECTION('',(0.754995768124,-0.655729662372,0.));
#701 = PCURVE('',#45,#702);
#702 = DEFINITIONAL_REPRESENTATION('',(#703),#707);
#703 = LINE('',#704,#705);
#704 = CARTESIAN_POINT('',(-45.29974608745,-7.132189866988));
#705 = VECTOR('',#706,1.);
#706 = DIRECTION('',(0.754995768124,-0.655729662372));
#707 = ( GEOMETRIC_REPRESENTATION_CONTEXT(2) 
PARAMETRIC_REPRESENTATION_CONTEXT() REPRESENTATION_CONTEXT('2D SPACE',''
  ) );
#708 = PCURVE('',#132,#709);
#709 = DEFINITIONAL_REPRESENTATION('',(#710),#714);
#710 = LINE('',#711,#712);
#711 = CARTESIAN_POINT('',(0.,0.));
#712 = VECTOR('',#713,1.);
#713 = DIRECTION('',(1.,0.));
#714 = ( GEOMETRIC_REPRESENTATION_CONTEXT(2) 
PARAMETRIC_REPRESENTATION_CONTEXT() REPRESENTATION_CONTEXT('2D SPACE',''
  ) );
#715 = ORIENTED_EDGE('',*,*,#716,.F.);
#716 = EDGE_CURVE('',#717,#694,#719,.T.);
#717 = VERTEX_POINT('',#718);
#718 = CARTESIAN_POINT('',(-40.33272450671,0.,0.));
#719 = SURFACE_CURVE('',#720,(#724,#731),.PCURVE_S1.);
#720 = LINE('',#721,#722);
#721 = CARTESIAN_POINT('',(-40.33272450671,0.,0.));
#722 = VECTOR('',#723,1.);
#723 = DIRECTION('',(0.,1.,0.));
#724 = PCURVE('',#45,#725);
#725 = DEFINITIONAL_REPRESENTATION('',(#726),#730);
#726 = LINE('',#727,#728);
#727 = CARTESIAN_POINT('',(-40.33272450671,-39.7079696093));
#728 = VECTOR('',#729,1.);
#729 = DIRECTION('',(0.,1.));
#730 = ( GEOMETRIC_REPRESENTATION_CONTEXT(2) 
PARAMETRIC_REPRESENTATION_CONTEXT() REPRESENTATION_CONTEXT('2D SPACE',''
  ) );
#731 = PCURVE('',#732,#737);
#732 = PLANE('',#733);
#733 = AXIS2_PLACEMENT_3D('',#734,#735,#736);
#734 = CARTESIAN_POINT('',(-40.33272450671,0.,0.));
#735 = DIRECTION('',(-1.,0.,0.));
#736 = DIRECTION('',(0.,1.,0.));
#737 = DEFINITIONAL_REPRESENTATION('',(#738),#742);
#738 = LINE('',#739,#740);
#739 = CARTESIAN_POINT('',(0.,0.));
#740 = VECTOR('',#741,1.);
#741 = DIRECTION('',(1.,0.));
#742 = ( GEOMETRIC_REPRESENTATION_CONTEXT(2) 
PARAMETRIC_REPRESENTATION_CONTEXT() REPRESENTATION_CONTEXT('2D SPACE',''
  ) );
#743 = ORIENTED_EDGE('',*,*,#744,.F.);
#744 = EDGE_CURVE('',#745,#717,#747,.T.);
#745 = VERTEX_POINT('',#746);
#746 = CARTESIAN_POINT('',(-20.33272450671,0.,0.));
#747 = SURFACE_CURVE('',#748,(#752,#759),.PCURVE_S1.);
#748 = LINE('',#749,#750);
#749 = CARTESIAN_POINT('',(-20.33272450671,0.,0.));
#750 = VECTOR('',#751,1.);
#751 = DIRECTION('',(-1.,0.,0.));
#752 = PCURVE('',#45,#753);
#753 = DEFINITIONAL_REPRESENTATION('',(#754),#758);
#754 = LINE('',#755,#756);
#755 = CARTESIAN_POINT('',(-20.33272450671,-39.7079696093));
#756 = VECTOR('',#757,1.);
#757 = DIRECTION('',(-1.,0.));
#758 = ( GEOMETRIC_REPRESENTATION_CONTEXT(2) 
PARAMETRIC_REPRESENTATION_CONTEXT() REPRESENTATION_CONTEXT('2D SPACE',''
  ) );
#759 = PCURVE('',#760,#765);
#760 = PLANE('',#761);
#761 = AXIS2_PLACEMENT_3D('',#762,#763,#764);
#762 = CARTESIAN_POINT('',(-20.33272450671,0.,0.));
#763 = DIRECTION('',(0.,-1.,0.));
#764 = DIRECTION('',(-1.,0.,0.));
#765 = DEFINITIONAL_REPRESENTATION('',(#766),#770);
#766 = LINE('',#767,#768);
#767 = CARTESIAN_POINT('',(0.,-0.));
#768 = VECTOR('',#769,1.);
#769 = DIRECTION('',(1.,0.));
#770 = ( GEOMETRIC_REPRESENTATION_CONTEXT(2) 
PARAMETRIC_REPRESENTATION_CONTEXT() REPRESENTATION_CONTEXT('2D SPACE',''
  ) );
#771 = ORIENTED_EDGE('',*,*,#772,.F.);
#772 = EDGE_CURVE('',#773,#745,#775,.T.);
#773 = VERTEX_POINT('',#774);
#774 = CARTESIAN_POINT('',(-20.33272450671,38.911101503141,0.));
#775 = SURFACE_CURVE('',#776,(#780,#787),.PCURVE_S1.);
#776 = LINE('',#777,#778);
#777 = CARTESIAN_POINT('',(-20.33272450671,49.681803490661,0.));
#778 = VECTOR('',#779,1.);
#779 = DIRECTION('',(1.430187082266E-16,-1.,0.));
#780 = PCURVE('',#45,#781);
#781 = DEFINITIONAL_REPRESENTATION('',(#782),#786);
#782 = LINE('',#783,#784);
#783 = CARTESIAN_POINT('',(-20.33272450671,9.973833881354));
#784 = VECTOR('',#785,1.);
#785 = DIRECTION('',(1.430187082266E-16,-1.));
#786 = ( GEOMETRIC_REPRESENTATION_CONTEXT(2) 
PARAMETRIC_REPRESENTATION_CONTEXT() REPRESENTATION_CONTEXT('2D SPACE',''
  ) );
#787 = PCURVE('',#788,#793);
#788 = PLANE('',#789);
#789 = AXIS2_PLACEMENT_3D('',#790,#791,#792);
#790 = CARTESIAN_POINT('',(-20.33272450671,49.681803490661,0.));
#791 = DIRECTION('',(1.,1.430187082266E-16,-0.));
#792 = DIRECTION('',(1.430187082266E-16,-1.,0.));
#793 = DEFINITIONAL_REPRESENTATION('',(#794),#798);
#794 = LINE('',#795,#796);
#795 = CARTESIAN_POINT('',(0.,0.));
#796 = VECTOR('',#797,1.);
#797 = DIRECTION('',(1.,0.));
#798 = ( GEOMETRIC_REPRESENTATION_CONTEXT(2) 
PARAMETRIC_REPRESENTATION_CONTEXT() REPRESENTATION_CONTEXT('2D SPACE',''
  ) );
#799 = ORIENTED_EDGE('',*,*,#800,.T.);
#800 = EDGE_CURVE('',#773,#801,#803,.T.);
#801 = VERTEX_POINT('',#802);
#802 = CARTESIAN_POINT('',(20.33272450671,38.911101503141,0.));
#803 = SURFACE_CURVE('',#804,(#809,#820),.PCURVE_S1.);
#804 = CIRCLE('',#805,50.);
#805 = AXIS2_PLACEMENT_3D('',#806,#807,#808);
#806 = CARTESIAN_POINT('',(0.,-6.768,0.));
#807 = DIRECTION('',(0.,0.,-1.));
#808 = DIRECTION('',(-0.754995768124,0.655729662372,0.));
#809 = PCURVE('',#45,#810);
#810 = DEFINITIONAL_REPRESENTATION('',(#811),#819);
#811 = ( BOUNDED_CURVE() B_SPLINE_CURVE(2,(#812,#813,#814,#815,#816,#817
,#818),.UNSPECIFIED.,.T.,.F.) B_SPLINE_CURVE_WITH_KNOTS((1,2,2,2,2,1),(
    -2.094395102393,0.,2.094395102393,4.188790204786,6.28318530718,
8.377580409573),.UNSPECIFIED.) CURVE() GEOMETRIC_REPRESENTATION_ITEM() 
RATIONAL_B_SPLINE_CURVE((1.,0.5,1.,0.5,1.,0.5,1.)) REPRESENTATION_ITEM(
  '') );
#812 = CARTESIAN_POINT('',(-37.74978840621,-13.6894864907));
#813 = CARTESIAN_POINT('',(19.038066156701,51.695065003826));
#814 = CARTESIAN_POINT('',(47.268821484563,-30.17693542134));
#815 = CARTESIAN_POINT('',(75.499576812425,-112.0489358465));
#816 = CARTESIAN_POINT('',(-9.51903307835,-95.56148691587));
#817 = CARTESIAN_POINT('',(-94.53764296912,-79.07403798524));
#818 = CARTESIAN_POINT('',(-37.74978840621,-13.6894864907));
#819 = ( GEOMETRIC_REPRESENTATION_CONTEXT(2) 
PARAMETRIC_REPRESENTATION_CONTEXT() REPRESENTATION_CONTEXT('2D SPACE',''
  ) );
#820 = PCURVE('',#821,#826);
#821 = CYLINDRICAL_SURFACE('',#822,50.);
#822 = AXIS2_PLACEMENT_3D('',#823,#824,#825);
#823 = CARTESIAN_POINT('',(0.,-6.768,0.));
#824 = DIRECTION('',(0.,0.,-1.));
#825 = DIRECTION('',(-0.754995768124,0.655729662372,0.));
#826 = DEFINITIONAL_REPRESENTATION('',(#827),#831);
#827 = LINE('',#828,#829);
#828 = CARTESIAN_POINT('',(0.,0.));
#829 = VECTOR('',#830,1.);
#830 = DIRECTION('',(1.,0.));
#831 = ( GEOMETRIC_REPRESENTATION_CONTEXT(2) 
PARAMETRIC_REPRESENTATION_CONTEXT() REPRESENTATION_CONTEXT('2D SPACE',''
  ) );
#832 = ORIENTED_EDGE('',*,*,#833,.T.);
#833 = EDGE_CURVE('',#801,#834,#836,.T.);
#834 = VERTEX_POINT('',#835);
#835 = CARTESIAN_POINT('',(20.332724506711,0.,0.));
#836 = SURFACE_CURVE('',#837,(#841,#848),.PCURVE_S1.);
#837 = LINE('',#838,#839);
#838 = CARTESIAN_POINT('',(20.332724506711,49.681803490661,0.));
#839 = VECTOR('',#840,1.);
#840 = DIRECTION('',(-1.430187082266E-16,-1.,0.));
#841 = PCURVE('',#45,#842);
#842 = DEFINITIONAL_REPRESENTATION('',(#843),#847);
#843 = LINE('',#844,#845);
#844 = CARTESIAN_POINT('',(20.332724506711,9.973833881354));
#845 = VECTOR('',#846,1.);
#846 = DIRECTION('',(-1.430187082266E-16,-1.));
#847 = ( GEOMETRIC_REPRESENTATION_CONTEXT(2) 
PARAMETRIC_REPRESENTATION_CONTEXT() REPRESENTATION_CONTEXT('2D SPACE',''
  ) );
#848 = PCURVE('',#849,#854);
#849 = PLANE('',#850);
#850 = AXIS2_PLACEMENT_3D('',#851,#852,#853);
#851 = CARTESIAN_POINT('',(20.332724506711,49.681803490661,0.));
#852 = DIRECTION('',(1.,-1.430187082266E-16,0.));
#853 = DIRECTION('',(-1.430187082266E-16,-1.,0.));
#854 = DEFINITIONAL_REPRESENTATION('',(#855),#859);
#855 = LINE('',#856,#857);
#856 = CARTESIAN_POINT('',(0.,0.));
#857 = VECTOR('',#858,1.);
#858 = DIRECTION('',(1.,0.));
#859 = ( GEOMETRIC_REPRESENTATION_CONTEXT(2) 
PARAMETRIC_REPRESENTATION_CONTEXT() REPRESENTATION_CONTEXT('2D SPACE',''
  ) );
#860 = ORIENTED_EDGE('',*,*,#861,.T.);
#861 = EDGE_CURVE('',#834,#862,#864,.T.);
#862 = VERTEX_POINT('',#863);
#863 = CARTESIAN_POINT('',(40.332724506711,0.,0.));
#864 = SURFACE_CURVE('',#865,(#869,#876),.PCURVE_S1.);
#865 = LINE('',#866,#867);
#866 = CARTESIAN_POINT('',(20.332724506711,0.,0.));
#867 = VECTOR('',#868,1.);
#868 = DIRECTION('',(1.,0.,0.));
#869 = PCURVE('',#45,#870);
#870 = DEFINITIONAL_REPRESENTATION('',(#871),#875);
#871 = LINE('',#872,#873);
#872 = CARTESIAN_POINT('',(20.332724506711,-39.7079696093));
#873 = VECTOR('',#874,1.);
#874 = DIRECTION('',(1.,0.));
#875 = ( GEOMETRIC_REPRESENTATION_CONTEXT(2) 
PARAMETRIC_REPRESENTATION_CONTEXT() REPRESENTATION_CONTEXT('2D SPACE',''
  ) );
#876 = PCURVE('',#877,#882);
#877 = PLANE('',#878);
#878 = AXIS2_PLACEMENT_3D('',#879,#880,#881);
#879 = CARTESIAN_POINT('',(20.332724506711,0.,0.));
#880 = DIRECTION('',(0.,1.,0.));
#881 = DIRECTION('',(1.,0.,0.));
#882 = DEFINITIONAL_REPRESENTATION('',(#883),#887);
#883 = LINE('',#884,#885);
#884 = CARTESIAN_POINT('',(0.,0.));
#885 = VECTOR('',#886,1.);
#886 = DIRECTION('',(1.,0.));
#887 = ( GEOMETRIC_REPRESENTATION_CONTEXT(2) 
PARAMETRIC_REPRESENTATION_CONTEXT() REPRESENTATION_CONTEXT('2D SPACE',''
  ) );
#888 = ORIENTED_EDGE('',*,*,#889,.T.);
#889 = EDGE_CURVE('',#862,#670,#890,.T.);
#890 = SURFACE_CURVE('',#891,(#895,#902),.PCURVE_S1.);
#891 = LINE('',#892,#893);
#892 = CARTESIAN_POINT('',(40.332724506711,0.,0.));
#893 = VECTOR('',#894,1.);
#894 = DIRECTION('',(0.,1.,0.));
#895 = PCURVE('',#45,#896);
#896 = DEFINITIONAL_REPRESENTATION('',(#897),#901);
#897 = LINE('',#898,#899);
#898 = CARTESIAN_POINT('',(40.332724506711,-39.7079696093));
#899 = VECTOR('',#900,1.);
#900 = DIRECTION('',(0.,1.));
#901 = ( GEOMETRIC_REPRESENTATION_CONTEXT(2) 
PARAMETRIC_REPRESENTATION_CONTEXT() REPRESENTATION_CONTEXT('2D SPACE',''
  ) );
#902 = PCURVE('',#903,#908);
#903 = PLANE('',#904);
#904 = AXIS2_PLACEMENT_3D('',#905,#906,#907);
#905 = CARTESIAN_POINT('',(40.332724506711,0.,0.));
#906 = DIRECTION('',(-1.,0.,0.));
#907 = DIRECTION('',(0.,1.,0.));
#908 = DEFINITIONAL_REPRESENTATION('',(#909),#913);
#909 = LINE('',#910,#911);
#910 = CARTESIAN_POINT('',(0.,0.));
#911 = VECTOR('',#912,1.);
#912 = DIRECTION('',(1.,0.));
#913 = ( GEOMETRIC_REPRESENTATION_CONTEXT(2) 
PARAMETRIC_REPRESENTATION_CONTEXT() REPRESENTATION_CONTEXT('2D SPACE',''
  ) );
#914 = ADVANCED_FACE('',(#915),#73,.F.);
#915 = FACE_BOUND('',#916,.F.);
#916 = EDGE_LOOP('',(#917,#918,#939,#960));
#917 = ORIENTED_EDGE('',*,*,#669,.F.);
#918 = ORIENTED_EDGE('',*,*,#919,.T.);
#919 = EDGE_CURVE('',#670,#920,#922,.T.);
#920 = VERTEX_POINT('',#921);
#921 = CARTESIAN_POINT('',(40.332724506711,28.261817304851,25.));
#922 = SURFACE_CURVE('',#923,(#927,#933),.PCURVE_S1.);
#923 = LINE('',#924,#925);
#924 = CARTESIAN_POINT('',(40.332724506711,28.261817304851,0.));
#925 = VECTOR('',#926,1.);
#926 = DIRECTION('',(0.,0.,1.));
#927 = PCURVE('',#73,#928);
#928 = DEFINITIONAL_REPRESENTATION('',(#929),#932);
#929 = B_SPLINE_CURVE_WITH_KNOTS('',1,(#930,#931),.UNSPECIFIED.,.F.,.F.,
  (2,2),(0.,25.),.PIECEWISE_BEZIER_KNOTS.);
#930 = CARTESIAN_POINT('',(3.42112659375,0.));
#931 = CARTESIAN_POINT('',(3.42112659375,-25.));
#932 = ( GEOMETRIC_REPRESENTATION_CONTEXT(2) 
PARAMETRIC_REPRESENTATION_CONTEXT() REPRESENTATION_CONTEXT('2D SPACE',''
  ) );
#933 = PCURVE('',#903,#934);
#934 = DEFINITIONAL_REPRESENTATION('',(#935),#938);
#935 = B_SPLINE_CURVE_WITH_KNOTS('',1,(#936,#937),.UNSPECIFIED.,.F.,.F.,
  (2,2),(0.,25.),.PIECEWISE_BEZIER_KNOTS.);
#936 = CARTESIAN_POINT('',(28.261817304851,0.));
#937 = CARTESIAN_POINT('',(28.261817304851,-25.));
#938 = ( GEOMETRIC_REPRESENTATION_CONTEXT(2) 
PARAMETRIC_REPRESENTATION_CONTEXT() REPRESENTATION_CONTEXT('2D SPACE',''
  ) );
#939 = ORIENTED_EDGE('',*,*,#940,.T.);
#940 = EDGE_CURVE('',#920,#58,#941,.T.);
#941 = SURFACE_CURVE('',#942,(#946,#953),.PCURVE_S1.);
#942 = LINE('',#943,#944);
#943 = CARTESIAN_POINT('',(37.749788406212,26.018483118599,25.));
#944 = VECTOR('',#945,1.);
#945 = DIRECTION('',(0.754995768124,0.655729662372,0.));
#946 = PCURVE('',#73,#947);
#947 = DEFINITIONAL_REPRESENTATION('',(#948),#952);
#948 = LINE('',#949,#950);
#949 = CARTESIAN_POINT('',(0.,-25.));
#950 = VECTOR('',#951,1.);
#951 = DIRECTION('',(1.,0.));
#952 = ( GEOMETRIC_REPRESENTATION_CONTEXT(2) 
PARAMETRIC_REPRESENTATION_CONTEXT() REPRESENTATION_CONTEXT('2D SPACE',''
  ) );
#953 = PCURVE('',#102,#954);
#954 = DEFINITIONAL_REPRESENTATION('',(#955),#959);
#955 = LINE('',#956,#957);
#956 = CARTESIAN_POINT('',(37.749788406212,-13.6894864907));
#957 = VECTOR('',#958,1.);
#958 = DIRECTION('',(0.754995768124,0.655729662372));
#959 = ( GEOMETRIC_REPRESENTATION_CONTEXT(2) 
PARAMETRIC_REPRESENTATION_CONTEXT() REPRESENTATION_CONTEXT('2D SPACE',''
  ) );
#960 = ORIENTED_EDGE('',*,*,#57,.F.);
#961 = ADVANCED_FACE('',(#962),#132,.F.);
#962 = FACE_BOUND('',#963,.F.);
#963 = EDGE_LOOP('',(#964,#965,#966,#989));
#964 = ORIENTED_EDGE('',*,*,#693,.F.);
#965 = ORIENTED_EDGE('',*,*,#118,.T.);
#966 = ORIENTED_EDGE('',*,*,#967,.T.);
#967 = EDGE_CURVE('',#86,#968,#970,.T.);
#968 = VERTEX_POINT('',#969);
#969 = CARTESIAN_POINT('',(-40.33272450671,28.261817304851,25.));
#970 = SURFACE_CURVE('',#971,(#975,#982),.PCURVE_S1.);
#971 = LINE('',#972,#973);
#972 = CARTESIAN_POINT('',(-45.29974608745,32.575779742319,25.));
#973 = VECTOR('',#974,1.);
#974 = DIRECTION('',(0.754995768124,-0.655729662372,0.));
#975 = PCURVE('',#132,#976);
#976 = DEFINITIONAL_REPRESENTATION('',(#977),#981);
#977 = LINE('',#978,#979);
#978 = CARTESIAN_POINT('',(0.,-25.));
#979 = VECTOR('',#980,1.);
#980 = DIRECTION('',(1.,0.));
#981 = ( GEOMETRIC_REPRESENTATION_CONTEXT(2) 
PARAMETRIC_REPRESENTATION_CONTEXT() REPRESENTATION_CONTEXT('2D SPACE',''
  ) );
#982 = PCURVE('',#102,#983);
#983 = DEFINITIONAL_REPRESENTATION('',(#984),#988);
#984 = LINE('',#985,#986);
#985 = CARTESIAN_POINT('',(-45.29974608745,-7.132189866988));
#986 = VECTOR('',#987,1.);
#987 = DIRECTION('',(0.754995768124,-0.655729662372));
#988 = ( GEOMETRIC_REPRESENTATION_CONTEXT(2) 
PARAMETRIC_REPRESENTATION_CONTEXT() REPRESENTATION_CONTEXT('2D SPACE',''
  ) );
#989 = ORIENTED_EDGE('',*,*,#990,.F.);
#990 = EDGE_CURVE('',#694,#968,#991,.T.);
#991 = SURFACE_CURVE('',#992,(#996,#1002),.PCURVE_S1.);
#992 = LINE('',#993,#994);
#993 = CARTESIAN_POINT('',(-40.33272450671,28.261817304851,0.));
#994 = VECTOR('',#995,1.);
#995 = DIRECTION('',(0.,0.,1.));
#996 = PCURVE('',#132,#997);
#997 = DEFINITIONAL_REPRESENTATION('',(#998),#1001);
#998 = B_SPLINE_CURVE_WITH_KNOTS('',1,(#999,#1000),.UNSPECIFIED.,.F.,.F.
  ,(2,2),(0.,25.),.PIECEWISE_BEZIER_KNOTS.);
#999 = CARTESIAN_POINT('',(6.57887340625,0.));
#1000 = CARTESIAN_POINT('',(6.57887340625,-25.));
#1001 = ( GEOMETRIC_REPRESENTATION_CONTEXT(2) 
PARAMETRIC_REPRESENTATION_CONTEXT() REPRESENTATION_CONTEXT('2D SPACE',''
  ) );
#1002 = PCURVE('',#732,#1003);
#1003 = DEFINITIONAL_REPRESENTATION('',(#1004),#1007);
#1004 = B_SPLINE_CURVE_WITH_KNOTS('',1,(#1005,#1006),.UNSPECIFIED.,.F.,
  .F.,(2,2),(0.,25.),.PIECEWISE_BEZIER_KNOTS.);
#1005 = CARTESIAN_POINT('',(28.261817304851,0.));
#1006 = CARTESIAN_POINT('',(28.261817304851,-25.));
#1007 = ( GEOMETRIC_REPRESENTATION_CONTEXT(2) 
PARAMETRIC_REPRESENTATION_CONTEXT() REPRESENTATION_CONTEXT('2D SPACE',''
  ) );
#1008 = ADVANCED_FACE('',(#1009),#102,.T.);
#1009 = FACE_BOUND('',#1010,.T.);
#1010 = EDGE_LOOP('',(#1011,#1012,#1013,#1014,#1037,#1060,#1083,#1111,
    #1134,#1157));
#1011 = ORIENTED_EDGE('',*,*,#940,.T.);
#1012 = ORIENTED_EDGE('',*,*,#85,.F.);
#1013 = ORIENTED_EDGE('',*,*,#967,.T.);
#1014 = ORIENTED_EDGE('',*,*,#1015,.F.);
#1015 = EDGE_CURVE('',#1016,#968,#1018,.T.);
#1016 = VERTEX_POINT('',#1017);
#1017 = CARTESIAN_POINT('',(-40.33272450671,0.,25.));
#1018 = SURFACE_CURVE('',#1019,(#1023,#1030),.PCURVE_S1.);
#1019 = LINE('',#1020,#1021);
#1020 = CARTESIAN_POINT('',(-40.33272450671,0.,25.));
#1021 = VECTOR('',#1022,1.);
#1022 = DIRECTION('',(0.,1.,0.));
#1023 = PCURVE('',#102,#1024);
#1024 = DEFINITIONAL_REPRESENTATION('',(#1025),#1029);
#1025 = LINE('',#1026,#1027);
#1026 = CARTESIAN_POINT('',(-40.33272450671,-39.7079696093));
#1027 = VECTOR('',#1028,1.);
#1028 = DIRECTION('',(0.,1.));
#1029 = ( GEOMETRIC_REPRESENTATION_CONTEXT(2) 
PARAMETRIC_REPRESENTATION_CONTEXT() REPRESENTATION_CONTEXT('2D SPACE',''
  ) );
#1030 = PCURVE('',#732,#1031);
#1031 = DEFINITIONAL_REPRESENTATION('',(#1032),#1036);
#1032 = LINE('',#1033,#1034);
#1033 = CARTESIAN_POINT('',(0.,-25.));
#1034 = VECTOR('',#1035,1.);
#1035 = DIRECTION('',(1.,0.));
#1036 = ( GEOMETRIC_REPRESENTATION_CONTEXT(2) 
PARAMETRIC_REPRESENTATION_CONTEXT() REPRESENTATION_CONTEXT('2D SPACE',''
  ) );
#1037 = ORIENTED_EDGE('',*,*,#1038,.F.);
#1038 = EDGE_CURVE('',#1039,#1016,#1041,.T.);
#1039 = VERTEX_POINT('',#1040);
#1040 = CARTESIAN_POINT('',(-20.33272450671,0.,25.));
#1041 = SURFACE_CURVE('',#1042,(#1046,#1053),.PCURVE_S1.);
#1042 = LINE('',#1043,#1044);
#1043 = CARTESIAN_POINT('',(-20.33272450671,0.,25.));
#1044 = VECTOR('',#1045,1.);
#1045 = DIRECTION('',(-1.,0.,0.));
#1046 = PCURVE('',#102,#1047);
#1047 = DEFINITIONAL_REPRESENTATION('',(#1048),#1052);
#1048 = LINE('',#1049,#1050);
#1049 = CARTESIAN_POINT('',(-20.33272450671,-39.7079696093));
#1050 = VECTOR('',#1051,1.);
#1051 = DIRECTION('',(-1.,0.));
#1052 = ( GEOMETRIC_REPRESENTATION_CONTEXT(2) 
PARAMETRIC_REPRESENTATION_CONTEXT() REPRESENTATION_CONTEXT('2D SPACE',''
  ) );
#1053 = PCURVE('',#760,#1054);
#1054 = DEFINITIONAL_REPRESENTATION('',(#1055),#1059);
#1055 = LINE('',#1056,#1057);
#1056 = CARTESIAN_POINT('',(0.,-25.));
#1057 = VECTOR('',#1058,1.);
#1058 = DIRECTION('',(1.,0.));
#1059 = ( GEOMETRIC_REPRESENTATION_CONTEXT(2) 
PARAMETRIC_REPRESENTATION_CONTEXT() REPRESENTATION_CONTEXT('2D SPACE',''
  ) );
#1060 = ORIENTED_EDGE('',*,*,#1061,.F.);
#1061 = EDGE_CURVE('',#1062,#1039,#1064,.T.);
#1062 = VERTEX_POINT('',#1063);
#1063 = CARTESIAN_POINT('',(-20.33272450671,38.911101503141,25.));
#1064 = SURFACE_CURVE('',#1065,(#1069,#1076),.PCURVE_S1.);
#1065 = LINE('',#1066,#1067);
#1066 = CARTESIAN_POINT('',(-20.33272450671,49.681803490661,25.));
#1067 = VECTOR('',#1068,1.);
#1068 = DIRECTION('',(1.430187082266E-16,-1.,0.));
#1069 = PCURVE('',#102,#1070);
#1070 = DEFINITIONAL_REPRESENTATION('',(#1071),#1075);
#1071 = LINE('',#1072,#1073);
#1072 = CARTESIAN_POINT('',(-20.33272450671,9.973833881354));
#1073 = VECTOR('',#1074,1.);
#1074 = DIRECTION('',(1.430187082266E-16,-1.));
#1075 = ( GEOMETRIC_REPRESENTATION_CONTEXT(2) 
PARAMETRIC_REPRESENTATION_CONTEXT() REPRESENTATION_CONTEXT('2D SPACE',''
  ) );
#1076 = PCURVE('',#788,#1077);
#1077 = DEFINITIONAL_REPRESENTATION('',(#1078),#1082);
#1078 = LINE('',#1079,#1080);
#1079 = CARTESIAN_POINT('',(0.,-25.));
#1080 = VECTOR('',#1081,1.);
#1081 = DIRECTION('',(1.,0.));
#1082 = ( GEOMETRIC_REPRESENTATION_CONTEXT(2) 
PARAMETRIC_REPRESENTATION_CONTEXT() REPRESENTATION_CONTEXT('2D SPACE',''
  ) );
#1083 = ORIENTED_EDGE('',*,*,#1084,.T.);
#1084 = EDGE_CURVE('',#1062,#1085,#1087,.T.);
#1085 = VERTEX_POINT('',#1086);
#1086 = CARTESIAN_POINT('',(20.33272450671,38.911101503141,25.));
#1087 = SURFACE_CURVE('',#1088,(#1093,#1104),.PCURVE_S1.);
#1088 = CIRCLE('',#1089,50.);
#1089 = AXIS2_PLACEMENT_3D('',#1090,#1091,#1092);
#1090 = CARTESIAN_POINT('',(0.,-6.768,25.));
#1091 = DIRECTION('',(0.,0.,-1.));
#1092 = DIRECTION('',(-0.754995768124,0.655729662372,0.));
#1093 = PCURVE('',#102,#1094);
#1094 = DEFINITIONAL_REPRESENTATION('',(#1095),#1103);
#1095 = ( BOUNDED_CURVE() B_SPLINE_CURVE(2,(#1096,#1097,#1098,#1099,
#1100,#1101,#1102),.UNSPECIFIED.,.T.,.F.) B_SPLINE_CURVE_WITH_KNOTS((1,2
    ,2,2,2,1),(-2.094395102393,0.,2.094395102393,4.188790204786,
6.28318530718,8.377580409573),.UNSPECIFIED.) CURVE() 
GEOMETRIC_REPRESENTATION_ITEM() RATIONAL_B_SPLINE_CURVE((1.,0.5,1.,0.5,
1.,0.5,1.)) REPRESENTATION_ITEM('') );
#1096 = CARTESIAN_POINT('',(-37.74978840621,-13.6894864907));
#1097 = CARTESIAN_POINT('',(19.038066156701,51.695065003826));
#1098 = CARTESIAN_POINT('',(47.268821484563,-30.17693542134));
#1099 = CARTESIAN_POINT('',(75.499576812425,-112.0489358465));
#1100 = CARTESIAN_POINT('',(-9.51903307835,-95.56148691587));
#1101 = CARTESIAN_POINT('',(-94.53764296912,-79.07403798524));
#1102 = CARTESIAN_POINT('',(-37.74978840621,-13.6894864907));
#1103 = ( GEOMETRIC_REPRESENTATION_CONTEXT(2) 
PARAMETRIC_REPRESENTATION_CONTEXT() REPRESENTATION_CONTEXT('2D SPACE',''
  ) );
#1104 = PCURVE('',#821,#1105);
#1105 = DEFINITIONAL_REPRESENTATION('',(#1106),#1110);
#1106 = LINE('',#1107,#1108);
#1107 = CARTESIAN_POINT('',(0.,-25.));
#1108 = VECTOR('',#1109,1.);
#1109 = DIRECTION('',(1.,0.));
#1110 = ( GEOMETRIC_REPRESENTATION_CONTEXT(2) 
PARAMETRIC_REPRESENTATION_CONTEXT() REPRESENTATION_CONTEXT('2D SPACE',''
  ) );
#1111 = ORIENTED_EDGE('',*,*,#1112,.T.);
#1112 = EDGE_CURVE('',#1085,#1113,#1115,.T.);
#1113 = VERTEX_POINT('',#1114);
#1114 = CARTESIAN_POINT('',(20.332724506711,0.,25.));
#1115 = SURFACE_CURVE('',#1116,(#1120,#1127),.PCURVE_S1.);
#1116 = LINE('',#1117,#1118);
#1117 = CARTESIAN_POINT('',(20.332724506711,49.681803490661,25.));
#1118 = VECTOR('',#1119,1.);
#1119 = DIRECTION('',(-1.430187082266E-16,-1.,0.));
#1120 = PCURVE('',#102,#1121);
#1121 = DEFINITIONAL_REPRESENTATION('',(#1122),#1126);
#1122 = LINE('',#1123,#1124);
#1123 = CARTESIAN_POINT('',(20.332724506711,9.973833881354));
#1124 = VECTOR('',#1125,1.);
#1125 = DIRECTION('',(-1.430187082266E-16,-1.));
#1126 = ( GEOMETRIC_REPRESENTATION_CONTEXT(2) 
PARAMETRIC_REPRESENTATION_CONTEXT() REPRESENTATION_CONTEXT('2D SPACE',''
  ) );
#1127 = PCURVE('',#849,#1128);
#1128 = DEFINITIONAL_REPRESENTATION('',(#1129),#1133);
#1129 = LINE('',#1130,#1131);
#1130 = CARTESIAN_POINT('',(0.,-25.));
#1131 = VECTOR('',#1132,1.);
#1132 = DIRECTION('',(1.,0.));
#1133 = ( GEOMETRIC_REPRESENTATION_CONTEXT(2) 
PARAMETRIC_REPRESENTATION_CONTEXT() REPRESENTATION_CONTEXT('2D SPACE',''
  ) );
#1134 = ORIENTED_EDGE('',*,*,#1135,.T.);
#1135 = EDGE_CURVE('',#1113,#1136,#1138,.T.);
#1136 = VERTEX_POINT('',#1137);
#1137 = CARTESIAN_POINT('',(40.332724506711,0.,25.));
#1138 = SURFACE_CURVE('',#1139,(#1143,#1150),.PCURVE_S1.);
#1139 = LINE('',#1140,#1141);
#1140 = CARTESIAN_POINT('',(20.332724506711,0.,25.));
#1141 = VECTOR('',#1142,1.);
#1142 = DIRECTION('',(1.,0.,0.));
#1143 = PCURVE('',#102,#1144);
#1144 = DEFINITIONAL_REPRESENTATION('',(#1145),#1149);
#1145 = LINE('',#1146,#1147);
#1146 = CARTESIAN_POINT('',(20.332724506711,-39.7079696093));
#1147 = VECTOR('',#1148,1.);
#1148 = DIRECTION('',(1.,0.));
#1149 = ( GEOMETRIC_REPRESENTATION_CONTEXT(2) 
PARAMETRIC_REPRESENTATION_CONTEXT() REPRESENTATION_CONTEXT('2D SPACE',''
  ) );
#1150 = PCURVE('',#877,#1151);
#1151 = DEFINITIONAL_REPRESENTATION('',(#1152),#1156);
#1152 = LINE('',#1153,#1154);
#1153 = CARTESIAN_POINT('',(0.,-25.));
#1154 = VECTOR('',#1155,1.);
#1155 = DIRECTION('',(1.,0.));
#1156 = ( GEOMETRIC_REPRESENTATION_CONTEXT(2) 
PARAMETRIC_REPRESENTATION_CONTEXT() REPRESENTATION_CONTEXT('2D SPACE',''
  ) );
#1157 = ORIENTED_EDGE('',*,*,#1158,.T.);
#1158 = EDGE_CURVE('',#1136,#920,#1159,.T.);
#1159 = SURFACE_CURVE('',#1160,(#1164,#1171),.PCURVE_S1.);
#1160 = LINE('',#1161,#1162);
#1161 = CARTESIAN_POINT('',(40.332724506711,0.,25.));
#1162 = VECTOR('',#1163,1.);
#1163 = DIRECTION('',(0.,1.,0.));
#1164 = PCURVE('',#102,#1165);
#1165 = DEFINITIONAL_REPRESENTATION('',(#1166),#1170);
#1166 = LINE('',#1167,#1168);
#1167 = CARTESIAN_POINT('',(40.332724506711,-39.7079696093));
#1168 = VECTOR('',#1169,1.);
#1169 = DIRECTION('',(0.,1.));
#1170 = ( GEOMETRIC_REPRESENTATION_CONTEXT(2) 
PARAMETRIC_REPRESENTATION_CONTEXT() REPRESENTATION_CONTEXT('2D SPACE',''
  ) );
#1171 = PCURVE('',#903,#1172);
#1172 = DEFINITIONAL_REPRESENTATION('',(#1173),#1177);
#1173 = LINE('',#1174,#1175);
#1174 = CARTESIAN_POINT('',(0.,-25.));
#1175 = VECTOR('',#1176,1.);
#1176 = DIRECTION('',(1.,0.));
#1177 = ( GEOMETRIC_REPRESENTATION_CONTEXT(2) 
PARAMETRIC_REPRESENTATION_CONTEXT() REPRESENTATION_CONTEXT('2D SPACE',''
  ) );
#1178 = ADVANCED_FACE('',(#1179),#258,.F.);
#1179 = FACE_BOUND('',#1180,.F.);
#1180 = EDGE_LOOP('',(#1181,#1204,#1231,#1232));
#1181 = ORIENTED_EDGE('',*,*,#1182,.T.);
#1182 = EDGE_CURVE('',#147,#1183,#1185,.T.);
#1183 = VERTEX_POINT('',#1184);
#1184 = CARTESIAN_POINT('',(-4.383049889483,47.111855917275,12.5));
#1185 = SEAM_CURVE('',#1186,(#1190,#1197),.PCURVE_S1.);
#1186 = LINE('',#1187,#1188);
#1187 = CARTESIAN_POINT('',(-4.6273463664,54.107591706409,12.5));
#1188 = VECTOR('',#1189,1.);
#1189 = DIRECTION('',(3.48994967025E-02,-0.999390827019,
    7.061190711983E-34));
#1190 = PCURVE('',#258,#1191);
#1191 = DEFINITIONAL_REPRESENTATION('',(#1192),#1196);
#1192 = LINE('',#1193,#1194);
#1193 = CARTESIAN_POINT('',(6.28318530718,-0.));
#1194 = VECTOR('',#1195,1.);
#1195 = DIRECTION('',(0.,1.));
#1196 = ( GEOMETRIC_REPRESENTATION_CONTEXT(2) 
PARAMETRIC_REPRESENTATION_CONTEXT() REPRESENTATION_CONTEXT('2D SPACE',''
  ) );
#1197 = PCURVE('',#258,#1198);
#1198 = DEFINITIONAL_REPRESENTATION('',(#1199),#1203);
#1199 = LINE('',#1200,#1201);
#1200 = CARTESIAN_POINT('',(0.,-0.));
#1201 = VECTOR('',#1202,1.);
#1202 = DIRECTION('',(0.,1.));
#1203 = ( GEOMETRIC_REPRESENTATION_CONTEXT(2) 
PARAMETRIC_REPRESENTATION_CONTEXT() REPRESENTATION_CONTEXT('2D SPACE',''
  ) );
#1204 = ORIENTED_EDGE('',*,*,#1205,.F.);
#1205 = EDGE_CURVE('',#1183,#1183,#1206,.T.);
#1206 = SURFACE_CURVE('',#1207,(#1212,#1219),.PCURVE_S1.);
#1207 = CIRCLE('',#1208,2.5);
#1208 = AXIS2_PLACEMENT_3D('',#1209,#1210,#1211);
#1209 = CARTESIAN_POINT('',(-1.884572821935,47.199104659031,12.5));
#1210 = DIRECTION('',(3.48994967025E-02,-0.999390827019,0.));
#1211 = DIRECTION('',(-0.999390827019,-3.48994967025E-02,0.));
#1212 = PCURVE('',#258,#1213);
#1213 = DEFINITIONAL_REPRESENTATION('',(#1214),#1218);
#1214 = LINE('',#1215,#1216);
#1215 = CARTESIAN_POINT('',(0.,7.));
#1216 = VECTOR('',#1217,1.);
#1217 = DIRECTION('',(1.,0.));
#1218 = ( GEOMETRIC_REPRESENTATION_CONTEXT(2) 
PARAMETRIC_REPRESENTATION_CONTEXT() REPRESENTATION_CONTEXT('2D SPACE',''
  ) );
#1219 = PCURVE('',#1220,#1225);
#1220 = PLANE('',#1221);
#1221 = AXIS2_PLACEMENT_3D('',#1222,#1223,#1224);
#1222 = CARTESIAN_POINT('',(-1.884572821935,47.199104659031,12.5));
#1223 = DIRECTION('',(3.48994967025E-02,-0.999390827019,0.));
#1224 = DIRECTION('',(-0.999390827019,-3.48994967025E-02,0.));
#1225 = DEFINITIONAL_REPRESENTATION('',(#1226),#1230);
#1226 = CIRCLE('',#1227,2.5);
#1227 = AXIS2_PLACEMENT_2D('',#1228,#1229);
#1228 = CARTESIAN_POINT('',(0.,0.));
#1229 = DIRECTION('',(1.,0.));
#1230 = ( GEOMETRIC_REPRESENTATION_CONTEXT(2) 
PARAMETRIC_REPRESENTATION_CONTEXT() REPRESENTATION_CONTEXT('2D SPACE',''
  ) );
#1231 = ORIENTED_EDGE('',*,*,#1182,.F.);
#1232 = ORIENTED_EDGE('',*,*,#146,.T.);
#1233 = ADVANCED_FACE('',(#1234),#432,.F.);
#1234 = FACE_BOUND('',#1235,.F.);
#1235 = EDGE_LOOP('',(#1236,#1259,#1286,#1287));
#1236 = ORIENTED_EDGE('',*,*,#1237,.T.);
#1237 = EDGE_CURVE('',#321,#1238,#1240,.T.);
#1238 = VERTEX_POINT('',#1239);
#1239 = CARTESIAN_POINT('',(-38.71837040054,30.956498585481,12.5));
#1240 = SEAM_CURVE('',#1241,(#1245,#1252),.PCURVE_S1.);
#1241 = LINE('',#1242,#1243);
#1242 = CARTESIAN_POINT('',(-43.50076933498,36.068118723156,12.5));
#1243 = VECTOR('',#1244,1.);
#1244 = DIRECTION('',(0.683199847777,-0.730231448239,2.401648174041E-33)
  );
#1245 = PCURVE('',#432,#1246);
#1246 = DEFINITIONAL_REPRESENTATION('',(#1247),#1251);
#1247 = LINE('',#1248,#1249);
#1248 = CARTESIAN_POINT('',(6.28318530718,-0.));
#1249 = VECTOR('',#1250,1.);
#1250 = DIRECTION('',(0.,1.));
#1251 = ( GEOMETRIC_REPRESENTATION_CONTEXT(2) 
PARAMETRIC_REPRESENTATION_CONTEXT() REPRESENTATION_CONTEXT('2D SPACE',''
  ) );
#1252 = PCURVE('',#432,#1253);
#1253 = DEFINITIONAL_REPRESENTATION('',(#1254),#1258);
#1254 = LINE('',#1255,#1256);
#1255 = CARTESIAN_POINT('',(0.,-0.));
#1256 = VECTOR('',#1257,1.);
#1257 = DIRECTION('',(0.,1.));
#1258 = ( GEOMETRIC_REPRESENTATION_CONTEXT(2) 
PARAMETRIC_REPRESENTATION_CONTEXT() REPRESENTATION_CONTEXT('2D SPACE',''
  ) );
#1259 = ORIENTED_EDGE('',*,*,#1260,.F.);
#1260 = EDGE_CURVE('',#1238,#1238,#1261,.T.);
#1261 = SURFACE_CURVE('',#1262,(#1267,#1274),.PCURVE_S1.);
#1262 = CIRCLE('',#1263,2.5);
#1263 = AXIS2_PLACEMENT_3D('',#1264,#1265,#1266);
#1264 = CARTESIAN_POINT('',(-36.89279177995,32.664498204923,12.5));
#1265 = DIRECTION('',(0.683199847777,-0.730231448239,0.));
#1266 = DIRECTION('',(-0.730231448239,-0.683199847777,0.));
#1267 = PCURVE('',#432,#1268);
#1268 = DEFINITIONAL_REPRESENTATION('',(#1269),#1273);
#1269 = LINE('',#1270,#1271);
#1270 = CARTESIAN_POINT('',(0.,7.));
#1271 = VECTOR('',#1272,1.);
#1272 = DIRECTION('',(1.,0.));
#1273 = ( GEOMETRIC_REPRESENTATION_CONTEXT(2) 
PARAMETRIC_REPRESENTATION_CONTEXT() REPRESENTATION_CONTEXT('2D SPACE',''
  ) );
#1274 = PCURVE('',#1275,#1280);
#1275 = PLANE('',#1276);
#1276 = AXIS2_PLACEMENT_3D('',#1277,#1278,#1279);
#1277 = CARTESIAN_POINT('',(-36.89279177995,32.664498204923,12.5));
#1278 = DIRECTION('',(0.683199847777,-0.730231448239,0.));
#1279 = DIRECTION('',(-0.730231448239,-0.683199847777,0.));
#1280 = DEFINITIONAL_REPRESENTATION('',(#1281),#1285);
#1281 = CIRCLE('',#1282,2.5);
#1282 = AXIS2_PLACEMENT_2D('',#1283,#1284);
#1283 = CARTESIAN_POINT('',(0.,0.));
#1284 = DIRECTION('',(1.,0.));
#1285 = ( GEOMETRIC_REPRESENTATION_CONTEXT(2) 
PARAMETRIC_REPRESENTATION_CONTEXT() REPRESENTATION_CONTEXT('2D SPACE',''
  ) );
#1286 = ORIENTED_EDGE('',*,*,#1237,.F.);
#1287 = ORIENTED_EDGE('',*,*,#320,.T.);
#1288 = ADVANCED_FACE('',(#1289),#606,.F.);
#1289 = FACE_BOUND('',#1290,.F.);
#1290 = EDGE_LOOP('',(#1291,#1314,#1341,#1342));
#1291 = ORIENTED_EDGE('',*,*,#1292,.T.);
#1292 = EDGE_CURVE('',#495,#1293,#1295,.T.);
#1293 = VERTEX_POINT('',#1294);
#1294 = CARTESIAN_POINT('',(33.610068492419,35.57126423469,12.5));
#1295 = SEAM_CURVE('',#1296,(#1300,#1307),.PCURVE_S1.);
#1296 = LINE('',#1297,#1298);
#1297 = CARTESIAN_POINT('',(38.211161148503,40.846673827331,12.5));
#1298 = VECTOR('',#1299,1.);
#1299 = DIRECTION('',(-0.657298950869,-0.753629941806,
    -1.072694344277E-32));
#1300 = PCURVE('',#606,#1301);
#1301 = DEFINITIONAL_REPRESENTATION('',(#1302),#1306);
#1302 = LINE('',#1303,#1304);
#1303 = CARTESIAN_POINT('',(6.28318530718,-0.));
#1304 = VECTOR('',#1305,1.);
#1305 = DIRECTION('',(0.,1.));
#1306 = ( GEOMETRIC_REPRESENTATION_CONTEXT(2) 
PARAMETRIC_REPRESENTATION_CONTEXT() REPRESENTATION_CONTEXT('2D SPACE',''
  ) );
#1307 = PCURVE('',#606,#1308);
#1308 = DEFINITIONAL_REPRESENTATION('',(#1309),#1313);
#1309 = LINE('',#1310,#1311);
#1310 = CARTESIAN_POINT('',(0.,-0.));
#1311 = VECTOR('',#1312,1.);
#1312 = DIRECTION('',(0.,1.));
#1313 = ( GEOMETRIC_REPRESENTATION_CONTEXT(2) 
PARAMETRIC_REPRESENTATION_CONTEXT() REPRESENTATION_CONTEXT('2D SPACE',''
  ) );
#1314 = ORIENTED_EDGE('',*,*,#1315,.F.);
#1315 = EDGE_CURVE('',#1293,#1293,#1316,.T.);
#1316 = SURFACE_CURVE('',#1317,(#1322,#1329),.PCURVE_S1.);
#1317 = CIRCLE('',#1318,2.5);
#1318 = AXIS2_PLACEMENT_3D('',#1319,#1320,#1321);
#1319 = CARTESIAN_POINT('',(35.494143346933,33.928016857517,12.5));
#1320 = DIRECTION('',(-0.657298950869,-0.753629941806,0.));
#1321 = DIRECTION('',(-0.753629941806,0.657298950869,0.));
#1322 = PCURVE('',#606,#1323);
#1323 = DEFINITIONAL_REPRESENTATION('',(#1324),#1328);
#1324 = LINE('',#1325,#1326);
#1325 = CARTESIAN_POINT('',(0.,7.));
#1326 = VECTOR('',#1327,1.);
#1327 = DIRECTION('',(1.,0.));
#1328 = ( GEOMETRIC_REPRESENTATION_CONTEXT(2) 
PARAMETRIC_REPRESENTATION_CONTEXT() REPRESENTATION_CONTEXT('2D SPACE',''
  ) );
#1329 = PCURVE('',#1330,#1335);
#1330 = PLANE('',#1331);
#1331 = AXIS2_PLACEMENT_3D('',#1332,#1333,#1334);
#1332 = CARTESIAN_POINT('',(35.494143346933,33.928016857517,12.5));
#1333 = DIRECTION('',(-0.657298950869,-0.753629941806,0.));
#1334 = DIRECTION('',(-0.753629941806,0.657298950869,0.));
#1335 = DEFINITIONAL_REPRESENTATION('',(#1336),#1340);
#1336 = CIRCLE('',#1337,2.5);
#1337 = AXIS2_PLACEMENT_2D('',#1338,#1339);
#1338 = CARTESIAN_POINT('',(0.,0.));
#1339 = DIRECTION('',(1.,0.));
#1340 = ( GEOMETRIC_REPRESENTATION_CONTEXT(2) 
PARAMETRIC_REPRESENTATION_CONTEXT() REPRESENTATION_CONTEXT('2D SPACE',''
  ) );
#1341 = ORIENTED_EDGE('',*,*,#1292,.F.);
#1342 = ORIENTED_EDGE('',*,*,#494,.T.);
#1343 = ADVANCED_FACE('',(#1344),#732,.T.);
#1344 = FACE_BOUND('',#1345,.T.);
#1345 = EDGE_LOOP('',(#1346,#1347,#1368,#1369));
#1346 = ORIENTED_EDGE('',*,*,#716,.F.);
#1347 = ORIENTED_EDGE('',*,*,#1348,.T.);
#1348 = EDGE_CURVE('',#717,#1016,#1349,.T.);
#1349 = SURFACE_CURVE('',#1350,(#1354,#1361),.PCURVE_S1.);
#1350 = LINE('',#1351,#1352);
#1351 = CARTESIAN_POINT('',(-40.33272450671,0.,0.));
#1352 = VECTOR('',#1353,1.);
#1353 = DIRECTION('',(0.,0.,1.));
#1354 = PCURVE('',#732,#1355);
#1355 = DEFINITIONAL_REPRESENTATION('',(#1356),#1360);
#1356 = LINE('',#1357,#1358);
#1357 = CARTESIAN_POINT('',(0.,0.));
#1358 = VECTOR('',#1359,1.);
#1359 = DIRECTION('',(0.,-1.));
#1360 = ( GEOMETRIC_REPRESENTATION_CONTEXT(2) 
PARAMETRIC_REPRESENTATION_CONTEXT() REPRESENTATION_CONTEXT('2D SPACE',''
  ) );
#1361 = PCURVE('',#760,#1362);
#1362 = DEFINITIONAL_REPRESENTATION('',(#1363),#1367);
#1363 = LINE('',#1364,#1365);
#1364 = CARTESIAN_POINT('',(20.,0.));
#1365 = VECTOR('',#1366,1.);
#1366 = DIRECTION('',(0.,-1.));
#1367 = ( GEOMETRIC_REPRESENTATION_CONTEXT(2) 
PARAMETRIC_REPRESENTATION_CONTEXT() REPRESENTATION_CONTEXT('2D SPACE',''
  ) );
#1368 = ORIENTED_EDGE('',*,*,#1015,.T.);
#1369 = ORIENTED_EDGE('',*,*,#990,.F.);
#1370 = ADVANCED_FACE('',(#1371),#760,.T.);
#1371 = FACE_BOUND('',#1372,.T.);
#1372 = EDGE_LOOP('',(#1373,#1394,#1395,#1396));
#1373 = ORIENTED_EDGE('',*,*,#1374,.T.);
#1374 = EDGE_CURVE('',#745,#1039,#1375,.T.);
#1375 = SURFACE_CURVE('',#1376,(#1380,#1387),.PCURVE_S1.);
#1376 = LINE('',#1377,#1378);
#1377 = CARTESIAN_POINT('',(-20.33272450671,0.,0.));
#1378 = VECTOR('',#1379,1.);
#1379 = DIRECTION('',(0.,0.,1.));
#1380 = PCURVE('',#760,#1381);
#1381 = DEFINITIONAL_REPRESENTATION('',(#1382),#1386);
#1382 = LINE('',#1383,#1384);
#1383 = CARTESIAN_POINT('',(0.,-0.));
#1384 = VECTOR('',#1385,1.);
#1385 = DIRECTION('',(0.,-1.));
#1386 = ( GEOMETRIC_REPRESENTATION_CONTEXT(2) 
PARAMETRIC_REPRESENTATION_CONTEXT() REPRESENTATION_CONTEXT('2D SPACE',''
  ) );
#1387 = PCURVE('',#788,#1388);
#1388 = DEFINITIONAL_REPRESENTATION('',(#1389),#1393);
#1389 = LINE('',#1390,#1391);
#1390 = CARTESIAN_POINT('',(49.681803490661,0.));
#1391 = VECTOR('',#1392,1.);
#1392 = DIRECTION('',(0.,-1.));
#1393 = ( GEOMETRIC_REPRESENTATION_CONTEXT(2) 
PARAMETRIC_REPRESENTATION_CONTEXT() REPRESENTATION_CONTEXT('2D SPACE',''
  ) );
#1394 = ORIENTED_EDGE('',*,*,#1038,.T.);
#1395 = ORIENTED_EDGE('',*,*,#1348,.F.);
#1396 = ORIENTED_EDGE('',*,*,#744,.F.);
#1397 = ADVANCED_FACE('',(#1398),#788,.T.);
#1398 = FACE_BOUND('',#1399,.T.);
#1399 = EDGE_LOOP('',(#1400,#1401,#1420,#1421));
#1400 = ORIENTED_EDGE('',*,*,#772,.F.);
#1401 = ORIENTED_EDGE('',*,*,#1402,.F.);
#1402 = EDGE_CURVE('',#1062,#773,#1403,.T.);
#1403 = SURFACE_CURVE('',#1404,(#1408,#1414),.PCURVE_S1.);
#1404 = LINE('',#1405,#1406);
#1405 = CARTESIAN_POINT('',(-20.33272450671,38.91110150314,0.));
#1406 = VECTOR('',#1407,1.);
#1407 = DIRECTION('',(0.,0.,-1.));
#1408 = PCURVE('',#788,#1409);
#1409 = DEFINITIONAL_REPRESENTATION('',(#1410),#1413);
#1410 = B_SPLINE_CURVE_WITH_KNOTS('',1,(#1411,#1412),.UNSPECIFIED.,.F.,
  .F.,(2,2),(-25.0000006,6.E-07),.PIECEWISE_BEZIER_KNOTS.);
#1411 = CARTESIAN_POINT('',(10.77070198752,-25.0000006));
#1412 = CARTESIAN_POINT('',(10.77070198752,6.E-07));
#1413 = ( GEOMETRIC_REPRESENTATION_CONTEXT(2) 
PARAMETRIC_REPRESENTATION_CONTEXT() REPRESENTATION_CONTEXT('2D SPACE',''
  ) );
#1414 = PCURVE('',#821,#1415);
#1415 = DEFINITIONAL_REPRESENTATION('',(#1416),#1419);
#1416 = B_SPLINE_CURVE_WITH_KNOTS('',1,(#1417,#1418),.UNSPECIFIED.,.F.,
  .F.,(2,2),(-25.0000006,6.E-07),.PIECEWISE_BEZIER_KNOTS.);
#1417 = CARTESIAN_POINT('',(0.436858571102,-25.0000006));
#1418 = CARTESIAN_POINT('',(0.436858571102,6.E-07));
#1419 = ( GEOMETRIC_REPRESENTATION_CONTEXT(2) 
PARAMETRIC_REPRESENTATION_CONTEXT() REPRESENTATION_CONTEXT('2D SPACE',''
  ) );
#1420 = ORIENTED_EDGE('',*,*,#1061,.T.);
#1421 = ORIENTED_EDGE('',*,*,#1374,.F.);
#1422 = ADVANCED_FACE('',(#1423),#821,.F.);
#1423 = FACE_BOUND('',#1424,.F.);
#1424 = EDGE_LOOP('',(#1425,#1426,#1427,#1428));
#1425 = ORIENTED_EDGE('',*,*,#800,.F.);
#1426 = ORIENTED_EDGE('',*,*,#1402,.F.);
#1427 = ORIENTED_EDGE('',*,*,#1084,.T.);
#1428 = ORIENTED_EDGE('',*,*,#1429,.T.);
#1429 = EDGE_CURVE('',#1085,#801,#1430,.T.);
#1430 = SURFACE_CURVE('',#1431,(#1435,#1441),.PCURVE_S1.);
#1431 = LINE('',#1432,#1433);
#1432 = CARTESIAN_POINT('',(20.332724506711,38.91110150314,0.));
#1433 = VECTOR('',#1434,1.);
#1434 = DIRECTION('',(0.,0.,-1.));
#1435 = PCURVE('',#821,#1436);
#1436 = DEFINITIONAL_REPRESENTATION('',(#1437),#1440);
#1437 = B_SPLINE_CURVE_WITH_KNOTS('',1,(#1438,#1439),.UNSPECIFIED.,.F.,
  .F.,(2,2),(-25.0000006,6.E-07),.PIECEWISE_BEZIER_KNOTS.);
#1438 = CARTESIAN_POINT('',(1.274436760479,-25.0000006));
#1439 = CARTESIAN_POINT('',(1.274436760479,6.E-07));
#1440 = ( GEOMETRIC_REPRESENTATION_CONTEXT(2) 
PARAMETRIC_REPRESENTATION_CONTEXT() REPRESENTATION_CONTEXT('2D SPACE',''
  ) );
#1441 = PCURVE('',#849,#1442);
#1442 = DEFINITIONAL_REPRESENTATION('',(#1443),#1446);
#1443 = B_SPLINE_CURVE_WITH_KNOTS('',1,(#1444,#1445),.UNSPECIFIED.,.F.,
  .F.,(2,2),(-25.0000006,6.E-07),.PIECEWISE_BEZIER_KNOTS.);
#1444 = CARTESIAN_POINT('',(10.77070198752,-25.0000006));
#1445 = CARTESIAN_POINT('',(10.77070198752,6.E-07));
#1446 = ( GEOMETRIC_REPRESENTATION_CONTEXT(2) 
PARAMETRIC_REPRESENTATION_CONTEXT() REPRESENTATION_CONTEXT('2D SPACE',''
  ) );
#1447 = ADVANCED_FACE('',(#1448),#849,.F.);
#1448 = FACE_BOUND('',#1449,.F.);
#1449 = EDGE_LOOP('',(#1450,#1451,#1452,#1453));
#1450 = ORIENTED_EDGE('',*,*,#833,.F.);
#1451 = ORIENTED_EDGE('',*,*,#1429,.F.);
#1452 = ORIENTED_EDGE('',*,*,#1112,.T.);
#1453 = ORIENTED_EDGE('',*,*,#1454,.F.);
#1454 = EDGE_CURVE('',#834,#1113,#1455,.T.);
#1455 = SURFACE_CURVE('',#1456,(#1460,#1467),.PCURVE_S1.);
#1456 = LINE('',#1457,#1458);
#1457 = CARTESIAN_POINT('',(20.332724506711,0.,0.));
#1458 = VECTOR('',#1459,1.);
#1459 = DIRECTION('',(0.,0.,1.));
#1460 = PCURVE('',#849,#1461);
#1461 = DEFINITIONAL_REPRESENTATION('',(#1462),#1466);
#1462 = LINE('',#1463,#1464);
#1463 = CARTESIAN_POINT('',(49.681803490661,0.));
#1464 = VECTOR('',#1465,1.);
#1465 = DIRECTION('',(0.,-1.));
#1466 = ( GEOMETRIC_REPRESENTATION_CONTEXT(2) 
PARAMETRIC_REPRESENTATION_CONTEXT() REPRESENTATION_CONTEXT('2D SPACE',''
  ) );
#1467 = PCURVE('',#877,#1468);
#1468 = DEFINITIONAL_REPRESENTATION('',(#1469),#1473);
#1469 = LINE('',#1470,#1471);
#1470 = CARTESIAN_POINT('',(0.,0.));
#1471 = VECTOR('',#1472,1.);
#1472 = DIRECTION('',(0.,-1.));
#1473 = ( GEOMETRIC_REPRESENTATION_CONTEXT(2) 
PARAMETRIC_REPRESENTATION_CONTEXT() REPRESENTATION_CONTEXT('2D SPACE',''
  ) );
#1474 = ADVANCED_FACE('',(#1475),#877,.F.);
#1475 = FACE_BOUND('',#1476,.F.);
#1476 = EDGE_LOOP('',(#1477,#1478,#1479,#1500));
#1477 = ORIENTED_EDGE('',*,*,#1454,.T.);
#1478 = ORIENTED_EDGE('',*,*,#1135,.T.);
#1479 = ORIENTED_EDGE('',*,*,#1480,.F.);
#1480 = EDGE_CURVE('',#862,#1136,#1481,.T.);
#1481 = SURFACE_CURVE('',#1482,(#1486,#1493),.PCURVE_S1.);
#1482 = LINE('',#1483,#1484);
#1483 = CARTESIAN_POINT('',(40.332724506711,0.,0.));
#1484 = VECTOR('',#1485,1.);
#1485 = DIRECTION('',(0.,0.,1.));
#1486 = PCURVE('',#877,#1487);
#1487 = DEFINITIONAL_REPRESENTATION('',(#1488),#1492);
#1488 = LINE('',#1489,#1490);
#1489 = CARTESIAN_POINT('',(20.,0.));
#1490 = VECTOR('',#1491,1.);
#1491 = DIRECTION('',(0.,-1.));
#1492 = ( GEOMETRIC_REPRESENTATION_CONTEXT(2) 
PARAMETRIC_REPRESENTATION_CONTEXT() REPRESENTATION_CONTEXT('2D SPACE',''
  ) );
#1493 = PCURVE('',#903,#1494);
#1494 = DEFINITIONAL_REPRESENTATION('',(#1495),#1499);
#1495 = LINE('',#1496,#1497);
#1496 = CARTESIAN_POINT('',(0.,0.));
#1497 = VECTOR('',#1498,1.);
#1498 = DIRECTION('',(0.,-1.));
#1499 = ( GEOMETRIC_REPRESENTATION_CONTEXT(2) 
PARAMETRIC_REPRESENTATION_CONTEXT() REPRESENTATION_CONTEXT('2D SPACE',''
  ) );
#1500 = ORIENTED_EDGE('',*,*,#861,.F.);
#1501 = ADVANCED_FACE('',(#1502),#903,.F.);
#1502 = FACE_BOUND('',#1503,.F.);
#1503 = EDGE_LOOP('',(#1504,#1505,#1506,#1507));
#1504 = ORIENTED_EDGE('',*,*,#889,.F.);
#1505 = ORIENTED_EDGE('',*,*,#1480,.T.);
#1506 = ORIENTED_EDGE('',*,*,#1158,.T.);
#1507 = ORIENTED_EDGE('',*,*,#919,.F.);
#1508 = ADVANCED_FACE('',(#1509),#1220,.F.);
#1509 = FACE_BOUND('',#1510,.F.);
#1510 = EDGE_LOOP('',(#1511));
#1511 = ORIENTED_EDGE('',*,*,#1205,.T.);
#1512 = ADVANCED_FACE('',(#1513),#1275,.F.);
#1513 = FACE_BOUND('',#1514,.F.);
#1514 = EDGE_LOOP('',(#1515));
#1515 = ORIENTED_EDGE('',*,*,#1260,.T.);
#1516 = ADVANCED_FACE('',(#1517),#1330,.F.);
#1517 = FACE_BOUND('',#1518,.F.);
#1518 = EDGE_LOOP('',(#1519));
#1519 = ORIENTED_EDGE('',*,*,#1315,.T.);
#1520 = ( GEOMETRIC_REPRESENTATION_CONTEXT(3) 
GLOBAL_UNCERTAINTY_ASSIGNED_CONTEXT((#1524)) 
GLOBAL_UNIT_ASSIGNED_CONTEXT((#1521,#1522,#1523)) REPRESENTATION_CONTEXT
('Context #1','3D Context with UNIT and UNCERTAINTY') );
#1521 = ( LENGTH_UNIT() NAMED_UNIT(*) SI_UNIT(.MILLI.,.METRE.) );
#1522 = ( NAMED_UNIT(*) PLANE_ANGLE_UNIT() SI_UNIT($,.RADIAN.) );
#1523 = ( NAMED_UNIT(*) SI_UNIT($,.STERADIAN.) SOLID_ANGLE_UNIT() );
#1524 = UNCERTAINTY_MEASURE_WITH_UNIT(LENGTH_MEASURE(1.E-07),#1521,
  'distance_accuracy_value','confusion accuracy');
#1525 = PRODUCT_RELATED_PRODUCT_CATEGORY('part',$,(#7));
ENDSEC;
END-ISO-10303-21;
