<?xml version="1.0" encoding="UTF-8" standalone="no"?>
<svg
   xmlns:svg="http://www.w3.org/2000/svg"
   xmlns="http://www.w3.org/2000/svg"
   width="800.0"
   height="800.0"

>
    <g transform="scale(7.165561368443094, -7.165561368443094)   translate(83.12558274071391,-16.83318042444866)" stroke-width="0.1395564071789223"  fill="none">
       <!-- hidden lines -->
       <g  stroke="rgb(160,160,160)" fill="none" stroke-dasharray="0.1395564071789223,0.1395564071789223" >
			<path d="M-55.21430130492945,2.3563151510163336 L-55.21306853720259,2.1669425937220246 L-55.209370284679224,1.9775778181736157 L-55.20320669932889,1.788228605797236 L-55.19457803442724,1.5989027373794897 L-55.18348464454557,1.4096079927477256 L-55.16992698553634,1.2203521504503447 L-55.15390561451435,1.0311429874371638 L-55.135421189833906,0.8419882787398425 L-55.11447447106176,0.6528957971523901 L-55.091066318945856,0.4638733129117625 L-55.06519769538003,0.27492859337856723 L-55.036869663364406,0.08606940271788455 L-55.00608338696178,-0.10269649841978046 L-54.972840131249754,-0.2913613532173982 L-54.937141262268746,-0.4799174090101639 L-54.89898824696588,-0.6683569176040671 L-54.85838265313469,-0.856672135594287 L-54.81532614935069,-1.0448553246833812 L-54.769820504902825,-1.2328987519992758 L-54.721867589720766,-1.4207946904130226 L-54.67146937429804,-1.6085354188563263 L-54.61862792961111,-1.7961132226388181 L-54.56334542703422,-1.983520393765072 L-54.50562413825021,-2.170749231251343 L-54.445466435157144,-2.357792041442018 L-54.38287478977086,-2.5446411383257668 L-54.31785177412335,-2.7312888438513725 L-54.25040006015714,-2.917727488243249 L-54.18052241961542,-3.1039494103166 L-54.10822172392821,-3.2899469577922402 L-54.03350094409431,-3.475712487611044 L-53.95636315055925,-3.661238366248012 L-53.876811513089095,-3.8465169700259545 L-53.794849300640244,-4.031540685428768 L-53.71047988122504,-4.21630190941428 L-53.62370672177338,-4.400793049726689 L-53.53453338799029,-4.58500652520854 L-53.44296354420938,-4.768934766112249 L-53.34900095324223,-4.952570214411173 L-53.25264947622385,-5.135905324110169 L-53.15391307245395,-5.3189325615556875 L-53.05279579923426,-5.501644405745353 L-52.949301811701815,-5.684033348636998 L-52.8434353626582,-5.866091895457208 L-52.735200802394814,-6.047812565009282 L-52.624602578514086,-6.229187889980672 L-52.51164523574671,-6.4102104172498 L-52.396333415764914,-6.590872708192352 L-52.27867185699171,-6.771167338986938 L-52.15866539440616,-6.951086900920155 L-52.03631895934475,-7.13062400069102 L-51.9116375792987,-7.309771260714786 L-51.784626377707376,-7.488521319426107 L-51.6552905737478,-7.666866831581531 L-51.523635482120135,-7.844800468561333 L-51.38966651282932,-8.022314918670677 L-51.253389170962755,-8.199402887440057 L-51.114809056464054,-8.37605709792505 L-50.97393186390298,-8.55227029100534 L-50.83076338224143,-8.728035225683007 L-50.68530949459551,-8.903344679380089 L-50.537576177993834,-9.078191448235362 L-50.3875695031319,-9.252568347400363 L-50.235295634122636,-9.426468211334639 L-50.08076082824308,-9.599883894100195 L-49.923971435677274,-9.772808269655124 L-49.60365475418867,-10.117154696202116 L-49.27439823925821,-10.459450891668867 L-48.93625600990402,-10.799640593739666 L-48.589283645665425,-11.137667886337514 L-48.23353817746758,-11.473477208814916 L-47.869078078247405,-11.807013365086224 L-47.495963253342545,-12.138221532700086 L-47.11425503064492,-12.467047271850447 L-46.72401615052039,-12.793436534324684 L-46.32531075549629,-13.11733567238738 L-45.91820437971851,-13.43869144759824 L-45.50276393817983,-13.757451039562762 L-45.07905771572124,-14.07356205461417 L-44.647155355808174,-14.38697253442526 L-44.2071278490834,-14.69763096454861 L-43.759047521698456,-15.005486282883888 L-43.30298802342562,-15.310487888070801 L-42.83902431555225,-15.612585647806297 L-42.367232658559665,-15.911729907084682 L-41.88769059958834,-16.207871496359292 L-41.400476959691716,-16.50096173962432 L-40.905671820880634,-16.790952462415618 L-40.403356512960386,-17.077795999728977 L-39.89361360016282,-17.361445203854686 L-39.37652686757547,-17.641853452127098 L-38.852181307369975,-17.918974654587853 L-38.32066310483217,-18.19276326156159 L-37.78205962419607,-18.4631742711428 L-37.236459394284005,-18.730163236592674 L-36.68395209395539,-18.993686273644705 L-36.124628537366405,-19.253700067717826 L-35.558580659043216,-19.510161881035906 L-34.98590149877083,-19.763029559652445 L-34.40668518630046,-20.012261540379317 L-33.821026925877625,-20.257816857618394 L-33.22902298059373,-20.499655150094938 L-32.63077065656353,-20.737736667491706 L-32.02636828693116,-20.972022276982575 L-31.415915215707432,-21.20247346966473 L-30.799511781440874,-21.42905236688824 L-30.177259300725378,-21.651721726482087 L-29.54926005154704,-21.870444948875562 L-28.91561725647303,-22.085186083114042 L-28.276435065685146,-22.29590983276814 L-27.631818539860927,-22.5025815617353 L-26.98187363290512,-22.705167299932832 L-26.326707174534324,-22.903633748881493 L-25.666426852717652,-23.097948287178646 L-25.001141195976363,-23.288078975860188 L-24.330959555545316,-23.47399456365025 L-23.655992087399174,-23.65566449209789 L-22.976349734146392,-23.833058900599912 L-22.292144206793882,-24.00614863130896 L-21.603487966385313,-24.174905233926125 L-20.91049420551625,-24.33930097037724 L-20.21327682972898,-24.499308819372132 L-19.511950438790112,-24.654902480846008 L-18.806630307854196,-24.80605638028235 L-18.097432368516156,-24.952745672916528 L-17.384473189756005,-25.094946247819454 L-16.667869958778702,-25.232634731860653 L-15.947740461752332,-25.36578849355002 L-15.224203064447988,-25.494385646757717 L-14.497376692784268,-25.618405054311516 L-13.767380813279747,-25.73782633147109 L-13.034335413416578,-25.852629849278568 L-12.298360981918446,-25.96279673778491 L-11.559578488946197,-26.06830888915152 L-10.818109366214301,-26.16914896062656 L-10.074075487031365,-26.265300377395544 L-9.327599146268238,-26.356747335305705 L-8.578803040256673,-26.443474803463666 L-7.827810246622071,-26.525468526706028 L-7.074744204053554,-26.602715027942477 L-6.319728692014617,-26.67520161037095 L-5.562887810397908,-26.742916359564582 L-4.804345959127223,-26.80584814543006 L-4.044227817710177,-26.863986624037032 L-3.282658324745049,-26.91732223931832 L-2.519762657384895,-26.965846224640625 L-1.7556662107625343,-27.00955060424547 L-0.9904945773796925,-27.048428194560163 L-0.22437352646365039,-27.082472605378534 L0.5425710167050415,-27.11167824091127 L1.3102129914905984,-27.13604030070571 L2.0784262226222916,-27.155554780434834 L2.847084440933469,-27.170218472555494 L3.6160613041161307,-27.180028966835593 L4.385230417487466,-27.184984650750266 L5.154465354765,-27.185084709746924 L5.923639678846994,-27.18032912737913 L6.6926269625945025,-27.17071868530933 L7.4613008096119025,-27.15625496318032 L8.22953487502237,-27.136940338355668 L8.997202886234646,-27.11277798552892 " />
			<path d="M8.997202886234781,-27.11277798552891 L8.997202886234781,-45.41389508456188 " />
			<path d="M-34.27028247632289,-30.949877485932603 L-34.27357033255314,-30.8205143968245 L-34.28343651516878,-30.688667423168376 L-34.299902310179974,-30.55453543588946 L-34.32301014595496,-30.418323311666846 L-34.352821102002466,-30.280247371331534 L-34.38941240865876,-30.140540660117253 L-34.43287489527965,-29.999458192914783 L-34.483310344537514,-29.857282287680306 L-34.540828710423504,-29.71432811014846 L-34.60554515755522,-29.570949553000723 L-34.67757687938989,-29.427545572639687 L-34.75703965294328,-29.284567106719884 L-34.84404408761449,-29.1425246955858 L-34.93869152571689,-29.001996930767636 L-35.04178101483796,-28.86272281525628 L-35.096878597446775,-28.7934173330593 L-35.15423278134674,-28.724704204588775 L-35.21373980093687,-28.656858988210555 L-35.275286261702476,-28.59014683472053 L-35.3387497507888,-28.524822260301253 L-35.40399947750384,-28.461128897894802 L-35.470896938278614,-28.39929922862663 L-35.53929660104329,-28.339554294775965 L-35.609046604407325,-28.28210339564894 L-35.67998946746207,-28.227143767571597 L-35.75196280645412,-28.17486024908045 L-35.82480005500771,-28.125424932249206 L-35.89833118500471,-28.07899680095094 L-35.97238342566023,-28.03572135671579 L-36.04678197876264,-27.99573023270497 L-36.12135072847595,-27.95914079618273 L-36.19591294453341,-27.926055739728522 L-36.2702919780803,-27.896562661292577 L-36.34431194985467,-27.87073363305864 L-36.41779843082426,-27.848624758938556 L-36.49057911582812,-27.830275720384023 L-36.56248449120138,-27.81570931006171 L-36.63320834317355,-27.804948656670135 L-36.702177026020934,-27.797990119328784 L-36.76931277990487,-27.794712816702955 L-36.8345823943775,-27.79499097293372 L-36.8979573879585,-27.798700832113028 L-36.9594136986792,-27.80572057883057 L-37.01893139513158,-27.815930264313444 L-37.076494407266786,-27.829211737986334 L-37.13209027618792,-27.845448584279982 L-37.185709922181594,-27.86452606451559 L-37.237347430233,-27.886331063693035 L-37.286999852269055,-27.910752042010483 " />
			<path d="M-37.286999852269055,-27.910752042010483 L-37.35408503609064,-27.949702631205884 L-37.417177416842755,-27.993395161157864 L-37.47629527281193,-28.041525805755967 L-37.531465918893126,-28.09379643757913 L-37.582725055710654,-28.149914491940738 L-37.630116210836725,-28.20959285944377 L-37.67369026332398,-28.27254980504285 L-37.71350598211918,-28.33851058022624 L-37.74971242887742,-28.407377733920807 L-37.78242490239708,-28.479072529180566 L-37.811696848516334,-28.553439662723395 L-37.83757661974602,-28.630334179489605 L-37.86010742045144,-28.709620498197403 L-37.87932725356768,-28.791171488721183 L-37.89526886821576,-28.874867593951116 L-37.90795970758713,-28.960595988792246 L-37.917421856463854,-29.048249768961565 L-37.923671987741784,-29.137727162241337 L-37.926721307324314,-29.22893075484703 L-37.92657549675396,-29.321766725568214 L-37.923234652949176,-29.416144080340775 L-37.9166932244139,-29.51197387990875 L-37.9069399432871,-29.609168453234208 L-37.89395775259983,-29.707640589313414 L-37.8777237281071,-29.80730270005772 L-37.858208994062004,-29.90806594689749 L-37.83537863229952,-30.009839323767387 L-37.80919158399734,-30.112528689131377 L-37.77958089054149,-30.216100889138485 L-37.74644981915939,-30.32056321980728 L-37.7097375010607,-30.425760748519515 L-37.66938519116583,-30.53152116911754 L-37.6253356605228,-30.63765842389157 L-37.57753381728669,-30.743971821366685 L-37.52592735290287,-30.85024513442812 L-37.470467428957946,-30.956245662785307 L-37.4111094201621,-31.06172324377532 L-37.34781372892671,-31.166409195506272 L-37.280546687001014,-31.270015176341225 L-37.20928155963159,-31.372231944723147 L-37.13399966770853,-31.472728003341533 L-37.054691643362,-31.571148111641243 L-36.97135883447313,-31.66711165067409 L-36.884014873562855,-31.7602108242938 L-36.79268742652267,-31.85000868069485 L-36.69742013665099,-31.93603693829579 L-36.59866822243021,-32.017484154315476 L-36.497209891069105,-32.093407444899945 L-36.393571937883436,-32.16320539334759 L-36.28830183966833,-32.2263589797706 L-36.18196313599344,-32.2824335097716 L-36.07513049999051,-32.33108057155044 L-35.96838463235616,-32.37203993615078 L-35.86230702020274,-32.40514139514054 L-35.7574746023896,-32.43030653002016 L-35.654454382967565,-32.447550407652805 L-35.55379803436906,-32.456983196010505 L-35.45603653197664,-32.45881169453034 L-35.36167486170239,-32.45334077337463 L-35.2711868422108,-32.44097471588923 L-35.18501010341788,-32.422218458553964 L-35.10342006975182,-32.39763694734888 L-35.0259358862778,-32.367546525917646 L-34.95244573689812,-32.332274131661244 " />
			<path d="M-34.95244573689811,-32.332274131661244 L-34.90923459843968,-32.30815807162813 L-34.86752036485245,-32.28228123937659 L-34.827296533892934,-32.25471361998246 L-34.788555925773444,-32.225522409434014 L-34.75129077054458,-32.194772107627244 L-34.71549279158975,-32.16252460728599 L-34.68115328544142,-32.12883927905325 L-34.64826319812542,-32.09377305299726 L-34.586793746944025,-32.01971389067113 L-34.53100769781999,-31.940756643626493 L-34.48082707717292,-31.857276485436742 L-34.43617462694057,-31.769616356108997 L-34.396975617505525,-31.678088951849713 L-34.36315954743008,-31.582978616030108 L-34.334661751893236,-31.484543158132404 L-34.31142494086352,-31.383015626625287 L-34.29340068718035,-31.278606060884545 L-34.280550883856534,-31.17150324644226 L-34.272849189053815,-31.06187649701547 L-34.27028247632289,-30.949877485932628 " />
			<path d="M5.290666868138072,-38.064449914366804 L5.2885414531745605,-37.97478898215593 L5.2821652794440475,-37.88526008305658 L5.2715321340905605,-37.79593300832779 L5.256627826186858,-37.706880667026795 L5.237430732665085,-37.61817985563901 L5.213912332019306,-37.529911998922 L5.186037731310168,-37.442163870476676 L5.153766192001879,-37.355028301559344 L5.11705166016177,-37.26860488664816 L5.07584330655263,-37.18300069427743 L5.030086082148073,-37.09833099165331 L4.979721294601139,-37.014719991564384 L4.92468721119637,-36.93230163010071 L4.864919693815585,-36.85122038369477 L4.800352871447567,-36.77163213399787 L4.730919855771916,-36.69370508910552 L4.656553505347269,-36.61762076964527 L4.577187243934121,-36.54357506824059 L4.4927559384824844,-36.471779390864185 L4.403196842314599,-36.402461888594395 L4.308027130993152,-36.33558550482356 L4.206457066915471,-36.271055637895294 L4.09875554553199,-36.209543798763086 L3.985277110915713,-36.15168888602594 L3.8664263069132208,-36.09807352202152 L3.742653896527996,-36.04922409672942 L3.614452800862187,-36.005610744866544 L3.482353809076951,-35.96764725277625 L3.3469211043248355,-35.935690892023985 L3.208747644100901,-35.910042176924506 L3.0684504269526127,-35.89094454353753 L2.9266656709817687,-35.87858394798039 L2.784043923065045,-35.87308838221839 L2.6412451112130158,-35.87452730580518 L2.4989335459807736,-35.88291099235746 L2.3577728703365706,-35.898189789860304 L2.218420950888194,-35.92025329421095 L2.081878588748121,-35.94884605101264 L1.949833042411932,-35.983372185729536 L1.822569353344219,-36.02341174433498 L1.7002270899036922,-36.06858289318631 L1.5829221369097188,-36.11851877336532 L1.4707485263469668,-36.17286648791228 L1.3637801048546891,-36.231286186697425 L1.2620720462867656,-36.293450244098246 L1.1656622176286033,-36.359042524651315 L1.0745724065570084,-36.42775773184702 L0.9888094189291328,-36.499300835235815 L0.9083660544866065,-36.57338657101449 L0.833221969060963,-36.649739011260955 L0.7633444315664661,-36.728091196986114 L0.6986889840664436,-36.808184830171356 L0.6392000131992366,-36.88977001996011 L0.5848006312279254,-36.97262215001593 L0.5352760800711612,-37.05676263978593 L0.4905144409699567,-37.142121147625176 L0.45045427427615276,-37.22857104827906 L0.41503980136154395,-37.31599341793326 L0.3842210343010795,-37.40427609815189 L0.3579538976995278,-37.49331280820938 L0.33620034337241345,-37.583002298888964 L0.318928458592033,-37.67324754082064 L0.3061125686093565,-37.76395494043153 L0.2977333341626228,-37.85503357658147 " />
			<path d="M0.2977333341626225,-37.85503357658148 L0.2937493163142831,-37.94792103969085 L0.29433128796137625,-38.041007958461755 L0.29947964799952864,-38.134202501682594 L0.309201945772634,-38.22741247698017 L0.323512971302941,-38.320544500225296 L0.34243484473383823,-38.41350314149824 L0.3659971057834523,-38.50619003983609 L0.3942368040071846,-38.598502978984015 L0.427198590667299,-38.69033491637234 L0.46493481300768486,-38.78157295754157 L0.5075420032386124,-38.872170084730506 L0.5551428035922458,-38.962072255539994 L0.6078114723898543,-39.051093097492625 L0.6656190706937439,-39.139032978710645 L0.7286329145534897,-39.22567921688718 L0.7969156510748865,-39.31080546840135 L0.8705243019544782,-39.39417110648013 L0.9495092560023342,-39.47552057836776 L1.0339131921757236,-39.554582731463164 L1.1237699146463382,-39.631070098386346 L1.2191030814237336,-39.70467813093419 L1.3199248080576247,-39.775084372886525 L1.4262341279417006,-39.84194756162305 L1.5380152907416214,-39.90490664851186 L1.6552358804698368,-39.96357972803021 L1.77784473472989,-40.017562865578256 L1.9057696466528664,-40.0664288139464 L2.0389036436345886,-40.109722279585455 L2.176386702113039,-40.14678809764694 L2.3172099875773458,-40.1770811628213 L2.4606163768270495,-40.20024714002181 L2.6058271696925353,-40.216023168002074 L2.752049224848733,-40.2242376834615 L2.898482169632403,-40.224810138582335 L3.0443256386195223,-40.217750622371014 L3.1887864957192806,-40.20315939617648 L3.3310859945412448,-40.181226353758156 L3.470466831792173,-40.152230416276126 L3.606200048459027,-40.11653887257638 L3.7375917335347224,-40.0746066751436 L3.863989485043099,-40.026975702094276 L3.9847885831196743,-39.97427399558278 L4.099437829904683,-39.91721498699302 L4.207788232635671,-39.85639268897877 L4.310539001475251,-39.79187192887597 L4.40777689422014,-39.723970437928266 L4.499553739909401,-39.653003670344454 L4.585927605394561,-39.579263921510204 L4.666961373307397,-39.50302193174945 L4.742721437725512,-39.42452837242624 L4.8132765062364635,-39.34401522534093 L4.878696497504967,-39.261697066105505 L4.9390515238514086,-39.177772261913496 L4.9944109487536235,-39.09242409385129 L5.044842509587623,-39.00582181362807 L5.090411496326709,-38.91812164433269 L5.131179977322075,-38.82946773455699 L5.167206063691793,-38.73999307495525 L5.198543204248759,-38.649820386041185 L5.225239503301909,-38.559062985754174 L5.247337054068763,-38.46782564505759 L5.264871280841053,-38.37620543956293 L5.277870283448922,-38.284292604904415 L5.286354177972929,-38.19217140331942 " />
			<path d="M5.286354177972931,-38.192171403319406 L5.289588618772624,-38.12832904152393 L5.290666868138072,-38.06444991436683 " />
			<path d="M-54.852668892901804,-11.76213555252194 L-54.854289425902046,-11.518583501086926 L-54.859142443579664,-11.262113886113863 L-54.86721034381578,-10.993992610347105 L-54.87846039350681,-10.715626421764329 L-54.89283190176267,-10.42869079557852 L-54.910221574955585,-10.135265265487742 L-54.930467447724844,-9.837985808883108 L-54.95338232763231,-9.539601257395756 L-54.979063579904256,-9.239881556893968 L-55.00658885748486,-8.950773159577665 L-55.034681551786335,-8.685783554061317 L-55.06208933639444,-8.456448384153118 L-55.08771327939071,-8.271978587993344 L-55.110704120665886,-8.138880448753401 L-55.1209911003521,-8.092941588597723 L-55.1303218115386,-8.061100325645832 L-55.13873797478256,-8.042641390238341 L-55.14262030617657,-8.038195059508114 L-55.146294982664884,-8.036813520656178 " />
			<path d="M-55.14629498266488,-8.03681352065618 L-55.151549723088955,-8.04044702903426 L-55.15635844450786,-8.050759524644029 L-55.16474291674648,-8.090122927073182 L-55.17165370562734,-8.152347788957044 L-55.17728395057868,-8.234944068440084 L-55.18539048621533,-8.451680016397097 L-55.190281324838296,-8.725836666223467 L-55.192745349978246,-9.048030069936518 L-55.193175785916644,-9.410570874347767 L-55.19164309022133,-9.807308061998556 L-55.187899234655944,-10.23284971290574 L-55.181322650855265,-10.683139593966825 L-55.170912380376954,-11.149703920887955 L-55.15531960357141,-11.618339625000257 L-55.14507003293669,-11.847622940255244 L-55.13288532025951,-12.0696692113426 L-55.11854508015149,-12.280857417760972 L-55.10208577951542,-12.474518641641659 L-55.08372778811849,-12.644432073265007 L-55.06378317782904,-12.786232303250113 L-55.04268892995245,-12.89689769569339 L-55.03187741445418,-12.9400011961014 L-55.02098969593596,-12.974844551486855 L-55.010105893529044,-13.00146970807493 L-54.99930866584146,-13.02001990586003 L-54.98868180307672,-13.030742350414549 L-54.97830871824496,-13.03399077812211 " />
			<path d="M-54.97830871824496,-13.03399077812211 L-54.971010618569885,-13.031939973910323 L-54.96390347934628,-13.026415828413871 L-54.9502002728287,-13.005505880936289 L-54.93723087957452,-12.97230537250562 L-54.925057020057594,-12.92777348385201 L-54.91373038706295,-12.872788673590426 L-54.903293592448875,-12.808153944060363 L-54.88522041925014,-12.652797357271835 L-54.87103386875353,-12.466787480943886 L-54.8608466902825,-12.254262947655855 L-54.854716149563146,-12.018524248553462 L-54.852668892901804,-11.762135552521967 " />
			<path d="M8.997202886234781,-27.11277798552891 L8.535420337508747,-23.881554099823344 " />
			<path d="M28.5195430024239,-14.042052280870214 L8.535420337508745,-23.881554099823347 " />
			<path d="M-21.996890507117417,-18.432335106898485 L-22.41704792285052,-18.2996580928763 L-22.83449436276781,-18.164922542460612 L-23.249188224923046,-18.028141883149154 L-23.661088181686775,-17.889329746251477 L-24.07015318386509,-17.748499965530442 L-24.47634246479045,-17.605666575823598 L-24.87961554438436,-17.46084381164449 L-25.279932233191666,-17.31404610576408 L-25.677252636385667,-17.165288087772385 L-26.071537157744004,-17.01458458262053 L-26.462746503594698,-16.86195060914332 L-26.850841686732153,-16.70740137856251 L-27.235784030302504,-16.550952292970837 L-27.61753517165809,-16.392618943797117 L-27.99605706618061,-16.23241711025242 L-28.371311991072567,-16.070362757757536 L-28.743262549116665,-15.906472036351897 L-29.111871672402778,-15.740761279084072 L-29.47710262602198,-15.573247000384104 L-29.838919011727576,-15.403945894417632 L-30.197284771562437,-15.232874833422255 L-30.552164191452484,-15.06005086602601 L-30.903521904765853,-14.885491215548402 L-31.251322895837525,-14.709213278283904 L-31.595532503458884,-14.531234621768306 L-31.936116424331985,-14.351572983027957 L-32.273040716488204,-14.170246266812125 L-32.60627180267076,-13.987272543808658 L-32.935776473681024,-13.802670048843055 L-33.26152189168808,-13.616457179061252 L-33.58347559350124,-13.428652492096193 L-33.90160549380531,-13.239274704218388 L-34.21587988835814,-13.048342688470706 L-34.5262674571502,-12.85587547278751 L-34.83273726752591,-12.661892238098359 L-35.135258777266245,-12.466412316416518 L-35.43380183763265,-12.269455188912302 L-35.7283366963715,-12.071040483971654 L-36.01883400067918,-11.871187975240023 L-36.30526480012734,-11.669917579651727 L-36.587600549548085,-11.467249355445102 L-36.865813111878644,-11.26320350016351 L-37.13987476096553,-11.057800348642498 L-37.40975818432765,-10.851060370983275 L-37.67543648587822,-10.643004170512677 L-37.93688318860518,-10.433652481729903 L-38.194072237209845,-10.223026168240121 L-38.44697800070352,-10.011146220675293 L-38.69557527496185,-9.798033754602223 L-38.93983928523662,-9.583710008418246 L-39.17974568862475,-9.36819634123468 L-39.41527057649425,-9.15151423074816 L-39.646390476866955,-8.933685271100243 L-39.87308235675764,-8.714731170725374 L-40.09532362446951,-8.494673750187449 L-40.313092131845586,-8.27353494000524 L-40.526366176476,-8.051336778466812 L-40.73512450386078,-7.828101409433259 L-40.93934630952806,-7.603851080131847 L-41.13901124110738,-7.378608138938956 L-41.334099400358014,-7.152395033152816 L-41.52459134515197,-6.925234306756479 L-41.710468091411535,-6.697148598171159 L-41.89171111500116,-6.468160638000169 " />
			<path d="M-41.89171111500221,-6.468160637999828 L-14.377407378692945,7.0789460426423 " />
			<path d="M8.535420337508745,-23.881554099823344 L8.535420337508745,-45.641261094285575 " />
			<path d="M-30.21382849425644,-28.80807849023079 L-30.214971618699526,-28.73062054895529 L-30.218399562642713,-28.652209757349233 L-30.224108039715123,-28.572944161862416 L-30.232089911920834,-28.49292287780881 L-30.242335198564376,-28.412245965430742 L-30.2548310887308,-28.33101430478155 L-30.2695619573047,-28.2493294695831 L-30.286509384508175,-28.16729360021593 L-30.305652178933308,-28.085009276000864 L-30.326966404040313,-28.002579386931703 L-30.35042540808829,-27.920107005019524 L-30.375999857461093,-27.837695255409308 L-30.403657773346684,-27.75544718743018 L-30.433364571724088,-27.673465645740407 L-30.465083106607963,-27.591853141728382 L-30.498773716496697,-27.510711725330253 L-30.571900238345613,-27.350247282963863 L-30.65237849604254,-27.1928746597662 L-30.739806088813445,-27.039380737401956 L-30.833745868389816,-26.890533003574493 L-30.883012252648633,-26.81808504754162 L-30.933728124801576,-26.747075714496876 L-30.985830068689825,-26.677593795955634 L-31.039252934982265,-26.609726173523068 L-31.093929922639514,-26.543557710255644 L-31.149792662443314,-26.479171144546626 L-31.206771302486782,-26.416646986668297 L-31.264794595518662,-26.356063418100284 L-31.32378998803235,-26.297496193769845 L-31.383683710988244,-26.24101854732636 L-31.444400872056093,-26.18670109956848 L-31.50586554926186,-26.134611770138466 L-31.56800088592211,-26.084815692594056 L-31.63072918674719,-26.037375132964165 L-31.69397201499297,-25.99234941189016 L-31.757650290539768,-25.94979483045012 L-31.821684388775736,-25.909764599758837 L-31.885994240161093,-25.87230877443154 L-31.950499430348703,-25.837474189994595 L-32.01511930073581,-25.805304404321404 L-32.079773049321226,-25.77583964316676 L-32.144379831741745,-25.749116749867728 L-32.20885886236162,-25.725169139274012 L-32.27312951528857,-25.704026755965327 L-32.33711142519001,-25.685716036808092 L-32.4007245877835,-25.670259877898243 L-32.463889459875766,-25.657677605931468 L-32.526527058825074,-25.64798495403674 L-32.58855906130278,-25.641194042103265 L-32.64990790123039,-25.637313361625555 L-32.710496866769766,-25.636347765085464 L-32.770250196245165,-25.638298459884556 L-32.82909317287719,-25.643163006834353 L-32.88695221821017,-25.650935323206333 L-32.94375498411617,-25.66160569033791 L-32.99943044326053,-25.675160765784838 L-33.05390897791592,-25.69158360000488 L-33.107122467013745,-25.71085365755185 L-33.159004371324144,-25.732946842753574 L-33.20948981665795,-25.75783552984159 " />
			<path d="M-33.20948981665795,-25.757835529841593 L-33.27713601994199,-25.796957922610513 L-33.34180718489815,-25.84131198302271 L-33.40334751302553,-25.89079085826169 L-33.46160874828337,-25.94527534938316 L-33.516450534252854,-26.00463419847574 L-33.56774075226801,-26.068724404872736 L-33.61535583970114,-26.137391569653307 L-33.65918108763604,-26.210470267602958 L-33.69911091721179,-26.28778444573739 L-33.7350491339715,-26.36914784742956 L-33.76690915960318,-26.454364461118193 L-33.794614240514484,-26.54322899251682 L-33.81809763273881,-26.635527359185694 L-33.83730276272739,-26.731037206275122 L-33.8521833636399,-26.829528442197795 L-33.862703586805374,-26.930763792939555 L-33.868838088084736,-27.034499373673302 L-33.87057208892708,-27.140485276298886 L-33.8679014119725,-27.248466171493607 L-33.860832491115694,-27.358181923822933 L-33.84938235600619,-27.46936821842954 L-33.833578591022366,-27.581757197790953 L-33.81345926881831,-27.695078107011778 L-33.789072858603475,-27.809057946095955 L-33.76047810937605,-27.923422127627685 L-33.72774390839154,-28.037895138276536 L-33.69094911520728,-28.1522012025332 L-33.650182371702904,-28.26606494707686 L-33.605541888534255,-28.37921206417362 L-33.55713520853533,-28.491369972507876 L-33.50507894763817,-28.60226847385458 L-33.44949851393488,-28.711640404010424 L-33.3905278055585,-28.819222276415818 L-33.32830888811075,-28.924754916917074 L-33.26299165241348,-29.027984088139657 L-33.19473345340862,-29.12866110196829 L-33.12369873107626,-29.226543418658387 L-33.050058614284424,-29.32139523113557 L-32.97399050852457,-29.412988033075536 L-32.895677668526254,-29.501101169395838 L-32.815308756780425,-29.585522367833274 L-32.73307738903497,-29.666048250326387 L-32.64918166785739,-29.742484822971022 L-32.563823705388415,-29.81464794336862 L-32.477209136436095,-29.882363764241397 L-32.38954662308359,-29.94546915224567 L-32.30104735200388,-30.003812080974363 L-32.21192452569262,-30.05725199720192 L-32.12239284884465,-30.10566015948937 L-32.03266801111152,-30.148919948333713 L-31.94296616748631,-30.186927147114503 L-31.853503417567268,-30.219590193160847 L-31.764495284954954,-30.246830398333877 L-31.676156198037027,-30.26858213859336 L-31.58869897341146,-30.284793012091793 L-31.502334303192725,-30.29542396541501 L-31.41727024743603,-30.300449387665296 L-31.333711732902426,-30.299857172160273 L-31.251860059372287,-30.293648745598965 L-31.1719124146965,-30.281839064624748 L-31.094061399753684,-30.264456579793503 L-31.018494564457775,-30.24154316703371 L-30.945393955933877,-30.213154026763682 L-30.87493567995079,-30.17935755090894 " />
			<path d="M-30.874935679950777,-30.179357550908932 L-30.799477119818825,-30.135256697780477 L-30.727762832568917,-30.084627853753524 L-30.66000888817994,-30.02762355988621 L-30.596419424403173,-29.964415566007528 L-30.53718603170994,-29.895194313247508 L-30.482487176043357,-29.820168360251788 L-30.43248766111328,-29.73956375480947 L-30.38733813185463,-29.65362335278741 L-30.347174620545033,-29.562606086422985 L-30.312118136949405,-29.466786184179952 L-30.282274303726215,-29.366452344517825 L-30.257733038194065,-29.261906866064233 L-30.238568281417255,-29.153464736810946 L-30.224837775426714,-29.04145268507775 L-30.216582889247405,-28.926208195103573 L-30.21382849425644,-28.80807849023079 " />
			<path d="M5.488472195134875,-35.13752924144772 L5.485573941258824,-35.03270609453785 L5.47688590325024,-34.92803115911827 L5.462428236369785,-34.823747269141414 L5.442234480761312,-34.720096351378736 L5.416351483642536,-34.61731886417811 L5.384839290624816,-34.515653239627774 L5.347771006414163,-34.41533533042099 L5.305232625216627,-34.31659786270461 L5.257322831241518,-34.21966989618089 L5.204152769765255,-34.12477629271497 L5.145845789286959,-34.032137194680935 L5.082537155373954,-33.94196751425652 L5.014373736861028,-33.8544764348513 L4.941513665131424,-33.76986692582493 L4.864125967270013,-33.68833527162133 L4.782390173939664,-33.610070616411065 L4.696495902890513,-33.53525452529837 L4.6066424190683355,-33.464060563110756 L4.513038172342522,-33.39665389174834 L4.415900313926075,-33.33319088702699 L4.315454192609474,-33.2738187759042 L4.2119328319771006,-33.21867529492936 L4.105576389819002,-33.16788837071049 L3.996631600992123,-33.121575823139175 L3.885351205023477,-33.0798450920617 L3.7719933597831723,-33.04279298803092 L3.6568210425874987,-33.01050546771669 L3.5401014401214406,-32.98305743449623 L3.4221053285959417,-32.960512564686766 L3.3031064455778707,-32.94292315982373 L3.183380854949979,-32.930330025327116 L3.0632063064740733,-32.92276237583758 L2.9428615914431377,-32.92023776744177 L2.8226258959172217,-32.92276205694421 L2.702778153043515,-32.93032938828017 L2.58359639596315,-32.94292220610109 L2.4653571128059175,-32.96051129650096 L2.3483346052692315,-32.9830558547893 L2.2328003522693702,-33.01050358015338 L2.119022380141245,-33.04279079699016 L2.0072646408477706,-33.079842602626464 L1.8977863996413145,-33.12157304108466 L1.7908416335977768,-33.16788530249075 L1.6866784424186436,-33.218671947662315 L1.5855384728678796,-33.27381515735514 L1.4876563581789026,-33.33318700559051 L1.393259173732151,-33.39664975642896 L1.3025659102660105,-33.46405618350193 L1.2157869658431935,-33.5352499115603 L1.133123657751147,-33.610065779247094 L1.0547677554688306,-33.68833022225313 L0.9809010357833188,-33.76986167596646 L0.91169486108832,-33.85447099668164 L0.8473097818428994,-33.941961900391604 L0.787895164112661,-34.03213141814429 L0.7335888430574555,-34.124770366907505 L0.6845168031694757,-34.21966383484981 L0.6407928860035534,-34.31659167991151 L0.6025185260776929,-34.415329040509235 L0.5697825155565179,-34.51564685718926 L0.5426607982635416,-34.61731240401937 L0.5212162935001317,-34.7200898284866 L0.5054987500798758,-34.823740698648244 L0.4955446309169971,-34.928024556266855 " />
			<path d="M0.49554463091699663,-34.92802455626687 L0.4913538893973399,-35.0346955118796 L0.4931822560399164,-35.141515585137526 L0.5010253261493389,-35.24822743712783 L0.5148642050827408,-35.35457398965222 L0.53466555376863,-35.460299044550815 L0.5603816690236276,-35.56514790090593 L0.5919505984736202,-35.66886796863893 L0.6292962898024501,-35.77120937702185 L0.6723287739686108,-35.871925576637835 L0.7209443819485437,-35.970773933340325 L0.7750259944844031,-36.06751631277993 L0.8344433242345985,-36.16191965409094 L0.8990532296474192,-36.25375653135538 L0.9687000598015669,-36.34280570149196 L1.0432160293828574,-36.42885263725005 L1.1224216228937411,-36.51169004402457 L1.2061260271218612,-36.591118359246906 L1.2941275908257912,-36.66694623314859 L1.3862143105305407,-36.73899098973966 L1.482164341262498,-36.8070790668911 L1.5817465309933996,-36.87104643446125 L1.684720977505814,-36.93073898945875 L1.7908396063385972,-36.98601292729017 L1.8998467684199958,-37.03673508819784 L2.011479855948657,-37.08278327805339 L2.1254699350388195,-37.12404656273412 L2.241542393605605,-37.16042553537301 L2.3594176029295797,-37.19183255583854 L2.4788115913068323,-37.21819196186747 L2.599436728161682,-37.239440251341875 L2.721002416973932,-37.25552623527128 L2.843215795351338,-37.266411161111435 L2.9657824405607602,-37.27206880612258 L3.08840707881832,-37.272485540542334 L3.2107942966298046,-37.267660360420976 L3.332649252467654,-37.25760489004006 L3.453678387070019,-37.24234335390848 L3.5735901306507407,-37.221912518403535 L3.6920956053165064,-37.19636160319749 L3.808909320998993,-37.16575216268306 L3.9237498632254484,-37.130157937683535 L4.036340571070805,-37.0896646778046 L4.146410203658083,-37.044369934856114 L4.253693593601419,-36.99438282784118 L4.357932285817524,-36.93982378007895 L4.458875160166615,-36.8808242290943 L4.556279036422836,-36.817526309973296 L4.649909260116715,-36.750082512947344 L4.739540267838332,-36.67865531603086 L4.824956130639339,-36.6034167935975 L4.9059510742247,-36.52454820183792 L4.982329974681002,-36.442239542097745 L5.053908828547042,-36.356689103147666 L5.1205151960942885,-36.26810298348846 L5.181988616749293,-36.17669459484161 L5.238180995657261,-36.08268414802179 L5.2889569604555335,-35.98629812242974 L5.334194187397461,-35.88776872044352 L5.373783696041027,-35.787333308022674 L5.40763011179228,-35.68523384287284 L5.435651895671075,-35.5817162915484 L5.457781540745635,-35.47703003689758 L5.473965734762643,-35.371427277277256 L5.484165488581146,-35.265162418985085 " />
			<path d="M5.484165488581147,-35.265162418985064 L5.487395286421597,-35.201390998141726 L5.488472195134875,-35.137529241447716 " />
			<path d="M-48.91858950286159,-11.562654212600973 L-48.92003555390807,-11.269255975355875 L-48.92434914830049,-10.959984147137133 L-48.931457026886896,-10.640091190230557 L-48.94123847429394,-10.315009948944429 L-48.95352736907467,-9.99026138187855 L-48.96811500500213,-9.671360797720137 L-48.98475363559392,-9.363724186993974 L-49.003160681669854,-9.072576240564668 L-49.023023530484494,-8.802861617042156 L-49.04400484492929,-8.559160966064475 L-49.065748292636485,-8.345613133661214 L-49.0878845976856,-8.165844870908849 L-49.11003781213437,-8.022909239658283 L-49.12100302296258,-7.966037899754909 L-49.131831700862804,-7.91923376140983 L-49.142477820204554,-7.882695758416842 L-49.152896131294426,-7.856579189939868 L-49.16304235270299,-7.84099506043774 L-49.16799990300474,-7.837175117357642 L-49.17287335947613,-7.836009607856811 " />
			<path d="M-49.17287335947613,-7.836009607856811 L-49.1800408451483,-7.839263612158943 L-49.186988716950424,-7.8485290961470096 L-49.19370023685079,-7.8637837384585225 L-49.200159236210084,-7.884990789324004 L-49.2122580779549,-7.945043541350509 L-49.22316872372496,-8.02810901139634 L-49.232786098037145,-8.133387233576748 L-49.241017580319436,-8.259864321061205 L-49.247783896897666,-8.406322230357828 L-49.253019884444335,-8.571350491738052 L-49.25871439428311,-8.950597284571227 L-49.25788227301617,-9.3830304579962 L-49.25055549859715,-9.852031847669574 L-49.237015634858075,-10.339577993205204 L-49.21778301116918,-10.826932769649188 L-49.19359672647306,-11.295367406254488 L-49.165386246126765,-11.726880222637533 L-49.13423568306938,-12.1048884232599 L-49.117928786184244,-12.269192494219043 L-49.10134213596975,-12.414865364961116 L-49.08463547093465,-12.540504126107983 L-49.06796968539602,-12.644898807708667 L-49.05150527997905,-12.727044031911417 L-49.03540081590825,-12.78614869530201 L-49.02753220554175,-12.80687410603461 L-49.01981138797622,-12.821643587662104 L-49.01225696333742,-12.8304215592096 L-49.00488713089601,-12.833186873774784 " />
			<path d="M-49.00488713089601,-12.833186873774784 L-49.00004985108459,-12.831664962621241 L-48.99530911446821,-12.827429174061093 L-48.986137769721296,-12.810837323493685 L-48.977412956451275,-12.783483432302575 L-48.969172593773266,-12.74548638387438 L-48.961452495320344,-12.697011318070444 L-48.95428621359304,-12.638268913508618 L-48.94173714017598,-12.491046808616073 L-48.93174329577183,-12.306376670090398 L-48.9244782295331,-12.087465406578431 L-48.92006810372906,-11.838114544571965 L-48.91858950286159,-11.562654212600979 " />
			<path d="M-41.89171111500164,-28.22786763246178 L-41.89171111500164,-6.468160637999548 " />
			<path d="M-34.9524457275118,-32.33227410399686 L-30.874935679950777,-30.179357550908932 " />
			<path d="M-37.286999864462196,-27.91075208305794 L-33.20948981665796,-25.757835529841593 " />
			<path d="M5.286354190433357,-38.192171446881 L5.484165488581151,-35.265162418985064 " />
			<path d="M0.2977333328335759,-37.85503358321025 L0.4955446309169946,-34.92802455626687 " />
			<path d="M-54.9783087240745,-13.033990749995255 L-49.004887130896,-12.833186873774784 " />
			<path d="M-55.146294981006015,-8.036813485030345 L-49.17287335947613,-7.836009607856808 " />

       </g>

       <!-- solid lines -->
       <g  stroke="rgb(0,0,0)" fill="none">
			<path d="M-55.066312402701314,4.429916471640789 L-55.10098637935686,4.171066209750435 L-55.131042567765554,3.9120760146495606 L-55.15647865033188,3.652965856751912 L-55.17729266571094,3.3937557157213956 L-55.19348300895975,3.1344655789315463 L-55.205048431660956,2.8751154399242713 L-55.211988042019115,2.6157252968681224 L-55.21430130492945,2.3563151510166045 " />
			<path d="M-55.066312402701314,4.429916471640782 L-55.066312402701314,-17.329790522821447 " />
			<path d="M8.997202886234781,-45.41389508456188 L8.997202886234781,-48.87248497999114 " />
			<path d="M8.997202886234787,-48.87248497999114 L8.229534875022377,-48.8966473328179 L7.46130080961191,-48.91596195764255 L6.6926269625945105,-48.93042567977156 L5.923639678847001,-48.94003612184136 L5.154465354765007,-48.94479170420915 L4.385230417487474,-48.9446916452125 L3.616061304116138,-48.93973596129783 L2.847084440933476,-48.929925467017725 L2.0784262226222987,-48.91526177489706 L1.310212991490606,-48.895747295167936 L0.5425710167050504,-48.8713852353735 L-0.2243735264636415,-48.84217959984076 L-0.9904945773796854,-48.808135189022394 L-1.7556662107625254,-48.769257598707696 L-2.519762657384887,-48.725553219102856 L-3.282658324745042,-48.67702923378055 L-4.044227817710172,-48.62369361849926 L-4.804345959127217,-48.56555513989229 L-5.562887810397901,-48.50262335402681 L-6.31972869201461,-48.43490860483318 L-7.074744204053547,-48.362422022404715 L-7.827810246622065,-48.28517552116826 L-8.578803040256666,-48.20318179792589 L-9.32759914626823,-48.11645432976793 L-10.074075487031358,-48.025007371857775 L-10.818109366214294,-47.92885595508879 L-11.55957848894619,-47.82801588361376 L-12.298360981918439,-47.72250373224715 L-13.03433541341657,-47.6123368437408 L-13.76738081327974,-47.49753332593332 L-14.497376692784261,-47.37811204877375 L-15.22420306444798,-47.254092641219955 L-15.947740461752325,-47.125495488012255 L-16.6678699587787,-46.99234172632289 L-17.384473189755997,-46.854653242281685 L-18.097432368516145,-46.712452667378756 L-18.80663030785419,-46.56576337474458 L-19.511950438790105,-46.41460947530824 L-20.213276829728958,-46.25901581383437 L-20.910494205516247,-46.09900796483947 L-21.60348796638532,-45.93461222838835 L-22.292144206793875,-45.765855625771195 L-22.976349734146385,-45.59276589506214 L-23.655992087399152,-45.41537148656013 L-24.330959555545288,-45.233701558112486 L-25.001141195976356,-45.04778597032242 L-25.66642685271766,-44.857655281640874 L-26.326707174534317,-44.663340743343724 L-26.981873632905106,-44.464874294395074 L-27.63181853986092,-44.26228855619753 L-28.276435065685153,-44.05561682723037 L-28.91561725647303,-43.84489307757627 L-29.549260051547034,-43.63015194333779 L-30.177259300725364,-43.41142872094432 L-30.799511781440852,-43.18875936135048 L-31.415915215707425,-42.96218046412696 L-32.02636828693117,-42.731729271444806 L-32.63077065656353,-42.49744366195394 L-33.229022980593726,-42.25936214455717 L-33.82102692587761,-42.01752385208063 L-34.406685186300436,-41.77196853484156 L-34.98590149877082,-41.52273655411469 L-35.55858065904322,-41.26986887549813 L-36.124628537366405,-41.013407062180065 L-36.68395209395538,-40.75339326810695 L-37.236459394284005,-40.48987023105491 L-37.78205962419609,-40.222881265605025 L-38.32066310483218,-39.95247025602382 L-38.85218130736997,-39.678681649050084 L-39.376526867575464,-39.40156044658933 L-39.893613600162816,-39.12115219831693 L-40.40335651296038,-38.83750299419121 L-40.905671820880634,-38.55065945687785 L-41.400476959691716,-38.26066873408655 L-41.88769059958833,-37.96757849082152 L-42.36723265855965,-37.671436901546926 L-42.83902431555224,-37.37229264226854 L-43.302988023425605,-37.07019488253304 L-43.759047521698456,-36.765193277346114 L-44.2071278490834,-36.45733795901084 L-44.64715535580817,-36.1466795288875 L-45.07905771572124,-35.83326904907641 L-45.50276393817984,-35.51715803402499 L-45.91820437971852,-35.19839844206047 L-46.32531075549629,-34.87704266684962 L-46.724016150520384,-34.553143528786926 L-47.114255030644905,-34.22675426631269 L-47.495963253342545,-33.89792852716232 L-47.86907807824741,-33.566720359548455 L-48.23353817746758,-33.23318420327715 L-48.589283645665425,-32.89737488079975 L-48.93625600990401,-32.55934758820191 L-49.2743982392582,-32.219157886131114 L-49.60365475418866,-31.876861690664356 L-49.92397143567728,-31.532515264117357 L-50.08076082824308,-31.35959088856243 L-50.235295634122636,-31.186175205796875 L-50.38756950313189,-31.0122753418626 L-50.53757617799383,-30.8378984426976 L-50.68530949459551,-30.663051673842318 L-50.83076338224143,-30.48774222014524 L-50.97393186390298,-30.311977285467577 L-51.11480905646406,-30.135764092387276 L-51.25338917096276,-29.959109881902286 L-51.38966651282933,-29.78202191313291 L-51.52363548212014,-29.604507463023566 L-51.6552905737478,-29.426573826043764 L-51.78462637770737,-29.248228313888347 L-51.91163757929869,-29.069478255177025 L-52.03631895934474,-28.890330995153263 L-52.15866539440615,-28.7107938953824 L-52.27867185699171,-28.530874333449173 L-52.396333415764914,-28.35057970265459 L-52.511645235746705,-28.16991741171204 L-52.624602578514086,-27.9888948844429 L-52.73520080239482,-27.807519559471515 L-52.8434353626582,-27.62579888991944 L-52.94930181170181,-27.443740343099233 L-53.05279579923426,-27.261351400207587 L-53.153913072453946,-27.078639556017926 L-53.25264947622385,-26.89561231857241 L-53.349000953242225,-26.712277208873417 L-53.44296354420937,-26.528641760574494 L-53.53453338799029,-26.344713519670776 L-53.62370672177338,-26.16050004418893 L-53.710479881225034,-25.97600890387652 L-53.794849300640244,-25.791247679890997 L-53.876811513089095,-25.606223964488187 L-53.95636315055925,-25.420945360710245 L-54.03350094409431,-25.23541948207328 L-54.10822172392821,-25.04965395225448 L-54.18052241961542,-24.86365640477883 L-54.25040006015714,-24.67743448270548 L-54.31785177412335,-24.490995838313605 L-54.38287478977086,-24.30434813278799 L-54.445466435157144,-24.117499035904245 L-54.50562413825021,-23.93045622571357 L-54.56334542703422,-23.743227388227304 L-54.61862792961111,-23.55582021710105 L-54.67146937429804,-23.368242413318562 L-54.721867589720766,-23.18050168487526 L-54.769820504902825,-22.992605746461518 L-54.81532614935069,-22.804562319145624 L-54.85838265313469,-22.61637913005652 L-54.89898824696588,-22.428063912066303 L-54.937141262268746,-22.2396244034724 L-54.972840131249754,-22.051068347679625 L-55.00608338696178,-21.86240349288201 L-55.036869663364406,-21.67363759174435 L-55.06519769538003,-21.484778401083666 L-55.091066318945856,-21.295833681550477 L-55.11447447106176,-21.10681119730985 L-55.135421189833906,-20.9177187157224 L-55.15390561451435,-20.72856400702508 L-55.16992698553634,-20.539354844011903 L-55.18348464454557,-20.35009900171451 L-55.19457803442724,-20.16080425708275 L-55.20320669932889,-19.971478388665005 L-55.209370284679224,-19.782129176288613 L-55.21306853720259,-19.592764400740208 L-55.21430130492945,-19.403391843446034 " />
			<path d="M-55.21430130492945,-19.403391843445903 L-55.211988042019115,-19.14398169759412 L-55.205048431660956,-18.88459155453796 L-55.19348300895975,-18.62524141553067 L-55.17729266571094,-18.365951278740848 L-55.15647865033188,-18.106741137710358 L-55.131042567765554,-17.847630979812696 L-55.10098637935686,-17.58864078471181 L-55.066312402701335,-17.329790522821586 " />
			<path d="M-48.50366566733906,4.202550461917085 L-55.06631240270132,4.429916471640782 " />
			<path d="M14.377407378692947,-7.078946042642299 L28.5195430024239,-14.042052280870214 " />
			<path d="M-13.136896357616305,-20.626052723284424 L14.37740737869295,-7.078946042642296 " />
			<path d="M-13.136896357616795,-20.626052723283955 L-13.715088402313395,-20.51471125611508 L-14.290428044903784,-20.399843594976655 L-14.862826581053415,-20.281467449858898 L-15.432195759879683,-20.159601071680747 L-15.998447797558239,-20.034263249475988 L-16.561495390857253,-19.905473307496404 L-17.1212517305976,-19.773251102232415 L-17.677630515036892,-19.63761701935165 L-18.2305459631752,-19.498591970555964 L-18.77991282798054,-19.356197390357302 L-19.325646409532112,-19.21045523277298 L-19.867662568079066,-19.061387967940895 L-20.40587773701288,-18.909018578655132 L-20.9402089357515,-18.75337055682253 L-21.470573782533094,-18.594467899840765 L-21.99689050711723,-18.432335106898545 " />
			<path d="M-14.377407378692947,7.078946042642299 L-28.5195430024239,14.042052280870214 " />
			<path d="M-28.5195430024239,14.042052280870214 L-48.50366566733906,4.202550461917085 " />
			<path d="M-48.50366566733906,-17.557156532545147 L-55.06631240270132,-17.329790522821447 " />
			<path d="M-48.50366566733906,4.202550461917085 L-48.50366566733906,-17.557156532545147 " />
			<path d="M8.997202886234781,-48.87248497999114 L8.535420337508747,-45.641261094285575 " />
			<path d="M28.5195430024239,-35.801759275332444 L8.535420337508745,-45.641261094285575 " />
			<path d="M14.377407378692947,-28.83865303710453 L28.5195430024239,-35.80175927533245 " />
			<path d="M-13.136896357616305,-42.38575971774666 L14.37740737869295,-28.83865303710453 " />
			<path d="M-13.136896357616795,-42.38575971774619 L-13.74621880061451,-42.26830758487332 L-14.352367258166566,-42.146939348348674 L-14.955237914443732,-42.02167579506688 L-15.554727515010029,-41.8925383790785 L-16.150733384507262,-41.75954921791558 L-16.743153444240345,-41.622731088803505 L-17.33188622966047,-41.48210742475997 L-17.91683090774306,-41.33770231058155 L-18.49788729425757,-41.18954047871867 L-19.074955870926182,-41.037647305039634 L-19.64793780246842,-40.88204880448449 L-20.216734953528793,-40.7227716266094 L-20.78124990548456,-40.559843051022355 L-21.341385973130784,-40.39329098271093 L-21.897047221239657,-40.223143947262976 L-22.44813848099152,-40.049431085981034 L-22.994565366274518,-39.87218215089122 L-23.536234289850245,-39.691427499647574 L-24.073052479382508,-39.50719809033271 L-24.60492799332662,-39.31952547615548 L-25.131769736676347,-39.12844180004694 L-25.653487476565818,-38.9339797891551 L-26.169991857723858,-38.73617274923974 L-26.681194417777988,-38.53505455896806 L-27.187007602405462,-38.33065966411229 L-27.687344780328836,-38.123023071650074 L-28.182120258153404,-37.91218034376878 L-28.671249295044014,-37.69816759177474 L-29.154648117238743,-37.48102146990843 L-29.632233932396964,-37.26077916906658 L-30.10392494377924,-37.037478410432556 L-30.569640364256813,-36.811157439015695 L-31.029300430148098,-36.58185501710109 L-31.482826414879888,-36.34961041761071 L-31.930140642471017,-36.114463417377095 L-32.37116650083595,-35.87645429033068 L-32.80582845490628,-35.635623800602076 L-33.23405205956775,-35.39201319554033 L-33.655763972410455,-35.14566419864841 L-34.070891966290404,-34.896619002437205 L-34.4793649416999,-34.644920261199154 L-34.88111293894485,-34.390611083702744 L-35.27606715012686,-34.133735025809294 L-35.66415993092806,-33.87433608301302 L-36.045324812196604,-33.6124586829059 L-36.419496511330955,-33.34814767756849 L-36.786610943460936,-33.08144833588807 L-37.14660523242356,-32.812406335805356 L-37.49941772153199,-32.541067756491216 L-37.84498798413552,-32.26747907045458 L-38.183256833968926,-31.991687135583078 L-38.51416633528938,-31.713739187117632 L-38.83765981279918,-31.433682829562358 L-39.153681861352624,-31.151566028531352 L-39.462178355445246,-30.867437102533508 L-39.763096458484064,-30.581344714696968 L-40.05638463183689,-30.29333786443452 L-40.34199264365946,-30.003465879051408 L-40.6198715774987,-29.711778405296965 L-40.88997384067069,-29.418325400861573 L-41.152253172411946,-29.12315712582033 L-41.40666465180255,-28.82632413402495 L-41.653164705459844,-28.52787726444533 L-41.89171111500116,-28.227867632462406 " />
			<path d="M-41.89171111500221,-28.227867632462058 L-14.377407378692945,-14.680760951819932 " />
			<path d="M-14.377407378692947,-14.680760951819934 L-28.5195430024239,-7.717654713592019 " />
			<path d="M-28.5195430024239,-7.717654713592019 L-48.50366566733906,-17.55715653254515 " />
			<path d="M28.5195430024239,-14.042052280870214 L28.5195430024239,-35.801759275332444 " />
			<path d="M14.377407378692947,-7.078946042642299 L14.377407378692947,-28.838653037104528 " />
			<path d="M-13.136896357615738,-42.38575971774638 L-13.136896357615738,-20.62605272328415 " />
			<path d="M-14.377407378692947,7.078946042642299 L-14.377407378692947,-14.680760951819932 " />
			<path d="M-28.5195430024239,14.042052280870214 L-28.5195430024239,-7.717654713592017 " />
			<path d="M-55.21430130492946,-19.4033918434459 L-55.21430130492946,2.3563151510163336 " />

       </g>
    </g>
    
</svg>
